<?xml version="1.0" standalone="no"?>
<!DOCTYPE svg PUBLIC "-//W3C//DTD SVG 1.1//EN" "http://www.w3.org/Graphics/SVG/1.1/DTD/svg11.dtd" >
<svg xmlns="http://www.w3.org/2000/svg" xmlns:xlink="http://www.w3.org/1999/xlink" version="1.1">
<metadata>
Created by FontForge 20201107 at Sun Apr 21 04:13:31 2024
 By 
Copyright (C) 2015 TypoBrand LLC. www.atftype.com.
</metadata>
<defs>
<font id="PosterGothicCondATF-Bold" horiz-adv-x="1071" >
  <font-face 
    font-family="Poster Gothic Cond ATF"
    font-weight="700"
    font-stretch="condensed"
    units-per-em="2048"
    panose-1="2 11 8 6 3 2 2 4 2 4"
    ascent="1638"
    descent="-410"
    x-height="1464"
    cap-height="1464"
    bbox="-104 -526 2421 2060"
    underline-thickness="102"
    underline-position="-204"
    unicode-range="U+0020-FB02"
  />
<missing-glyph horiz-adv-x="944" 
d="M0 1464h944v-1464h-944v1464zM283 242h379v981h-379v-981z" />
    <glyph glyph-name=".notdef" horiz-adv-x="944" 
d="M0 1464h944v-1464h-944v1464zM283 242h379v981h-379v-981z" />
    <glyph glyph-name=".null" horiz-adv-x="0" 
 />
    <glyph glyph-name="nonmarkingreturn" horiz-adv-x="682" 
 />
    <glyph glyph-name="space" unicode=" " horiz-adv-x="389" 
 />
    <glyph glyph-name="exclam" unicode="!" horiz-adv-x="550" 
d="M391 494h-231l-64 970h359zM115 72v194q0 32 14.5 52t42.5 20h207q28 0 43.5 -20t15.5 -52v-194q0 -32 -15.5 -52t-43.5 -20h-207q-28 0 -42.5 20t-14.5 52z" />
    <glyph glyph-name="quotedbl" unicode="&#x22;" horiz-adv-x="772" 
d="M96 1464h269l-70 -557h-199v557zM440 1464h271l-70 -557h-201v557z" />
    <glyph glyph-name="numbersign" unicode="#" horiz-adv-x="1116" 
d="M823 1464h185l-74 -366h119v-211h-160l-62 -309h123v-211h-166l-71 -367h-182l71 367h-239l-72 -367h-184l71 367h-121v211h164l60 309h-127v211h170l71 366h185l-72 -366h240zM469 887l-59 -309h239l60 309h-240z" />
    <glyph glyph-name="dollar" unicode="$" horiz-adv-x="1067" 
d="M643 -201h-217v242h-96q-131 0 -189.5 66.5t-58.5 177.5v127l266 53v-111q0 -28 19 -47.5t47 -19.5h207q26 0 44.5 19.5t18.5 47.5v162q0 52 -19.5 71.5t-72.5 22.5l-223 11q-248 13 -248 245v314q0 243 248 243h57v207h217v-207h55q132 0 191 -66t59 -177v-115l-266 -53
v106q0 28 -18.5 48t-45.5 20h-161q-28 0 -47 -20t-19 -48v-141q0 -54 20 -73.5t74 -22.5l203 -13q135 -7 204 -72.5t69 -172.5v-338q0 -111 -59.5 -177.5t-190.5 -66.5h-68v-242z" />
    <glyph glyph-name="percent" unicode="%" horiz-adv-x="1740" 
d="M522 616h-270q-92 0 -133 46.5t-41 123.5v508q0 77 41 123.5t133 46.5h270q91 0 132.5 -46.5t41.5 -123.5v-508q0 -77 -41.5 -123.5t-132.5 -46.5zM1485 0h-266q-94 0 -135.5 46.5t-41.5 123.5v508q0 77 41.5 123.5t135.5 46.5h266q92 0 134 -46.5t42 -123.5v-508
q0 -77 -42 -123.5t-134 -46.5zM545 0l440 1464h213l-440 -1464h-213zM1436 651h-170v-454h170v454zM473 1266h-170v-455h170v455z" />
    <glyph glyph-name="ampersand" unicode="&#x26;" horiz-adv-x="1196" 
d="M522 1118q0 -48 56 -141l221 -350l149 252l182 -185l-182 -307l246 -387h-317l-109 170l-37 -61q-65 -109 -188 -109h-215q-131 0 -195.5 63t-64.5 166v263q0 105 41 151l210 240l-28 49q-43 68 -43 172v162q0 82 67 140t152 58h289q83 0 151 -64t68 -155v-155l-256 -56
v135q0 24 -18 42t-42 18h-86q-23 0 -37 -15t-14 -40v-56zM506 242q49 0 72 43l57 98l-189 299l-73 -88q-33 -37 -33 -129v-164q0 -28 14.5 -43.5t38.5 -15.5h113z" />
    <glyph glyph-name="quotesingle" unicode="'" horiz-adv-x="423" 
d="M96 1464h269l-70 -557h-199v557z" />
    <glyph glyph-name="parenleft" unicode="(" horiz-adv-x="563" 
d="M545 -201h-209q-112 118 -191 356.5t-79 514.5t77 508t193 368h209q-205 -358 -205 -874q0 -526 205 -873z" />
    <glyph glyph-name="parenright" unicode=")" horiz-adv-x="563" 
d="M227 -201h-209q205 358 205 873q0 512 -205 874h209q117 -139 193 -368t76 -508q0 -275 -79 -515t-190 -356z" />
    <glyph glyph-name="asterisk" unicode="*" horiz-adv-x="770" 
d="M319 1464h127l31 -221l209 39l39 -119l-186 -96l96 -203l-98 -73l-146 157l-151 -160l-99 74l90 195l-186 100l41 121l201 -37z" />
    <glyph glyph-name="plus" unicode="+" horiz-adv-x="1042" 
d="M401 1143h244v-418h373v-223h-373v-418h-244v418h-376v223h376v418z" />
    <glyph glyph-name="comma" unicode="," horiz-adv-x="475" 
d="M397 96l-121 -327h-176l97 256h-64q-59 0 -59 71v170q0 32 15 52t44 20h205q28 0 43.5 -20t15.5 -52v-170z" />
    <glyph glyph-name="hyphen" unicode="-" horiz-adv-x="616" 
d="M102 569v250h412v-250h-412z" />
    <glyph glyph-name="period" unicode="." horiz-adv-x="479" 
d="M78 72v194q0 32 15.5 52t43.5 20h205q28 0 43.5 -20t15.5 -52v-194q0 -32 -15.5 -52t-43.5 -20h-205q-28 0 -43.5 20t-15.5 52z" />
    <glyph glyph-name="slash" unicode="/" horiz-adv-x="704" 
d="M246 -168h-211l426 1632h211z" />
    <glyph glyph-name="zero" unicode="0" horiz-adv-x="1150" 
d="M782 0h-413q-133 0 -192.5 66.5t-59.5 177.5v977q0 110 59.5 176.5t192.5 66.5h413q132 0 191 -66t59 -177v-977q0 -111 -59 -177.5t-191 -66.5zM748 1219h-349v-973h349v973z" />
    <glyph glyph-name="one" unicode="1" horiz-adv-x="626" 
d="M217 1163q1 0 -41.5 -9.5t-85.5 -19.5l-43 -10v195l395 145h60v-1464h-285v1163z" />
    <glyph glyph-name="two" unicode="2" horiz-adv-x="1036" 
d="M915 1221v-146q0 -89 -38 -145l-476 -680h301v188l265 -51v-143q0 -111 -59.5 -177.5t-190.5 -66.5h-645v190q0 63 32 113l531 748l-2 163h-254v-233l-275 53v187q0 111 59 177t191 66h312q131 0 190 -66t59 -177z" />
    <glyph glyph-name="three" unicode="3" horiz-adv-x="1064" 
d="M965 545v-301q0 -111 -59 -177.5t-191 -66.5h-383q-133 0 -192.5 66.5t-59.5 177.5v143l264 51v-196h268q29 0 48.5 19t19.5 48v252q0 30 -20 51t-48 21h-202v233h174q29 0 48 20.5t19 51.5v219q0 29 -18.5 48.5t-46.5 19.5h-226v-193l-264 53v136q0 110 59.5 176.5
t190.5 66.5h336q132 0 191 -66t59 -177v-195q0 -104 -40 -172.5t-104 -89.5v-2q76 -14 126.5 -74.5t50.5 -142.5z" />
    <glyph glyph-name="four" unicode="4" horiz-adv-x="1046" 
d="M49 326v229l563 909h240v-909h131v-229h-131v-326h-262v326h-541zM293 555h297v477z" />
    <glyph glyph-name="five" unicode="5" horiz-adv-x="1060" 
d="M385 922h330q133 0 192.5 -66.5t59.5 -177.5v-434q0 -111 -59.5 -177.5t-192.5 -66.5h-375q-132 0 -191 66.5t-59 177.5v118q271 54 275 54v-174h319v430h-559v792h795l-39 -247h-496v-295z" />
    <glyph glyph-name="six" unicode="6" horiz-adv-x="1101" 
d="M399 1223v-349h351q132 0 190.5 -66t58.5 -177v-387q0 -111 -58.5 -177.5t-190.5 -66.5h-381q-133 0 -192.5 66.5t-59.5 177.5v977q0 110 59.5 176.5t192.5 66.5h366q131 0 190.5 -66.5t59.5 -176.5v-109l-276 -53v164h-310zM399 240h318v397h-318v-397z" />
    <glyph glyph-name="seven" unicode="7" horiz-adv-x="997" 
d="M958 1247l-348 -1247h-307l352 1217h-331v-279l-267 53v473h901v-217z" />
    <glyph glyph-name="eight" unicode="8" horiz-adv-x="1110" 
d="M98 244v266q0 87 47.5 156.5t120.5 89.5v2q-64 23 -103.5 97.5t-39.5 168.5v197q0 110 59 176.5t189 66.5h364q134 0 193 -66t59 -177v-197q0 -94 -39.5 -168.5t-103.5 -97.5v-2q73 -20 120.5 -89.5t47.5 -156.5v-266q0 -111 -59 -177.5t-193 -66.5h-414q-130 0 -189 67
t-59 177zM641 629h-176q-37 0 -64.5 -29.5t-27.5 -69.5v-221q0 -28 18.5 -47.5t44.5 -19.5h236q26 0 44.5 19.5t18.5 47.5v221q0 40 -28 69.5t-66 29.5zM649 1235h-190q-26 0 -46 -20t-20 -48v-198q0 -40 28 -69.5t66 -29.5h134q38 0 65 29.5t27 69.5v198q0 28 -19 48
t-45 20z" />
    <glyph glyph-name="nine" unicode="9" horiz-adv-x="1101" 
d="M391 242h311v348h-350q-133 0 -192.5 66.5t-59.5 177.5v387q0 110 59.5 176.5t192.5 66.5h383q133 0 191.5 -66t58.5 -177v-977q0 -111 -59 -177.5t-191 -66.5h-368q-132 0 -191 66.5t-59 177.5v108l274 54v-164zM702 1225h-317v-398h317v398z" />
    <glyph glyph-name="colon" unicode=":" horiz-adv-x="532" 
d="M104 72v194q0 32 15 52t45 20h205q28 0 43.5 -20t15.5 -52v-194q0 -32 -15.5 -52t-43.5 -20h-205q-30 0 -45 20t-15 52zM104 924v194q0 32 15 52t45 20h205q28 0 43.5 -20t15.5 -52v-194q0 -32 -15.5 -52t-43.5 -20h-205q-30 0 -45 20t-15 52z" />
    <glyph glyph-name="semicolon" unicode=";" horiz-adv-x="524" 
d="M422 96l-119 -327h-176l96 256h-65q-28 0 -44 19.5t-16 51.5v170q0 32 16 52t44 20h207q28 0 42.5 -20t14.5 -52v-170zM98 924v194q0 32 16 52t44 20h207q28 0 42.5 -20t14.5 -52v-194q0 -32 -14.5 -52t-42.5 -20h-207q-28 0 -44 20t-16 52z" />
    <glyph glyph-name="less" unicode="&#x3c;" horiz-adv-x="1042" 
d="M51 690l914 465v-260l-453 -219l-125 -51v-21l125 -49l453 -219v-260l-914 465v149z" />
    <glyph glyph-name="equal" unicode="=" horiz-adv-x="1042" 
d="M66 963h911v-226h-911v226zM66 489h911v-225h-911v225z" />
    <glyph glyph-name="greater" unicode="&#x3e;" horiz-adv-x="1042" 
d="M80 1155l913 -465v-149l-913 -465v260l450 219l125 49v21l-125 51l-450 219v260z" />
    <glyph glyph-name="question" unicode="?" horiz-adv-x="821" 
d="M510 1067v115q0 22 -13.5 36.5t-33.5 14.5h-115q-21 0 -34 -14.5t-13 -36.5v-117l-250 61v160q0 74 51.5 126t122.5 52h340q80 0 136.5 -57.5t56.5 -140.5v-236q0 -50 -10.5 -76.5t-38.5 -54.5l-185 -203v-200h-260v278l170 180q6 7 16.5 18t15 16t12 14t10.5 13
t7.5 10.5t6.5 10.5t4.5 10t3 11t0.5 10zM233 72v194q0 32 15 52t45 20h205q28 0 42.5 -20t14.5 -52v-194q0 -32 -14.5 -52t-42.5 -20h-205q-30 0 -45 20t-15 52z" />
    <glyph glyph-name="at" unicode="@" horiz-adv-x="1744" 
d="M711 229q-120 0 -188 91.5t-68 248.5q0 112 36.5 225.5t96 202t141 144t166.5 55.5q71 0 118 -46t62 -124h10l41 145h234l-166 -641q-14 -47 -14 -63q0 -31 19 -50.5t54 -19.5q63 0 124.5 70.5t100 190.5t35.5 249q-3 226 -147.5 367t-374.5 141q-86 0 -169.5 -22
t-160.5 -65t-142.5 -110t-114 -151.5t-76 -196.5t-27.5 -239q0 -137 31.5 -245t86 -179.5t131.5 -118t163.5 -66.5t187.5 -20q119 0 234.5 29t201.5 73l78 -141q-98 -63 -244.5 -96t-291.5 -33q-132 0 -252 29t-225.5 92t-182.5 156t-121.5 228t-44.5 300q0 183 53 339.5
t143.5 267t210 189.5t252 116.5t269.5 37.5q162 0 298 -53.5t228 -147t143.5 -221t51.5 -274.5q0 -126 -35 -244t-97.5 -212t-159.5 -151t-212 -57q-98 0 -163.5 41.5t-80.5 116.5q-97 -158 -243 -158zM795 422q91 0 149 162q28 65 47 151t19 142q0 61 -23.5 96t-60.5 35
q-58 0 -109.5 -86.5t-77.5 -191.5t-26 -183q0 -125 82 -125z" />
    <glyph glyph-name="A" unicode="A" horiz-adv-x="1083" 
d="M780 0l-71 291h-359l-71 -291h-271l402 1464h260l407 -1464h-297zM649 532l-71 310l-43 190h-3l-45 -190l-75 -310h237z" />
    <glyph glyph-name="B" unicode="B" horiz-adv-x="1120" 
d="M727 319v179q0 57 -32.5 91t-86.5 34h-194v-381h237q31 0 53.5 22.5t22.5 54.5zM414 1223v-357h194q54 0 86.5 34t32.5 91v154q0 32 -22.5 55t-53.5 23h-237zM1018 518v-256q0 -119 -63.5 -190.5t-206.5 -71.5h-617v1464h606q143 0 207 -71.5t64 -190.5v-209
q0 -36 -10 -73t-30 -72.5t-56 -62.5t-83 -37v-5q93 -19 141 -81.5t48 -143.5z" />
    <glyph glyph-name="C" unicode="C" horiz-adv-x="1093" 
d="M121 244v977q0 110 59.5 176.5t192.5 66.5h387q132 0 191 -66t59 -177v-207l-273 -56v261h-331v-973h331v299l273 -53v-248q0 -111 -59 -177.5t-191 -66.5h-387q-133 0 -192.5 66.5t-59.5 177.5z" />
    <glyph glyph-name="D" unicode="D" horiz-adv-x="1142" 
d="M1055 969v-473q0 -128 -34 -225.5t-95 -155.5t-139 -86.5t-171 -28.5h-485v1464h485q93 0 171 -28.5t139 -86.5t95 -155t34 -225zM563 1219h-149v-973h149q59 0 102.5 24.5t66 64.5t32.5 81.5t10 85.5v461q0 44 -10 85.5t-32.5 81.5t-66 64.5t-102.5 24.5z" />
    <glyph glyph-name="E" unicode="E" horiz-adv-x="954" 
d="M915 0h-784v1464h758v-245h-475v-353h311v-254h-311v-366h501v-246z" />
    <glyph glyph-name="F" unicode="F" horiz-adv-x="901" 
d="M414 0h-283v1464h741v-245h-458v-353h311v-254h-311v-612z" />
    <glyph glyph-name="G" unicode="G" horiz-adv-x="1179" 
d="M801 586h-203v248h477v-590q0 -111 -58.5 -177.5t-189.5 -66.5h-454q-133 0 -192.5 66.5t-59.5 177.5v977q0 110 59.5 176.5t192.5 66.5h454q131 0 189.5 -66t58.5 -177v-144l-274 -53v195h-395v-973h395v340z" />
    <glyph glyph-name="H" unicode="H" horiz-adv-x="1206" 
d="M414 866h379v598h282v-1464h-282v623h-379v-623h-283v1464h283v-598z" />
    <glyph glyph-name="I" unicode="I" horiz-adv-x="544" 
d="M414 1464v-1464h-283v1464h283z" />
    <glyph glyph-name="J" unicode="J" horiz-adv-x="964" 
d="M588 0h-293q-133 0 -192.5 66.5t-59.5 177.5v284l274 54v-336h238v1218h285v-1220q0 -111 -59.5 -177.5t-192.5 -66.5z" />
    <glyph glyph-name="K" unicode="K" horiz-adv-x="1114" 
d="M414 1464v-610h2l342 610h309l-397 -690l469 -774h-340l-383 653h-2v-653h-283v1464h283z" />
    <glyph glyph-name="L" unicode="L" horiz-adv-x="901" 
d="M879 0h-748v1464h283v-1218h465v-246z" />
    <glyph glyph-name="M" unicode="M" horiz-adv-x="1411" 
d="M131 1464h262l316 -725l321 725h250v-1464h-270v811h-2l-263 -575h-90l-252 575h-2v-811h-270v1464z" />
    <glyph glyph-name="N" unicode="N" horiz-adv-x="1196" 
d="M131 1464h240l420 -813h2v813h272v-1464h-217l-445 854h-2v-854h-270v1464z" />
    <glyph glyph-name="O" unicode="O" horiz-adv-x="1214" 
d="M1092 1221v-977q0 -111 -59 -177.5t-191 -66.5h-469q-133 0 -192.5 66.5t-59.5 177.5v977q0 110 59.5 176.5t192.5 66.5h469q132 0 191 -66t59 -177zM809 246v973h-403v-973h403z" />
    <glyph glyph-name="P" unicode="P" 
d="M1004 1221v-418q0 -111 -58.5 -176.5t-191.5 -65.5h-340v-561h-283v1464h623q132 0 191 -66t59 -177zM655 1219h-241v-410h241q26 0 46 20t20 48v274q0 28 -20 48t-46 20z" />
    <glyph glyph-name="Q" unicode="Q" horiz-adv-x="1214" 
d="M1092 1221v-977q0 -111 -59 -177.5t-191 -66.5h-25l47 -201h-256l-43 201h-192q-133 0 -192.5 66.5t-59.5 177.5v977q0 110 59.5 176.5t192.5 66.5h469q132 0 191 -66t59 -177zM473 430h248l41 -184h47v973h-403v-973h106z" />
    <glyph glyph-name="R" unicode="R" horiz-adv-x="1118" 
d="M131 1464h635q133 0 192.5 -66.5t59.5 -176.5v-408q0 -108 -56.5 -173.5t-181.5 -68.5l314 -571h-328l-295 571h-57v-571h-283v1464zM414 1219v-400h256q26 0 45.5 20t19.5 48v264q0 28 -19.5 48t-45.5 20h-256z" />
    <glyph glyph-name="S" unicode="S" horiz-adv-x="1075" 
d="M389 1151v-176q0 -52 21.5 -72.5t74.5 -23.5l246 -11q250 -11 250 -245v-379q0 -111 -59 -177.5t-191 -66.5h-407q-131 0 -190.5 66.5t-59.5 177.5v147l276 55v-133q0 -27 20 -47t46 -20h215q28 0 46.5 19.5t18.5 47.5v203q0 52 -19 70.5t-75 21.5l-244 13
q-252 11 -252 243v357q0 110 59.5 176.5t192.5 66.5h363q133 0 191.5 -66t58.5 -177v-136l-277 -55v121q0 28 -18.5 48t-44.5 20h-176q-28 0 -47 -20t-19 -48z" />
    <glyph glyph-name="T" unicode="T" horiz-adv-x="870" 
d="M18 1219v245h836v-245h-276v-1219h-283v1219h-277z" />
    <glyph glyph-name="U" unicode="U" horiz-adv-x="1163" 
d="M125 1464h285v-1212h344v1212h284v-1220q0 -111 -59 -177.5t-191 -66.5h-413q-132 0 -191 66.5t-59 177.5v1220z" />
    <glyph glyph-name="V" unicode="V" horiz-adv-x="1054" 
d="M0 1464h299l242 -913h2l219 913h282l-393 -1464h-241z" />
    <glyph glyph-name="W" unicode="W" horiz-adv-x="1343" 
d="M287 0l-260 1464h290l109 -809h2l127 809h246l127 -809h2l108 809h277l-262 -1464h-236l-145 850h-4l-144 -850h-237z" />
    <glyph glyph-name="X" unicode="X" horiz-adv-x="1046" 
d="M4 0l348 743l-338 721h328l190 -465l193 465h305l-336 -721l348 -743h-323l-207 498l-205 -498h-303z" />
    <glyph glyph-name="Y" unicode="Y" horiz-adv-x="1032" 
d="M369 0v670l-367 794h313l207 -506l207 506h299l-366 -794v-670h-293z" />
    <glyph glyph-name="Z" unicode="Z" horiz-adv-x="970" 
d="M903 1346l-502 -1100h502v-246h-868v121l502 1102h-449v241h815v-118z" />
    <glyph glyph-name="bracketleft" unicode="[" horiz-adv-x="559" 
d="M508 -201h-404v1747h404v-164h-141v-1421h141v-162z" />
    <glyph glyph-name="backslash" unicode="\" horiz-adv-x="704" 
d="M670 -168h-211l-426 1632h211z" />
    <glyph glyph-name="bracketright" unicode="]" horiz-adv-x="559" 
d="M51 -201v162h142v1421h-142v164h404v-1747h-404z" />
    <glyph glyph-name="asciicircum" unicode="^" horiz-adv-x="1042" 
d="M444 1464h152l438 -880h-264l-188 424l-54 139h-14l-55 -139l-187 -424h-264z" />
    <glyph glyph-name="underscore" unicode="_" horiz-adv-x="798" 
d="M-6 -250v209h809v-209h-809z" />
    <glyph glyph-name="grave" unicode="`" horiz-adv-x="681" 
d="M500 1546h-185l-245 254h280z" />
    <glyph glyph-name="a" unicode="a" horiz-adv-x="1083" 
d="M780 0l-71 291h-359l-71 -291h-271l402 1464h260l407 -1464h-297zM649 532l-71 310l-43 190h-3l-45 -190l-75 -310h237z" />
    <glyph glyph-name="b" unicode="b" horiz-adv-x="1120" 
d="M727 319v179q0 57 -32.5 91t-86.5 34h-194v-381h237q31 0 53.5 22.5t22.5 54.5zM414 1223v-357h194q54 0 86.5 34t32.5 91v154q0 32 -22.5 55t-53.5 23h-237zM1018 518v-256q0 -119 -63.5 -190.5t-206.5 -71.5h-617v1464h606q143 0 207 -71.5t64 -190.5v-209
q0 -36 -10 -73t-30 -72.5t-56 -62.5t-83 -37v-5q93 -19 141 -81.5t48 -143.5z" />
    <glyph glyph-name="c" unicode="c" horiz-adv-x="1093" 
d="M121 244v977q0 110 59.5 176.5t192.5 66.5h387q132 0 191 -66t59 -177v-207l-273 -56v261h-331v-973h331v299l273 -53v-248q0 -111 -59 -177.5t-191 -66.5h-387q-133 0 -192.5 66.5t-59.5 177.5z" />
    <glyph glyph-name="d" unicode="d" horiz-adv-x="1142" 
d="M1055 969v-473q0 -128 -34 -225.5t-95 -155.5t-139 -86.5t-171 -28.5h-485v1464h485q93 0 171 -28.5t139 -86.5t95 -155t34 -225zM563 1219h-149v-973h149q59 0 102.5 24.5t66 64.5t32.5 81.5t10 85.5v461q0 44 -10 85.5t-32.5 81.5t-66 64.5t-102.5 24.5z" />
    <glyph glyph-name="e" unicode="e" horiz-adv-x="954" 
d="M915 0h-784v1464h758v-245h-475v-353h311v-254h-311v-366h501v-246z" />
    <glyph glyph-name="f" unicode="f" horiz-adv-x="901" 
d="M414 0h-283v1464h741v-245h-458v-353h311v-254h-311v-612z" />
    <glyph glyph-name="g" unicode="g" horiz-adv-x="1179" 
d="M801 586h-203v248h477v-590q0 -111 -58.5 -177.5t-189.5 -66.5h-454q-133 0 -192.5 66.5t-59.5 177.5v977q0 110 59.5 176.5t192.5 66.5h454q131 0 189.5 -66t58.5 -177v-144l-274 -53v195h-395v-973h395v340z" />
    <glyph glyph-name="h" unicode="h" horiz-adv-x="1206" 
d="M414 866h379v598h282v-1464h-282v623h-379v-623h-283v1464h283v-598z" />
    <glyph glyph-name="i" unicode="i" horiz-adv-x="544" 
d="M414 1464v-1464h-283v1464h283z" />
    <glyph glyph-name="j" unicode="j" horiz-adv-x="964" 
d="M588 0h-293q-133 0 -192.5 66.5t-59.5 177.5v284l274 54v-336h238v1218h285v-1220q0 -111 -59.5 -177.5t-192.5 -66.5z" />
    <glyph glyph-name="k" unicode="k" horiz-adv-x="1114" 
d="M414 1464v-610h2l342 610h309l-397 -690l469 -774h-340l-383 653h-2v-653h-283v1464h283z" />
    <glyph glyph-name="l" unicode="l" horiz-adv-x="901" 
d="M879 0h-748v1464h283v-1218h465v-246z" />
    <glyph glyph-name="m" unicode="m" horiz-adv-x="1411" 
d="M131 1464h262l316 -725l321 725h250v-1464h-270v811h-2l-263 -575h-90l-252 575h-2v-811h-270v1464z" />
    <glyph glyph-name="n" unicode="n" horiz-adv-x="1196" 
d="M131 1464h240l420 -813h2v813h272v-1464h-217l-445 854h-2v-854h-270v1464z" />
    <glyph glyph-name="o" unicode="o" horiz-adv-x="1214" 
d="M1092 1221v-977q0 -111 -59 -177.5t-191 -66.5h-469q-133 0 -192.5 66.5t-59.5 177.5v977q0 110 59.5 176.5t192.5 66.5h469q132 0 191 -66t59 -177zM809 246v973h-403v-973h403z" />
    <glyph glyph-name="p" unicode="p" 
d="M1004 1221v-418q0 -111 -58.5 -176.5t-191.5 -65.5h-340v-561h-283v1464h623q132 0 191 -66t59 -177zM655 1219h-241v-410h241q26 0 46 20t20 48v274q0 28 -20 48t-46 20z" />
    <glyph glyph-name="q" unicode="q" horiz-adv-x="1214" 
d="M1092 1221v-977q0 -111 -59 -177.5t-191 -66.5h-25l47 -201h-256l-43 201h-192q-133 0 -192.5 66.5t-59.5 177.5v977q0 110 59.5 176.5t192.5 66.5h469q132 0 191 -66t59 -177zM473 430h248l41 -184h47v973h-403v-973h106z" />
    <glyph glyph-name="r" unicode="r" horiz-adv-x="1118" 
d="M131 1464h635q133 0 192.5 -66.5t59.5 -176.5v-408q0 -108 -56.5 -173.5t-181.5 -68.5l314 -571h-328l-295 571h-57v-571h-283v1464zM414 1219v-400h256q26 0 45.5 20t19.5 48v264q0 28 -19.5 48t-45.5 20h-256z" />
    <glyph glyph-name="s" unicode="s" horiz-adv-x="1075" 
d="M389 1151v-176q0 -52 21.5 -72.5t74.5 -23.5l246 -11q250 -11 250 -245v-379q0 -111 -59 -177.5t-191 -66.5h-407q-131 0 -190.5 66.5t-59.5 177.5v147l276 55v-133q0 -27 20 -47t46 -20h215q28 0 46.5 19.5t18.5 47.5v203q0 52 -19 70.5t-75 21.5l-244 13
q-252 11 -252 243v357q0 110 59.5 176.5t192.5 66.5h363q133 0 191.5 -66t58.5 -177v-136l-277 -55v121q0 28 -18.5 48t-44.5 20h-176q-28 0 -47 -20t-19 -48z" />
    <glyph glyph-name="t" unicode="t" horiz-adv-x="870" 
d="M18 1219v245h836v-245h-276v-1219h-283v1219h-277z" />
    <glyph glyph-name="u" unicode="u" horiz-adv-x="1163" 
d="M125 1464h285v-1212h344v1212h284v-1220q0 -111 -59 -177.5t-191 -66.5h-413q-132 0 -191 66.5t-59 177.5v1220z" />
    <glyph glyph-name="v" unicode="v" horiz-adv-x="1054" 
d="M0 1464h299l242 -913h2l219 913h282l-393 -1464h-241z" />
    <glyph glyph-name="w" unicode="w" horiz-adv-x="1343" 
d="M287 0l-260 1464h290l109 -809h2l127 809h246l127 -809h2l108 809h277l-262 -1464h-236l-145 850h-4l-144 -850h-237z" />
    <glyph glyph-name="x" unicode="x" horiz-adv-x="1046" 
d="M4 0l348 743l-338 721h328l190 -465l193 465h305l-336 -721l348 -743h-323l-207 498l-205 -498h-303z" />
    <glyph glyph-name="y" unicode="y" horiz-adv-x="1032" 
d="M369 0v670l-367 794h313l207 -506l207 506h299l-366 -794v-670h-293z" />
    <glyph glyph-name="z" unicode="z" horiz-adv-x="970" 
d="M903 1346l-502 -1100h502v-246h-868v121l502 1102h-449v241h815v-118z" />
    <glyph glyph-name="braceleft" unicode="{" horiz-adv-x="624" 
d="M188 999v267q0 280 314 280h63v-164h-4q-70 0 -90 -30t-20 -109v-272q-1 -113 -58.5 -181t-150.5 -79v-19q93 -11 150.5 -79.5t58.5 -182.5v-326q0 -85 19.5 -112t90.5 -27h4v-166h-63q-314 0 -314 283v319q0 112 -30 156.5t-90 44.5h-45v197h45q59 0 89.5 45t30.5 155z
" />
    <glyph glyph-name="bar" unicode="|" horiz-adv-x="765" 
d="M246 1720h272v-2048h-272v2048z" />
    <glyph glyph-name="braceright" unicode="}" horiz-adv-x="624" 
d="M436 1266v-267q0 -109 31.5 -154.5t89.5 -45.5h45v-197h-45q-59 0 -90 -44.5t-31 -156.5v-319q0 -283 -309 -283h-68v166h4q71 0 91 27t20 112v326q0 114 57.5 182.5t153.5 79.5v19q-96 11 -153.5 79t-57.5 181v272q0 79 -20 109t-91 30h-4v164h68q140 0 224.5 -66
t84.5 -214z" />
    <glyph glyph-name="asciitilde" unicode="~" horiz-adv-x="1042" 
d="M84 430q0 200 77 294.5t201 94.5q59 0 103 -21.5t88 -68.5l41 -41q18 -18 27.5 -26.5t25.5 -16.5t31 -8q70 0 70 158h210q0 -201 -77 -295t-203 -94q-61 0 -102 21t-87 67l-38 41q-16 16 -21.5 21t-18 15t-23 13.5t-23.5 3.5q-70 0 -70 -158h-211z" />
    <glyph glyph-name="uni00A0" unicode="&#xa0;" horiz-adv-x="389" 
 />
    <glyph glyph-name="exclamdown" unicode="&#xa1;" horiz-adv-x="550" 
d="M160 971h231l64 -971h-359zM115 1198v195q0 32 14.5 51.5t42.5 19.5h207q28 0 43.5 -19.5t15.5 -51.5v-195q0 -32 -15.5 -52t-43.5 -20h-207q-28 0 -42.5 20t-14.5 52z" />
    <glyph glyph-name="cent" unicode="&#xa2;" horiz-adv-x="946" 
d="M594 0h-217v184h-25q-133 0 -192.5 66.5t-59.5 177.5v608q0 111 59.5 177.5t192.5 66.5h25v184h217v-184h18q132 0 191 -66.5t59 -177.5v-116l-276 -54v168h-201v-604h201v191l276 -54v-139q0 -111 -59 -177.5t-191 -66.5h-18v-184z" />
    <glyph glyph-name="sterling" unicode="&#xa3;" horiz-adv-x="1083" 
d="M90 643v213h152v365q0 111 59 177t191 66h241q133 0 192.5 -66.5t59.5 -176.5v-103l-276 -53v154h-185v-363h285v-213h-285v-377h213v203l275 -53v-152q0 -114 -58 -190t-151 -76q-26 0 -156 27l-184 38q-60 -63 -189 -63h-184v246h86q28 0 47 19.5t19 47.5v330h-152z
" />
    <glyph glyph-name="currency" unicode="&#xa4;" horiz-adv-x="1019" 
d="M119 1464h241l50 -151h196l51 151h240l-76 -198q84 -61 84 -197v-674q0 -120 -65 -182l78 -213h-252l-50 152h-223l-47 -152h-246l76 215q-61 61 -61 180v674q0 133 78 195zM623 1065h-226v-666h226v666z" />
    <glyph glyph-name="yen" unicode="&#xa5;" horiz-adv-x="1046" 
d="M98 950h162l-223 514h311l187 -487l186 487h293l-226 -514h164v-143h-225l-49 -109h274v-143h-280v-555h-293v555h-281v143h273l-47 109h-226v143z" />
    <glyph glyph-name="brokenbar" unicode="&#xa6;" horiz-adv-x="765" 
d="M246 1569h272v-719h-272v719zM246 545h272v-719h-272v719z" />
    <glyph glyph-name="section" unicode="&#xa7;" horiz-adv-x="1239" 
d="M1194 483q0 -110 -64 -182.5t-182 -105.5q92 -103 92 -224q0 -144 -114.5 -231.5t-302.5 -87.5q-186 0 -299 89t-140 249l254 37q13 -72 59.5 -118t127.5 -46q62 0 101.5 28t39.5 78q0 75 -135 148l-273 149q-164 88 -239.5 183.5t-75.5 207.5q0 109 63.5 181.5
t180.5 105.5q-90 100 -90 223q0 145 114 233.5t303 88.5q185 0 297.5 -89t139.5 -249l-252 -37q-34 164 -187 164q-63 0 -102 -28.5t-39 -78.5q0 -75 133 -147l275 -150q164 -88 239.5 -183.5t75.5 -207.5zM719 674l-289 160q-58 -17 -90.5 -55t-32.5 -89q0 -53 45 -107.5
t162 -117.5l293 -158q59 17 91 54t32 88q0 54 -45.5 106.5t-165.5 118.5z" />
    <glyph glyph-name="dieresis" unicode="&#xa8;" horiz-adv-x="681" 
d="M55 1606v118q0 54 45 54h140q45 0 45 -54v-118q0 -54 -45 -54h-140q-45 0 -45 54zM393 1606v118q0 24 11 39t32 15h142q21 0 33 -15t12 -39v-118q0 -24 -12 -39t-33 -15h-142q-21 0 -32 15t-11 39z" />
    <glyph glyph-name="copyright" unicode="&#xa9;" horiz-adv-x="1777" 
d="M59 711q0 149 37 285.5t109 249t171.5 195.5t231 129t281.5 46q186 0 343 -71t262.5 -193.5t164.5 -288t59 -352.5t-59 -352.5t-164.5 -288t-262.5 -194t-343 -71.5q-187 0 -344 71.5t-263 194t-164.5 288t-58.5 352.5zM254 711q0 -207 76.5 -376t222.5 -269.5
t336 -100.5q189 0 335 100.5t223 269.5t77 376q0 206 -77 375t-223 269.5t-335 100.5q-143 0 -263 -58.5t-201 -159.5t-126 -237t-45 -290zM537 352v709q0 219 223 219h250q119 0 172 -59.5t53 -159.5v-135l-238 -47v188h-217v-721h217v227l238 -49v-172q0 -100 -53 -159.5
t-172 -59.5h-250q-223 0 -223 219z" />
    <glyph glyph-name="ordfeminine" unicode="&#xaa;" horiz-adv-x="786" 
d="M543 438l-41 170h-238l-41 -170h-227l278 1026h232l282 -1026h-245zM311 805h146l-72 315z" />
    <glyph glyph-name="guillemotleft" unicode="&#xab;" horiz-adv-x="956" 
d="M463 350h-209l-205 324v59l203 324h211l-156 -355zM868 350h-211l-202 324v59l200 324h213l-153 -355z" />
    <glyph glyph-name="logicalnot" unicode="&#xac;" horiz-adv-x="1042" 
d="M41 963h932v-676h-246v448h-686v228z" />
    <glyph glyph-name="registered" unicode="&#xae;" horiz-adv-x="804" 
d="M59 1145q0 153 92.5 254.5t251.5 101.5q156 0 249 -102t93 -254q0 -154 -93 -256.5t-249 -102.5q-159 0 -251.5 102t-92.5 257zM152 1145q0 -124 66.5 -204.5t184.5 -80.5q117 0 183.5 80.5t66.5 204.5q0 121 -67 201.5t-183 80.5q-117 0 -184 -80t-67 -202zM397 1094
h-32v-158h-105v424h143q156 0 156 -137v-2q0 -77 -59 -107l65 -178h-114zM365 1274v-96h34q60 0 60 47v2q0 47 -58 47h-36z" />
    <glyph glyph-name="macron" unicode="&#xaf;" horiz-adv-x="681" 
d="M569 1565h-460v186h460v-186z" />
    <glyph glyph-name="degree" unicode="&#xb0;" horiz-adv-x="800" 
d="M535 616h-269q-92 0 -133 46.5t-41 123.5v508q0 77 41 123.5t133 46.5h269q92 0 134 -46.5t42 -123.5v-508q0 -77 -42 -123.5t-134 -46.5zM485 1266h-170v-455h170v455z" />
    <glyph glyph-name="plusminus" unicode="&#xb1;" horiz-adv-x="1042" 
d="M84 645v221h317v326h244v-326h311v-221h-311v-332h-244v332h-317zM84 0v221h872v-221h-872z" />
    <glyph glyph-name="two.superior" unicode="&#xb2;" horiz-adv-x="770" 
d="M690 1294v-120q0 -54 -31 -97l-329 -428h178v107l215 -43v-105q0 -77 -40.5 -123.5t-131.5 -46.5h-494v166q0 28 5.5 43t19.5 33l377 487l-2 88h-162v-137l-221 43v133q0 77 42 123.5t134 46.5h260q93 0 136.5 -47t43.5 -123z" />
    <glyph glyph-name="three.superior" unicode="&#xb3;" horiz-adv-x="794" 
d="M727 819v-211q0 -77 -41.5 -123.5t-132.5 -46.5h-322q-92 0 -133 46.5t-41 123.5v105l215 43v-115h168q20 0 33.5 13.5t13.5 33.5v123q0 23 -13 37t-34 14h-141v197h121q19 0 33 15t14 36v107q0 20 -13.5 33.5t-33.5 13.5h-133v-115l-219 43v102q0 77 42 123.5t134 46.5
h286q91 0 133 -46.5t42 -123.5v-137q0 -69 -29 -116.5t-74 -63.5v-2q56 -12 90.5 -56t34.5 -100z" />
    <glyph glyph-name="acute" unicode="&#xb4;" horiz-adv-x="681" 
d="M362 1546h-184l154 254h278z" />
    <glyph glyph-name="mu" unicode="&#xb5;" horiz-adv-x="1021" 
d="M121 -336v1428h254v-783q0 -59 18.5 -87.5t69.5 -28.5q75 0 178 69v830h254v-1092h-244v123h-4q-132 -125 -246 -125q-41 0 -63 22l-6 -6q20 -39 20 -106v-244h-231z" />
    <glyph glyph-name="mu" unicode="&#x3bc;" horiz-adv-x="1021" 
d="M121 -336v1428h254v-783q0 -59 18.5 -87.5t69.5 -28.5q75 0 178 69v830h254v-1092h-244v123h-4q-132 -125 -246 -125q-41 0 -63 22l-6 -6q20 -39 20 -106v-244h-231z" />
    <glyph glyph-name="paragraph" unicode="&#xb6;" horiz-adv-x="1277" 
d="M426 1464h741v-1800h-258v1565h-151v-1565h-260v903h-72q-108 0 -185 33t-119.5 95.5t-61.5 140t-19 178.5v4q0 81 11.5 146t39 122t70.5 95.5t110 60.5t154 22zM449 803h49v426h-49q-67 0 -94 -54t-27 -153v-12q0 -100 26.5 -153.5t94.5 -53.5z" />
    <glyph glyph-name="periodcentered" unicode="&#xb7;" horiz-adv-x="489" 
d="M78 514v197q0 71 59 71h215q28 0 44 -19.5t16 -51.5v-197q0 -32 -16 -52t-44 -20h-215q-29 0 -44 20t-15 52z" />
    <glyph glyph-name="cedilla" unicode="&#xb8;" horiz-adv-x="681" 
d="M281 23h163l-26 -105q61 -7 102 -37t41 -88q0 -143 -276 -143q-84 0 -142 20v119q68 -20 129 -20q84 0 84 43q0 47 -73 47h-39z" />
    <glyph glyph-name="one.superior" unicode="&#xb9;" horiz-adv-x="489" 
d="M145 1212l-102 -28v172l279 108h61v-1026h-238v774z" />
    <glyph glyph-name="ordmasculine" unicode="&#xba;" horiz-adv-x="913" 
d="M817 1294v-686q0 -77 -41 -123.5t-133 -46.5h-371q-176 0 -176 170v686q0 170 176 170h371q92 0 133 -46.5t41 -123.5zM580 645v612h-244v-612h244z" />
    <glyph glyph-name="guillemotright" unicode="&#xbb;" horiz-adv-x="956" 
d="M698 350h-206l151 352l-151 355h210l205 -324v-59zM297 350h-209l154 352l-154 355h211l205 -324v-59z" />
    <glyph glyph-name="onequarter" unicode="&#xbc;" horiz-adv-x="1579" 
d="M145 1212l-102 -28v172l279 108h61v-1026h-238v774zM385 0l389 1464h211l-389 -1464h-211zM836 209v192l397 625h213v-625h90v-192h-90v-209h-223v209h-387zM1049 401h174v281z" />
    <glyph glyph-name="onehalf" unicode="&#xbd;" horiz-adv-x="1648" 
d="M145 1212l-102 -28v172l279 108h61v-1026h-238v774zM385 0l389 1464h211l-389 -1464h-211zM1565 856v-121q0 -53 -31 -96l-330 -428h178v106l215 -43v-104q0 -77 -40.5 -123.5t-131.5 -46.5h-493v166q0 28 5 43t19 33l377 487l-2 88h-162v-137l-221 43v133q0 77 42 123.5
t134 46.5h260q93 0 137 -47t44 -123z" />
    <glyph glyph-name="threequarters" unicode="&#xbe;" horiz-adv-x="1884" 
d="M727 819v-211q0 -77 -41.5 -123.5t-132.5 -46.5h-322q-92 0 -133 46.5t-41 123.5v105l215 43v-115h168q20 0 33.5 13.5t13.5 33.5v123q0 23 -13 37t-34 14h-141v197h121q19 0 33 15t14 36v107q0 20 -13.5 33.5t-33.5 13.5h-133v-115l-219 43v102q0 77 42 123.5t134 46.5
h286q91 0 133 -46.5t42 -123.5v-137q0 -69 -29 -116.5t-74 -63.5v-2q56 -12 90.5 -56t34.5 -100zM690 0l389 1464h211l-389 -1464h-211zM1141 209v192l397 625h213v-625h90v-192h-90v-209h-223v209h-387zM1354 401h174v281z" />
    <glyph glyph-name="questiondown" unicode="&#xbf;" horiz-adv-x="821" 
d="M305 397v-114q0 -22 12.5 -37t32.5 -15h117q20 0 33.5 15t13.5 37v116l248 -63v-158q0 -75 -50.5 -126.5t-121.5 -51.5h-342q-78 0 -134.5 58t-56.5 141v235q0 50 10.5 76.5t36.5 54.5l187 203v201h260v-279l-170 -180q-6 -7 -16.5 -18t-15 -16t-12 -14t-10.5 -13
t-7.5 -10.5t-6.5 -10.5t-4.5 -10t-3 -11t-0.5 -10zM582 1393v-195q0 -32 -16 -52t-44 -20h-205q-28 0 -43.5 20t-15.5 52v195q0 32 15.5 51.5t43.5 19.5h205q28 0 44 -19.5t16 -51.5z" />
    <glyph glyph-name="Agrave" unicode="&#xc0;" horiz-adv-x="1083" 
d="M780 0l-71 291h-359l-71 -291h-271l402 1464h260l407 -1464h-297zM649 532l-71 310l-43 190h-3l-45 -190l-75 -310h237zM700 1546h-184l-246 254h281z" />
    <glyph glyph-name="Aacute" unicode="&#xc1;" horiz-adv-x="1083" 
d="M780 0l-71 291h-359l-71 -291h-271l402 1464h260l407 -1464h-297zM649 532l-71 310l-43 190h-3l-45 -190l-75 -310h237zM563 1546h-184l153 254h279z" />
    <glyph glyph-name="Acircumflex" unicode="&#xc2;" horiz-adv-x="1083" 
d="M780 0l-71 291h-359l-71 -291h-271l402 1464h260l407 -1464h-297zM649 532l-71 310l-43 190h-3l-45 -190l-75 -310h237zM821 1546h-147l-131 127l-133 -127h-150l162 254h237z" />
    <glyph glyph-name="Atilde" unicode="&#xc3;" horiz-adv-x="1083" 
d="M780 0l-71 291h-359l-71 -291h-271l402 1464h260l407 -1464h-297zM649 532l-71 310l-43 190h-3l-45 -190l-75 -310h237zM254 1548q0 137 44.5 198.5t115.5 61.5q26 0 54 -9t43 -18t42 -26q5 -4 16 -12t15.5 -11t13 -8.5t14 -7.5t13 -4t14.5 -2q47 0 47 90h135
q0 -137 -45.5 -198.5t-118.5 -61.5q-56 0 -129 49q-10 6 -25 17t-24 16.5t-20.5 10.5t-20.5 5q-49 0 -49 -90h-135z" />
    <glyph glyph-name="Adieresis" unicode="&#xc4;" horiz-adv-x="1083" 
d="M780 0l-71 291h-359l-71 -291h-271l402 1464h260l407 -1464h-297zM649 532l-71 310l-43 190h-3l-45 -190l-75 -310h237zM256 1606v118q0 54 45 54h139q45 0 45 -54v-118q0 -54 -45 -54h-139q-45 0 -45 54zM594 1606v118q0 24 11 39t32 15h141q21 0 33 -15t12 -39v-118
q0 -24 -12 -39t-33 -15h-141q-21 0 -32 15t-11 39z" />
    <glyph glyph-name="Aring" unicode="&#xc5;" horiz-adv-x="1083" 
d="M780 0l-71 291h-359l-71 -291h-271l402 1464h260l407 -1464h-297zM649 532l-71 310l-43 190h-3l-45 -190l-75 -310h237zM762 1718q0 -82 -58.5 -138t-162.5 -56t-164 56t-60 138q0 86 59.5 143.5t164.5 57.5q104 0 162.5 -57.5t58.5 -143.5zM627 1718q0 36 -23.5 62
t-62.5 26q-41 0 -64.5 -26t-23.5 -62q0 -33 23.5 -56.5t64.5 -23.5q39 0 62.5 23.5t23.5 56.5z" />
    <glyph glyph-name="AE" unicode="&#xc6;" horiz-adv-x="1546" 
d="M1507 0h-784v283h-322l-127 -283h-290l706 1464h793v-245h-477v-353h313v-254h-313v-366h501v-246zM512 526h211v459h-2z" />
    <glyph glyph-name="Ccedilla" unicode="&#xc7;" horiz-adv-x="1093" 
d="M121 244v977q0 110 59.5 176.5t192.5 66.5h387q132 0 191 -66t59 -177v-207l-273 -56v261h-331v-973h331v299l273 -53v-248q0 -111 -59 -177.5t-191 -66.5h-111l-20 -82q61 -7 102 -37t41 -88q0 -143 -276 -143q-84 0 -142 20v119q68 -20 129 -20q84 0 84 43q0 47 -73 47
h-39l30 141h-112q-133 0 -192.5 66.5t-59.5 177.5z" />
    <glyph glyph-name="Egrave" unicode="&#xc8;" horiz-adv-x="954" 
d="M915 0h-784v1464h758v-245h-475v-353h311v-254h-311v-366h501v-246zM670 1546h-185l-245 254h280z" />
    <glyph glyph-name="Eacute" unicode="&#xc9;" horiz-adv-x="954" 
d="M915 0h-784v1464h758v-245h-475v-353h311v-254h-311v-366h501v-246zM535 1546h-185l154 254h278z" />
    <glyph glyph-name="Ecircumflex" unicode="&#xca;" horiz-adv-x="954" 
d="M915 0h-784v1464h758v-245h-475v-353h311v-254h-311v-366h501v-246zM791 1546h-148l-131 127l-133 -127h-150l162 254h238z" />
    <glyph glyph-name="Edieresis" unicode="&#xcb;" horiz-adv-x="954" 
d="M915 0h-784v1464h758v-245h-475v-353h311v-254h-311v-366h501v-246zM225 1606v118q0 54 45 54h140q45 0 45 -54v-118q0 -54 -45 -54h-140q-45 0 -45 54zM563 1606v118q0 24 11 39t32 15h142q21 0 33 -15t12 -39v-118q0 -24 -12 -39t-33 -15h-142q-21 0 -32 15t-11 39z
" />
    <glyph glyph-name="Igrave" unicode="&#xcc;" horiz-adv-x="544" 
d="M414 1464v-1464h-283v1464h283zM432 1546h-184l-246 254h281z" />
    <glyph glyph-name="Iacute" unicode="&#xcd;" horiz-adv-x="544" 
d="M414 1464v-1464h-283v1464h283zM295 1546h-184l153 254h279z" />
    <glyph glyph-name="Icircumflex" unicode="&#xce;" horiz-adv-x="544" 
d="M414 1464v-1464h-283v1464h283zM553 1546h-147l-132 127l-133 -127h-149l162 254h237z" />
    <glyph glyph-name="Idieresis" unicode="&#xcf;" horiz-adv-x="544" 
d="M414 1464v-1464h-283v1464h283zM-12 1606v118q0 54 45 54h139q45 0 45 -54v-118q0 -54 -45 -54h-139q-45 0 -45 54zM326 1606v118q0 24 11 39t32 15h141q21 0 33 -15t12 -39v-118q0 -24 -12 -39t-33 -15h-141q-21 0 -32 15t-11 39z" />
    <glyph glyph-name="Eth" unicode="&#xd0;" horiz-adv-x="1165" 
d="M33 643v213h121v608h485q93 0 171 -28.5t139 -86.5t95.5 -155t34.5 -225v-473q0 -128 -34.5 -225.5t-95.5 -155.5t-139 -86.5t-171 -28.5h-485v643h-121zM612 643h-176v-397h152q58 0 101 24.5t65.5 64.5t32.5 81.5t10 85.5v461q0 44 -10 85.5t-32.5 81.5t-65.5 64.5
t-101 24.5h-152v-363h176v-213z" />
    <glyph glyph-name="Ntilde" unicode="&#xd1;" horiz-adv-x="1196" 
d="M131 1464h240l420 -813h2v813h272v-1464h-217l-445 854h-2v-854h-270v1464zM311 1548q0 137 44.5 198.5t115.5 61.5q26 0 54 -9t43 -18t42 -26q5 -4 16 -12t15.5 -11t13 -8.5t14 -7.5t13 -4t14.5 -2q47 0 47 90h136q0 -137 -45.5 -198.5t-118.5 -61.5q-56 0 -129 49
q-10 6 -25 17t-24 16.5t-20.5 10.5t-20.5 5q-50 0 -50 -90h-135z" />
    <glyph glyph-name="Ograve" unicode="&#xd2;" horiz-adv-x="1214" 
d="M1092 1221v-977q0 -111 -59 -177.5t-191 -66.5h-469q-133 0 -192.5 66.5t-59.5 177.5v977q0 110 59.5 176.5t192.5 66.5h469q132 0 191 -66t59 -177zM809 246v973h-403v-973h403zM766 1546h-184l-246 254h280z" />
    <glyph glyph-name="Oacute" unicode="&#xd3;" horiz-adv-x="1214" 
d="M1092 1221v-977q0 -111 -59 -177.5t-191 -66.5h-469q-133 0 -192.5 66.5t-59.5 177.5v977q0 110 59.5 176.5t192.5 66.5h469q132 0 191 -66t59 -177zM809 246v973h-403v-973h403zM629 1546h-185l154 254h279z" />
    <glyph glyph-name="Ocircumflex" unicode="&#xd4;" horiz-adv-x="1214" 
d="M1092 1221v-977q0 -111 -59 -177.5t-191 -66.5h-469q-133 0 -192.5 66.5t-59.5 177.5v977q0 110 59.5 176.5t192.5 66.5h469q132 0 191 -66t59 -177zM809 246v973h-403v-973h403zM887 1546h-148l-131 127l-133 -127h-149l161 254h238z" />
    <glyph glyph-name="Otilde" unicode="&#xd5;" horiz-adv-x="1214" 
d="M1092 1221v-977q0 -111 -59 -177.5t-191 -66.5h-469q-133 0 -192.5 66.5t-59.5 177.5v977q0 110 59.5 176.5t192.5 66.5h469q132 0 191 -66t59 -177zM809 246v973h-403v-973h403zM319 1548q0 137 44.5 198.5t115.5 61.5q26 0 54 -9t43 -18t42 -26l16 -12t16 -11.5
t13.5 -8t14.5 -7.5t12.5 -4t14.5 -2q47 0 47 90h135q0 -137 -45.5 -198.5t-118.5 -61.5q-56 0 -129 49q-10 6 -25 17t-24 16.5t-20.5 10.5t-20.5 5q-49 0 -49 -90h-136z" />
    <glyph glyph-name="Odieresis" unicode="&#xd6;" horiz-adv-x="1214" 
d="M1092 1221v-977q0 -111 -59 -177.5t-191 -66.5h-469q-133 0 -192.5 66.5t-59.5 177.5v977q0 110 59.5 176.5t192.5 66.5h469q132 0 191 -66t59 -177zM809 246v973h-403v-973h403zM322 1606v118q0 54 45 54h139q45 0 45 -54v-118q0 -54 -45 -54h-139q-45 0 -45 54z
M659 1606v118q0 24 11 39t32 15h142q21 0 33 -15t12 -39v-118q0 -24 -12 -39t-33 -15h-142q-21 0 -32 15t-11 39z" />
    <glyph glyph-name="multiply" unicode="&#xd7;" horiz-adv-x="1042" 
d="M203 102l-166 160l319 348l-323 353l170 165l323 -348l318 346l164 -159l-316 -351l320 -352l-168 -164l-322 351z" />
    <glyph glyph-name="Oslash" unicode="&#xd8;" horiz-adv-x="1214" 
d="M434 -139h-227l55 153q-141 45 -141 230v977q0 110 56.5 176.5t182.5 66.5h369l51 140h228l-56 -154q140 -48 140 -229v-977q0 -111 -56.5 -177.5t-181.5 -66.5h-371zM819 240v800l-330 -800h330zM395 1225v-799l326 799h-326z" />
    <glyph glyph-name="Ugrave" unicode="&#xd9;" horiz-adv-x="1163" 
d="M125 1464h285v-1212h344v1212h284v-1220q0 -111 -59 -177.5t-191 -66.5h-413q-132 0 -191 66.5t-59 177.5v1220zM741 1546h-184l-246 254h281z" />
    <glyph glyph-name="Uacute" unicode="&#xda;" horiz-adv-x="1163" 
d="M125 1464h285v-1212h344v1212h284v-1220q0 -111 -59 -177.5t-191 -66.5h-413q-132 0 -191 66.5t-59 177.5v1220zM604 1546h-184l153 254h279z" />
    <glyph glyph-name="Ucircumflex" unicode="&#xdb;" horiz-adv-x="1163" 
d="M125 1464h285v-1212h344v1212h284v-1220q0 -111 -59 -177.5t-191 -66.5h-413q-132 0 -191 66.5t-59 177.5v1220zM862 1546h-147l-131 127l-133 -127h-150l162 254h237z" />
    <glyph glyph-name="Udieresis" unicode="&#xdc;" horiz-adv-x="1163" 
d="M125 1464h285v-1212h344v1212h284v-1220q0 -111 -59 -177.5t-191 -66.5h-413q-132 0 -191 66.5t-59 177.5v1220zM297 1606v118q0 54 45 54h139q45 0 45 -54v-118q0 -54 -45 -54h-139q-45 0 -45 54zM635 1606v118q0 24 11 39t32 15h141q21 0 33 -15t12 -39v-118
q0 -24 -12 -39t-33 -15h-141q-21 0 -32 15t-11 39z" />
    <glyph glyph-name="Yacute" unicode="&#xdd;" horiz-adv-x="1032" 
d="M369 0v670l-367 794h313l207 -506l207 506h299l-366 -794v-670h-293zM543 1546h-185l154 254h279z" />
    <glyph glyph-name="Thorn" unicode="&#xde;" horiz-adv-x="1116" 
d="M1036 973v-443q0 -111 -58.5 -176t-191.5 -65h-374v-289h-281v1464h281v-247h374q132 0 191 -66.5t59 -177.5zM690 971h-278v-436h278q26 0 45 19.5t19 47.5v301q0 28 -19 48t-45 20z" />
    <glyph glyph-name="germandbls" unicode="&#xdf;" horiz-adv-x="2150" 
d="M389 1151v-176q0 -52 21.5 -72.5t74.5 -23.5l246 -11q250 -11 250 -245v-379q0 -111 -59 -177.5t-191 -66.5h-407q-131 0 -190.5 66.5t-59.5 177.5v147l276 55v-133q0 -27 20 -47t46 -20h215q28 0 46.5 19.5t18.5 47.5v203q0 52 -19 70.5t-75 21.5l-244 13
q-252 11 -252 243v357q0 110 59.5 176.5t192.5 66.5h363q133 0 191.5 -66t58.5 -177v-136l-277 -55v121q0 28 -18.5 48t-44.5 20h-176q-28 0 -47 -20t-19 -48zM1464 1151v-176q0 -52 21.5 -72.5t75.5 -23.5l245 -11q250 -11 250 -245v-379q0 -111 -59 -177.5t-191 -66.5
h-407q-131 0 -190.5 66.5t-59.5 177.5v147l276 55v-133q0 -27 19.5 -47t46.5 -20h215q28 0 47 19.5t19 47.5v203q0 52 -19.5 70.5t-75.5 21.5l-243 13q-252 11 -252 243v357q0 110 59.5 176.5t192.5 66.5h362q132 0 191 -66t59 -177v-136l-277 -55v121q0 28 -18.5 48
t-44.5 20h-176q-28 0 -47 -20t-19 -48z" />
    <glyph glyph-name="agrave" unicode="&#xe0;" horiz-adv-x="1083" 
d="M780 0l-71 291h-359l-71 -291h-271l402 1464h260l407 -1464h-297zM649 532l-71 310l-43 190h-3l-45 -190l-75 -310h237zM700 1546h-184l-246 254h281z" />
    <glyph glyph-name="aacute" unicode="&#xe1;" horiz-adv-x="1083" 
d="M780 0l-71 291h-359l-71 -291h-271l402 1464h260l407 -1464h-297zM649 532l-71 310l-43 190h-3l-45 -190l-75 -310h237zM563 1546h-184l153 254h279z" />
    <glyph glyph-name="acircumflex" unicode="&#xe2;" horiz-adv-x="1083" 
d="M780 0l-71 291h-359l-71 -291h-271l402 1464h260l407 -1464h-297zM649 532l-71 310l-43 190h-3l-45 -190l-75 -310h237zM821 1546h-147l-131 127l-133 -127h-150l162 254h237z" />
    <glyph glyph-name="atilde" unicode="&#xe3;" horiz-adv-x="1083" 
d="M780 0l-71 291h-359l-71 -291h-271l402 1464h260l407 -1464h-297zM649 532l-71 310l-43 190h-3l-45 -190l-75 -310h237zM254 1548q0 137 44.5 198.5t115.5 61.5q26 0 54 -9t43 -18t42 -26q5 -4 16 -12t15.5 -11t13 -8.5t14 -7.5t13 -4t14.5 -2q47 0 47 90h135
q0 -137 -45.5 -198.5t-118.5 -61.5q-56 0 -129 49q-10 6 -25 17t-24 16.5t-20.5 10.5t-20.5 5q-49 0 -49 -90h-135z" />
    <glyph glyph-name="adieresis" unicode="&#xe4;" horiz-adv-x="1083" 
d="M780 0l-71 291h-359l-71 -291h-271l402 1464h260l407 -1464h-297zM649 532l-71 310l-43 190h-3l-45 -190l-75 -310h237zM256 1606v118q0 54 45 54h139q45 0 45 -54v-118q0 -54 -45 -54h-139q-45 0 -45 54zM594 1606v118q0 24 11 39t32 15h141q21 0 33 -15t12 -39v-118
q0 -24 -12 -39t-33 -15h-141q-21 0 -32 15t-11 39z" />
    <glyph glyph-name="aring" unicode="&#xe5;" horiz-adv-x="1083" 
d="M780 0l-71 291h-359l-71 -291h-271l402 1464h260l407 -1464h-297zM649 532l-71 310l-43 190h-3l-45 -190l-75 -310h237zM762 1718q0 -82 -58.5 -138t-162.5 -56t-164 56t-60 138q0 86 59.5 143.5t164.5 57.5q104 0 162.5 -57.5t58.5 -143.5zM627 1718q0 36 -23.5 62
t-62.5 26q-41 0 -64.5 -26t-23.5 -62q0 -33 23.5 -56.5t64.5 -23.5q39 0 62.5 23.5t23.5 56.5z" />
    <glyph glyph-name="ae" unicode="&#xe6;" horiz-adv-x="1546" 
d="M1507 0h-784v283h-322l-127 -283h-290l706 1464h793v-245h-477v-353h313v-254h-313v-366h501v-246zM512 526h211v459h-2z" />
    <glyph glyph-name="ccedilla" unicode="&#xe7;" horiz-adv-x="1093" 
d="M121 244v977q0 110 59.5 176.5t192.5 66.5h387q132 0 191 -66t59 -177v-207l-273 -56v261h-331v-973h331v299l273 -53v-248q0 -111 -59 -177.5t-191 -66.5h-111l-20 -82q61 -7 102 -37t41 -88q0 -143 -276 -143q-84 0 -142 20v119q68 -20 129 -20q84 0 84 43q0 47 -73 47
h-39l30 141h-112q-133 0 -192.5 66.5t-59.5 177.5z" />
    <glyph glyph-name="egrave" unicode="&#xe8;" horiz-adv-x="954" 
d="M915 0h-784v1464h758v-245h-475v-353h311v-254h-311v-366h501v-246zM670 1546h-185l-245 254h280z" />
    <glyph glyph-name="eacute" unicode="&#xe9;" horiz-adv-x="954" 
d="M915 0h-784v1464h758v-245h-475v-353h311v-254h-311v-366h501v-246zM535 1546h-185l154 254h278z" />
    <glyph glyph-name="ecircumflex" unicode="&#xea;" horiz-adv-x="954" 
d="M915 0h-784v1464h758v-245h-475v-353h311v-254h-311v-366h501v-246zM791 1546h-148l-131 127l-133 -127h-150l162 254h238z" />
    <glyph glyph-name="edieresis" unicode="&#xeb;" horiz-adv-x="954" 
d="M915 0h-784v1464h758v-245h-475v-353h311v-254h-311v-366h501v-246zM225 1606v118q0 54 45 54h140q45 0 45 -54v-118q0 -54 -45 -54h-140q-45 0 -45 54zM563 1606v118q0 24 11 39t32 15h142q21 0 33 -15t12 -39v-118q0 -24 -12 -39t-33 -15h-142q-21 0 -32 15t-11 39z
" />
    <glyph glyph-name="igrave" unicode="&#xec;" horiz-adv-x="544" 
d="M414 1464v-1464h-283v1464h283zM432 1546h-184l-246 254h281z" />
    <glyph glyph-name="iacute" unicode="&#xed;" horiz-adv-x="544" 
d="M414 1464v-1464h-283v1464h283zM295 1546h-184l153 254h279z" />
    <glyph glyph-name="icircumflex" unicode="&#xee;" horiz-adv-x="544" 
d="M414 1464v-1464h-283v1464h283zM553 1546h-147l-132 127l-133 -127h-149l162 254h237z" />
    <glyph glyph-name="idieresis" unicode="&#xef;" horiz-adv-x="544" 
d="M414 1464v-1464h-283v1464h283zM-12 1606v118q0 54 45 54h139q45 0 45 -54v-118q0 -54 -45 -54h-139q-45 0 -45 54zM326 1606v118q0 24 11 39t32 15h141q21 0 33 -15t12 -39v-118q0 -24 -12 -39t-33 -15h-141q-21 0 -32 15t-11 39z" />
    <glyph glyph-name="eth" unicode="&#xf0;" horiz-adv-x="1165" 
d="M33 643v213h121v608h485q93 0 171 -28.5t139 -86.5t95.5 -155t34.5 -225v-473q0 -128 -34.5 -225.5t-95.5 -155.5t-139 -86.5t-171 -28.5h-485v643h-121zM612 643h-176v-397h152q58 0 101 24.5t65.5 64.5t32.5 81.5t10 85.5v461q0 44 -10 85.5t-32.5 81.5t-65.5 64.5
t-101 24.5h-152v-363h176v-213z" />
    <glyph glyph-name="ntilde" unicode="&#xf1;" horiz-adv-x="1196" 
d="M131 1464h240l420 -813h2v813h272v-1464h-217l-445 854h-2v-854h-270v1464zM311 1548q0 137 44.5 198.5t115.5 61.5q26 0 54 -9t43 -18t42 -26q5 -4 16 -12t15.5 -11t13 -8.5t14 -7.5t13 -4t14.5 -2q47 0 47 90h136q0 -137 -45.5 -198.5t-118.5 -61.5q-56 0 -129 49
q-10 6 -25 17t-24 16.5t-20.5 10.5t-20.5 5q-50 0 -50 -90h-135z" />
    <glyph glyph-name="ograve" unicode="&#xf2;" horiz-adv-x="1214" 
d="M1092 1221v-977q0 -111 -59 -177.5t-191 -66.5h-469q-133 0 -192.5 66.5t-59.5 177.5v977q0 110 59.5 176.5t192.5 66.5h469q132 0 191 -66t59 -177zM809 246v973h-403v-973h403zM766 1546h-184l-246 254h280z" />
    <glyph glyph-name="oacute" unicode="&#xf3;" horiz-adv-x="1214" 
d="M1092 1221v-977q0 -111 -59 -177.5t-191 -66.5h-469q-133 0 -192.5 66.5t-59.5 177.5v977q0 110 59.5 176.5t192.5 66.5h469q132 0 191 -66t59 -177zM809 246v973h-403v-973h403zM629 1546h-185l154 254h279z" />
    <glyph glyph-name="ocircumflex" unicode="&#xf4;" horiz-adv-x="1214" 
d="M1092 1221v-977q0 -111 -59 -177.5t-191 -66.5h-469q-133 0 -192.5 66.5t-59.5 177.5v977q0 110 59.5 176.5t192.5 66.5h469q132 0 191 -66t59 -177zM809 246v973h-403v-973h403zM887 1546h-148l-131 127l-133 -127h-149l161 254h238z" />
    <glyph glyph-name="otilde" unicode="&#xf5;" horiz-adv-x="1214" 
d="M1092 1221v-977q0 -111 -59 -177.5t-191 -66.5h-469q-133 0 -192.5 66.5t-59.5 177.5v977q0 110 59.5 176.5t192.5 66.5h469q132 0 191 -66t59 -177zM809 246v973h-403v-973h403zM319 1548q0 137 44.5 198.5t115.5 61.5q26 0 54 -9t43 -18t42 -26l16 -12t16 -11.5
t13.5 -8t14.5 -7.5t12.5 -4t14.5 -2q47 0 47 90h135q0 -137 -45.5 -198.5t-118.5 -61.5q-56 0 -129 49q-10 6 -25 17t-24 16.5t-20.5 10.5t-20.5 5q-49 0 -49 -90h-136z" />
    <glyph glyph-name="odieresis" unicode="&#xf6;" horiz-adv-x="1214" 
d="M1092 1221v-977q0 -111 -59 -177.5t-191 -66.5h-469q-133 0 -192.5 66.5t-59.5 177.5v977q0 110 59.5 176.5t192.5 66.5h469q132 0 191 -66t59 -177zM809 246v973h-403v-973h403zM322 1606v118q0 54 45 54h139q45 0 45 -54v-118q0 -54 -45 -54h-139q-45 0 -45 54z
M659 1606v118q0 24 11 39t32 15h142q21 0 33 -15t12 -39v-118q0 -24 -12 -39t-33 -15h-142q-21 0 -32 15t-11 39z" />
    <glyph glyph-name="divide" unicode="&#xf7;" horiz-adv-x="1042" 
d="M66 502v223h909v-223h-909zM385 954v117q0 32 14.5 52t42.5 20h156q28 0 43.5 -20t15.5 -52v-117q0 -32 -15.5 -51.5t-43.5 -19.5h-156q-28 0 -42.5 19.5t-14.5 51.5zM385 156v116q0 32 14.5 52t42.5 20h156q28 0 43.5 -20t15.5 -52v-116q0 -32 -15.5 -52t-43.5 -20h-156
q-28 0 -42.5 20t-14.5 52z" />
    <glyph glyph-name="oslash" unicode="&#xf8;" horiz-adv-x="1214" 
d="M434 -139h-227l55 153q-141 45 -141 230v977q0 110 56.5 176.5t182.5 66.5h369l51 140h228l-56 -154q140 -48 140 -229v-977q0 -111 -56.5 -177.5t-181.5 -66.5h-371zM819 240v800l-330 -800h330zM395 1225v-799l326 799h-326z" />
    <glyph glyph-name="ugrave" unicode="&#xf9;" horiz-adv-x="1163" 
d="M125 1464h285v-1212h344v1212h284v-1220q0 -111 -59 -177.5t-191 -66.5h-413q-132 0 -191 66.5t-59 177.5v1220zM741 1546h-184l-246 254h281z" />
    <glyph glyph-name="uacute" unicode="&#xfa;" horiz-adv-x="1163" 
d="M125 1464h285v-1212h344v1212h284v-1220q0 -111 -59 -177.5t-191 -66.5h-413q-132 0 -191 66.5t-59 177.5v1220zM604 1546h-184l153 254h279z" />
    <glyph glyph-name="ucircumflex" unicode="&#xfb;" horiz-adv-x="1163" 
d="M125 1464h285v-1212h344v1212h284v-1220q0 -111 -59 -177.5t-191 -66.5h-413q-132 0 -191 66.5t-59 177.5v1220zM862 1546h-147l-131 127l-133 -127h-150l162 254h237z" />
    <glyph glyph-name="udieresis" unicode="&#xfc;" horiz-adv-x="1163" 
d="M125 1464h285v-1212h344v1212h284v-1220q0 -111 -59 -177.5t-191 -66.5h-413q-132 0 -191 66.5t-59 177.5v1220zM297 1606v118q0 54 45 54h139q45 0 45 -54v-118q0 -54 -45 -54h-139q-45 0 -45 54zM635 1606v118q0 24 11 39t32 15h141q21 0 33 -15t12 -39v-118
q0 -24 -12 -39t-33 -15h-141q-21 0 -32 15t-11 39z" />
    <glyph glyph-name="yacute" unicode="&#xfd;" horiz-adv-x="1032" 
d="M369 0v670l-367 794h313l207 -506l207 506h299l-366 -794v-670h-293zM543 1546h-185l154 254h279z" />
    <glyph glyph-name="thorn" unicode="&#xfe;" horiz-adv-x="1116" 
d="M1036 973v-443q0 -111 -58.5 -176t-191.5 -65h-374v-289h-281v1464h281v-247h374q132 0 191 -66.5t59 -177.5zM690 971h-278v-436h278q26 0 45 19.5t19 47.5v301q0 28 -19 48t-45 20z" />
    <glyph glyph-name="ydieresis" unicode="&#xff;" horiz-adv-x="1032" 
d="M369 0v670l-367 794h313l207 -506l207 506h299l-366 -794v-670h-293zM236 1606v118q0 54 45 54h139q45 0 45 -54v-118q0 -54 -45 -54h-139q-45 0 -45 54zM573 1606v118q0 24 11 39t32 15h142q21 0 33 -15t12 -39v-118q0 -24 -12 -39t-33 -15h-142q-21 0 -32 15t-11 39z
" />
    <glyph glyph-name="Amacron" unicode="&#x100;" horiz-adv-x="1083" 
d="M780 0l-71 291h-359l-71 -291h-271l402 1464h260l407 -1464h-297zM649 532l-71 310l-43 190h-3l-45 -190l-75 -310h237zM770 1565h-461v186h461v-186z" />
    <glyph glyph-name="amacron" unicode="&#x101;" horiz-adv-x="1083" 
d="M780 0l-71 291h-359l-71 -291h-271l402 1464h260l407 -1464h-297zM649 532l-71 310l-43 190h-3l-45 -190l-75 -310h237zM770 1565h-461v186h461v-186z" />
    <glyph glyph-name="Abreve" unicode="&#x102;" horiz-adv-x="1083" 
d="M780 0l-71 291h-359l-71 -291h-271l402 1464h260l407 -1464h-297zM649 532l-71 310l-43 190h-3l-45 -190l-75 -310h237zM629 1800h149v-71q0 -99 -64.5 -152t-170.5 -53q-105 0 -171.5 53.5t-66.5 151.5v71h154v-51q0 -47 22 -65.5t62 -18.5q86 0 86 84v51z" />
    <glyph glyph-name="abreve" unicode="&#x103;" horiz-adv-x="1083" 
d="M780 0l-71 291h-359l-71 -291h-271l402 1464h260l407 -1464h-297zM649 532l-71 310l-43 190h-3l-45 -190l-75 -310h237zM629 1800h149v-71q0 -99 -64.5 -152t-170.5 -53q-105 0 -171.5 53.5t-66.5 151.5v71h154v-51q0 -47 22 -65.5t62 -18.5q86 0 86 84v51z" />
    <glyph glyph-name="Aogonek" unicode="&#x104;" horiz-adv-x="1083" 
d="M780 0l-71 291h-359l-71 -291h-271l402 1464h260l407 -1464h-129q-40 -36 -74 -79.5t-34 -76.5q0 -53 69 -53q61 0 113 27v-137q-53 -33 -160 -33q-44 0 -83.5 7.5t-75.5 24t-57 46t-21 69.5q0 96 157 205h-2zM649 532l-71 310l-43 190h-3l-45 -190l-75 -310h237z" />
    <glyph glyph-name="aogonek" unicode="&#x105;" horiz-adv-x="1083" 
d="M780 0l-71 291h-359l-71 -291h-271l402 1464h260l407 -1464h-129q-40 -36 -74 -79.5t-34 -76.5q0 -53 69 -53q61 0 113 27v-137q-53 -33 -160 -33q-44 0 -83.5 7.5t-75.5 24t-57 46t-21 69.5q0 96 157 205h-2zM649 532l-71 310l-43 190h-3l-45 -190l-75 -310h237z" />
    <glyph glyph-name="Cacute" unicode="&#x106;" horiz-adv-x="1093" 
d="M121 244v977q0 110 59.5 176.5t192.5 66.5h387q132 0 191 -66t59 -177v-207l-273 -56v261h-331v-973h331v299l273 -53v-248q0 -111 -59 -177.5t-191 -66.5h-387q-133 0 -192.5 66.5t-59.5 177.5zM590 1546h-184l153 254h279z" />
    <glyph glyph-name="cacute" unicode="&#x107;" horiz-adv-x="1093" 
d="M121 244v977q0 110 59.5 176.5t192.5 66.5h387q132 0 191 -66t59 -177v-207l-273 -56v261h-331v-973h331v299l273 -53v-248q0 -111 -59 -177.5t-191 -66.5h-387q-133 0 -192.5 66.5t-59.5 177.5zM590 1546h-184l153 254h279z" />
    <glyph glyph-name="Ccircumflex" unicode="&#x108;" horiz-adv-x="1093" 
d="M121 244v977q0 110 59.5 176.5t192.5 66.5h387q132 0 191 -66t59 -177v-207l-273 -56v261h-331v-973h331v299l273 -53v-248q0 -111 -59 -177.5t-191 -66.5h-387q-133 0 -192.5 66.5t-59.5 177.5zM848 1546h-148l-131 127l-133 -127h-149l162 254h237z" />
    <glyph glyph-name="ccircumflex" unicode="&#x109;" horiz-adv-x="1093" 
d="M121 244v977q0 110 59.5 176.5t192.5 66.5h387q132 0 191 -66t59 -177v-207l-273 -56v261h-331v-973h331v299l273 -53v-248q0 -111 -59 -177.5t-191 -66.5h-387q-133 0 -192.5 66.5t-59.5 177.5zM848 1546h-148l-131 127l-133 -127h-149l162 254h237z" />
    <glyph glyph-name="Cdotaccent" unicode="&#x10a;" horiz-adv-x="1093" 
d="M121 244v977q0 110 59.5 176.5t192.5 66.5h387q132 0 191 -66t59 -177v-207l-273 -56v261h-331v-973h331v299l273 -53v-248q0 -111 -59 -177.5t-191 -66.5h-387q-133 0 -192.5 66.5t-59.5 177.5zM453 1606v118q0 24 11 39t32 15h143q21 0 32 -15t11 -39v-118
q0 -24 -11 -39t-32 -15h-143q-21 0 -32 15t-11 39z" />
    <glyph glyph-name="cdotaccent" unicode="&#x10b;" horiz-adv-x="1093" 
d="M121 244v977q0 110 59.5 176.5t192.5 66.5h387q132 0 191 -66t59 -177v-207l-273 -56v261h-331v-973h331v299l273 -53v-248q0 -111 -59 -177.5t-191 -66.5h-387q-133 0 -192.5 66.5t-59.5 177.5zM453 1606v118q0 24 11 39t32 15h143q21 0 32 -15t11 -39v-118
q0 -24 -11 -39t-32 -15h-143q-21 0 -32 15t-11 39z" />
    <glyph glyph-name="Ccaron" unicode="&#x10c;" horiz-adv-x="1093" 
d="M121 244v977q0 110 59.5 176.5t192.5 66.5h387q132 0 191 -66t59 -177v-207l-273 -56v261h-331v-973h331v299l273 -53v-248q0 -111 -59 -177.5t-191 -66.5h-387q-133 0 -192.5 66.5t-59.5 177.5zM700 1800h148l-162 -254h-237l-162 254h149l133 -125z" />
    <glyph glyph-name="ccaron" unicode="&#x10d;" horiz-adv-x="1093" 
d="M121 244v977q0 110 59.5 176.5t192.5 66.5h387q132 0 191 -66t59 -177v-207l-273 -56v261h-331v-973h331v299l273 -53v-248q0 -111 -59 -177.5t-191 -66.5h-387q-133 0 -192.5 66.5t-59.5 177.5zM700 1800h148l-162 -254h-237l-162 254h149l133 -125z" />
    <glyph glyph-name="Dcaron" unicode="&#x10e;" horiz-adv-x="1142" 
d="M1055 969v-473q0 -128 -34 -225.5t-95 -155.5t-139 -86.5t-171 -28.5h-485v1464h485q93 0 171 -28.5t139 -86.5t95 -155t34 -225zM563 1219h-149v-973h149q59 0 102.5 24.5t66 64.5t32.5 81.5t10 85.5v461q0 44 -10 85.5t-32.5 81.5t-66 64.5t-102.5 24.5zM702 1800h148
l-162 -254h-237l-162 254h149l133 -125z" />
    <glyph glyph-name="dcaron" unicode="&#x10f;" horiz-adv-x="1142" 
d="M1055 969v-473q0 -128 -34 -225.5t-95 -155.5t-139 -86.5t-171 -28.5h-485v1464h485q93 0 171 -28.5t139 -86.5t95 -155t34 -225zM563 1219h-149v-973h149q59 0 102.5 24.5t66 64.5t32.5 81.5t10 85.5v461q0 44 -10 85.5t-32.5 81.5t-66 64.5t-102.5 24.5zM702 1800h148
l-162 -254h-237l-162 254h149l133 -125z" />
    <glyph glyph-name="Dcroat" unicode="&#x110;" horiz-adv-x="1165" 
d="M33 643v213h121v608h485q93 0 171 -28.5t139 -86.5t95.5 -155t34.5 -225v-473q0 -128 -34.5 -225.5t-95.5 -155.5t-139 -86.5t-171 -28.5h-485v643h-121zM612 643h-176v-397h152q58 0 101 24.5t65.5 64.5t32.5 81.5t10 85.5v461q0 44 -10 85.5t-32.5 81.5t-65.5 64.5
t-101 24.5h-152v-363h176v-213z" />
    <glyph glyph-name="dcroat" unicode="&#x111;" horiz-adv-x="1165" 
d="M33 643v213h121v608h485q93 0 171 -28.5t139 -86.5t95.5 -155t34.5 -225v-473q0 -128 -34.5 -225.5t-95.5 -155.5t-139 -86.5t-171 -28.5h-485v643h-121zM612 643h-176v-397h152q58 0 101 24.5t65.5 64.5t32.5 81.5t10 85.5v461q0 44 -10 85.5t-32.5 81.5t-65.5 64.5
t-101 24.5h-152v-363h176v-213z" />
    <glyph glyph-name="Emacron" unicode="&#x112;" horiz-adv-x="954" 
d="M915 0h-784v1464h758v-245h-475v-353h311v-254h-311v-366h501v-246zM741 1565h-460v186h460v-186z" />
    <glyph glyph-name="emacron" unicode="&#x113;" horiz-adv-x="954" 
d="M915 0h-784v1464h758v-245h-475v-353h311v-254h-311v-366h501v-246zM741 1565h-460v186h460v-186z" />
    <glyph glyph-name="Ebreve" unicode="&#x114;" horiz-adv-x="954" 
d="M915 0h-784v1464h758v-245h-475v-353h311v-254h-311v-366h501v-246zM600 1800h150v-71q0 -98 -65 -151.5t-171 -53.5q-105 0 -171.5 53.5t-66.5 151.5v71h154v-51q0 -47 22 -65.5t62 -18.5q86 0 86 84v51z" />
    <glyph glyph-name="ebreve" unicode="&#x115;" horiz-adv-x="954" 
d="M915 0h-784v1464h758v-245h-475v-353h311v-254h-311v-366h501v-246zM600 1800h150v-71q0 -98 -65 -151.5t-171 -53.5q-105 0 -171.5 53.5t-66.5 151.5v71h154v-51q0 -47 22 -65.5t62 -18.5q86 0 86 84v51z" />
    <glyph glyph-name="Edotaccent" unicode="&#x116;" horiz-adv-x="954" 
d="M915 0h-784v1464h758v-245h-475v-353h311v-254h-311v-366h501v-246zM397 1606v118q0 24 11 39t32 15h144q21 0 32 -15t11 -39v-118q0 -24 -11 -39t-32 -15h-144q-21 0 -32 15t-11 39z" />
    <glyph glyph-name="edotaccent" unicode="&#x117;" horiz-adv-x="954" 
d="M915 0h-784v1464h758v-245h-475v-353h311v-254h-311v-366h501v-246zM397 1606v118q0 24 11 39t32 15h144q21 0 32 -15t11 -39v-118q0 -24 -11 -39t-32 -15h-144q-21 0 -32 15t-11 39z" />
    <glyph glyph-name="Eogonek" unicode="&#x118;" horiz-adv-x="954" 
d="M915 -182v-137q-53 -33 -159 -33q-44 0 -84 7.5t-75.5 24t-57 46t-21.5 69.5q0 95 158 205h-545v1464h758v-245h-475v-353h311v-254h-311v-366h501v-246h-73q-109 -98 -109 -156q0 -53 70 -53q60 0 112 27z" />
    <glyph glyph-name="eogonek" unicode="&#x119;" horiz-adv-x="954" 
d="M915 -182v-137q-53 -33 -159 -33q-44 0 -84 7.5t-75.5 24t-57 46t-21.5 69.5q0 95 158 205h-545v1464h758v-245h-475v-353h311v-254h-311v-366h501v-246h-73q-109 -98 -109 -156q0 -53 70 -53q60 0 112 27z" />
    <glyph glyph-name="Ecaron" unicode="&#x11a;" horiz-adv-x="954" 
d="M915 0h-784v1464h758v-245h-475v-353h311v-254h-311v-366h501v-246zM643 1800h148l-162 -254h-238l-162 254h150l133 -125z" />
    <glyph glyph-name="ecaron" unicode="&#x11b;" horiz-adv-x="954" 
d="M915 0h-784v1464h758v-245h-475v-353h311v-254h-311v-366h501v-246zM643 1800h148l-162 -254h-238l-162 254h150l133 -125z" />
    <glyph glyph-name="Gcircumflex" unicode="&#x11c;" horiz-adv-x="1179" 
d="M801 586h-203v248h477v-590q0 -111 -58.5 -177.5t-189.5 -66.5h-454q-133 0 -192.5 66.5t-59.5 177.5v977q0 110 59.5 176.5t192.5 66.5h454q131 0 189.5 -66t58.5 -177v-144l-274 -53v195h-395v-973h395v340zM879 1546h-148l-131 127l-133 -127h-150l162 254h238z" />
    <glyph glyph-name="gcircumflex" unicode="&#x11d;" horiz-adv-x="1179" 
d="M801 586h-203v248h477v-590q0 -111 -58.5 -177.5t-189.5 -66.5h-454q-133 0 -192.5 66.5t-59.5 177.5v977q0 110 59.5 176.5t192.5 66.5h454q131 0 189.5 -66t58.5 -177v-144l-274 -53v195h-395v-973h395v340zM879 1546h-148l-131 127l-133 -127h-150l162 254h238z" />
    <glyph glyph-name="Gbreve" unicode="&#x11e;" horiz-adv-x="1179" 
d="M801 586h-203v248h477v-590q0 -111 -58.5 -177.5t-189.5 -66.5h-454q-133 0 -192.5 66.5t-59.5 177.5v977q0 110 59.5 176.5t192.5 66.5h454q131 0 189.5 -66t58.5 -177v-144l-274 -53v195h-395v-973h395v340zM686 1800h150v-71q0 -98 -65 -151.5t-171 -53.5
q-105 0 -171.5 53.5t-66.5 151.5v71h154v-51q0 -47 22 -65.5t62 -18.5q86 0 86 84v51z" />
    <glyph glyph-name="gbreve" unicode="&#x11f;" horiz-adv-x="1179" 
d="M801 586h-203v248h477v-590q0 -111 -58.5 -177.5t-189.5 -66.5h-454q-133 0 -192.5 66.5t-59.5 177.5v977q0 110 59.5 176.5t192.5 66.5h454q131 0 189.5 -66t58.5 -177v-144l-274 -53v195h-395v-973h395v340zM686 1800h150v-71q0 -98 -65 -151.5t-171 -53.5
q-105 0 -171.5 53.5t-66.5 151.5v71h154v-51q0 -47 22 -65.5t62 -18.5q86 0 86 84v51z" />
    <glyph glyph-name="Gdotaccent" unicode="&#x120;" horiz-adv-x="1179" 
d="M801 586h-203v248h477v-590q0 -111 -58.5 -177.5t-189.5 -66.5h-454q-133 0 -192.5 66.5t-59.5 177.5v977q0 110 59.5 176.5t192.5 66.5h454q131 0 189.5 -66t58.5 -177v-144l-274 -53v195h-395v-973h395v340zM483 1606v118q0 24 11 39t32 15h144q21 0 32 -15t11 -39
v-118q0 -24 -11 -39t-32 -15h-144q-21 0 -32 15t-11 39z" />
    <glyph glyph-name="gdotaccent" unicode="&#x121;" horiz-adv-x="1179" 
d="M801 586h-203v248h477v-590q0 -111 -58.5 -177.5t-189.5 -66.5h-454q-133 0 -192.5 66.5t-59.5 177.5v977q0 110 59.5 176.5t192.5 66.5h454q131 0 189.5 -66t58.5 -177v-144l-274 -53v195h-395v-973h395v340zM483 1606v118q0 24 11 39t32 15h144q21 0 32 -15t11 -39
v-118q0 -24 -11 -39t-32 -15h-144q-21 0 -32 15t-11 39z" />
    <glyph glyph-name="uni0122" unicode="&#x122;" horiz-adv-x="1179" 
d="M801 586h-203v248h477v-590q0 -111 -58.5 -177.5t-189.5 -66.5h-454q-133 0 -192.5 66.5t-59.5 177.5v977q0 110 59.5 176.5t192.5 66.5h454q131 0 189.5 -66t58.5 -177v-144l-274 -53v195h-395v-973h395v340zM532 -338h-182l154 254h276z" />
    <glyph glyph-name="uni0123" unicode="&#x123;" horiz-adv-x="1179" 
d="M801 586h-203v248h477v-590q0 -111 -58.5 -177.5t-189.5 -66.5h-454q-133 0 -192.5 66.5t-59.5 177.5v977q0 110 59.5 176.5t192.5 66.5h454q131 0 189.5 -66t58.5 -177v-144l-274 -53v195h-395v-973h395v340zM532 -338h-182l154 254h276z" />
    <glyph glyph-name="Hcircumflex" unicode="&#x124;" horiz-adv-x="1206" 
d="M414 866h379v598h282v-1464h-282v623h-379v-623h-283v1464h283v-598zM883 1546h-148l-131 127l-133 -127h-149l161 254h238z" />
    <glyph glyph-name="hcircumflex" unicode="&#x125;" horiz-adv-x="1206" 
d="M414 866h379v598h282v-1464h-282v623h-379v-623h-283v1464h283v-598zM883 1546h-148l-131 127l-133 -127h-149l161 254h238z" />
    <glyph glyph-name="Hbar" unicode="&#x126;" horiz-adv-x="1255" 
d="M35 1264h121v200h280v-200h381v200h283v-200h119v-213h-119v-1051h-283v608h-381v-608h-280v1051h-121v213zM436 852h381v199h-381v-199z" />
    <glyph glyph-name="hbar" unicode="&#x127;" horiz-adv-x="1255" 
d="M41 1264h119v200h282v-200h379v200h283v-200h121v-213h-121v-1051h-283v608h-379v-608h-282v1051h-119v213zM442 852h379v199h-379v-199z" />
    <glyph glyph-name="Itilde" unicode="&#x128;" horiz-adv-x="544" 
d="M414 1464v-1464h-283v1464h283zM-14 1548q0 137 44 198.5t115 61.5q26 0 54 -9t44 -18t42 -26q5 -4 16 -12t15.5 -11t13 -8.5t14 -7.5t13 -4t14.5 -2q47 0 47 90h135q0 -137 -45.5 -198.5t-118.5 -61.5q-56 0 -129 49q-10 6 -25 17t-24 16.5t-20.5 10.5t-20.5 5
q-49 0 -49 -90h-135z" />
    <glyph glyph-name="itilde" unicode="&#x129;" horiz-adv-x="544" 
d="M414 1464v-1464h-283v1464h283zM-14 1548q0 137 44 198.5t115 61.5q26 0 54 -9t44 -18t42 -26q5 -4 16 -12t15.5 -11t13 -8.5t14 -7.5t13 -4t14.5 -2q47 0 47 90h135q0 -137 -45.5 -198.5t-118.5 -61.5q-56 0 -129 49q-10 6 -25 17t-24 16.5t-20.5 10.5t-20.5 5
q-49 0 -49 -90h-135z" />
    <glyph glyph-name="Imacron" unicode="&#x12a;" horiz-adv-x="544" 
d="M414 1464v-1464h-283v1464h283zM502 1565h-461v186h461v-186z" />
    <glyph glyph-name="imacron" unicode="&#x12b;" horiz-adv-x="544" 
d="M414 1464v-1464h-283v1464h283zM502 1565h-461v186h461v-186z" />
    <glyph glyph-name="Ibreve" unicode="&#x12c;" horiz-adv-x="544" 
d="M414 1464v-1464h-283v1464h283zM360 1800h150v-71q0 -98 -65 -151.5t-171 -53.5q-105 0 -171 53.5t-66 151.5v71h153v-51q0 -47 22 -65.5t62 -18.5q86 0 86 84v51z" />
    <glyph glyph-name="ibreve" unicode="&#x12d;" horiz-adv-x="544" 
d="M414 1464v-1464h-283v1464h283zM360 1800h150v-71q0 -98 -65 -151.5t-171 -53.5q-105 0 -171 53.5t-66 151.5v71h153v-51q0 -47 22 -65.5t62 -18.5q86 0 86 84v51z" />
    <glyph glyph-name="Iogonek" unicode="&#x12e;" horiz-adv-x="544" 
d="M434 -182v-137q-53 -33 -160 -33q-44 0 -83.5 7.5t-75.5 24t-57 46t-21 69.5q0 95 158 205h-64v1464h283v-1464h-54q-40 -36 -74 -79.5t-34 -76.5q0 -53 70 -53q60 0 112 27z" />
    <glyph glyph-name="iogonek" unicode="&#x12f;" horiz-adv-x="544" 
d="M434 -182v-137q-53 -33 -160 -33q-44 0 -83.5 7.5t-75.5 24t-57 46t-21 69.5q0 95 158 205h-64v1464h283v-1464h-54q-40 -36 -74 -79.5t-34 -76.5q0 -53 70 -53q60 0 112 27z" />
    <glyph glyph-name="Idotaccent" unicode="&#x130;" horiz-adv-x="544" 
d="M414 1464v-1464h-283v1464h283zM131 1606v118q0 54 43 54h195q45 0 45 -54v-118q0 -54 -45 -54h-195q-43 0 -43 54z" />
    <glyph glyph-name="dotlessi" unicode="&#x131;" horiz-adv-x="544" 
d="M414 1464v-1464h-283v1464h283z" />
    <glyph glyph-name="IJ" unicode="&#x132;" horiz-adv-x="1509" 
d="M414 1464v-1464h-283v1464h283zM1133 0h-293q-133 0 -192.5 66.5t-59.5 177.5v284l274 54v-336h238v1218h284v-1220q0 -111 -59 -177.5t-192 -66.5z" />
    <glyph glyph-name="ij" unicode="&#x133;" horiz-adv-x="1509" 
d="M414 1464v-1464h-283v1464h283zM1133 0h-293q-133 0 -192.5 66.5t-59.5 177.5v284l274 54v-336h238v1218h284v-1220q0 -111 -59 -177.5t-192 -66.5z" />
    <glyph glyph-name="Jcircumflex" unicode="&#x134;" horiz-adv-x="964" 
d="M588 0h-293q-133 0 -192.5 66.5t-59.5 177.5v284l274 54v-336h238v1218h285v-1220q0 -111 -59.5 -177.5t-192.5 -66.5zM977 1546h-148l-131 127l-133 -127h-149l162 254h237z" />
    <glyph glyph-name="jcircumflex" unicode="&#x135;" horiz-adv-x="964" 
d="M588 0h-293q-133 0 -192.5 66.5t-59.5 177.5v284l274 54v-336h238v1218h285v-1220q0 -111 -59.5 -177.5t-192.5 -66.5zM977 1546h-148l-131 127l-133 -127h-149l162 254h237z" />
    <glyph glyph-name="uni0136" unicode="&#x136;" horiz-adv-x="1114" 
d="M414 1464v-610h2l342 610h309l-397 -690l469 -774h-340l-383 653h-2v-653h-283v1464h283zM520 -338h-182l154 254h276z" />
    <glyph glyph-name="uni0137" unicode="&#x137;" horiz-adv-x="1114" 
d="M414 1464v-610h2l342 610h309l-397 -690l469 -774h-340l-383 653h-2v-653h-283v1464h283zM520 -338h-182l154 254h276z" />
    <glyph glyph-name="kgreenlandic" unicode="&#x138;" horiz-adv-x="1345" 
d="M414 1464v-610h2l342 610h309l-397 -690l469 -774h-340l-383 653h-2v-653h-283v1464h283zM1083 1464h250l-78 -491h-172v491z" />
    <glyph glyph-name="Lacute" unicode="&#x139;" horiz-adv-x="901" 
d="M879 0h-748v1464h283v-1218h465v-246zM295 1546h-184l153 254h279z" />
    <glyph glyph-name="lacute" unicode="&#x13a;" horiz-adv-x="901" 
d="M879 0h-748v1464h283v-1218h465v-246zM295 1546h-184l153 254h279z" />
    <glyph glyph-name="uni013B" unicode="&#x13b;" horiz-adv-x="901" 
d="M879 0h-748v1464h283v-1218h465v-246zM428 -338h-182l153 254h277z" />
    <glyph glyph-name="uni013C" unicode="&#x13c;" horiz-adv-x="901" 
d="M879 0h-748v1464h283v-1218h465v-246zM428 -338h-182l153 254h277z" />
    <glyph glyph-name="Lcaron" unicode="&#x13d;" horiz-adv-x="905" 
d="M879 0h-748v1464h283v-1218h465v-246zM623 1464h249l-77 -491h-172v491z" />
    <glyph glyph-name="lcaron" unicode="&#x13e;" horiz-adv-x="905" 
d="M879 0h-748v1464h283v-1218h465v-246zM623 1464h249l-77 -491h-172v491z" />
    <glyph glyph-name="Ldot" unicode="&#x13f;" horiz-adv-x="905" 
d="M590 672v145q0 53 43 53h186q43 0 43 -53v-145q0 -24 -11 -39t-32 -15h-186q-21 0 -32 15t-11 39zM879 0h-748v1464h283v-1218h465v-246z" />
    <glyph glyph-name="ldot" unicode="&#x140;" horiz-adv-x="905" 
d="M590 672v145q0 53 43 53h186q43 0 43 -53v-145q0 -24 -11 -39t-32 -15h-186q-21 0 -32 15t-11 39zM879 0h-748v1464h283v-1218h465v-246z" />
    <glyph glyph-name="Lslash" unicode="&#x141;" horiz-adv-x="925" 
d="M33 551v223l121 43v647h282v-542l242 88v-226l-242 -88v-448h465v-248h-747v594z" />
    <glyph glyph-name="lslash" unicode="&#x142;" horiz-adv-x="925" 
d="M33 551v223l121 43v647h282v-542l242 88v-226l-242 -88v-448h465v-248h-747v594z" />
    <glyph glyph-name="Nacute" unicode="&#x143;" horiz-adv-x="1196" 
d="M131 1464h240l420 -813h2v813h272v-1464h-217l-445 854h-2v-854h-270v1464zM621 1546h-185l154 254h278z" />
    <glyph glyph-name="nacute" unicode="&#x144;" horiz-adv-x="1196" 
d="M131 1464h240l420 -813h2v813h272v-1464h-217l-445 854h-2v-854h-270v1464zM621 1546h-185l154 254h278z" />
    <glyph glyph-name="uni0145" unicode="&#x145;" horiz-adv-x="1196" 
d="M131 1464h240l420 -813h2v813h272v-1464h-217l-445 854h-2v-854h-270v1464zM547 -338h-182l153 254h277z" />
    <glyph glyph-name="uni0146" unicode="&#x146;" horiz-adv-x="1196" 
d="M131 1464h240l420 -813h2v813h272v-1464h-217l-445 854h-2v-854h-270v1464zM547 -338h-182l153 254h277z" />
    <glyph glyph-name="Ncaron" unicode="&#x147;" horiz-adv-x="1196" 
d="M131 1464h240l420 -813h2v813h272v-1464h-217l-445 854h-2v-854h-270v1464zM731 1800h148l-162 -254h-238l-162 254h150l133 -125z" />
    <glyph glyph-name="ncaron" unicode="&#x148;" horiz-adv-x="1196" 
d="M131 1464h240l420 -813h2v813h272v-1464h-217l-445 854h-2v-854h-270v1464zM731 1800h148l-162 -254h-238l-162 254h150l133 -125z" />
    <glyph glyph-name="napostrophe" unicode="&#x149;" horiz-adv-x="1363" 
d="M299 1464h240l419 -813h3v813h272v-1464h-217l-445 854h-2v-854h-270v1464zM-2 1464h250l-78 -491h-172v491z" />
    <glyph glyph-name="Eng" unicode="&#x14a;" horiz-adv-x="1196" 
d="M786 117l-383 737h-2v-854h-270v1464h242l418 -813h2v813h272v-1421q0 -110 -55.5 -177t-175.5 -67h-213v246h165v72z" />
    <glyph glyph-name="eng" unicode="&#x14b;" horiz-adv-x="1196" 
d="M786 117l-383 737h-2v-854h-270v1464h242l418 -813h2v813h272v-1421q0 -110 -55.5 -177t-175.5 -67h-213v246h165v72z" />
    <glyph glyph-name="Omacron" unicode="&#x14c;" horiz-adv-x="1214" 
d="M1092 1221v-977q0 -111 -59 -177.5t-191 -66.5h-469q-133 0 -192.5 66.5t-59.5 177.5v977q0 110 59.5 176.5t192.5 66.5h469q132 0 191 -66t59 -177zM809 246v973h-403v-973h403zM836 1565h-461v186h461v-186z" />
    <glyph glyph-name="omacron" unicode="&#x14d;" horiz-adv-x="1214" 
d="M1092 1221v-977q0 -111 -59 -177.5t-191 -66.5h-469q-133 0 -192.5 66.5t-59.5 177.5v977q0 110 59.5 176.5t192.5 66.5h469q132 0 191 -66t59 -177zM809 246v973h-403v-973h403zM836 1565h-461v186h461v-186z" />
    <glyph glyph-name="Obreve" unicode="&#x14e;" horiz-adv-x="1214" 
d="M1092 1221v-977q0 -111 -59 -177.5t-191 -66.5h-469q-133 0 -192.5 66.5t-59.5 177.5v977q0 110 59.5 176.5t192.5 66.5h469q132 0 191 -66t59 -177zM809 246v973h-403v-973h403zM694 1800h150v-71q0 -98 -65 -151.5t-171 -53.5q-105 0 -171 53.5t-66 151.5v71h153v-51
q0 -47 22 -65.5t62 -18.5q86 0 86 84v51z" />
    <glyph glyph-name="obreve" unicode="&#x14f;" horiz-adv-x="1214" 
d="M1092 1221v-977q0 -111 -59 -177.5t-191 -66.5h-469q-133 0 -192.5 66.5t-59.5 177.5v977q0 110 59.5 176.5t192.5 66.5h469q132 0 191 -66t59 -177zM809 246v973h-403v-973h403zM694 1800h150v-71q0 -98 -65 -151.5t-171 -53.5q-105 0 -171 53.5t-66 151.5v71h153v-51
q0 -47 22 -65.5t62 -18.5q86 0 86 84v51z" />
    <glyph glyph-name="Ohungarumlaut" unicode="&#x150;" horiz-adv-x="1214" 
d="M1092 1221v-977q0 -111 -59 -177.5t-191 -66.5h-469q-133 0 -192.5 66.5t-59.5 177.5v977q0 110 59.5 176.5t192.5 66.5h469q132 0 191 -66t59 -177zM809 246v973h-403v-973h403zM496 1546h-187l103 254h231zM811 1546h-182l106 254h228z" />
    <glyph glyph-name="ohungarumlaut" unicode="&#x151;" horiz-adv-x="1214" 
d="M1092 1221v-977q0 -111 -59 -177.5t-191 -66.5h-469q-133 0 -192.5 66.5t-59.5 177.5v977q0 110 59.5 176.5t192.5 66.5h469q132 0 191 -66t59 -177zM809 246v973h-403v-973h403zM496 1546h-187l103 254h231zM811 1546h-182l106 254h228z" />
    <glyph glyph-name="OE" unicode="&#x152;" horiz-adv-x="1632" 
d="M1593 0h-1220q-133 0 -192.5 66.5t-59.5 177.5v977q0 110 59.5 176.5t192.5 66.5h1196v-245h-477v-353h313v-254h-313v-366h501v-246zM809 246v973h-403v-973h403z" />
    <glyph glyph-name="oe" unicode="&#x153;" horiz-adv-x="1632" 
d="M1593 0h-1220q-133 0 -192.5 66.5t-59.5 177.5v977q0 110 59.5 176.5t192.5 66.5h1196v-245h-477v-353h313v-254h-313v-366h501v-246zM809 246v973h-403v-973h403z" />
    <glyph glyph-name="Racute" unicode="&#x154;" horiz-adv-x="1118" 
d="M131 1464h635q133 0 192.5 -66.5t59.5 -176.5v-408q0 -108 -56.5 -173.5t-181.5 -68.5l314 -571h-328l-295 571h-57v-571h-283v1464zM414 1219v-400h256q26 0 45.5 20t19.5 48v264q0 28 -19.5 48t-45.5 20h-256zM582 1546h-185l154 254h278z" />
    <glyph glyph-name="racute" unicode="&#x155;" horiz-adv-x="1118" 
d="M131 1464h635q133 0 192.5 -66.5t59.5 -176.5v-408q0 -108 -56.5 -173.5t-181.5 -68.5l314 -571h-328l-295 571h-57v-571h-283v1464zM414 1219v-400h256q26 0 45.5 20t19.5 48v264q0 28 -19.5 48t-45.5 20h-256zM582 1546h-185l154 254h278z" />
    <glyph glyph-name="uni0156" unicode="&#x156;" horiz-adv-x="1118" 
d="M131 1464h635q133 0 192.5 -66.5t59.5 -176.5v-408q0 -108 -56.5 -173.5t-181.5 -68.5l314 -571h-328l-295 571h-57v-571h-283v1464zM414 1219v-400h256q26 0 45.5 20t19.5 48v264q0 28 -19.5 48t-45.5 20h-256zM522 -338h-182l154 254h276z" />
    <glyph glyph-name="uni0157" unicode="&#x157;" horiz-adv-x="1118" 
d="M131 1464h635q133 0 192.5 -66.5t59.5 -176.5v-408q0 -108 -56.5 -173.5t-181.5 -68.5l314 -571h-328l-295 571h-57v-571h-283v1464zM414 1219v-400h256q26 0 45.5 20t19.5 48v264q0 28 -19.5 48t-45.5 20h-256zM522 -338h-182l154 254h276z" />
    <glyph glyph-name="Rcaron" unicode="&#x158;" horiz-adv-x="1118" 
d="M131 1464h635q133 0 192.5 -66.5t59.5 -176.5v-408q0 -108 -56.5 -173.5t-181.5 -68.5l314 -571h-328l-295 571h-57v-571h-283v1464zM414 1219v-400h256q26 0 45.5 20t19.5 48v264q0 28 -19.5 48t-45.5 20h-256zM692 1800h148l-162 -254h-238l-161 254h149l133 -125z" />
    <glyph glyph-name="rcaron" unicode="&#x159;" horiz-adv-x="1118" 
d="M131 1464h635q133 0 192.5 -66.5t59.5 -176.5v-408q0 -108 -56.5 -173.5t-181.5 -68.5l314 -571h-328l-295 571h-57v-571h-283v1464zM414 1219v-400h256q26 0 45.5 20t19.5 48v264q0 28 -19.5 48t-45.5 20h-256zM692 1800h148l-162 -254h-238l-161 254h149l133 -125z" />
    <glyph glyph-name="Sacute" unicode="&#x15a;" horiz-adv-x="1075" 
d="M389 1151v-176q0 -52 21.5 -72.5t74.5 -23.5l246 -11q250 -11 250 -245v-379q0 -111 -59 -177.5t-191 -66.5h-407q-131 0 -190.5 66.5t-59.5 177.5v147l276 55v-133q0 -27 20 -47t46 -20h215q28 0 46.5 19.5t18.5 47.5v203q0 52 -19 70.5t-75 21.5l-244 13
q-252 11 -252 243v357q0 110 59.5 176.5t192.5 66.5h363q133 0 191.5 -66t58.5 -177v-136l-277 -55v121q0 28 -18.5 48t-44.5 20h-176q-28 0 -47 -20t-19 -48zM559 1546h-184l153 254h279z" />
    <glyph glyph-name="sacute" unicode="&#x15b;" horiz-adv-x="1075" 
d="M389 1151v-176q0 -52 21.5 -72.5t74.5 -23.5l246 -11q250 -11 250 -245v-379q0 -111 -59 -177.5t-191 -66.5h-407q-131 0 -190.5 66.5t-59.5 177.5v147l276 55v-133q0 -27 20 -47t46 -20h215q28 0 46.5 19.5t18.5 47.5v203q0 52 -19 70.5t-75 21.5l-244 13
q-252 11 -252 243v357q0 110 59.5 176.5t192.5 66.5h363q133 0 191.5 -66t58.5 -177v-136l-277 -55v121q0 28 -18.5 48t-44.5 20h-176q-28 0 -47 -20t-19 -48zM559 1546h-184l153 254h279z" />
    <glyph glyph-name="Scircumflex" unicode="&#x15c;" horiz-adv-x="1075" 
d="M389 1151v-176q0 -52 21.5 -72.5t74.5 -23.5l246 -11q250 -11 250 -245v-379q0 -111 -59 -177.5t-191 -66.5h-407q-131 0 -190.5 66.5t-59.5 177.5v147l276 55v-133q0 -27 20 -47t46 -20h215q28 0 46.5 19.5t18.5 47.5v203q0 52 -19 70.5t-75 21.5l-244 13
q-252 11 -252 243v357q0 110 59.5 176.5t192.5 66.5h363q133 0 191.5 -66t58.5 -177v-136l-277 -55v121q0 28 -18.5 48t-44.5 20h-176q-28 0 -47 -20t-19 -48zM817 1546h-147l-131 127l-133 -127h-150l162 254h237z" />
    <glyph glyph-name="scircumflex" unicode="&#x15d;" horiz-adv-x="1075" 
d="M389 1151v-176q0 -52 21.5 -72.5t74.5 -23.5l246 -11q250 -11 250 -245v-379q0 -111 -59 -177.5t-191 -66.5h-407q-131 0 -190.5 66.5t-59.5 177.5v147l276 55v-133q0 -27 20 -47t46 -20h215q28 0 46.5 19.5t18.5 47.5v203q0 52 -19 70.5t-75 21.5l-244 13
q-252 11 -252 243v357q0 110 59.5 176.5t192.5 66.5h363q133 0 191.5 -66t58.5 -177v-136l-277 -55v121q0 28 -18.5 48t-44.5 20h-176q-28 0 -47 -20t-19 -48zM817 1546h-147l-131 127l-133 -127h-150l162 254h237z" />
    <glyph glyph-name="uni015E" unicode="&#x15e;" horiz-adv-x="1075" 
d="M389 1151v-176q0 -52 21.5 -72.5t74.5 -23.5l246 -11q250 -11 250 -245v-379q0 -111 -59 -177.5t-191 -66.5h-110l-21 -82q61 -7 102 -37t41 -88q0 -143 -276 -143q-83 0 -141 20v119q68 -20 129 -20q84 0 84 43q0 47 -74 47h-39l31 141h-133q-131 0 -190.5 66.5
t-59.5 177.5v147l276 55v-133q0 -27 20 -47t46 -20h215q28 0 46.5 19.5t18.5 47.5v203q0 52 -19 70.5t-75 21.5l-244 13q-252 11 -252 243v357q0 110 59.5 176.5t192.5 66.5h363q133 0 191.5 -66t58.5 -177v-136l-277 -55v121q0 28 -18.5 48t-44.5 20h-176q-28 0 -47 -20
t-19 -48z" />
    <glyph glyph-name="uni015F" unicode="&#x15f;" horiz-adv-x="1075" 
d="M389 1151v-176q0 -52 21.5 -72.5t74.5 -23.5l246 -11q250 -11 250 -245v-379q0 -111 -59 -177.5t-191 -66.5h-110l-21 -82q61 -7 102 -37t41 -88q0 -143 -276 -143q-83 0 -141 20v119q68 -20 129 -20q84 0 84 43q0 47 -74 47h-39l31 141h-133q-131 0 -190.5 66.5
t-59.5 177.5v147l276 55v-133q0 -27 20 -47t46 -20h215q28 0 46.5 19.5t18.5 47.5v203q0 52 -19 70.5t-75 21.5l-244 13q-252 11 -252 243v357q0 110 59.5 176.5t192.5 66.5h363q133 0 191.5 -66t58.5 -177v-136l-277 -55v121q0 28 -18.5 48t-44.5 20h-176q-28 0 -47 -20
t-19 -48z" />
    <glyph glyph-name="Scaron" unicode="&#x160;" horiz-adv-x="1075" 
d="M389 1151v-176q0 -52 21.5 -72.5t74.5 -23.5l246 -11q250 -11 250 -245v-379q0 -111 -59 -177.5t-191 -66.5h-407q-131 0 -190.5 66.5t-59.5 177.5v147l276 55v-133q0 -27 20 -47t46 -20h215q28 0 46.5 19.5t18.5 47.5v203q0 52 -19 70.5t-75 21.5l-244 13
q-252 11 -252 243v357q0 110 59.5 176.5t192.5 66.5h363q133 0 191.5 -66t58.5 -177v-136l-277 -55v121q0 28 -18.5 48t-44.5 20h-176q-28 0 -47 -20t-19 -48zM670 1800h147l-162 -254h-237l-162 254h150l133 -125z" />
    <glyph glyph-name="scaron" unicode="&#x161;" horiz-adv-x="1075" 
d="M389 1151v-176q0 -52 21.5 -72.5t74.5 -23.5l246 -11q250 -11 250 -245v-379q0 -111 -59 -177.5t-191 -66.5h-407q-131 0 -190.5 66.5t-59.5 177.5v147l276 55v-133q0 -27 20 -47t46 -20h215q28 0 46.5 19.5t18.5 47.5v203q0 52 -19 70.5t-75 21.5l-244 13
q-252 11 -252 243v357q0 110 59.5 176.5t192.5 66.5h363q133 0 191.5 -66t58.5 -177v-136l-277 -55v121q0 28 -18.5 48t-44.5 20h-176q-28 0 -47 -20t-19 -48zM670 1800h147l-162 -254h-237l-162 254h150l133 -125z" />
    <glyph glyph-name="uni0162" unicode="&#x162;" horiz-adv-x="870" 
d="M18 1219v245h836v-245h-276v-1219h-60l-20 -82q61 -7 102 -37t41 -88q0 -143 -276 -143q-84 0 -142 20v119q67 -20 129 -20q84 0 84 43q0 47 -74 47h-38l30 141h-59v1219h-277z" />
    <glyph glyph-name="uni0163" unicode="&#x163;" horiz-adv-x="870" 
d="M18 1219v245h836v-245h-276v-1219h-60l-20 -82q61 -7 102 -37t41 -88q0 -143 -276 -143q-84 0 -142 20v119q67 -20 129 -20q84 0 84 43q0 47 -74 47h-38l30 141h-59v1219h-277z" />
    <glyph glyph-name="Tcaron" unicode="&#x164;" horiz-adv-x="870" 
d="M18 1219v245h836v-245h-276v-1219h-283v1219h-277zM565 1800h148l-162 -254h-238l-161 254h149l133 -125z" />
    <glyph glyph-name="tcaron" unicode="&#x165;" horiz-adv-x="870" 
d="M18 1219v245h836v-245h-276v-1219h-283v1219h-277zM565 1800h148l-162 -254h-238l-161 254h149l133 -125z" />
    <glyph glyph-name="Tbar" unicode="&#x166;" horiz-adv-x="892" 
d="M131 643v213h174v363h-276v245h835v-245h-276v-363h174v-213h-174v-643h-283v643h-174z" />
    <glyph glyph-name="tbar" unicode="&#x167;" horiz-adv-x="892" 
d="M131 643v213h174v363h-276v245h835v-245h-276v-363h174v-213h-174v-643h-283v643h-174z" />
    <glyph glyph-name="Utilde" unicode="&#x168;" horiz-adv-x="1163" 
d="M125 1464h285v-1212h344v1212h284v-1220q0 -111 -59 -177.5t-191 -66.5h-413q-132 0 -191 66.5t-59 177.5v1220zM295 1548q0 137 44.5 198.5t115.5 61.5q26 0 54 -9t43 -18t42 -26q5 -4 16 -12t15.5 -11t13 -8.5t14 -7.5t13 -4t14.5 -2q47 0 47 90h135
q0 -137 -45.5 -198.5t-118.5 -61.5q-56 0 -129 49q-10 6 -25 17t-24 16.5t-20.5 10.5t-20.5 5q-49 0 -49 -90h-135z" />
    <glyph glyph-name="utilde" unicode="&#x169;" horiz-adv-x="1163" 
d="M125 1464h285v-1212h344v1212h284v-1220q0 -111 -59 -177.5t-191 -66.5h-413q-132 0 -191 66.5t-59 177.5v1220zM295 1548q0 137 44.5 198.5t115.5 61.5q26 0 54 -9t43 -18t42 -26q5 -4 16 -12t15.5 -11t13 -8.5t14 -7.5t13 -4t14.5 -2q47 0 47 90h135
q0 -137 -45.5 -198.5t-118.5 -61.5q-56 0 -129 49q-10 6 -25 17t-24 16.5t-20.5 10.5t-20.5 5q-49 0 -49 -90h-135z" />
    <glyph glyph-name="Umacron" unicode="&#x16a;" horiz-adv-x="1163" 
d="M125 1464h285v-1212h344v1212h284v-1220q0 -111 -59 -177.5t-191 -66.5h-413q-132 0 -191 66.5t-59 177.5v1220zM811 1565h-461v186h461v-186z" />
    <glyph glyph-name="umacron" unicode="&#x16b;" horiz-adv-x="1163" 
d="M125 1464h285v-1212h344v1212h284v-1220q0 -111 -59 -177.5t-191 -66.5h-413q-132 0 -191 66.5t-59 177.5v1220zM811 1565h-461v186h461v-186z" />
    <glyph glyph-name="Ubreve" unicode="&#x16c;" horiz-adv-x="1163" 
d="M125 1464h285v-1212h344v1212h284v-1220q0 -111 -59 -177.5t-191 -66.5h-413q-132 0 -191 66.5t-59 177.5v1220zM670 1800h149v-71q0 -99 -64.5 -152t-170.5 -53q-105 0 -171.5 53.5t-66.5 151.5v71h154v-51q0 -47 22 -65.5t62 -18.5q86 0 86 84v51z" />
    <glyph glyph-name="ubreve" unicode="&#x16d;" horiz-adv-x="1163" 
d="M125 1464h285v-1212h344v1212h284v-1220q0 -111 -59 -177.5t-191 -66.5h-413q-132 0 -191 66.5t-59 177.5v1220zM670 1800h149v-71q0 -99 -64.5 -152t-170.5 -53q-105 0 -171.5 53.5t-66.5 151.5v71h154v-51q0 -47 22 -65.5t62 -18.5q86 0 86 84v51z" />
    <glyph glyph-name="Uring" unicode="&#x16e;" horiz-adv-x="1163" 
d="M125 1464h285v-1212h344v1212h284v-1220q0 -111 -59 -177.5t-191 -66.5h-413q-132 0 -191 66.5t-59 177.5v1220zM803 1718q0 -82 -58.5 -138t-162.5 -56t-164 56t-60 138q0 86 59.5 143.5t164.5 57.5q104 0 162.5 -57.5t58.5 -143.5zM668 1718q0 36 -23.5 62t-62.5 26
q-41 0 -64.5 -26t-23.5 -62q0 -33 23.5 -56.5t64.5 -23.5q39 0 62.5 23.5t23.5 56.5z" />
    <glyph glyph-name="uring" unicode="&#x16f;" horiz-adv-x="1163" 
d="M125 1464h285v-1212h344v1212h284v-1220q0 -111 -59 -177.5t-191 -66.5h-413q-132 0 -191 66.5t-59 177.5v1220zM803 1718q0 -82 -58.5 -138t-162.5 -56t-164 56t-60 138q0 86 59.5 143.5t164.5 57.5q104 0 162.5 -57.5t58.5 -143.5zM668 1718q0 36 -23.5 62t-62.5 26
q-41 0 -64.5 -26t-23.5 -62q0 -33 23.5 -56.5t64.5 -23.5q39 0 62.5 23.5t23.5 56.5z" />
    <glyph glyph-name="Uhungarumlaut" unicode="&#x170;" horiz-adv-x="1163" 
d="M125 1464h285v-1212h344v1212h284v-1220q0 -111 -59 -177.5t-191 -66.5h-413q-132 0 -191 66.5t-59 177.5v1220zM471 1546h-186l102 254h231zM786 1546h-182l107 254h227z" />
    <glyph glyph-name="uhungarumlaut" unicode="&#x171;" horiz-adv-x="1163" 
d="M125 1464h285v-1212h344v1212h284v-1220q0 -111 -59 -177.5t-191 -66.5h-413q-132 0 -191 66.5t-59 177.5v1220zM471 1546h-186l102 254h231zM786 1546h-182l107 254h227z" />
    <glyph glyph-name="Uogonek" unicode="&#x172;" horiz-adv-x="1163" 
d="M772 -182v-137q-53 -33 -160 -33q-44 0 -83.5 7.5t-75.5 24t-57 46t-21 69.5q0 96 157 205h-157q-132 0 -191 66.5t-59 177.5v1220h285v-1212h344v1212h284v-1220q0 -111 -59 -177.5t-191 -66.5h-90q-40 -36 -74 -79.5t-34 -76.5q0 -53 69 -53q61 0 113 27z" />
    <glyph glyph-name="uogonek" unicode="&#x173;" horiz-adv-x="1163" 
d="M772 -182v-137q-53 -33 -160 -33q-44 0 -83.5 7.5t-75.5 24t-57 46t-21 69.5q0 96 157 205h-157q-132 0 -191 66.5t-59 177.5v1220h285v-1212h344v1212h284v-1220q0 -111 -59 -177.5t-191 -66.5h-90q-40 -36 -74 -79.5t-34 -76.5q0 -53 69 -53q61 0 113 27z" />
    <glyph glyph-name="Wcircumflex" unicode="&#x174;" horiz-adv-x="1343" 
d="M287 0l-260 1464h290l109 -809h2l127 809h246l127 -809h2l108 809h277l-262 -1464h-236l-145 850h-4l-144 -850h-237zM961 1546h-148l-131 127l-133 -127h-150l162 254h238z" />
    <glyph glyph-name="wcircumflex" unicode="&#x175;" horiz-adv-x="1343" 
d="M287 0l-260 1464h290l109 -809h2l127 809h246l127 -809h2l108 809h277l-262 -1464h-236l-145 850h-4l-144 -850h-237zM961 1546h-148l-131 127l-133 -127h-150l162 254h238z" />
    <glyph glyph-name="Ycircumflex" unicode="&#x176;" horiz-adv-x="1032" 
d="M369 0v670l-367 794h313l207 -506l207 506h299l-366 -794v-670h-293zM801 1546h-148l-131 127l-133 -127h-149l161 254h238z" />
    <glyph glyph-name="ycircumflex" unicode="&#x177;" horiz-adv-x="1032" 
d="M369 0v670l-367 794h313l207 -506l207 506h299l-366 -794v-670h-293zM801 1546h-148l-131 127l-133 -127h-149l161 254h238z" />
    <glyph glyph-name="Ydieresis" unicode="&#x178;" horiz-adv-x="1032" 
d="M369 0v670l-367 794h313l207 -506l207 506h299l-366 -794v-670h-293zM236 1606v118q0 54 45 54h139q45 0 45 -54v-118q0 -54 -45 -54h-139q-45 0 -45 54zM573 1606v118q0 24 11 39t32 15h142q21 0 33 -15t12 -39v-118q0 -24 -12 -39t-33 -15h-142q-21 0 -32 15t-11 39z
" />
    <glyph glyph-name="Zacute" unicode="&#x179;" horiz-adv-x="970" 
d="M903 1346l-502 -1100h502v-246h-868v121l502 1102h-449v241h815v-118zM514 1546h-184l153 254h279z" />
    <glyph glyph-name="zacute" unicode="&#x17a;" horiz-adv-x="970" 
d="M903 1346l-502 -1100h502v-246h-868v121l502 1102h-449v241h815v-118zM514 1546h-184l153 254h279z" />
    <glyph glyph-name="Zdotaccent" unicode="&#x17b;" horiz-adv-x="970" 
d="M903 1346l-502 -1100h502v-246h-868v121l502 1102h-449v241h815v-118zM377 1606v118q0 24 11 39t32 15h143q21 0 32 -15t11 -39v-118q0 -24 -11 -39t-32 -15h-143q-21 0 -32 15t-11 39z" />
    <glyph glyph-name="zdotaccent" unicode="&#x17c;" horiz-adv-x="970" 
d="M903 1346l-502 -1100h502v-246h-868v121l502 1102h-449v241h815v-118zM377 1606v118q0 24 11 39t32 15h143q21 0 32 -15t11 -39v-118q0 -24 -11 -39t-32 -15h-143q-21 0 -32 15t-11 39z" />
    <glyph glyph-name="Zcaron" unicode="&#x17d;" horiz-adv-x="970" 
d="M903 1346l-502 -1100h502v-246h-868v121l502 1102h-449v241h815v-118zM625 1800h147l-162 -254h-237l-162 254h149l134 -125z" />
    <glyph glyph-name="zcaron" unicode="&#x17e;" horiz-adv-x="970" 
d="M903 1346l-502 -1100h502v-246h-868v121l502 1102h-449v241h815v-118zM625 1800h147l-162 -254h-237l-162 254h149l134 -125z" />
    <glyph glyph-name="uni018F" unicode="&#x18f;" horiz-adv-x="1179" 
d="M1059 1221v-977q0 -111 -59.5 -177.5t-190.5 -66.5h-455q-132 0 -191 66.5t-59 177.5v590h672v385h-395v-195l-277 53v144q0 111 59 177t191 66h455q131 0 190.5 -66.5t59.5 -176.5zM381 586v-340h395v340h-395z" />
    <glyph glyph-name="uni0192" unicode="&#x192;" horiz-adv-x="980" 
d="M53 602v213h154v406q0 111 58.5 177t189.5 66h235q131 0 190.5 -66.5t59.5 -176.5v-103l-274 -53v154h-177v-404h254v-213h-254v-803h-282v803h-154z" />
    <glyph glyph-name="Aringacute" unicode="&#x1fa;" horiz-adv-x="1083" 
d="M762 1546q0 -95 -74 -151l389 -1395h-297l-71 291h-359l-71 -291h-271l383 1395q-74 56 -74 151q0 86 59.5 143.5t164.5 57.5q104 0 162.5 -57.5t58.5 -143.5zM563 1806h-184l153 254h279zM627 1546q0 36 -23.5 62t-62.5 26q-41 0 -64.5 -26t-23.5 -62q0 -33 23.5 -56.5
t64.5 -23.5q39 0 62.5 23.5t23.5 56.5zM649 532l-71 310l-43 190h-3l-45 -190l-75 -310h237z" />
    <glyph glyph-name="aringacute" unicode="&#x1fb;" horiz-adv-x="1083" 
d="M762 1546q0 -95 -74 -151l389 -1395h-297l-71 291h-359l-71 -291h-271l383 1395q-74 56 -74 151q0 86 59.5 143.5t164.5 57.5q104 0 162.5 -57.5t58.5 -143.5zM563 1806h-184l153 254h279zM627 1546q0 36 -23.5 62t-62.5 26q-41 0 -64.5 -26t-23.5 -62q0 -33 23.5 -56.5
t64.5 -23.5q39 0 62.5 23.5t23.5 56.5zM649 532l-71 310l-43 190h-3l-45 -190l-75 -310h237z" />
    <glyph glyph-name="AEacute" unicode="&#x1fc;" horiz-adv-x="1546" 
d="M1507 0h-784v283h-322l-127 -283h-290l706 1464h793v-245h-477v-353h313v-254h-313v-366h501v-246zM512 526h211v459h-2zM1094 1546h-185l154 254h278z" />
    <glyph glyph-name="aeacute" unicode="&#x1fd;" horiz-adv-x="1546" 
d="M1507 0h-784v283h-322l-127 -283h-290l706 1464h793v-245h-477v-353h313v-254h-313v-366h501v-246zM512 526h211v459h-2zM1094 1546h-185l154 254h278z" />
    <glyph glyph-name="Oslashacute" unicode="&#x1fe;" horiz-adv-x="1214" 
d="M633 1546h-180l82 254h264zM434 -139h-227l55 153q-141 45 -141 230v977q0 110 56.5 176.5t182.5 66.5h369l51 140h228l-56 -154q140 -48 140 -229v-977q0 -111 -56.5 -177.5t-181.5 -66.5h-371zM819 240v800l-330 -800h330zM395 1225v-799l326 799h-326z" />
    <glyph glyph-name="oslashacute" unicode="&#x1ff;" horiz-adv-x="1214" 
d="M633 1546h-180l82 254h264zM434 -139h-227l55 153q-141 45 -141 230v977q0 110 56.5 176.5t182.5 66.5h369l51 140h228l-56 -154q140 -48 140 -229v-977q0 -111 -56.5 -177.5t-181.5 -66.5h-371zM819 240v800l-330 -800h330zM395 1225v-799l326 799h-326z" />
    <glyph glyph-name="uni0218" unicode="&#x218;" horiz-adv-x="1075" 
d="M389 1151v-176q0 -52 21.5 -72.5t74.5 -23.5l246 -11q250 -11 250 -245v-379q0 -111 -59 -177.5t-191 -66.5h-407q-131 0 -190.5 66.5t-59.5 177.5v147l276 55v-133q0 -27 20 -47t46 -20h215q28 0 46.5 19.5t18.5 47.5v203q0 52 -19 70.5t-75 21.5l-244 13
q-252 11 -252 243v357q0 110 59.5 176.5t192.5 66.5h363q133 0 191.5 -66t58.5 -177v-136l-277 -55v121q0 28 -18.5 48t-44.5 20h-176q-28 0 -47 -20t-19 -48zM477 -338h-182l154 254h276z" />
    <glyph glyph-name="uni0219" unicode="&#x219;" horiz-adv-x="1075" 
d="M389 1151v-176q0 -52 21.5 -72.5t74.5 -23.5l246 -11q250 -11 250 -245v-379q0 -111 -59 -177.5t-191 -66.5h-407q-131 0 -190.5 66.5t-59.5 177.5v147l276 55v-133q0 -27 20 -47t46 -20h215q28 0 46.5 19.5t18.5 47.5v203q0 52 -19 70.5t-75 21.5l-244 13
q-252 11 -252 243v357q0 110 59.5 176.5t192.5 66.5h363q133 0 191.5 -66t58.5 -177v-136l-277 -55v121q0 28 -18.5 48t-44.5 20h-176q-28 0 -47 -20t-19 -48zM477 -338h-182l154 254h276z" />
    <glyph glyph-name="uni021A" unicode="&#x21a;" horiz-adv-x="870" 
d="M18 1219v245h836v-245h-276v-1219h-283v1219h-277zM377 -338h-182l153 254h277z" />
    <glyph glyph-name="uni021B" unicode="&#x21b;" horiz-adv-x="870" 
d="M18 1219v245h836v-245h-276v-1219h-283v1219h-277zM377 -338h-182l153 254h277z" />
    <glyph glyph-name="uni0237" unicode="&#x237;" horiz-adv-x="964" 
d="M588 0h-293q-133 0 -192.5 66.5t-59.5 177.5v284l274 54v-336h238v1218h285v-1220q0 -111 -59.5 -177.5t-192.5 -66.5z" />
    <glyph glyph-name="h.superior" unicode="&#x2b0;" horiz-adv-x="915" 
d="M344 1063h227v401h240v-1026h-240v418h-227v-418h-238v1026h238v-401z" />
    <glyph glyph-name="r.superior" unicode="&#x2b3;" horiz-adv-x="856" 
d="M106 1464h488q92 0 133 -46.5t41 -123.5v-305q0 -154 -143 -170l196 -381h-268l-184 381h-25v-381h-238v1026zM344 1257v-231h141q17 0 31 14t14 33v137q0 19 -14 33t-31 14h-141z" />
    <glyph glyph-name="circumflex" unicode="&#x2c6;" horiz-adv-x="681" 
d="M621 1546h-148l-131 127l-133 -127h-150l162 254h238z" />
    <glyph glyph-name="caron" unicode="&#x2c7;" horiz-adv-x="681" 
d="M473 1800h148l-162 -254h-238l-162 254h150l133 -125z" />
    <glyph glyph-name="breve" unicode="&#x2d8;" horiz-adv-x="681" 
d="M428 1800h150v-71q0 -98 -65 -151.5t-171 -53.5q-105 0 -171.5 53.5t-66.5 151.5v71h154v-51q0 -47 22 -65.5t62 -18.5q86 0 86 84v51z" />
    <glyph glyph-name="dotaccent" unicode="&#x2d9;" horiz-adv-x="681" 
d="M225 1606v118q0 24 11 39t32 15h144q21 0 32 -15t11 -39v-118q0 -24 -11 -39t-32 -15h-144q-21 0 -32 15t-11 39z" />
    <glyph glyph-name="ring" unicode="&#x2da;" horiz-adv-x="681" 
d="M561 1718q0 -82 -58.5 -138t-162.5 -56t-163.5 56t-59.5 138q0 86 59 143.5t164 57.5q104 0 162.5 -57.5t58.5 -143.5zM426 1718q0 36 -23.5 62t-62.5 26q-41 0 -64.5 -26t-23.5 -62q0 -33 23.5 -56.5t64.5 -23.5q39 0 62.5 23.5t23.5 56.5z" />
    <glyph glyph-name="ogonek" unicode="&#x2db;" horiz-adv-x="681" 
d="M530 -182v-137q-53 -33 -159 -33q-44 0 -84 7.5t-75.5 24t-57 46t-21.5 69.5q0 100 180 219h160q-125 -116 -125 -170q0 -53 70 -53q60 0 112 27z" />
    <glyph glyph-name="tilde" unicode="&#x2dc;" horiz-adv-x="681" 
d="M53 1548q0 137 44.5 198.5t115.5 61.5q26 0 54 -9t43 -18t42 -26q5 -4 16 -12t15.5 -11t13 -8.5t14 -7.5t13 -4t14.5 -2q47 0 47 90h136q0 -137 -45.5 -198.5t-118.5 -61.5q-56 0 -129 49q-10 6 -25 17t-24 16.5t-20.5 10.5t-20.5 5q-50 0 -50 -90h-135z" />
    <glyph glyph-name="hungarumlaut" unicode="&#x2dd;" horiz-adv-x="681" 
d="M242 1546h-187l103 254h231zM557 1546h-182l106 254h228z" />
    <glyph glyph-name="Delta" unicode="&#x394;" horiz-adv-x="1095" 
d="M1059 0h-1024l319 1464h387zM508 963l-150 -734h379l-149 734q-24 118 -35 219h-10q-11 -101 -35 -219z" />
    <glyph glyph-name="Delta" unicode="&#x2206;" horiz-adv-x="1095" 
d="M1059 0h-1024l319 1464h387zM508 963l-150 -734h379l-149 734q-24 118 -35 219h-10q-11 -101 -35 -219z" />
    <glyph glyph-name="Omega" unicode="&#x3a9;" horiz-adv-x="1155" 
d="M80 0v225h201v11q-85 41 -122.5 111.5t-37.5 215.5v371q0 143 20 239.5t50 144t79 85.5q116 86 310 86q192 0 307 -86q77 -57 112 -163.5t35 -305.5v-371q0 -146 -37 -216.5t-123 -110.5v-11h203v-225h-436v219q66 18 86.5 66t20.5 168v534q0 109 -13 161t-47 75
q-44 28 -113 28q-67 0 -108 -28q-32 -23 -44.5 -75t-12.5 -161v-534q0 -122 19.5 -169t86.5 -65v-219h-436z" />
    <glyph glyph-name="Omega" unicode="&#x2126;" horiz-adv-x="1155" 
d="M80 0v225h201v11q-85 41 -122.5 111.5t-37.5 215.5v371q0 143 20 239.5t50 144t79 85.5q116 86 310 86q192 0 307 -86q77 -57 112 -163.5t35 -305.5v-371q0 -146 -37 -216.5t-123 -110.5v-11h203v-225h-436v219q66 18 86.5 66t20.5 168v534q0 109 -13 161t-47 75
q-44 28 -113 28q-67 0 -108 -28q-32 -23 -44.5 -75t-12.5 -161v-534q0 -122 19.5 -169t86.5 -65v-219h-436z" />
    <glyph glyph-name="pi" unicode="&#x3c0;" horiz-adv-x="1173" 
d="M758 885h-244l-207 -885h-262l221 885h-160v207h1043v-207h-139l-176 -721q-16 -70 -13 -164h-258q-4 89 12 150z" />
    <glyph glyph-name="uni04D9" unicode="&#x4d9;" horiz-adv-x="1179" 
d="M1059 1221v-977q0 -111 -59.5 -177.5t-190.5 -66.5h-455q-132 0 -191 66.5t-59 177.5v590h672v385h-395v-195l-277 53v144q0 111 59 177t191 66h455q131 0 190.5 -66.5t59.5 -176.5zM381 586v-340h395v340h-395z" />
    <glyph glyph-name="Wgrave" unicode="&#x1e80;" horiz-adv-x="1343" 
d="M287 0l-260 1464h290l109 -809h2l127 809h246l127 -809h2l108 809h277l-262 -1464h-236l-145 850h-4l-144 -850h-237zM840 1546h-185l-245 254h280z" />
    <glyph glyph-name="wgrave" unicode="&#x1e81;" horiz-adv-x="1343" 
d="M287 0l-260 1464h290l109 -809h2l127 809h246l127 -809h2l108 809h277l-262 -1464h-236l-145 850h-4l-144 -850h-237zM840 1546h-185l-245 254h280z" />
    <glyph glyph-name="Wacute" unicode="&#x1e82;" horiz-adv-x="1343" 
d="M287 0l-260 1464h290l109 -809h2l127 809h246l127 -809h2l108 809h277l-262 -1464h-236l-145 850h-4l-144 -850h-237zM702 1546h-184l154 254h278z" />
    <glyph glyph-name="wacute" unicode="&#x1e83;" horiz-adv-x="1343" 
d="M287 0l-260 1464h290l109 -809h2l127 809h246l127 -809h2l108 809h277l-262 -1464h-236l-145 850h-4l-144 -850h-237zM702 1546h-184l154 254h278z" />
    <glyph glyph-name="Wdieresis" unicode="&#x1e84;" horiz-adv-x="1343" 
d="M287 0l-260 1464h290l109 -809h2l127 809h246l127 -809h2l108 809h277l-262 -1464h-236l-145 850h-4l-144 -850h-237zM395 1606v118q0 54 45 54h140q45 0 45 -54v-118q0 -54 -45 -54h-140q-45 0 -45 54zM733 1606v118q0 24 11 39t32 15h142q21 0 33 -15t12 -39v-118
q0 -24 -12 -39t-33 -15h-142q-21 0 -32 15t-11 39z" />
    <glyph glyph-name="wdieresis" unicode="&#x1e85;" horiz-adv-x="1343" 
d="M287 0l-260 1464h290l109 -809h2l127 809h246l127 -809h2l108 809h277l-262 -1464h-236l-145 850h-4l-144 -850h-237zM395 1606v118q0 54 45 54h140q45 0 45 -54v-118q0 -54 -45 -54h-140q-45 0 -45 54zM733 1606v118q0 24 11 39t32 15h142q21 0 33 -15t12 -39v-118
q0 -24 -12 -39t-33 -15h-142q-21 0 -32 15t-11 39z" />
    <glyph glyph-name="Ygrave" unicode="&#x1ef2;" horiz-adv-x="1032" 
d="M369 0v670l-367 794h313l207 -506l207 506h299l-366 -794v-670h-293zM680 1546h-184l-246 254h280z" />
    <glyph glyph-name="ygrave" unicode="&#x1ef3;" horiz-adv-x="1032" 
d="M369 0v670l-367 794h313l207 -506l207 506h299l-366 -794v-670h-293zM680 1546h-184l-246 254h280z" />
    <glyph glyph-name="uni2009" unicode="&#x2009;" horiz-adv-x="73" 
 />
    <glyph glyph-name="endash" unicode="&#x2013;" horiz-adv-x="983" 
d="M106 805h771v-223h-771v223z" />
    <glyph glyph-name="emdash" unicode="&#x2014;" horiz-adv-x="1460" 
d="M106 582v223h1248v-223h-1248z" />
    <glyph glyph-name="quoteleft" unicode="&#x2018;" horiz-adv-x="462" 
d="M76 1137l114 327h166l-77 -241h47q28 0 43.5 -20t15.5 -52v-172q0 -32 -15.5 -52t-43.5 -20h-193q-28 0 -42.5 20t-14.5 52v158z" />
    <glyph glyph-name="quoteright" unicode="&#x2019;" horiz-adv-x="454" 
d="M389 1235l-115 -328h-168l76 242h-43q-28 0 -43.5 20t-15.5 52v172q0 32 15.5 51.5t43.5 19.5h193q28 0 42.5 -19.5t14.5 -51.5v-158z" />
    <glyph glyph-name="quotesinglbase" unicode="&#x201a;" horiz-adv-x="462" 
d="M385 109l-115 -328h-168l76 242h-43q-28 0 -43.5 19.5t-15.5 51.5v172q0 32 15.5 52t43.5 20h193q28 0 42.5 -20t14.5 -52v-157z" />
    <glyph glyph-name="quotedblleft" unicode="&#x201c;" horiz-adv-x="849" 
d="M76 1137l114 327h166l-77 -241h47q28 0 43.5 -20t15.5 -52v-172q0 -32 -15.5 -52t-43.5 -20h-193q-28 0 -42.5 20t-14.5 52v158zM461 1137l114 327h168l-77 -241h45q28 0 42.5 -20t14.5 -52v-172q0 -32 -14.5 -52t-42.5 -20h-193q-28 0 -42.5 20t-14.5 52v158z" />
    <glyph glyph-name="quotedblright" unicode="&#x201d;" horiz-adv-x="841" 
d="M778 1235l-116 -328h-166l75 242h-45q-28 0 -43.5 20t-15.5 52v172q0 32 15.5 51.5t43.5 19.5h193q28 0 43.5 -19.5t15.5 -51.5v-158zM391 1235l-115 -328h-167l75 242h-43q-28 0 -43.5 20t-15.5 52v172q0 32 15.5 51.5t43.5 19.5h193q28 0 42.5 -19.5t14.5 -51.5v-158z
" />
    <glyph glyph-name="quotedblbase" unicode="&#x201e;" horiz-adv-x="847" 
d="M772 109l-117 -328h-166l76 242h-45q-28 0 -43.5 19.5t-15.5 51.5v172q0 32 15.5 52t43.5 20h193q28 0 43.5 -20t15.5 -52v-157zM385 109l-115 -328h-168l76 242h-43q-28 0 -43.5 19.5t-15.5 51.5v172q0 32 15.5 52t43.5 20h193q28 0 42.5 -20t14.5 -52v-157z" />
    <glyph glyph-name="dagger" unicode="&#x2020;" horiz-adv-x="675" 
d="M49 975v203l199 -11l-6 297h194l-6 -297l199 11v-203l-199 12l6 -807h-194l6 807z" />
    <glyph glyph-name="daggerdbl" unicode="&#x2021;" horiz-adv-x="733" 
d="M78 975v203l198 -11l-6 297h191l-4 -297l198 11v-203l-198 12v-287l198 19v-205l-198 16l4 -350h-191l6 350l-198 -16v205l198 -19v287z" />
    <glyph glyph-name="bullet" unicode="&#x2022;" horiz-adv-x="768" 
d="M131 530v320q0 55 27 90t75 35h304q48 0 75 -35t27 -90v-320q0 -56 -27 -90t-75 -34h-304q-48 0 -75 34t-27 90z" />
    <glyph glyph-name="ellipsis" unicode="&#x2026;" horiz-adv-x="1460" 
d="M84 72v194q0 32 15.5 52t43.5 20h205q28 0 44 -20t16 -52v-194q0 -32 -16 -52t-44 -20h-205q-28 0 -43.5 20t-15.5 52zM569 72v194q0 32 15 52t43 20h207q28 0 43.5 -20t15.5 -52v-194q0 -32 -15.5 -52t-43.5 -20h-207q-28 0 -43 20t-15 52zM1053 72v194q0 32 15.5 52
t43.5 20h205q28 0 43.5 -20t15.5 -52v-194q0 -32 -15.5 -52t-43.5 -20h-205q-28 0 -43.5 20t-15.5 52z" />
    <glyph glyph-name="perthousand" unicode="&#x2030;" horiz-adv-x="2445" 
d="M522 616h-270q-92 0 -133 46.5t-41 123.5v508q0 77 41 123.5t133 46.5h270q91 0 132.5 -46.5t41.5 -123.5v-508q0 -77 -41.5 -123.5t-132.5 -46.5zM1485 0h-266q-94 0 -135.5 46.5t-41.5 123.5v508q0 77 41.5 123.5t135.5 46.5h266q92 0 134 -46.5t42 -123.5v-508
q0 -77 -42 -123.5t-134 -46.5zM2189 0h-266q-176 0 -176 170v508q0 170 176 170h266q92 0 133 -46.5t41 -123.5v-508q0 -77 -41 -123.5t-133 -46.5zM545 0l440 1464h213l-440 -1464h-213zM473 1266h-170v-455h170v455zM2140 651h-170v-454h170v454zM1436 651h-170v-454h170
v454z" />
    <glyph glyph-name="guilsinglleft" unicode="&#x2039;" horiz-adv-x="552" 
d="M463 350h-209l-205 324v59l203 324h211l-156 -355z" />
    <glyph glyph-name="guilsinglright" unicode="&#x203a;" horiz-adv-x="552" 
d="M297 350h-209l154 352l-154 355h211l205 -324v-59z" />
    <glyph glyph-name="fraction" unicode="&#x2044;" horiz-adv-x="389" 
d="M-104 0l389 1464h211l-390 -1464h-210z" />
    <glyph glyph-name="zero.superior" unicode="&#x2070;" horiz-adv-x="835" 
d="M584 438h-332q-174 0 -174 170v686q0 170 174 170h332q91 0 132.5 -46.5t41.5 -123.5v-686q0 -77 -41.5 -123.5t-132.5 -46.5zM520 1255h-205v-608h205v608z" />
    <glyph glyph-name="i.superior" unicode="&#x2071;" horiz-adv-x="450" 
d="M344 1464v-1026h-238v1026h238z" />
    <glyph glyph-name="four.superior" unicode="&#x2074;" horiz-adv-x="780" 
d="M37 647v193l397 624h213v-624h90v-193h-90v-209h-223v209h-387zM250 840h174v280z" />
    <glyph glyph-name="five.superior" unicode="&#x2075;" horiz-adv-x="782" 
d="M309 1094h234q91 0 132.5 -46.5t41.5 -123.5v-316q0 -77 -41.5 -123.5t-132.5 -46.5h-307q-92 0 -133.5 46.5t-41.5 123.5v92q230 43 232 43v-102h188v242h-395v581h600l-35 -209h-342v-161z" />
    <glyph glyph-name="six.superior" unicode="&#x2076;" horiz-adv-x="802" 
d="M315 1262v-201h246q92 0 133 -46.5t41 -123.5v-283q0 -77 -41 -123.5t-133 -46.5h-309q-174 0 -174 170v686q0 170 174 170h303q92 0 133 -46.5t41 -123.5v-80l-231 -45v93h-183zM315 639h185v227h-185v-227z" />
    <glyph glyph-name="seven.superior" unicode="&#x2077;" horiz-adv-x="737" 
d="M707 1313l-244 -875h-262l235 817h-180v-165l-219 45v329h670v-151z" />
    <glyph glyph-name="eight.superior" unicode="&#x2078;" horiz-adv-x="813" 
d="M66 608v187q0 60 32.5 107.5t85.5 62.5v4q-43 14 -71.5 66t-28.5 120v139q0 77 41 123.5t133 46.5h293q176 0 176 -170v-139q0 -68 -28.5 -120t-71.5 -66v-4q53 -15 85.5 -62.5t32.5 -107.5v-187q0 -170 -176 -170h-327q-176 0 -176 170zM451 864h-91q-26 0 -43.5 -18.5
t-17.5 -46.5v-111q0 -19 12.5 -33t30.5 -14h125q20 0 33.5 14t13.5 33v111q0 28 -18.5 46.5t-44.5 18.5zM455 1270h-99q-19 0 -31 -13.5t-12 -33.5v-99q0 -27 17.5 -44t42.5 -17h65q25 0 42.5 17t17.5 44v99q0 21 -11.5 34t-31.5 13z" />
    <glyph glyph-name="nine.superior" unicode="&#x2079;" horiz-adv-x="802" 
d="M307 641h182v201h-245q-92 0 -133 46.5t-41 123.5v282q0 77 41 123.5t133 46.5h309q176 0 176 -170v-686q0 -170 -176 -170h-303q-176 0 -176 170v80l233 47v-94zM489 1264h-182v-224h182v224z" />
    <glyph glyph-name="parenleft.superior" unicode="&#x207d;" horiz-adv-x="454" 
d="M424 297h-174q-83 85 -140 250.5t-57 359.5q0 193 56 356.5t141 258.5h174q-143 -259 -143 -615q0 -351 143 -610z" />
    <glyph glyph-name="parenright.superior" unicode="&#x207e;" horiz-adv-x="454" 
d="M205 297h-174q143 267 143 610q0 356 -143 615h174q85 -95 139.5 -257.5t54.5 -357.5q0 -193 -56 -359.5t-138 -250.5z" />
    <glyph glyph-name="n.superior" unicode="&#x207f;" horiz-adv-x="909" 
d="M106 1464h207l260 -506v506h230v-1026h-191l-276 531v-531h-230v1026z" />
    <glyph glyph-name="zero.inferior" unicode="&#x2080;" horiz-adv-x="835" 
d="M584 -147h-332q-174 0 -174 170v686q0 170 174 170h332q91 0 132.5 -46.5t41.5 -123.5v-686q0 -77 -41.5 -123.5t-132.5 -46.5zM520 670h-205v-609h205v609z" />
    <glyph glyph-name="one.inferior" unicode="&#x2081;" horiz-adv-x="489" 
d="M145 627l-102 -29v172l279 109h61v-1026h-238v774z" />
    <glyph glyph-name="two.inferior" unicode="&#x2082;" horiz-adv-x="770" 
d="M690 709v-121q0 -53 -31 -96l-329 -429h178v107l215 -43v-104q0 -77 -40.5 -123.5t-131.5 -46.5h-494v165q0 28 5.5 43t19.5 33l377 488l-2 88h-162v-138l-221 43v134q0 77 42 123.5t134 46.5h260q93 0 136.5 -47t43.5 -123z" />
    <glyph glyph-name="three.inferior" unicode="&#x2083;" horiz-adv-x="792" 
d="M727 233v-210q0 -77 -41.5 -123.5t-132.5 -46.5h-322q-92 0 -133 46.5t-41 123.5v104l215 43v-115h168q20 0 33.5 13.5t13.5 33.5v123q0 23 -13 37t-34 14h-141v197h121q19 0 33 15t14 36v107q0 20 -13.5 33.5t-33.5 13.5h-133v-115l-219 43v103q0 77 42 123.5t134 46.5
h286q91 0 133 -46.5t42 -123.5v-138q0 -69 -29 -116.5t-74 -63.5v-2q56 -12 90.5 -56t34.5 -100z" />
    <glyph glyph-name="four.inferior" unicode="&#x2084;" horiz-adv-x="780" 
d="M37 61v193l397 625h213v-625h90v-193h-90v-208h-223v208h-387zM250 254h174v281z" />
    <glyph glyph-name="five.inferior" unicode="&#x2085;" horiz-adv-x="782" 
d="M309 508h234q91 0 132.5 -46.5t41.5 -123.5v-315q0 -77 -41.5 -123.5t-132.5 -46.5h-307q-92 0 -133.5 46.5t-41.5 123.5v92q230 43 232 43v-103h188v242h-395v582h600l-35 -209h-342v-162z" />
    <glyph glyph-name="six.inferior" unicode="&#x2086;" horiz-adv-x="802" 
d="M315 676v-201h246q92 0 133 -46.5t41 -123.5v-282q0 -77 -41 -123.5t-133 -46.5h-309q-174 0 -174 170v686q0 170 174 170h303q92 0 133 -46.5t41 -123.5v-80l-231 -45v92h-183zM315 53h185v228h-185v-228z" />
    <glyph glyph-name="seven.inferior" unicode="&#x2087;" horiz-adv-x="735" 
d="M707 727l-244 -874h-262l235 817h-180v-166l-219 45v330h670v-152z" />
    <glyph glyph-name="eight.inferior" unicode="&#x2088;" horiz-adv-x="813" 
d="M66 23v186q0 60 32.5 107.5t85.5 62.5v4q-43 14 -71.5 66t-28.5 120v140q0 77 41 123.5t133 46.5h293q176 0 176 -170v-140q0 -68 -28.5 -120t-71.5 -66v-4q53 -15 85.5 -62.5t32.5 -107.5v-186q0 -170 -176 -170h-327q-176 0 -176 170zM451 279h-91q-26 0 -43.5 -19
t-17.5 -47v-111q0 -19 12.5 -33t30.5 -14h125q20 0 33.5 14t13.5 33v111q0 28 -18.5 47t-44.5 19zM455 684h-99q-19 0 -31 -13.5t-12 -33.5v-98q0 -27 17.5 -44.5t42.5 -17.5h65q25 0 42.5 17.5t17.5 44.5v98q0 21 -11.5 34t-31.5 13z" />
    <glyph glyph-name="nine.inferior" unicode="&#x2089;" horiz-adv-x="804" 
d="M307 55h182v201h-245q-92 0 -133 46.5t-41 123.5v283q0 77 41 123.5t133 46.5h309q176 0 176 -170v-686q0 -170 -176 -170h-303q-176 0 -176 170v79l233 48v-95zM489 678h-182v-223h182v223z" />
    <glyph glyph-name="colonmonetary" unicode="&#x20a1;" horiz-adv-x="1021" 
d="M350 -203v244q-66 1 -114 20t-75 53.5t-39.5 76.5t-12.5 94v895q0 238 241 243v207h131v-207h76v207h131v-207q129 -3 186.5 -68.5t57.5 -174.5v-150l-277 -53v201h-264v-891h264v243l277 -53v-192q0 -109 -58 -176t-186 -68v-244h-131v244h-76v-244h-131z" />
    <glyph glyph-name="franc" unicode="&#x20a3;" horiz-adv-x="933" 
d="M481 0h-282v236h-148v143h148v1085h675v-239h-393v-359h307v-254h-307v-233h234v-143h-234v-236z" />
    <glyph glyph-name="lira" unicode="&#x20a4;" horiz-adv-x="1093" 
d="M96 950h154v271q0 111 59 177t191 66h241q133 0 191.5 -66t58.5 -177v-99l-274 -53v150h-185v-269h285v-143h-285v-111h285v-143h-285v-287h213v172l277 -53v-121q0 -114 -59 -190t-152 -76q-30 0 -160 27l-180 38q-60 -63 -188 -63h-187v246h90q26 0 45 19.5t19 47.5
v240h-154v143h154v111h-154v143z" />
    <glyph glyph-name="peseta" unicode="&#x20a7;" horiz-adv-x="2492" 
d="M1004 1221v-418q0 -111 -58.5 -176.5t-191.5 -65.5h-340v-561h-283v1464h623q132 0 191 -66t59 -177zM655 1219h-241v-410h241q26 0 46 20t20 48v274q0 28 -20 48t-46 20zM1092 1257v207h587v-207h-174v-819h-237v819h-176zM2073 1071l174 -10q174 -8 174 -174v-279
q0 -77 -41 -123.5t-133 -46.5h-328q-92 0 -134 46.5t-42 123.5v105l233 47v-76q0 -19 13 -33t30 -14h119q19 0 32 14t13 33v100q0 37 -13.5 51t-51.5 15l-172 10q-177 8 -177 170v264q0 77 41.5 123.5t135.5 46.5h292q93 0 135 -46.5t42 -123.5v-94l-234 -47v55
q0 23 -12.5 39.5t-32.5 16.5h-84q-20 0 -32.5 -14t-12.5 -33v-78q0 -40 14.5 -53t51.5 -15z" />
    <glyph glyph-name="Euro" unicode="&#x20ac;" horiz-adv-x="1089" 
d="M66 950h147v271q0 111 58.5 177t191.5 66h291q132 0 191 -66t59 -177v-97l-277 -53v148h-231v-269h311v-143h-311v-111h311v-143h-311v-307h231v194l277 -53v-143q0 -111 -59 -177.5t-191 -66.5h-291q-131 0 -190.5 66.5t-59.5 177.5v309h-147v143h147v111h-147v143z" />
    <glyph glyph-name="uni20B1" unicode="&#x20b1;" horiz-adv-x="1124" 
d="M965 1221v-160h108v-141h-108v-168q0 -110 -59.5 -176t-190.5 -66h-234v-510h-282v920h-148v141h148v403h516q131 0 190.5 -66.5t59.5 -176.5zM623 756q26 0 44.5 19.5t18.5 47.5v97h-205v-164h142zM623 1219h-142v-158h205v90q0 28 -18.5 48t-44.5 20z" />
    <glyph glyph-name="uni20B9" unicode="&#x20b9;" horiz-adv-x="978" 
d="M377 1219h-275v245h799v-233h-170q51 -59 51 -164v-6h119v-141h-119v-170q0 -221 -211 -240l289 -510h-330l-272 508h-156v246h334q26 0 45 19.5t19 47.5v99h-398v141h398v29q0 59 -33 94t-90 35z" />
    <glyph glyph-name="uni20BA" unicode="&#x20ba;" horiz-adv-x="1060" 
d="M72 864l149 56v544h281v-442l268 98v-149l-268 -99v-110l268 98v-149l-268 -99v-366h231v305l277 -53v-254q0 -111 -59.5 -177.5t-190.5 -66.5h-539v510l-149 -53v147l149 55v111l-149 -53v147z" />
    <glyph glyph-name="uni20BD" unicode="&#x20bd;" horiz-adv-x="1073" 
d="M997 1221v-392q0 -241 -249 -241h-232v-209h232v-143h-232v-236h-283v236h-147v143h147v209h-147v248h147v628h515q132 0 190.5 -66t58.5 -177zM655 1219h-139v-383h139q26 0 45 19.5t19 47.5v248q0 28 -19 48t-45 20z" />
    <glyph glyph-name="uni2113" unicode="&#x2113;" horiz-adv-x="919" 
d="M817 272v-206q-112 -91 -309 -91q-319 0 -334 263v71l-127 -92v246l125 94v547q0 202 88.5 293.5t253.5 91.5q164 0 256 -92.5t92 -288.5q0 -192 -98 -334.5t-315 -292.5v-153q0 -72 27 -100.5t91 -28.5q72 0 138.5 22t111.5 51zM449 721q94 79 134 167.5t40 213.5
q0 100 -23.5 143t-69.5 43q-39 0 -60 -35t-21 -118v-414z" />
    <glyph glyph-name="uni2117" unicode="&#x2117;" horiz-adv-x="1777" 
d="M59 711q0 187 59 352.5t165 288t263 193.5t343 71q187 0 344 -71t262.5 -194t164 -288t58.5 -352t-58.5 -352.5t-164 -288t-262.5 -194t-344 -71.5q-186 0 -343 71.5t-263 194t-165 288t-59 352.5zM254 711q0 -207 77 -376t223 -269.5t335 -100.5t335 100.5t223 269.5
t77 376q0 206 -77 375t-223 269.5t-335 100.5t-335 -100.5t-223 -269.5t-77 -375zM1307 1057v-299q0 -100 -53.5 -158.5t-172.5 -58.5h-235v-402h-246v1137h481q119 0 172.5 -59.5t53.5 -159.5zM1001 1063h-155v-309h155q23 0 40.5 18t17.5 43v186q0 25 -17.5 43.5
t-40.5 18.5z" />
    <glyph glyph-name="uni2120" unicode="&#x2120;" horiz-adv-x="1105" 
d="M885 854v293q0 11 1 38t1 38h-4l-17 -76l-69 -293h-90l-68 293l-18 76h-5q5 -58 5 -76v-293h-117v610h174l61 -264l15 -76h4q1 5 6 33t8 43l62 264h176v-610h-125zM68 1047l125 8q6 -90 65 -90q45 0 45 41q0 37 -65 84l-66 49q-94 68 -90 168q1 81 51 124.5t131 43.5
q83 0 128 -48.5t50 -138.5l-120 -10q-11 76 -58 76q-43 0 -43 -41q0 -5 0.5 -9.5t2.5 -9t3.5 -7.5t6 -7.5t6 -6.5t8 -7t9 -7t11 -8t11.5 -8l67 -53q103 -82 103 -182q0 -76 -52.5 -121t-136.5 -43q-87 1 -136.5 54.5t-55.5 148.5z" />
    <glyph glyph-name="trademark" unicode="&#x2122;" horiz-adv-x="1067" 
d="M846 854v293q0 11 1 38t1 38h-4l-17 -76l-69 -293h-90l-68 293l-18 76h-4q4 -46 4 -76v-293h-117v610h174l61 -264l15 -76h4q1 5 6 33t8 43l62 264h176v-610h-125zM406 1350h-107v-496h-135v496h-111v114h353v-114z" />
    <glyph glyph-name="estimated" unicode="&#x212e;" horiz-adv-x="1755" 
d="M1626 346q-140 -190 -331 -283.5t-402 -93.5q-164 0 -316 57t-266.5 156t-182.5 242.5t-67 306.5q0 135 46.5 256t127.5 211.5t186.5 156.5t226.5 100t245 34q161 0 309.5 -59.5t261 -164.5t180 -260.5t66.5 -334.5h-1276q-5 0 -10.5 -6.5t-5.5 -14.5v-256q0 -40 16 -69
q50 -94 189.5 -159t281.5 -65q132 0 262.5 62.5t223.5 183.5h235zM438 811h893q21 0 21 16v256q0 29 -15 52q-51 82 -176.5 151.5t-273.5 69.5q-157 0 -284 -72t-169 -149q-16 -29 -16 -52v-256q0 -16 20 -16z" />
    <glyph glyph-name="onethird" unicode="&#x2153;" horiz-adv-x="1671" 
d="M145 1212l-102 -28v172l279 108h61v-1026h-238v774zM385 0l389 1464h211l-389 -1464h-211zM1606 381v-211q0 -77 -41.5 -123.5t-132.5 -46.5h-322q-92 0 -133 46.5t-41 123.5v104l215 43v-114h168q20 0 33.5 13.5t13.5 33.5v123q0 23 -13 37t-34 14h-141v197h120
q19 0 33.5 15t14.5 36v106q0 20 -14 33.5t-34 13.5h-133v-114l-219 43v102q0 77 42 123.5t134 46.5h287q91 0 132.5 -46.5t41.5 -123.5v-137q0 -69 -28.5 -116.5t-73.5 -63.5v-2q56 -12 90.5 -56t34.5 -100z" />
    <glyph glyph-name="twothirds" unicode="&#x2154;" horiz-adv-x="1951" 
d="M690 1294v-120q0 -54 -31 -97l-329 -428h178v107l215 -43v-105q0 -77 -40.5 -123.5t-131.5 -46.5h-494v166q0 28 5.5 43t19.5 33l377 487l-2 88h-162v-137l-221 43v133q0 77 42 123.5t134 46.5h260q93 0 136.5 -47t43.5 -123zM666 0l389 1464h211l-389 -1464h-211z
M1886 381v-211q0 -77 -41.5 -123.5t-132.5 -46.5h-321q-92 0 -133 46.5t-41 123.5v104l215 43v-114h167q20 0 34 13.5t14 33.5v123q0 23 -13.5 37t-34.5 14h-141v197h121q19 0 33 15t14 36v106q0 20 -13.5 33.5t-33.5 13.5h-133v-114l-219 43v102q0 77 42 123.5t134 46.5
h287q91 0 132.5 -46.5t41.5 -123.5v-137q0 -69 -29 -116.5t-74 -63.5v-2q56 -12 90.5 -56t34.5 -100z" />
    <glyph glyph-name="oneeighth" unicode="&#x215b;" horiz-adv-x="1691" 
d="M145 1212l-102 -28v172l279 108h61v-1026h-238v774zM385 0l389 1464h211l-389 -1464h-211zM944 170v186q0 59 33 107t86 63v4q-43 14 -71.5 66.5t-28.5 120.5v139q0 77 41 123.5t133 46.5h293q176 0 176 -170v-139q0 -68 -29 -120.5t-72 -66.5v-4q53 -15 86 -63t33 -107
v-186q0 -170 -176 -170h-328q-176 0 -176 170zM1329 426h-90q-26 0 -43.5 -19t-17.5 -47v-110q0 -19 12.5 -33t30.5 -14h125q20 0 33.5 14t13.5 33v110q0 28 -19 47t-45 19zM1333 831h-98q-19 0 -31 -13.5t-12 -33.5v-98q0 -27 17 -44t42 -17h66q25 0 42 17t17 44v98
q0 21 -11.5 34t-31.5 13z" />
    <glyph glyph-name="threeeighths" unicode="&#x215c;" horiz-adv-x="1996" 
d="M727 819v-211q0 -77 -41.5 -123.5t-132.5 -46.5h-322q-92 0 -133 46.5t-41 123.5v105l215 43v-115h168q20 0 33.5 13.5t13.5 33.5v123q0 23 -13 37t-34 14h-141v197h121q19 0 33 15t14 36v107q0 20 -13.5 33.5t-33.5 13.5h-133v-115l-219 43v102q0 77 42 123.5t134 46.5
h286q91 0 133 -46.5t42 -123.5v-137q0 -69 -29 -116.5t-74 -63.5v-2q56 -12 90.5 -56t34.5 -100zM690 0l389 1464h211l-389 -1464h-211zM1249 170v186q0 59 33 107t86 63v4q-43 14 -71.5 66.5t-28.5 120.5v139q0 77 41 123.5t133 46.5h293q176 0 176 -170v-139
q0 -68 -29 -120.5t-72 -66.5v-4q53 -15 86 -63t33 -107v-186q0 -170 -176 -170h-328q-176 0 -176 170zM1634 426h-90q-26 0 -43.5 -19t-17.5 -47v-110q0 -19 12.5 -33t30.5 -14h125q20 0 33.5 14t13.5 33v110q0 28 -19 47t-45 19zM1638 831h-98q-19 0 -31 -13.5t-12 -33.5
v-98q0 -27 17 -44t42 -17h66q25 0 42 17t17 44v98q0 21 -11.5 34t-31.5 13z" />
    <glyph glyph-name="fiveeighths" unicode="&#x215d;" horiz-adv-x="1984" 
d="M309 1094h234q91 0 132.5 -46.5t41.5 -123.5v-316q0 -77 -41.5 -123.5t-132.5 -46.5h-307q-92 0 -133.5 46.5t-41.5 123.5v92q230 43 232 43v-102h188v242h-395v581h600l-35 -209h-342v-161zM678 0l389 1464h211l-389 -1464h-211zM1237 170v186q0 59 33 107t86 63v4
q-43 14 -72 66.5t-29 120.5v139q0 77 41.5 123.5t133.5 46.5h292q176 0 176 -170v-139q0 -68 -28.5 -120.5t-71.5 -66.5v-4q53 -15 86 -63t33 -107v-186q0 -170 -176 -170h-328q-176 0 -176 170zM1622 426h-90q-26 0 -44 -19t-18 -47v-110q0 -19 12.5 -33t30.5 -14h125
q20 0 34 14t14 33v110q0 28 -19 47t-45 19zM1626 831h-98q-19 0 -31 -13.5t-12 -33.5v-98q0 -27 17 -44t42 -17h66q25 0 42 17t17 44v98q0 21 -11.5 34t-31.5 13z" />
    <glyph glyph-name="seveneighths" unicode="&#x215e;" horiz-adv-x="1880" 
d="M707 1313l-244 -875h-262l235 817h-180v-165l-219 45v329h670v-151zM573 0l390 1464h211l-390 -1464h-211zM1133 170v186q0 60 32.5 107.5t85.5 62.5v4q-43 14 -71.5 66.5t-28.5 120.5v139q0 77 41 123.5t133 46.5h293q176 0 176 -170v-139q0 -68 -28.5 -120.5
t-71.5 -66.5v-4q53 -15 85.5 -62.5t32.5 -107.5v-186q0 -170 -176 -170h-327q-176 0 -176 170zM1518 426h-91q-26 0 -43.5 -19t-17.5 -47v-110q0 -19 12.5 -33t30.5 -14h125q20 0 33.5 14t13.5 33v110q0 28 -18.5 47t-44.5 19zM1522 831h-99q-19 0 -31 -13.5t-12 -33.5v-98
q0 -27 17.5 -44t42.5 -17h65q25 0 42.5 17t17.5 44v98q0 21 -11.5 34t-31.5 13z" />
    <glyph glyph-name="partialdiff" unicode="&#x2202;" horiz-adv-x="1099" 
d="M543 1096q135 0 229 -99q-9 151 -65.5 217t-194.5 66q-72 0 -154 -12l-8 186q74 19 178 19q262 0 380 -154.5t118 -491.5q0 -396 -147 -621.5t-398 -225.5q-85 0 -157.5 27t-131.5 83t-92.5 151t-33.5 220q0 180 65.5 326.5t174.5 227.5t237 81zM500 178q38 0 73 16
t70.5 58.5t62.5 109.5t45.5 178t22.5 255q-72 102 -182 102q-122 0 -197.5 -123t-75.5 -305q0 -146 49.5 -218.5t131.5 -72.5z" />
    <glyph glyph-name="product" unicode="&#x220f;" horiz-adv-x="1169" 
d="M756 -336v1567h-342v-1567h-281v1800h905v-1800h-282z" />
    <glyph glyph-name="summation" unicode="&#x2211;" horiz-adv-x="989" 
d="M59 -123l533 688l-533 686v213h844v-225h-489l454 -598v-149l-456 -603h491v-225h-844v213z" />
    <glyph glyph-name="minus" unicode="&#x2212;" horiz-adv-x="1042" 
d="M66 725h911v-223h-911v223z" />
    <glyph glyph-name="radical" unicode="&#x221a;" horiz-adv-x="1216" 
d="M31 657v220h364l205 -494h2l334 1098h283l-508 -1481h-213l-287 657h-180z" />
    <glyph glyph-name="infinity" unicode="&#x221e;" horiz-adv-x="1642" 
d="M1227 287q-129 0 -222 45.5t-186 132.5q-87 -85 -182 -131.5t-221 -46.5q-162 0 -264.5 87.5t-102.5 246.5q0 111 50.5 188.5t131.5 112t185 34.5q128 0 222.5 -48t180.5 -138q93 91 187 138.5t223 47.5q159 0 262.5 -85t103.5 -250q0 -159 -104 -246.5t-264 -87.5z
M1204 487q66 0 110 36.5t44 97.5q0 64 -43 99.5t-103 35.5q-65 0 -119.5 -33.5t-125.5 -101.5q70 -68 122.5 -101t114.5 -33zM432 487q65 0 116.5 32t125.5 102q-75 70 -127.5 102.5t-114.5 32.5q-60 0 -103.5 -35.5t-43.5 -99.5q0 -61 43 -97.5t104 -36.5z" />
    <glyph glyph-name="integral" unicode="&#x222b;" horiz-adv-x="813" 
d="M281 -6v1167q0 152 90.5 227.5t257.5 75.5h159v-204h-106q-75 0 -112.5 -27.5t-37.5 -97.5v-1168q0 -152 -90 -227.5t-256 -75.5h-161v205h108q74 0 111 27.5t37 97.5z" />
    <glyph glyph-name="approxequal" unicode="&#x2248;" horiz-adv-x="1042" 
d="M66 676v227q55 55 127 88t135 33q65 0 117 -19t82.5 -41.5t82.5 -41.5t117 -19q129 0 250 121v-233q-56 -51 -131.5 -84t-136.5 -33q-52 0 -94.5 12.5t-73 30t-61 34.5t-75.5 29.5t-100 12.5q-115 0 -239 -117zM66 207v227q55 54 127 86.5t135 32.5q65 0 117 -18.5
t82.5 -41t82.5 -41t117 -18.5q131 0 250 119v-234q-56 -50 -131.5 -82t-136.5 -32q-52 0 -94.5 11.5t-73 27.5l-61 32t-75.5 27.5t-100 11.5q-121 0 -239 -108z" />
    <glyph glyph-name="notequal" unicode="&#x2260;" horiz-adv-x="1042" 
d="M66 737v226h530l100 180h230l-99 -180h150v-226h-275l-135 -248h410v-225h-533l-98 -180h-233l98 180h-145v225h270l137 248h-407z" />
    <glyph glyph-name="lessequal" unicode="&#x2264;" horiz-adv-x="1042" 
d="M84 823l872 375v-252l-417 -155l-115 -39v-17l115 -33l417 -153v-252l-872 369v157zM84 221h872v-221h-872v221z" />
    <glyph glyph-name="greaterequal" unicode="&#x2265;" horiz-adv-x="1042" 
d="M84 0v221h872v-221h-872zM84 297v252l420 153l112 33v17l-112 39l-420 155v252l872 -375v-157z" />
    <glyph glyph-name="lozenge" unicode="&#x25ca;" 
d="M440 0l-409 506v88l409 500h183l419 -500v-88l-419 -506h-183zM303 549l232 -295l229 293l-232 291z" />
    <glyph glyph-name="R_p" unicode="&#xf6dd;" horiz-adv-x="1974" 
d="M1223 1462h489q92 0 133 -46.5t41 -123.5v-303q0 -77 -41 -123.5t-133 -46.5h-250v-381h-239v1024zM1462 1255v-229h140q19 0 33 14t14 33v135q0 19 -14 33t-33 14h-140zM131 1464h635q133 0 192.5 -66.5t59.5 -176.5v-408q0 -108 -56.5 -173.5t-181.5 -68.5l314 -571
h-328l-295 571h-57v-571h-283v1464zM414 1219v-400h256q26 0 45.5 20t19.5 48v264q0 28 -19.5 48t-45.5 20h-256z" />
    <glyph glyph-name="atftype.com" unicode="&#xf8ff;" horiz-adv-x="2252" 
d="M348 0v1464h1557v-1464h-1557zM651 508l19 119h106l21 -119h129l-113 620h-176l-115 -620h129zM1556 770h130v113h-130v135h162v110h-293l2 -63v-494l-2 -63h134l-3 63v199zM1204 1018h111v110h-348v-110h110v-447l-2 -63h131l-2 63v447zM1200 -129q17 0 17 -10
q0 -2 -3.5 -10t-7.5 -20t-6 -24q0 -8 6 -8q3 0 12.5 2t14.5 2q53 0 53 -43q0 -45 -38 -105.5t-85 -60.5q-6 0 -13.5 1.5t-8.5 1.5q-4 0 -8 -13q-21 -71 -21 -76q0 -9 6.5 -13t30.5 -5q8 0 8 -8t-8 -8q-4 0 -25 3t-32 3l-12 -2q-13 -2 -29 -2q-13 0 -13 8t11 8q17 1 21 5
t9 18q56 191 78 256q3 8 -4 8h-20q-7 0 -7 4q0 11 25 14q18 3 20 8q6 23 13 58q0 8 16 8zM1878 -264q0 11 32 42.5t50 31.5q7 0 11.5 -4.5t4.5 -8.5q0 -6 -4 -18t-9.5 -26t-6.5 -17q-3 -8 2 -8q4 0 6 4q17 35 38 57.5t36 22.5q14 0 21 -7.5t7 -17.5q0 -9 -3.5 -19.5
t-9.5 -23t-7 -16.5q-3 -9 2 -9q4 0 8 9q42 84 84 84q14 0 22.5 -9.5t8.5 -21.5q0 -7 -2.5 -14.5t-11.5 -26t-15 -31.5q-8 -17 -17.5 -37.5t-13.5 -29t-4 -11.5q0 -4 4 -4q3 0 19 12t27 25q6 6 8 6q6 0 6 -8q0 -7 -36 -38.5t-56 -31.5q-15 0 -15 13q0 14 43 94q31 58 31 80
q0 12 -10 12q-25 0 -80 -96q-6 -9 -16.5 -31.5t-14.5 -30.5q-3 -6 -7 -14.5t-6 -12.5t-5.5 -8.5t-6.5 -6t-7 -1.5q-17 0 -17 11q0 3 3.5 10t15 30.5t24.5 57.5q27 69 27 76q0 12 -15 12q-11 0 -73 -92q-23 -41 -35 -70q-13 -32 -21 -34q-2 -1 -4 -1q-6 0 -11 4.5t-5 10.5
q0 2 1 4l3.5 7t6.5 13.5t12 27.5t18 44q24 63 24 68q0 10 -4 10q-3 0 -18 -15q-6 -6 -11.5 -13t-9 -11.5t-7.5 -8t-7 -3.5q-4 0 -4 8zM1743 -410q-22 0 -33.5 21t-11.5 41q0 64 35 111t67 47q18 0 30.5 -20.5t12.5 -59.5q0 -52 -33.5 -96t-66.5 -44zM82 -381q0 -5 16 -10
q13 -3 13 -8q0 -7 -11 -7q-1 0 -17.5 2.5t-23.5 2.5q-5 0 -17.5 -1t-18.5 -1q-9 0 -9 6q0 5 19 10q13 3 39 33q137 158 170 190q6 6 10 6q10 0 10 -6l-2 -6q-1 -7 -3 -18.5t-3 -22.5q-10 -88 -10 -158q0 -10 3 -13t11 -5q16 -3 16 -8q0 -8 -10 -8l-16 2q-17 2 -29 2
q-8 0 -23 -2t-18 -2q-6 0 -6 6t14 8q23 3 23 22l4 52q0 6 -6 6h-66q-4 0 -10 -6q-5 -6 -12.5 -15.5t-13.5 -16t-11.5 -14t-8.5 -12.5t-3 -8zM934 -264q0 21 20 53q14 21 33 21t26 -30.5t7 -92.5q0 -12 -1 -26t-2 -23l-1 -9q0 -6 4 -6q3 0 9.5 13t14 36.5t13.5 48.5
q10 45 10 74q0 15 14 15q13 0 13 -17q0 -21 -18 -78.5t-46 -109.5q-64 -119 -131 -119q-22 0 -22 20q0 19 20 19q9 0 15 -8.5t8 -8.5q23 0 47 37t24 58q0 168 -18 168q-17 0 -25 -33q-3 -8 -8 -8q-6 0 -6 6zM545 -152q10 0 10 -10l-8 -24q-1 -3 -2 -10t-2 -10.5t-3 -8
t-5 -6.5t-7 -2q-8 0 -8 8q0 3 2 9t2 9q0 4 -2.5 5.5t-13.5 2.5t-35 1q-12 0 -15.5 -3.5t-6.5 -15.5l-35 -147q-5 -22 -1.5 -27.5t29.5 -9.5q15 -3 15 -8q0 -9 -8 -9q-1 0 -23 4.5t-37 4.5q-5 0 -24 -3.5t-27 -3.5q-14 0 -10 11q3 6 16 6q18 1 22.5 8t12.5 39l35 135
q3 18 -2 19q-51 0 -68 -13q-7 -4 -16 -16t-13 -12q-6 0 -6 6q0 3 15 33q2 4 4 11t3 12t3.5 9t7.5 4q4 0 5.5 -8t10.5 -8q3 0 29.5 -1t54.5 -1q19 0 46 1t30 1q10 0 15 9t10 9zM1419 -190q33 0 33 -43q0 -65 -94 -80q-15 -2 -15 -27q0 -35 29 -35q12 0 33 21q10 10 14 10
l4 -6q0 -9 -23.5 -33.5t-41.5 -24.5q-17 0 -31 14t-14 40q0 58 36 111t70 53zM653 -395q0 -8 -10 -8q-4 0 -20 2t-31 2q-5 0 -18.5 -2t-18.5 -2q-14 0 -14 8t12 8q18 2 22.5 6t8.5 27l34 147q2 11 2.5 15t-1.5 5.5t-7 2.5q-22 2 -22 8q0 10 8 10q3 0 33.5 -2t40.5 -2
q51 0 67 2q3 1 6.5 2t5.5 1.5t3 0.5q12 0 12 -16v-37q0 -6 -8 -6q-4 0 -8 5t-8 13.5t-5 9.5q-5 6 -15 7.5t-54 1.5q-13 0 -15 -11l-14 -69q-2 -10 -1 -12.5t7 -2.5h45q20 0 29 27q4 8 8 8q8 0 8 -6q0 -5 -4.5 -21t-5.5 -22q-3 -35 -12 -35q-8 0 -8 8q0 17 -4.5 22t-16.5 5
h-43q-9 0 -12 -14l-11 -45l-2 -10l-1.5 -7.5t-0.5 -3.5q0 -5 2 -7.5t7 -4t16 -2.5q14 0 14 -6zM881 -221l-47 -133q0 -6 8 -6q12 0 32 26q15 19 17 19q4 0 4 -7q0 -15 -37.5 -50.5t-54.5 -35.5q-15 0 -15 13q0 7 10 34.5t26.5 69.5t25.5 70q1 3 -1 4.5t-7 1.5h-27q-6 0 -6 8
t8 8q4 0 15 -1t16 -1q10 0 14 8l15 48q3 11 6.5 13.5t13.5 2.5q4 0 8 -3.5t4 -6.5q0 -5 -8 -23t-10 -31q-3 -8 4 -8q12 0 23 1l12 1q4 0 4 -4q0 -12 -6 -12h-35q-9 0 -12 -6zM1212 -211q-16 0 -22 -16q-37 -119 -37 -144q0 -20 14 -20q29 0 57.5 57.5t28.5 91.5
q0 11 -10.5 21t-30.5 10zM1802 -203q-21 0 -48.5 -57t-27.5 -98q0 -37 17 -37q25 0 51.5 56.5t26.5 98.5q0 14 -6 25.5t-13 11.5zM1663 -190q17 0 27 -8.5t10 -16.5q0 -21 -14 -21t-26 13.5t-15 13.5q-17 0 -41.5 -50t-24.5 -81q0 -33 23 -33q13 0 27.5 16.5t17.5 16.5
q4 0 4 -8q0 -10 -29 -35q-32 -27 -45 -27q-12 0 -22.5 15t-10.5 41q0 34 16.5 71t41.5 62q31 31 61 31zM686 737l25 144l12 96h4l12 -96l21 -144h-74zM1417 -207q-17 0 -38 -33.5t-21 -50.5q0 -6 6 -6q16 0 43 24.5t27 45.5q0 20 -17 20zM215 -283l6 60q3 18 0 18
q-2 0 -4.5 -2.5t-4.5 -6.5l-3 -3l-49 -64q-7 -10 2 -10h47q6 0 6 8zM1483 -356q16 0 16 -21q0 -14 -8.5 -23.5t-20.5 -9.5q-16 0 -16 21q0 14 8.5 23.5t20.5 9.5z" />
    <glyph glyph-name="fi" unicode="&#xfb01;" horiz-adv-x="1445" 
d="M414 0h-283v1464h741v-245h-458v-353h311v-254h-311v-612zM1315 1464v-1464h-283v1464h283z" />
    <glyph glyph-name="fl" unicode="&#xfb02;" horiz-adv-x="1804" 
d="M414 0h-283v1464h741v-245h-458v-353h311v-254h-311v-612zM1780 0h-748v1464h283v-1218h465v-246z" />
    <glyph glyph-name="dollar.superior" horiz-adv-x="790" 
d="M492 297h-189v170h-70q-176 0 -176 170v90l226 45v-59q0 -21 12 -34t33 -13h114q19 0 32 12.5t13 32.5v80q0 32 -14.5 44.5t-50.5 14.5l-164 10q-174 8 -174 170v236q0 78 41.5 125t134.5 47h43v143h189v-143h45q92 0 134 -47.5t42 -124.5v-80l-226 -45v49q0 22 -13 37.5
t-34 15.5h-82q-20 0 -33.5 -12t-13.5 -31v-72q0 -32 15 -44t53 -15l133 -8q99 -7 153 -54.5t54 -119.5v-250q0 -77 -41.5 -123.5t-132.5 -46.5h-53v-170z" />
    <glyph glyph-name="cent.superior" horiz-adv-x="710" 
d="M461 438h-189v129h-30q-174 0 -174 170v428q0 172 174 172h30v127h189v-127h18q92 0 133 -47t41 -125v-84l-233 -45v99h-115v-369h115v117l233 -45v-101q0 -77 -41 -123.5t-133 -46.5h-18v-129z" />
    <glyph glyph-name="Euro.superior" horiz-adv-x="817" 
d="M51 1110h103v184q0 170 176 170h256q92 0 133 -46.5t41 -123.5v-69l-234 -45v84h-133v-154h230v-117h-230v-65h230v-115h-230v-176h133v115l234 -45v-99q0 -77 -41 -123.5t-133 -46.5h-256q-92 0 -134 46.5t-42 123.5v205h-103v115h103v65h-103v117z" />
    <glyph glyph-name="sterling.superior" horiz-adv-x="813" 
d="M61 881v166h107v247q0 170 176 170h229q92 0 133.5 -46.5t41.5 -123.5v-75l-234 -45v90h-108v-217h235v-166h-235v-222h124v115l232 -45v-106q0 -76 -40 -131.5t-108 -55.5q-17 0 -106 17l-148 28q-43 -43 -129 -43h-170v207h62q19 0 32 14t13 33v189h-107z" />
    <glyph glyph-name="yen.superior" horiz-adv-x="784" 
d="M70 1110h106l-145 354h254l112 -315l113 315h246l-154 -354h111v-117h-162l-29 -69h191v-115h-199v-371h-246v371h-198v115h184l-29 69h-155v117z" />
    <glyph glyph-name="numbersign.superior" horiz-adv-x="823" 
d="M598 1464h152l-50 -239h78v-178h-112l-39 -189h78v-178h-113l-49 -242h-154l49 242h-159l-50 -242h-153l49 242h-80v178h117l37 189h-80v178h117l49 239h153l-49 -239h160zM352 1047l-37 -189h160l37 189h-160z" />
    <glyph glyph-name="percent.superior" horiz-adv-x="1345" 
d="M178 850q-123 0 -123 119v379q0 116 123 116h234q120 0 120 -116v-379q0 -119 -120 -119h-234zM938 438q-125 0 -125 119v377q0 119 125 119h231q64 0 92.5 -32.5t28.5 -86.5v-377q0 -54 -28.5 -86.5t-92.5 -32.5h-231zM432 438l305 1026h178l-303 -1026h-180zM240 1014
h106v286h-106v-286zM999 602h105v287h-105v-287z" />
    <glyph glyph-name="period.superior" horiz-adv-x="403" 
d="M72 487v175q0 51 41 51h178q21 0 32 -14t11 -37v-175q0 -21 -11 -35t-32 -14h-178q-41 0 -41 49z" />
    <glyph glyph-name="comma.superior" horiz-adv-x="401" 
d="M332 506l-84 -230h-158l66 179h-43q-21 0 -32 14t-11 37v156q0 23 11 37t32 14h176q21 0 32 -14t11 -37v-156z" />
    <glyph glyph-name="hyphen.superior" horiz-adv-x="448" 
d="M80 819v211h289v-211h-289z" />
    <glyph glyph-name="zero.tl" 
d="M721 0h-373q-131 0 -190.5 66.5t-59.5 177.5v977q0 110 59.5 176.5t190.5 66.5h373q133 0 191.5 -66t58.5 -177v-977q0 -111 -59 -177.5t-191 -66.5zM688 1219h-307v-973h307v973z" />
    <glyph glyph-name="one.tl" 
d="M426 1163q1 0 -58 -9.5t-118 -19.5l-60 -10v195l459 145h62v-1218h200v-246h-749v246h264v917z" />
    <glyph glyph-name="two.tl" 
d="M934 1221v-146q0 -87 -39 -145l-475 -680h301v188l264 -51v-143q0 -111 -59.5 -177.5t-190.5 -66.5h-645v190q0 62 33 113l530 748l-2 163h-254v-233l-274 53v187q0 111 58.5 177t191.5 66h311q131 0 190.5 -66.5t59.5 -176.5z" />
    <glyph glyph-name="three.tl" 
d="M977 545v-301q0 -111 -59 -177.5t-191 -66.5h-383q-133 0 -192.5 66.5t-59.5 177.5v143l264 51v-196h269q29 0 48 19t19 48v252q0 31 -19.5 51.5t-47.5 20.5h-203v233h174q29 0 48.5 20.5t19.5 51.5v219q0 29 -19 48.5t-47 19.5h-225v-193l-264 53v136q0 111 59 177
t190 66h336q132 0 191 -66t59 -177v-195q0 -104 -39.5 -172.5t-103.5 -89.5v-2q76 -14 126 -74.5t50 -142.5z" />
    <glyph glyph-name="four.tl" 
d="M70 326v229l563 909h239v-909h132v-229h-132v-326h-262v326h-540zM313 555h297v477z" />
    <glyph glyph-name="five.tl" 
d="M393 922h330q133 0 192.5 -66.5t59.5 -177.5v-434q0 -111 -59.5 -177.5t-192.5 -66.5h-375q-132 0 -191 66.5t-59 177.5v118q271 54 275 54v-174h319v430h-559v792h795l-39 -247h-496v-295z" />
    <glyph glyph-name="six.tl" 
d="M377 1223v-349h350q133 0 191.5 -66t58.5 -177v-387q0 -111 -59 -177.5t-191 -66.5h-381q-133 0 -192.5 66.5t-59.5 177.5v977q0 110 59.5 176.5t192.5 66.5h367q131 0 190.5 -66.5t59.5 -176.5v-109l-277 -53v164h-309zM377 240h317v397h-317v-397z" />
    <glyph glyph-name="seven.tl" 
d="M985 1247l-348 -1247h-307l352 1217h-332v-279l-266 53v473h901v-217z" />
    <glyph glyph-name="eight.tl" 
d="M78 244v266q0 87 47.5 156.5t120.5 89.5v2q-64 23 -104 97.5t-40 168.5v197q0 110 59 176.5t189 66.5h365q134 0 193 -66t59 -177v-197q0 -94 -40 -168.5t-104 -97.5v-2q73 -20 120.5 -89.5t47.5 -156.5v-266q0 -111 -59 -177.5t-193 -66.5h-413q-130 0 -189 67t-59 177z
M621 629h-177q-37 0 -64.5 -29.5t-27.5 -69.5v-221q0 -28 19 -47.5t45 -19.5h235q26 0 45 19.5t19 47.5v221q0 40 -28 69.5t-66 29.5zM629 1235h-191q-26 0 -45.5 -20t-19.5 -48v-198q0 -40 28 -69.5t66 -29.5h133q38 0 65 29.5t27 69.5v198q0 28 -18.5 48t-44.5 20z" />
    <glyph glyph-name="nine.tl" 
d="M383 242h311v348h-350q-133 0 -192.5 66.5t-59.5 177.5v387q0 110 59.5 176.5t192.5 66.5h383q133 0 191.5 -66t58.5 -177v-977q0 -111 -59 -177.5t-191 -66.5h-369q-132 0 -190.5 66.5t-58.5 177.5v108l274 54v-164zM694 1225h-317v-398h317v398z" />
    <glyph glyph-name="dollar.tl" 
d="M657 -201h-217v242h-96q-131 0 -189.5 66.5t-58.5 177.5v127l266 53v-111q0 -28 19 -47.5t47 -19.5h207q26 0 44.5 19.5t18.5 47.5v162q0 52 -19.5 71.5t-72.5 22.5l-223 11q-248 13 -248 245v314q0 243 248 243h57v207h217v-207h56q133 0 191.5 -66t58.5 -177v-115
l-267 -53v106q0 28 -18 48t-45 20h-162q-27 0 -46 -20t-19 -48v-141q0 -54 20 -73.5t74 -22.5l202 -13q135 -7 204 -72.5t69 -172.5v-338q0 -111 -59.5 -177.5t-190.5 -66.5h-68v-242z" />
    <glyph glyph-name="cent.tl" 
d="M647 0h-217v184h-24q-133 0 -192.5 66.5t-59.5 177.5v608q0 111 59.5 177.5t192.5 66.5h24v184h217v-184h19q132 0 190.5 -66.5t58.5 -177.5v-116l-276 -54v168h-201v-604h201v191l276 -54v-139q0 -111 -58.5 -177.5t-190.5 -66.5h-19v-184z" />
    <glyph glyph-name="Euro.tl" 
d="M66 950h147v271q0 111 58.5 177t191.5 66h291q132 0 191 -66t59 -177v-97l-277 -53v148h-231v-269h311v-143h-311v-111h311v-143h-311v-307h231v194l277 -53v-143q0 -111 -59 -177.5t-191 -66.5h-291q-131 0 -190.5 66.5t-59.5 177.5v309h-147v143h147v111h-147v143z" />
    <glyph glyph-name="sterling.tl" 
d="M74 643v213h151v365q0 111 58.5 177t191.5 66h242q133 0 192.5 -66.5t59.5 -176.5v-103l-277 -53v154h-184v-363h285v-213h-285v-377h213v203l274 -53v-152q0 -114 -58 -190t-151 -76q-25 0 -155 27l-185 38q-60 -63 -188 -63h-184v246h86q28 0 46.5 19.5t18.5 47.5v330
h-151z" />
    <glyph glyph-name="uni20BD.tl" 
d="M991 1221v-392q0 -111 -58.5 -176t-191.5 -65h-231v-209h231v-143h-231v-236h-283v236h-147v143h147v209h-147v248h147v628h514q133 0 191.5 -66t58.5 -177zM649 1219h-139v-383h139q26 0 45 19.5t19 47.5v248q0 28 -19 48t-45 20z" />
    <glyph glyph-name="yen.tl" 
d="M109 950h161l-223 514h311l187 -487l186 487h293l-225 -514h164v-143h-226l-49 -109h275v-143h-281v-555h-293v555h-280v143h272l-47 109h-225v143z" />
    <glyph glyph-name="uni0192.tl" 
d="M92 602v213h154v406q0 111 58.5 177t189.5 66h235q131 0 190.5 -66.5t59.5 -176.5v-103l-274 -53v154h-177v-404h254v-213h-254v-803h-282v803h-154z" />
    <glyph glyph-name="colonmonetary.tl" 
d="M367 -203v244q-128 1 -185 68t-57 176v895q0 109 57 174.5t185 68.5v207h131v-207h75v207h132v-207q129 -3 186 -68.5t57 -174.5v-150l-276 -53v201h-264v-891h264v243l276 -53v-192q0 -109 -57.5 -176t-185.5 -68v-244h-132v244h-75v-244h-131z" />
    <glyph glyph-name="franc.tl" 
d="M553 0h-283v236h-147v143h147v1085h676v-239h-393v-359h307v-254h-307v-233h233v-143h-233v-236z" />
    <glyph glyph-name="lira.tl" 
d="M72 950h153v271q0 111 58.5 177t191.5 66h242q133 0 191.5 -66t58.5 -177v-99l-275 -53v150h-184v-269h285v-143h-285v-111h285v-143h-285v-287h213v172l276 -53v-121q0 -114 -59 -190t-152 -76q-29 0 -159 27l-181 38q-60 -63 -188 -63h-186v246h90q26 0 44.5 19.5
t18.5 47.5v240h-153v143h153v111h-153v143z" />
    <glyph glyph-name="uni20B1.tl" 
d="M936 1221v-160h108v-141h-108v-168q0 -110 -59.5 -176t-190.5 -66h-233v-510h-283v920h-147v141h147v403h516q131 0 190.5 -66.5t59.5 -176.5zM594 756q26 0 44.5 19.5t18.5 47.5v97h-204v-164h141zM594 1219h-141v-158h204v90q0 28 -18.5 48t-44.5 20z" />
    <glyph glyph-name="uni20B9.tl" 
d="M410 1219h-275v245h799v-233h-170q51 -59 51 -164v-6h119v-141h-119v-170q0 -221 -211 -240l289 -510h-330l-272 508h-156v246h334q26 0 44.5 19.5t18.5 47.5v99h-397v141h397v29q0 59 -32.5 94t-89.5 35z" />
    <glyph glyph-name="uni20BA.tl" 
d="M66 864l149 56v544h281v-442l268 98v-149l-268 -99v-110l268 98v-149l-268 -99v-366h231v305l277 -53v-254q0 -111 -59.5 -177.5t-190.5 -66.5h-539v510l-149 -53v147l149 55v111l-149 -53v147z" />
    <glyph glyph-name="section.tl" 
d="M174 -12l242 39q13 -73 44.5 -116.5t82.5 -43.5q39 0 60.5 26.5t21.5 69.5q0 40 -20 76.5t-77 77.5l-202 149q-133 98 -198 189.5t-65 206.5q0 107 52.5 179t150.5 105q-80 102 -80 223q0 143 92.5 231.5t245.5 88.5q151 0 247 -88.5t122 -249.5l-240 -37
q-32 158 -129 158q-38 0 -60 -27t-22 -69q0 -83 97 -152l204 -150q133 -97 198 -189t65 -206q0 -108 -53 -180.5t-152 -105.5q80 -106 80 -222q0 -143 -92.5 -232t-245.5 -89q-150 0 -245.5 89t-123.5 249zM604 678l-215 151q-76 -36 -76 -135q0 -60 33.5 -115t118.5 -116
l215 -154q35 17 55.5 53.5t20.5 83.5q0 125 -152 232z" />
    <glyph glyph-name="numbersign.tl" 
d="M803 1464h184l-74 -366h119v-211h-160l-61 -309h123v-211h-166l-72 -367h-182l72 367h-240l-72 -367h-184l72 367h-121v211h164l59 309h-127v211h170l72 366h184l-71 -366h239zM449 887l-60 -309h240l59 309h-239z" />
    <glyph glyph-name="zero.numerator" horiz-adv-x="835" 
d="M584 438h-332q-174 0 -174 170v686q0 170 174 170h332q91 0 132.5 -46.5t41.5 -123.5v-686q0 -77 -41.5 -123.5t-132.5 -46.5zM520 1255h-205v-608h205v608z" />
    <glyph glyph-name="one.numerator" horiz-adv-x="489" 
d="M145 1212l-102 -28v172l279 108h61v-1026h-238v774z" />
    <glyph glyph-name="two.numerator" horiz-adv-x="770" 
d="M690 1294v-120q0 -54 -31 -97l-329 -428h178v107l215 -43v-105q0 -77 -40.5 -123.5t-131.5 -46.5h-494v166q0 28 5.5 43t19.5 33l377 487l-2 88h-162v-137l-221 43v133q0 77 42 123.5t134 46.5h260q93 0 136.5 -47t43.5 -123z" />
    <glyph glyph-name="three.numerator" horiz-adv-x="794" 
d="M727 819v-211q0 -77 -41.5 -123.5t-132.5 -46.5h-322q-92 0 -133 46.5t-41 123.5v105l215 43v-115h168q20 0 33.5 13.5t13.5 33.5v123q0 23 -13 37t-34 14h-141v197h121q19 0 33 15t14 36v107q0 20 -13.5 33.5t-33.5 13.5h-133v-115l-219 43v102q0 77 42 123.5t134 46.5
h286q91 0 133 -46.5t42 -123.5v-137q0 -69 -29 -116.5t-74 -63.5v-2q56 -12 90.5 -56t34.5 -100z" />
    <glyph glyph-name="four.numerator" horiz-adv-x="780" 
d="M37 647v193l397 624h213v-624h90v-193h-90v-209h-223v209h-387zM250 840h174v280z" />
    <glyph glyph-name="five.numerator" horiz-adv-x="782" 
d="M309 1094h234q91 0 132.5 -46.5t41.5 -123.5v-316q0 -77 -41.5 -123.5t-132.5 -46.5h-307q-92 0 -133.5 46.5t-41.5 123.5v92q230 43 232 43v-102h188v242h-395v581h600l-35 -209h-342v-161z" />
    <glyph glyph-name="six.numerator" horiz-adv-x="802" 
d="M315 1262v-201h246q92 0 133 -46.5t41 -123.5v-283q0 -77 -41 -123.5t-133 -46.5h-309q-174 0 -174 170v686q0 170 174 170h303q92 0 133 -46.5t41 -123.5v-80l-231 -45v93h-183zM315 639h185v227h-185v-227z" />
    <glyph glyph-name="seven.numerator" horiz-adv-x="737" 
d="M707 1313l-244 -875h-262l235 817h-180v-165l-219 45v329h670v-151z" />
    <glyph glyph-name="eight.numerator" horiz-adv-x="813" 
d="M66 608v187q0 60 32.5 107.5t85.5 62.5v4q-43 14 -71.5 66t-28.5 120v139q0 77 41 123.5t133 46.5h293q176 0 176 -170v-139q0 -68 -28.5 -120t-71.5 -66v-4q53 -15 85.5 -62.5t32.5 -107.5v-187q0 -170 -176 -170h-327q-176 0 -176 170zM451 864h-91q-26 0 -43.5 -18.5
t-17.5 -46.5v-111q0 -19 12.5 -33t30.5 -14h125q20 0 33.5 14t13.5 33v111q0 28 -18.5 46.5t-44.5 18.5zM455 1270h-99q-19 0 -31 -13.5t-12 -33.5v-99q0 -27 17.5 -44t42.5 -17h65q25 0 42.5 17t17.5 44v99q0 21 -11.5 34t-31.5 13z" />
    <glyph glyph-name="nine.numerator" horiz-adv-x="802" 
d="M307 641h182v201h-245q-92 0 -133 46.5t-41 123.5v282q0 77 41 123.5t133 46.5h309q176 0 176 -170v-686q0 -170 -176 -170h-303q-176 0 -176 170v80l233 47v-94zM489 1264h-182v-224h182v224z" />
    <glyph glyph-name="zero.denominator" horiz-adv-x="835" 
d="M584 0h-332q-174 0 -174 170v686q0 170 174 170h332q91 0 132.5 -46.5t41.5 -123.5v-686q0 -77 -41.5 -123.5t-132.5 -46.5zM520 817h-205v-608h205v608z" />
    <glyph glyph-name="one.denominator" horiz-adv-x="489" 
d="M145 774l-102 -29v173l279 108h61v-1026h-238v774z" />
    <glyph glyph-name="two.denominator" horiz-adv-x="770" 
d="M686 856v-121q0 -53 -31 -96l-329 -428h178v106l215 -43v-104q0 -77 -40.5 -123.5t-131.5 -46.5h-494v166q0 28 5.5 43t19.5 33l377 487l-2 88h-162v-137l-221 43v133q0 77 42 123.5t134 46.5h260q93 0 136.5 -47t43.5 -123z" />
    <glyph glyph-name="three.denominator" horiz-adv-x="792" 
d="M727 381v-211q0 -77 -41.5 -123.5t-132.5 -46.5h-322q-92 0 -133 46.5t-41 123.5v104l215 43v-114h168q20 0 33.5 13.5t13.5 33.5v123q0 23 -13 37t-34 14h-141v197h121q19 0 33 15t14 36v106q0 20 -13.5 33.5t-33.5 13.5h-133v-114l-219 43v102q0 77 42 123.5t134 46.5
h286q91 0 133 -46.5t42 -123.5v-137q0 -69 -29 -116.5t-74 -63.5v-2q56 -12 90.5 -56t34.5 -100z" />
    <glyph glyph-name="four.denominator" horiz-adv-x="780" 
d="M37 209v192l397 625h213v-625h90v-192h-90v-209h-223v209h-387zM250 401h174v281z" />
    <glyph glyph-name="five.denominator" horiz-adv-x="782" 
d="M309 655h234q91 0 132.5 -46.5t41.5 -123.5v-315q0 -77 -41.5 -123.5t-132.5 -46.5h-307q-92 0 -133.5 46.5t-41.5 123.5v92q230 43 232 43v-102h188v241h-395v582h600l-35 -209h-342v-162z" />
    <glyph glyph-name="six.denominator" horiz-adv-x="802" 
d="M315 823v-200h246q92 0 133 -46.5t41 -123.5v-283q0 -77 -41 -123.5t-133 -46.5h-309q-174 0 -174 170v686q0 170 174 170h303q92 0 133 -46.5t41 -123.5v-80l-231 -45v92h-183zM315 201h185v227h-185v-227z" />
    <glyph glyph-name="seven.denominator" horiz-adv-x="735" 
d="M707 874l-244 -874h-262l235 817h-180v-166l-219 45v330h670v-152z" />
    <glyph glyph-name="eight.denominator" horiz-adv-x="813" 
d="M66 170v186q0 60 32.5 107.5t85.5 62.5v4q-43 14 -71.5 66.5t-28.5 120.5v139q0 77 41 123.5t133 46.5h293q176 0 176 -170v-139q0 -68 -28.5 -120.5t-71.5 -66.5v-4q53 -15 85.5 -62.5t32.5 -107.5v-186q0 -170 -176 -170h-327q-176 0 -176 170zM451 426h-91
q-26 0 -43.5 -19t-17.5 -47v-110q0 -19 12.5 -33t30.5 -14h125q20 0 33.5 14t13.5 33v110q0 28 -18.5 47t-44.5 19zM455 831h-99q-19 0 -31 -13.5t-12 -33.5v-98q0 -27 17.5 -44t42.5 -17h65q25 0 42.5 17t17.5 44v98q0 21 -11.5 34t-31.5 13z" />
    <glyph glyph-name="nine.denominator" horiz-adv-x="804" 
d="M307 203h182v200h-245q-92 0 -133 46.5t-41 123.5v283q0 77 41 123.5t133 46.5h309q176 0 176 -170v-686q0 -170 -176 -170h-303q-176 0 -176 170v80l233 47v-94zM489 825h-182v-223h182v223z" />
    <glyph glyph-name="i.dot" horiz-adv-x="544" 
d="M414 1464v-1464h-283v1464h283zM131 1606v118q0 54 43 54h195q45 0 45 -54v-118q0 -54 -45 -54h-195q-43 0 -43 54z" />
    <glyph glyph-name="uni00200326" horiz-adv-x="681" 
d="M297 -338h-182l153 254h277z" />
    <glyph glyph-name="caron.alt" horiz-adv-x="681" 
d="M219 1464h250l-78 -491h-172v491z" />
    <glyph glyph-name="a.superior" horiz-adv-x="786" 
d="M543 438l-41 170h-238l-41 -170h-227l278 1026h232l282 -1026h-245zM311 805h146l-72 315z" />
    <glyph glyph-name="b.superior" horiz-adv-x="858" 
d="M524 690v88q0 38 -22 60t-58 22h-100v-227h123q25 0 41 15.5t16 41.5zM344 1268v-209h100q36 0 58 21t22 59v80q0 23 -16 36t-41 13h-123zM768 801v-174q0 -85 -46.5 -137t-150.5 -52h-465v1026h461q102 0 148.5 -51.5t46.5 -136.5v-143q0 -53 -30 -104t-93 -68v-5
q64 -11 96.5 -55.5t32.5 -99.5z" />
    <glyph glyph-name="d.superior" horiz-adv-x="858" 
d="M795 1087v-270q0 -191 -91.5 -285t-240.5 -94h-357v1026h357q149 0 240.5 -93.5t91.5 -283.5zM420 1257h-76v-612h76q50 0 81.5 29t42.5 66t11 81v260q0 31 -6.5 60t-21 56t-42 43.5t-65.5 16.5z" />
    <glyph glyph-name="e.superior" horiz-adv-x="731" 
d="M676 438h-570v1026h553v-207h-315v-194h215v-213h-215v-205h332v-207z" />
    <glyph glyph-name="egrave.superior" horiz-adv-x="731" 
d="M506 1548h-184l-166 176h250zM676 438h-570v1026h553v-207h-315v-194h215v-213h-215v-205h332v-207z" />
    <glyph glyph-name="l.superior" horiz-adv-x="700" 
d="M680 438h-574v1026h238v-819h336v-207z" />
    <glyph glyph-name="m.superior" horiz-adv-x="1067" 
d="M106 1464h226l203 -485l204 485h222v-1026h-232v486l-162 -361h-73l-158 361v-486h-230v1026z" />
    <glyph glyph-name="o.superior" horiz-adv-x="913" 
d="M817 1294v-686q0 -77 -41 -123.5t-133 -46.5h-371q-176 0 -176 170v686q0 170 176 170h371q92 0 133 -46.5t41 -123.5zM580 645v612h-244v-612h244z" />
    <glyph glyph-name="s.superior" horiz-adv-x="804" 
d="M385 1071l174 -10q174 -8 174 -174v-279q0 -77 -41 -123.5t-133 -46.5h-328q-92 0 -134 46.5t-42 123.5v105l234 47v-76q0 -19 13 -33t30 -14h119q19 0 32 14t13 33v100q0 37 -14 50.5t-52 15.5l-172 10q-176 8 -176 170v264q0 170 176 170h293q92 0 134 -46.5t42 -123.5
v-94l-233 -47v55q0 23 -12.5 39.5t-32.5 16.5h-84q-20 0 -33 -14t-13 -33v-78q0 -40 14.5 -53t51.5 -15z" />
    <glyph glyph-name="t.superior" horiz-adv-x="616" 
d="M20 1257v207h588v-207h-174v-819h-237v819h-177z" />
    </font>
</defs>
</svg>
