<?xml version="1.0" standalone="no"?>
<!DOCTYPE svg PUBLIC "-//W3C//DTD SVG 1.1//EN" "http://www.w3.org/Graphics/SVG/1.1/DTD/svg11.dtd" >
<svg xmlns="http://www.w3.org/2000/svg" xmlns:xlink="http://www.w3.org/1999/xlink" version="1.1">
<metadata>
Created by FontForge 20201107 at Sun Apr 21 04:13:31 2024
 By 
Copyright (C) 2015 TypoBrand LLC. www.atftype.com.
</metadata>
<defs>
<font id="PosterGothicCondATF-Medium" horiz-adv-x="897" >
  <font-face 
    font-family="Poster Gothic Cond ATF Medium"
    font-weight="500"
    font-stretch="condensed"
    units-per-em="2048"
    panose-1="2 11 6 6 3 2 2 4 2 4"
    ascent="1638"
    descent="-410"
    x-height="1464"
    cap-height="1464"
    bbox="-96 -526 2238 2054"
    underline-thickness="102"
    underline-position="-204"
    unicode-range="U+0020-FB02"
  />
<missing-glyph horiz-adv-x="849" 
d="M0 1464h850v-1464h-850v1464zM223 190h404v1084h-404v-1084z" />
    <glyph glyph-name=".notdef" horiz-adv-x="849" 
d="M0 1464h850v-1464h-850v1464zM223 190h404v1084h-404v-1084z" />
    <glyph glyph-name=".null" horiz-adv-x="0" 
 />
    <glyph glyph-name="nonmarkingreturn" horiz-adv-x="682" 
 />
    <glyph glyph-name="space" unicode=" " horiz-adv-x="389" 
 />
    <glyph glyph-name="exclam" unicode="!" horiz-adv-x="497" 
d="M334 440h-170l-64 1024h299zM115 72v143q0 32 14.5 52t42.5 20h154q28 0 43.5 -20t15.5 -52v-143q0 -32 -15.5 -52t-43.5 -20h-154q-28 0 -42.5 20t-14.5 52z" />
    <glyph glyph-name="quotedbl" unicode="&#x22;" horiz-adv-x="681" 
d="M98 1464h217l-65 -506h-152v506zM399 1464h219l-67 -506h-152v506z" />
    <glyph glyph-name="numbersign" unicode="#" horiz-adv-x="1062" 
d="M805 1464h145l-76 -385h121v-172h-155l-68 -348h137v-172h-172l-75 -387h-146l76 387h-254l-74 -387h-149l75 387h-127v172h162l68 348h-143v172h178l75 385h146l-76 -385h256zM440 907l-67 -348h254l67 348h-254z" />
    <glyph glyph-name="dollar" unicode="$" horiz-adv-x="978" 
d="M573 -201h-165v242h-78q-131 0 -188.5 66.5t-57.5 177.5v127l203 43v-152q0 -28 18.5 -47.5t46.5 -19.5h240q26 0 44.5 19.5t18.5 47.5v242q0 52 -19.5 70.5t-72.5 21.5l-194 10q-246 13 -246 244v289q0 111 57.5 177t188.5 66h39v207h165v-207h37q131 0 189.5 -66
t58.5 -177v-115l-205 -43v147q0 28 -18 48t-45 20h-193q-27 0 -46 -20t-19 -48v-219q0 -54 20.5 -73.5t73.5 -22.5l199 -10q245 -13 245 -246v-313q0 -111 -58.5 -177.5t-188.5 -66.5h-50v-242z" />
    <glyph glyph-name="percent" unicode="%" horiz-adv-x="1458" 
d="M430 674h-182q-92 0 -133 46.5t-41 123.5v450q0 77 41 123.5t133 46.5h182q91 0 132.5 -46.5t41.5 -123.5v-450q0 -77 -41.5 -123.5t-132.5 -46.5zM1208 0h-182q-92 0 -133 46.5t-41 123.5v451q0 77 41 123.5t133 46.5h182q91 0 132.5 -46.5t41.5 -123.5v-451
q0 -77 -41.5 -123.5t-132.5 -46.5zM410 0l471 1464h170l-473 -1464h-168zM422 1303h-164v-467h164v467zM1198 629h-162v-467h162v467z" />
    <glyph glyph-name="ampersand" unicode="&#x26;" horiz-adv-x="1116" 
d="M459 1130q0 -24 20 -76t41 -87l234 -385l157 284l133 -145l-178 -326l240 -395h-248l-131 215l-47 -86q-66 -129 -205 -129h-149q-127 0 -188.5 59.5t-61.5 157.5v275q0 106 41 153l202 240l-20 37q-47 78 -47 182v162q0 82 67 140t152 58h186q83 0 150 -64t67 -155v-143
l-210 -43v160q0 24 -19 41.5t-43 17.5h-88q-23 0 -39 -17t-16 -42v-89zM463 188q46 0 76 52l82 149l-201 332l-98 -123q-37 -46 -37 -131v-219q0 -28 15.5 -44t41.5 -16h121z" />
    <glyph glyph-name="quotesingle" unicode="'" horiz-adv-x="378" 
d="M98 1464h217l-65 -506h-152v506z" />
    <glyph glyph-name="parenleft" unicode="(" horiz-adv-x="512" 
d="M477 -201h-168q-92 116 -164.5 356.5t-72.5 514.5q0 273 69.5 504.5t167.5 371.5h168q-1 -1 -20.5 -48.5t-25.5 -64t-25.5 -69t-28.5 -86.5t-25 -93t-24 -111t-17.5 -118.5t-13.5 -138t-4 -147.5q0 -133 15 -260.5t31 -205t50 -177.5t44.5 -126t43.5 -102z" />
    <glyph glyph-name="parenright" unicode=")" horiz-adv-x="512" 
d="M203 -201h-166q68 167 94 251q88 288 88 620q0 97 -6.5 188t-21 171t-26.5 139t-34.5 127t-33.5 98t-34 88t-26 65h166q99 -143 168 -371.5t69 -504.5q0 -273 -72.5 -516t-164.5 -355z" />
    <glyph glyph-name="asterisk" unicode="*" horiz-adv-x="733" 
d="M319 1464h95l32 -229l211 41l29 -86l-186 -105l92 -204l-70 -56l-149 160l-154 -162l-74 56l91 198l-187 107l29 88l207 -39z" />
    <glyph glyph-name="plus" unicode="+" horiz-adv-x="1034" 
d="M420 1143h198v-438h400v-185h-400v-436h-198v436h-404v185h404v438z" />
    <glyph glyph-name="comma" unicode="," horiz-adv-x="423" 
d="M342 96l-115 -327h-125l93 256h-64q-28 0 -43.5 19.5t-15.5 51.5v119q0 32 15.5 52t43.5 20h154q28 0 42.5 -20t14.5 -52v-119z" />
    <glyph glyph-name="hyphen" unicode="-" horiz-adv-x="612" 
d="M109 590v207h395v-207h-395z" />
    <glyph glyph-name="period" unicode="." horiz-adv-x="428" 
d="M78 72v143q0 32 15.5 52t43.5 20h154q28 0 42.5 -20t14.5 -52v-143q0 -32 -14.5 -52t-42.5 -20h-154q-28 0 -43.5 20t-15.5 52z" />
    <glyph glyph-name="slash" unicode="/" horiz-adv-x="620" 
d="M207 -168h-170l379 1632h170z" />
    <glyph glyph-name="zero" unicode="0" horiz-adv-x="1062" 
d="M692 0h-323q-131 0 -189.5 66.5t-58.5 177.5v977q0 111 58.5 177t189.5 66h323q131 0 189.5 -66t58.5 -177v-977q0 -111 -58.5 -177.5t-189.5 -66.5zM719 1270h-377v-1075h377v1075z" />
    <glyph glyph-name="one" unicode="1" horiz-adv-x="585" 
d="M233 1219q1 0 -45.5 -10.5t-93.5 -20.5l-47 -10v145l383 141h27v-1464h-224v1219z" />
    <glyph glyph-name="two" unicode="2" horiz-adv-x="962" 
d="M844 1221v-140q0 -88 -37 -143l-504 -741h363v223l215 -41v-135q0 -111 -58.5 -177.5t-189.5 -66.5h-561v174q0 58 32 113l521 747l-2 234h-299v-305l-213 41v217q0 243 245 243h240q131 0 189.5 -66t58.5 -177z" />
    <glyph glyph-name="three" unicode="3" horiz-adv-x="968" 
d="M866 547v-303q0 -111 -58.5 -177.5t-189.5 -66.5h-286q-131 0 -189.5 66.5t-58.5 177.5v135l215 41v-230h276q28 0 47 19.5t19 48.5v326q0 32 -20 52.5t-48 20.5h-190v185h164q29 0 48 20.5t19 52.5v293q0 29 -18.5 48.5t-46.5 19.5h-232v-234l-217 43v136
q0 110 59 176.5t189 66.5h238q131 0 189.5 -66t58.5 -177v-193q0 -101 -39 -171t-101 -91v-2q72 -12 122 -73.5t50 -143.5z" />
    <glyph glyph-name="four" unicode="4" horiz-adv-x="968" 
d="M49 350v180l541 934h178v-934h143v-180h-143v-350h-201v350h-518zM246 530h321v566z" />
    <glyph glyph-name="five" unicode="5" horiz-adv-x="972" 
d="M328 895h301q131 0 189.5 -66.5t58.5 -177.5v-407q0 -111 -58.5 -177.5t-189.5 -66.5h-287q-131 0 -190.5 66.5t-59.5 177.5v100q213 43 215 43v-197h348v508h-528v766h704l-30 -196h-473v-373z" />
    <glyph glyph-name="six" unicode="6" horiz-adv-x="1009" 
d="M342 1274v-426h320q131 0 189 -66.5t58 -177.5v-360q0 -111 -58 -177.5t-189 -66.5h-293q-131 0 -189.5 66.5t-58.5 177.5v977q0 111 58.5 177t189.5 66h266q131 0 189.5 -66t58.5 -177v-95l-215 -43v191h-326zM342 188h346v476h-346v-476z" />
    <glyph glyph-name="seven" unicode="7" horiz-adv-x="925" 
d="M881 1247l-336 -1247h-238l357 1268h-385v-320l-213 43v473h815v-217z" />
    <glyph glyph-name="eight" unicode="8" horiz-adv-x="1021" 
d="M98 244v266q0 86 47.5 156t118.5 90v2q-61 24 -101 97t-40 169v197q0 110 59 176.5t189 66.5h276q130 0 189 -66.5t59 -176.5v-197q0 -97 -39 -169.5t-100 -96.5v-2q71 -20 118.5 -90t47.5 -156v-266q0 -111 -59.5 -177.5t-190.5 -66.5h-326q-130 0 -189 67t-59 177z
M612 655h-206q-37 0 -65 -29t-28 -69v-299q0 -28 19 -48t45 -20h264q26 0 45 20t19 48v299q0 40 -27.5 69t-65.5 29zM621 1284h-224q-25 0 -44 -20t-19 -47v-275q0 -40 28 -69t66 -29h162q38 0 65 29t27 69v275q0 28 -17.5 47.5t-43.5 19.5z" />
    <glyph glyph-name="nine" unicode="9" horiz-adv-x="1009" 
d="M340 190h326v426h-318q-131 0 -190.5 66.5t-59.5 177.5v361q0 110 59.5 176.5t190.5 66.5h293q131 0 189.5 -66t58.5 -177v-977q0 -111 -58.5 -177.5t-189.5 -66.5h-268q-131 0 -188.5 66.5t-57.5 177.5v94l213 43v-191zM666 1276h-344v-475h344v475z" />
    <glyph glyph-name="colon" unicode=":" horiz-adv-x="487" 
d="M109 72v143q0 32 14.5 52t42.5 20h156q27 0 42 -20t15 -52v-143q0 -32 -15 -52t-42 -20h-156q-28 0 -42.5 20t-14.5 52zM109 975v143q0 32 14.5 52t42.5 20h156q27 0 42 -20t15 -52v-143q0 -32 -15 -52t-42 -20h-156q-28 0 -42.5 20t-14.5 52z" />
    <glyph glyph-name="semicolon" unicode=";" horiz-adv-x="473" 
d="M369 96l-115 -327h-125l94 256h-65q-28 0 -44 19.5t-16 51.5v119q0 32 16 52t44 20h153q28 0 43 -20t15 -52v-119zM98 975v143q0 32 16 52t44 20h153q28 0 43 -20t15 -52v-143q0 -32 -15 -52t-43 -20h-153q-28 0 -44 20t-16 52z" />
    <glyph glyph-name="less" unicode="&#x3c;" horiz-adv-x="1034" 
d="M41 676l922 463v-213l-527 -250l-123 -51v-23l123 -47l527 -252v-211l-922 461v123z" />
    <glyph glyph-name="equal" unicode="=" horiz-adv-x="1034" 
d="M55 932h922v-184h-922v184zM55 479h922v-184h-922v184z" />
    <glyph glyph-name="greater" unicode="&#x3e;" horiz-adv-x="1034" 
d="M72 1139l921 -463v-123l-921 -461v211l526 252l123 47v23l-123 51l-526 250v213z" />
    <glyph glyph-name="question" unicode="?" horiz-adv-x="743" 
d="M487 1055v178q0 22 -12.5 36.5t-32.5 14.5h-153q-20 0 -33.5 -14.5t-13.5 -36.5v-150l-189 54v149q0 75 50.5 126.5t121.5 51.5h262q79 0 134 -56.5t55 -139.5v-238q0 -49 -11.5 -79.5t-37.5 -59.5l-174 -193v-254h-199v322l156 172q34 38 44.5 50.5t21.5 31.5t11 35z
M217 72v143q0 32 15.5 52t43.5 20h154q28 0 42.5 -20t14.5 -52v-143q0 -32 -14.5 -52t-42.5 -20h-154q-28 0 -43.5 20t-15.5 52z" />
    <glyph glyph-name="at" unicode="@" horiz-adv-x="1671" 
d="M686 227q-118 0 -183 91t-65 249q0 154 60 300.5t159.5 238.5t206.5 92q72 0 121.5 -51.5t63.5 -134.5h8l45 162h198l-167 -672q-9 -30 -9 -49q0 -39 24.5 -60.5t63.5 -21.5q64 0 121.5 75t91.5 197.5t33 255.5q-3 232 -142.5 377t-369.5 145q-131 0 -250 -52
t-212.5 -148.5t-149 -248.5t-55.5 -339q0 -139 31 -248.5t84.5 -182t129.5 -120t161.5 -68t184.5 -20.5q200 0 410 98l68 -123q-94 -57 -227.5 -90t-268.5 -33q-126 0 -240.5 28.5t-216.5 91t-176 153.5t-117 224.5t-43 295.5q0 178 50.5 331.5t137 263t199.5 187.5t239 116
t255 38q155 0 285.5 -54.5t217.5 -148.5t135 -219.5t48 -267.5q0 -122 -30.5 -238t-87 -210.5t-145.5 -152t-196 -57.5q-99 0 -163 44.5t-74 127.5q-45 -82 -108 -127t-136 -45zM750 403q100 0 165 148q32 68 53 159t21 154q0 75 -29.5 118.5t-76.5 43.5q-51 0 -96 -52.5
t-72.5 -129t-43.5 -155.5t-16 -140q0 -146 95 -146z" />
    <glyph glyph-name="A" unicode="A" horiz-adv-x="995" 
d="M741 0l-75 330h-359l-78 -330h-213l385 1464h191l389 -1464h-240zM623 520l-131 584h-3l-137 -584h271z" />
    <glyph glyph-name="B" unicode="B" horiz-adv-x="1044" 
d="M702 258v262q0 59 -33.5 94t-88.5 35h-220v-459h277q27 0 46 20t19 48zM360 1274v-434h220q55 0 88.5 35t33.5 94v237q0 28 -19 48t-46 20h-277zM932 518v-274q0 -111 -58.5 -177.5t-189.5 -66.5h-545v1464h535q131 0 189.5 -66t58.5 -177v-228q0 -36 -9.5 -72.5
t-29.5 -72.5t-55.5 -63t-82.5 -37v-5q94 -19 140.5 -81.5t46.5 -143.5z" />
    <glyph glyph-name="C" unicode="C" horiz-adv-x="1015" 
d="M129 244v977q0 110 59.5 176.5t190.5 66.5h297q131 0 189.5 -66t58.5 -177v-205l-213 -45v299h-359v-1075h359v335l213 -43v-243q0 -111 -58.5 -177.5t-189.5 -66.5h-297q-131 0 -190.5 66.5t-59.5 177.5z" />
    <glyph glyph-name="D" unicode="D" horiz-adv-x="1058" 
d="M969 977v-490q0 -126 -33.5 -221.5t-93 -152.5t-136 -85t-169.5 -28h-398v1464h398q93 0 169.5 -28t136 -85t93 -152.5t33.5 -221.5zM537 1270h-177v-1075h177q48 0 85.5 17t60.5 43.5t38 62.5t21 70.5t6 70.5v547q0 36 -6 70.5t-21 70.5t-38 62.5t-60.5 43.5t-85.5 17z
" />
    <glyph glyph-name="E" unicode="E" 
d="M862 0h-723v1464h699v-194h-478v-430h295v-201h-295v-444h502v-195z" />
    <glyph glyph-name="F" unicode="F" horiz-adv-x="849" 
d="M360 0h-221v1464h682v-194h-461v-430h295v-201h-295v-639z" />
    <glyph glyph-name="G" unicode="G" horiz-adv-x="1097" 
d="M772 612h-215v195h428v-563q0 -111 -57.5 -177.5t-188.5 -66.5h-360q-131 0 -190.5 66.5t-59.5 177.5v977q0 110 59.5 176.5t190.5 66.5h360q131 0 188.5 -66t57.5 -177v-144l-213 -43v236h-420v-1075h420v417z" />
    <glyph glyph-name="H" unicode="H" horiz-adv-x="1126" 
d="M360 840h404v624h223v-1464h-223v649h-404v-649h-221v1464h221v-624z" />
    <glyph glyph-name="I" unicode="I" horiz-adv-x="499" 
d="M360 1464v-1464h-221v1464h221z" />
    <glyph glyph-name="J" unicode="J" horiz-adv-x="858" 
d="M477 0h-188q-131 0 -190.5 66.5t-59.5 177.5v233l215 41v-323h248v1269h223v-1220q0 -111 -58.5 -177.5t-189.5 -66.5z" />
    <glyph glyph-name="K" unicode="K" horiz-adv-x="991" 
d="M360 1464v-655h2l345 655h231l-371 -690l441 -774h-263l-383 692h-2v-692h-221v1464h221z" />
    <glyph glyph-name="L" unicode="L" horiz-adv-x="856" 
d="M829 0h-690v1464h221v-1269h469v-195z" />
    <glyph glyph-name="M" unicode="M" horiz-adv-x="1304" 
d="M139 1464h195l321 -759l330 759h180v-1464h-209v913h-2l-286 -669h-31l-287 669h-2v-913h-209v1464z" />
    <glyph glyph-name="N" unicode="N" horiz-adv-x="1116" 
d="M139 1464h176l449 -895h2v895h211v-1464h-154l-473 930h-2v-930h-209v1464z" />
    <glyph glyph-name="O" unicode="O" horiz-adv-x="1132" 
d="M1001 1221v-977q0 -111 -58 -177.5t-189 -66.5h-375q-131 0 -190.5 66.5t-59.5 177.5v977q0 110 59.5 176.5t190.5 66.5h375q131 0 189 -66t58 -177zM780 195v1075h-428v-1075h428z" />
    <glyph glyph-name="P" unicode="P" horiz-adv-x="993" 
d="M918 1221v-392q0 -241 -246 -241h-312v-588h-221v1464h533q131 0 188.5 -66t57.5 -177zM631 1270h-271v-488h271q26 0 45.5 20t19.5 48v352q0 28 -19.5 48t-45.5 20z" />
    <glyph glyph-name="Q" unicode="Q" horiz-adv-x="1132" 
d="M1001 1221v-977q0 -111 -58 -177.5t-189 -66.5h-11l48 -201h-203l-45 201h-164q-131 0 -190.5 66.5t-59.5 177.5v977q0 110 59.5 176.5t190.5 66.5h375q131 0 189 -66t58 -177zM459 391h192l45 -196h84v1075h-428v-1075h150z" />
    <glyph glyph-name="R" unicode="R" horiz-adv-x="1042" 
d="M139 1464h543q131 0 190.5 -66.5t59.5 -176.5v-381q0 -110 -59.5 -176t-190.5 -66h-2l326 -598h-263l-305 598h-78v-598h-221v1464zM360 1270v-477h285q26 0 45 19.5t19 47.5v342q0 28 -19 48t-45 20h-285z" />
    <glyph glyph-name="S" unicode="S" horiz-adv-x="991" 
d="M334 1202v-254q0 -52 20.5 -72.5t73.5 -23.5l215 -8q248 -11 248 -246v-354q0 -111 -58.5 -177.5t-189.5 -66.5h-315q-131 0 -189.5 66.5t-58.5 177.5v147l213 45v-174q0 -28 19.5 -47.5t45.5 -19.5h246q26 0 45 19.5t19 47.5v283q0 52 -19 70.5t-74 21.5l-215 8
q-249 11 -249 244v332q0 111 59 177t190 66h275q131 0 189.5 -66t58.5 -177v-136l-217 -45v162q0 28 -18.5 48t-43.5 20h-207q-26 0 -44.5 -20t-18.5 -48z" />
    <glyph glyph-name="T" unicode="T" horiz-adv-x="823" 
d="M16 1270v194h793v-194h-287v-1270h-221v1270h-285z" />
    <glyph glyph-name="U" unicode="U" horiz-adv-x="1083" 
d="M133 1464h223v-1265h371v1265h223v-1220q0 -244 -245 -244h-324q-131 0 -189.5 66.5t-58.5 177.5v1220z" />
    <glyph glyph-name="V" unicode="V" horiz-adv-x="972" 
d="M10 1464h238l252 -1005h2l229 1005h221l-377 -1464h-172z" />
    <glyph glyph-name="W" unicode="W" horiz-adv-x="1257" 
d="M285 0l-250 1464h227l121 -932h2l147 932h203l150 -932h2l119 932h213l-252 -1464h-179l-161 1034h-2l-160 -1034h-180z" />
    <glyph glyph-name="X" unicode="X" horiz-adv-x="964" 
d="M18 0l330 743l-328 721h259l213 -530l215 530h237l-330 -721l332 -743h-256l-219 545l-219 -545h-234z" />
    <glyph glyph-name="Y" unicode="Y" horiz-adv-x="942" 
d="M358 0v702l-348 762h248l219 -551l221 551h232l-348 -762v-702h-224z" />
    <glyph glyph-name="Z" unicode="Z" 
d="M827 1360l-510 -1165h510v-195h-784v106l508 1168h-457v190h733v-104z" />
    <glyph glyph-name="bracketleft" unicode="[" horiz-adv-x="503" 
d="M451 -201h-342v1747h342v-135h-134v-1479h134v-133z" />
    <glyph glyph-name="backslash" unicode="\" horiz-adv-x="620" 
d="M582 -168h-166l-381 1632h172z" />
    <glyph glyph-name="bracketright" unicode="]" horiz-adv-x="503" 
d="M55 -201v133h131v1479h-131v135h342v-1747h-342z" />
    <glyph glyph-name="asciicircum" unicode="^" horiz-adv-x="1034" 
d="M453 1464h127l450 -880h-219l-225 495l-60 138h-20l-60 -138l-223 -495h-219z" />
    <glyph glyph-name="underscore" unicode="_" horiz-adv-x="708" 
d="M-6 -211v170h719v-170h-719z" />
    <glyph glyph-name="grave" unicode="`" horiz-adv-x="661" 
d="M463 1548h-148l-241 250h245z" />
    <glyph glyph-name="a" unicode="a" horiz-adv-x="995" 
d="M741 0l-75 330h-359l-78 -330h-213l385 1464h191l389 -1464h-240zM623 520l-131 584h-3l-137 -584h271z" />
    <glyph glyph-name="b" unicode="b" horiz-adv-x="1044" 
d="M702 258v262q0 59 -33.5 94t-88.5 35h-220v-459h277q27 0 46 20t19 48zM360 1274v-434h220q55 0 88.5 35t33.5 94v237q0 28 -19 48t-46 20h-277zM932 518v-274q0 -111 -58.5 -177.5t-189.5 -66.5h-545v1464h535q131 0 189.5 -66t58.5 -177v-228q0 -36 -9.5 -72.5
t-29.5 -72.5t-55.5 -63t-82.5 -37v-5q94 -19 140.5 -81.5t46.5 -143.5z" />
    <glyph glyph-name="c" unicode="c" horiz-adv-x="1015" 
d="M129 244v977q0 110 59.5 176.5t190.5 66.5h297q131 0 189.5 -66t58.5 -177v-205l-213 -45v299h-359v-1075h359v335l213 -43v-243q0 -111 -58.5 -177.5t-189.5 -66.5h-297q-131 0 -190.5 66.5t-59.5 177.5z" />
    <glyph glyph-name="d" unicode="d" horiz-adv-x="1058" 
d="M969 977v-490q0 -126 -33.5 -221.5t-93 -152.5t-136 -85t-169.5 -28h-398v1464h398q93 0 169.5 -28t136 -85t93 -152.5t33.5 -221.5zM537 1270h-177v-1075h177q48 0 85.5 17t60.5 43.5t38 62.5t21 70.5t6 70.5v547q0 36 -6 70.5t-21 70.5t-38 62.5t-60.5 43.5t-85.5 17z
" />
    <glyph glyph-name="e" unicode="e" 
d="M862 0h-723v1464h699v-194h-478v-430h295v-201h-295v-444h502v-195z" />
    <glyph glyph-name="f" unicode="f" horiz-adv-x="849" 
d="M360 0h-221v1464h682v-194h-461v-430h295v-201h-295v-639z" />
    <glyph glyph-name="g" unicode="g" horiz-adv-x="1097" 
d="M772 612h-215v195h428v-563q0 -111 -57.5 -177.5t-188.5 -66.5h-360q-131 0 -190.5 66.5t-59.5 177.5v977q0 110 59.5 176.5t190.5 66.5h360q131 0 188.5 -66t57.5 -177v-144l-213 -43v236h-420v-1075h420v417z" />
    <glyph glyph-name="h" unicode="h" horiz-adv-x="1126" 
d="M360 840h404v624h223v-1464h-223v649h-404v-649h-221v1464h221v-624z" />
    <glyph glyph-name="i" unicode="i" horiz-adv-x="499" 
d="M360 1464v-1464h-221v1464h221z" />
    <glyph glyph-name="j" unicode="j" horiz-adv-x="858" 
d="M477 0h-188q-131 0 -190.5 66.5t-59.5 177.5v233l215 41v-323h248v1269h223v-1220q0 -111 -58.5 -177.5t-189.5 -66.5z" />
    <glyph glyph-name="k" unicode="k" horiz-adv-x="991" 
d="M360 1464v-655h2l345 655h231l-371 -690l441 -774h-263l-383 692h-2v-692h-221v1464h221z" />
    <glyph glyph-name="l" unicode="l" horiz-adv-x="856" 
d="M829 0h-690v1464h221v-1269h469v-195z" />
    <glyph glyph-name="m" unicode="m" horiz-adv-x="1304" 
d="M139 1464h195l321 -759l330 759h180v-1464h-209v913h-2l-286 -669h-31l-287 669h-2v-913h-209v1464z" />
    <glyph glyph-name="n" unicode="n" horiz-adv-x="1116" 
d="M139 1464h176l449 -895h2v895h211v-1464h-154l-473 930h-2v-930h-209v1464z" />
    <glyph glyph-name="o" unicode="o" horiz-adv-x="1132" 
d="M1001 1221v-977q0 -111 -58 -177.5t-189 -66.5h-375q-131 0 -190.5 66.5t-59.5 177.5v977q0 110 59.5 176.5t190.5 66.5h375q131 0 189 -66t58 -177zM780 195v1075h-428v-1075h428z" />
    <glyph glyph-name="p" unicode="p" horiz-adv-x="993" 
d="M918 1221v-392q0 -241 -246 -241h-312v-588h-221v1464h533q131 0 188.5 -66t57.5 -177zM631 1270h-271v-488h271q26 0 45.5 20t19.5 48v352q0 28 -19.5 48t-45.5 20z" />
    <glyph glyph-name="q" unicode="q" horiz-adv-x="1132" 
d="M1001 1221v-977q0 -111 -58 -177.5t-189 -66.5h-11l48 -201h-203l-45 201h-164q-131 0 -190.5 66.5t-59.5 177.5v977q0 110 59.5 176.5t190.5 66.5h375q131 0 189 -66t58 -177zM459 391h192l45 -196h84v1075h-428v-1075h150z" />
    <glyph glyph-name="r" unicode="r" horiz-adv-x="1042" 
d="M139 1464h543q131 0 190.5 -66.5t59.5 -176.5v-381q0 -110 -59.5 -176t-190.5 -66h-2l326 -598h-263l-305 598h-78v-598h-221v1464zM360 1270v-477h285q26 0 45 19.5t19 47.5v342q0 28 -19 48t-45 20h-285z" />
    <glyph glyph-name="s" unicode="s" horiz-adv-x="991" 
d="M334 1202v-254q0 -52 20.5 -72.5t73.5 -23.5l215 -8q248 -11 248 -246v-354q0 -111 -58.5 -177.5t-189.5 -66.5h-315q-131 0 -189.5 66.5t-58.5 177.5v147l213 45v-174q0 -28 19.5 -47.5t45.5 -19.5h246q26 0 45 19.5t19 47.5v283q0 52 -19 70.5t-74 21.5l-215 8
q-249 11 -249 244v332q0 111 59 177t190 66h275q131 0 189.5 -66t58.5 -177v-136l-217 -45v162q0 28 -18.5 48t-43.5 20h-207q-26 0 -44.5 -20t-18.5 -48z" />
    <glyph glyph-name="t" unicode="t" horiz-adv-x="823" 
d="M16 1270v194h793v-194h-287v-1270h-221v1270h-285z" />
    <glyph glyph-name="u" unicode="u" horiz-adv-x="1083" 
d="M133 1464h223v-1265h371v1265h223v-1220q0 -244 -245 -244h-324q-131 0 -189.5 66.5t-58.5 177.5v1220z" />
    <glyph glyph-name="v" unicode="v" horiz-adv-x="972" 
d="M10 1464h238l252 -1005h2l229 1005h221l-377 -1464h-172z" />
    <glyph glyph-name="w" unicode="w" horiz-adv-x="1257" 
d="M285 0l-250 1464h227l121 -932h2l147 932h203l150 -932h2l119 932h213l-252 -1464h-179l-161 1034h-2l-160 -1034h-180z" />
    <glyph glyph-name="x" unicode="x" horiz-adv-x="964" 
d="M18 0l330 743l-328 721h259l213 -530l215 530h237l-330 -721l332 -743h-256l-219 545l-219 -545h-234z" />
    <glyph glyph-name="y" unicode="y" horiz-adv-x="942" 
d="M358 0v702l-348 762h248l219 -551l221 551h232l-348 -762v-702h-224z" />
    <glyph glyph-name="z" unicode="z" 
d="M827 1360l-510 -1165h510v-195h-784v106l508 1168h-457v190h733v-104z" />
    <glyph glyph-name="braceleft" unicode="{" horiz-adv-x="557" 
d="M178 983v283q0 79 23 135.5t63.5 87t86.5 44t100 13.5h43v-135h-5q-30 0 -49 -6t-30 -14.5t-16 -29.5t-6 -39t-1 -54v-301q-1 -109 -53 -178.5t-123 -77.5v-19q71 -8 123 -77.5t53 -178.5v-356q0 -90 17 -116.5t85 -26.5h5v-138h-43q-56 0 -102 13.5t-86 44.5t-62.5 88
t-22.5 137v338q0 111 -28 156t-80 45h-43v161h43q52 0 80 45.5t28 155.5z" />
    <glyph glyph-name="bar" unicode="|" horiz-adv-x="741" 
d="M262 1720h217v-2048h-217v2048z" />
    <glyph glyph-name="braceright" unicode="}" horiz-adv-x="557" 
d="M381 1266v-283q0 -111 27.5 -156t78.5 -45h43v-161h-43q-51 0 -78.5 -44.5t-27.5 -156.5v-338q0 -79 -23 -136.5t-63 -88.5t-86 -44.5t-100 -13.5h-46v138h3q70 0 87 26t17 117v356q1 110 52.5 179t125.5 77v19q-74 8 -125.5 77t-52.5 179v301q0 84 -17 113.5t-87 29.5
h-3v135h46q53 0 98.5 -13.5t86 -43.5t64 -87t23.5 -136z" />
    <glyph glyph-name="asciitilde" unicode="~" horiz-adv-x="1034" 
d="M80 430q0 186 75 284.5t193 98.5q57 0 104.5 -24.5t96.5 -79.5l45 -50q2 -2 10.5 -11t12 -11.5t11.5 -10t13.5 -10.5t13.5 -7t16 -5.5t17 -1.5q41 0 63.5 54.5t22.5 138.5h180q0 -187 -74.5 -285t-197.5 -98q-60 0 -104 24.5t-93 77.5l-43 49q-2 2 -15 15.5t-18 18
t-16 12.5t-22 11t-23 3q-44 0 -66 -53.5t-22 -139.5h-180z" />
    <glyph glyph-name="uni00A0" unicode="&#xa0;" horiz-adv-x="389" 
 />
    <glyph glyph-name="exclamdown" unicode="&#xa1;" horiz-adv-x="497" 
d="M164 1024h170l65 -1024h-299zM115 1249v144q0 32 14.5 51.5t42.5 19.5h154q28 0 43.5 -19.5t15.5 -51.5v-144q0 -32 -15.5 -51.5t-43.5 -19.5h-154q-28 0 -42.5 19.5t-14.5 51.5z" />
    <glyph glyph-name="cent" unicode="&#xa2;" horiz-adv-x="862" 
d="M522 0h-164v184h-6q-131 0 -189.5 66.5t-58.5 177.5v608q0 111 58.5 177.5t189.5 66.5h6v184h164v-184h2q131 0 189.5 -66.5t58.5 -177.5v-108l-215 -43v200h-229v-706h229v223l215 -43v-131q0 -111 -58.5 -177.5t-189.5 -66.5h-2v-184z" />
    <glyph glyph-name="sterling" unicode="&#xa3;" horiz-adv-x="993" 
d="M92 659v181h146v381q0 111 58 177t189 66h150q131 0 190.5 -66.5t59.5 -176.5v-88l-217 -43v180h-207v-430h229v-181h-229v-444h244v244l215 -43v-152q0 -115 -63 -190.5t-152 -75.5q-15 0 -148 29l-158 36q-63 -63 -186 -63h-121v195h82q26 0 45 19.5t19 47.5v397h-146z
" />
    <glyph glyph-name="currency" unicode="&#xa4;" horiz-adv-x="942" 
d="M594 160h-254l-51 -160h-189l78 225q-57 60 -57 178v658q0 132 74 192l-76 211h186l53 -159h224l55 159h184l-80 -207q80 -63 80 -196v-658q0 -118 -61 -182l80 -221h-193zM600 1110h-258v-756h258v756z" />
    <glyph glyph-name="yen" unicode="&#xa5;" horiz-adv-x="929" 
d="M92 936h160l-225 528h249l199 -536l201 536h229l-227 -528h160v-115h-209l-54 -133h263v-117h-263v-571h-221v571h-262v117h262l-53 133h-209v115z" />
    <glyph glyph-name="brokenbar" unicode="&#xa6;" horiz-adv-x="741" 
d="M262 1569h217v-719h-217v719zM262 545h217v-719h-217v719z" />
    <glyph glyph-name="section" unicode="&#xa7;" horiz-adv-x="1126" 
d="M1085 475q0 -111 -62.5 -183.5t-178.5 -103.5q96 -101 96 -227q0 -141 -105 -227t-272 -86q-166 0 -264.5 87t-116.5 240l193 25q10 -78 57.5 -128t134.5 -50q70 0 116 33.5t46 93.5q0 88 -145 174l-273 164q-270 163 -270 375q0 111 61.5 182.5t176.5 101.5
q-95 103 -95 230q0 141 105 227t274 86q166 0 263.5 -87t115.5 -241l-190 -24q-12 79 -58.5 128.5t-134.5 49.5q-71 0 -117.5 -33t-46.5 -94q0 -86 146 -174l272 -164q146 -86 209 -179t63 -196zM670 692l-275 164q-69 -17 -107 -60.5t-38 -107.5q0 -59 42 -117.5
t161 -128.5l278 -161q69 18 107.5 60.5t38.5 104.5q0 59 -43 116.5t-164 129.5z" />
    <glyph glyph-name="dieresis" unicode="&#xa8;" horiz-adv-x="661" 
d="M78 1612v96q0 24 12 38.5t33 14.5h108q43 0 43 -53v-96q0 -25 -11 -40.5t-32 -15.5h-108q-21 0 -33 16t-12 40zM383 1612v96q0 53 43 53h109q43 0 43 -53v-96q0 -25 -11 -40.5t-32 -15.5h-109q-21 0 -32 15.5t-11 40.5z" />
    <glyph glyph-name="copyright" unicode="&#xa9;" horiz-adv-x="1740" 
d="M63 711q0 186 59 352t163.5 288t256 193.5t328.5 71.5q176 0 327.5 -71.5t256 -193.5t164 -288t59.5 -352t-59.5 -352t-164 -288.5t-256 -194t-327.5 -71.5t-328 71.5t-256.5 194t-163.5 288.5t-59 352zM231 711q0 -158 47 -298.5t130 -243.5t203 -163.5t259 -60.5
t259 60.5t202.5 163.5t129 243.5t46.5 298.5q0 157 -46.5 297.5t-129 244t-202.5 164t-259 60.5t-259 -60.5t-203 -164t-130 -244t-47 -297.5zM543 342v731q0 219 223 219h205q117 0 170 -59.5t53 -159.5v-135l-193 -39v219h-260v-821h260v258l193 -41v-172
q0 -100 -53 -159.5t-170 -59.5h-205q-223 0 -223 219z" />
    <glyph glyph-name="ordfeminine" unicode="&#xaa;" horiz-adv-x="720" 
d="M516 438l-45 207h-238l-47 -207h-182l266 1026h174l271 -1026h-199zM270 813h164l-80 363z" />
    <glyph glyph-name="guillemotleft" unicode="&#xab;" horiz-adv-x="870" 
d="M424 350h-158l-211 334v41l207 332h162l-162 -355zM776 350h-155l-211 334v41l206 332h160l-158 -355z" />
    <glyph glyph-name="logicalnot" unicode="&#xac;" horiz-adv-x="1034" 
d="M41 944h926v-663h-199v481h-727v182z" />
    <glyph glyph-name="registered" unicode="&#xae;" horiz-adv-x="784" 
d="M66 1157q0 147 87.5 245.5t239.5 98.5q148 0 237 -99t89 -245q0 -147 -89 -245.5t-237 -98.5q-152 0 -239.5 98t-87.5 246zM152 1157q0 -120 64.5 -198t176.5 -78q111 0 175.5 78.5t64.5 197.5q0 118 -64.5 196.5t-175.5 78.5q-112 0 -176.5 -78.5t-64.5 -196.5z
M385 1110h-29v-156h-100v412h137q148 0 148 -131v-2q0 -74 -58 -105l64 -174h-109zM356 1286v-98h31q32 0 45.5 12t13.5 37v2q0 47 -57 47h-33z" />
    <glyph glyph-name="macron" unicode="&#xaf;" horiz-adv-x="661" 
d="M541 1565h-422v149h422v-149z" />
    <glyph glyph-name="degree" unicode="&#xb0;" horiz-adv-x="714" 
d="M446 674h-180q-92 0 -133 46.5t-41 123.5v450q0 77 41 123.5t133 46.5h180q93 0 135 -46.5t42 -123.5v-450q0 -77 -42 -123.5t-135 -46.5zM438 1303h-164v-467h164v467z" />
    <glyph glyph-name="plusminus" unicode="&#xb1;" horiz-adv-x="1034" 
d="M74 649v180h346v351h196v-351h340v-180h-340v-356h-196v356h-346zM74 0v180h882v-180h-882z" />
    <glyph glyph-name="two.superior" unicode="&#xb2;" horiz-adv-x="700" 
d="M612 1294v-104q0 -51 -28 -98l-316 -480h199v131l178 -36v-99q0 -77 -40.5 -123.5t-131.5 -46.5h-426v123q0 47 25 78l352 526l-2 125h-162v-184l-186 37v151q0 77 41 123.5t133 46.5h192q91 0 131.5 -46.5t40.5 -123.5z" />
    <glyph glyph-name="three.superior" unicode="&#xb3;" horiz-adv-x="724" 
d="M653 821v-213q0 -77 -41.5 -123.5t-132.5 -46.5h-248q-92 0 -133 46.5t-41 123.5v99l181 36v-137h174q21 0 34 13t13 34v174q0 23 -14.5 38.5t-34.5 15.5h-134v163h117q19 0 33 15.5t14 38.5v153q0 20 -13.5 33.5t-33.5 13.5h-141v-135l-182 37v94q0 77 41.5 123.5
t132.5 46.5h213q91 0 132.5 -46.5t41.5 -123.5v-137q0 -72 -30.5 -119.5t-74.5 -60.5v-2q57 -10 92 -52.5t35 -101.5z" />
    <glyph glyph-name="acute" unicode="&#xb4;" horiz-adv-x="661" 
d="M344 1548h-147l145 250h244z" />
    <glyph glyph-name="mu" unicode="&#xb5;" horiz-adv-x="970" 
d="M133 -336v1419h201v-802q0 -68 20.5 -99.5t75.5 -31.5q94 0 201 81v852h200v-1083h-190v123h-2q-71 -63 -129.5 -94t-118.5 -31q-52 0 -78 29l-6 -4q21 -47 21 -115v-244h-195z" />
    <glyph glyph-name="mu" unicode="&#x3bc;" horiz-adv-x="970" 
d="M133 -336v1419h201v-802q0 -68 20.5 -99.5t75.5 -31.5q94 0 201 81v852h200v-1083h-190v123h-2q-71 -63 -129.5 -94t-118.5 -31q-52 0 -78 29l-6 -4q21 -47 21 -115v-244h-195z" />
    <glyph glyph-name="paragraph" unicode="&#xb6;" horiz-adv-x="1144" 
d="M358 1464h676v-1800h-217v1608h-145v-1608h-221v940h-93q-93 0 -157 32.5t-98 93.5t-48 133.5t-14 168.5v4q0 96 14 168.5t48 133.5t98 93.5t157 32.5zM387 797h64v475h-64q-68 0 -94.5 -62.5t-26.5 -173.5v-4q0 -112 26.5 -173.5t94.5 -61.5z" />
    <glyph glyph-name="periodcentered" unicode="&#xb7;" horiz-adv-x="438" 
d="M78 541v143q0 32 14.5 52t42.5 20h164q28 0 43.5 -20t15.5 -52v-143q0 -32 -15.5 -52t-43.5 -20h-164q-28 0 -42.5 20t-14.5 52z" />
    <glyph glyph-name="cedilla" unicode="&#xb8;" horiz-adv-x="661" 
d="M291 14h131l-23 -100q61 -7 101.5 -37t40.5 -88q0 -65 -61 -102t-185 -37q-77 0 -141 22v101q72 -23 135 -23q84 0 84 45t-70 45h-45z" />
    <glyph glyph-name="one.superior" unicode="&#xb9;" horiz-adv-x="446" 
d="M150 1253l-109 -24v137l264 98h35v-1026h-190v815z" />
    <glyph glyph-name="ordmasculine" unicode="&#xba;" horiz-adv-x="847" 
d="M748 1294v-686q0 -77 -41.5 -123.5t-133.5 -46.5h-299q-174 0 -174 170v686q0 170 174 170h299q92 0 133.5 -46.5t41.5 -123.5zM555 610v682h-262v-682h262z" />
    <glyph glyph-name="guillemotright" unicode="&#xbb;" horiz-adv-x="870" 
d="M602 350h-156l156 352l-156 355h158l213 -332v-41zM250 350h-156l158 352l-158 355h158l213 -332v-41z" />
    <glyph glyph-name="onequarter" unicode="&#xbc;" horiz-adv-x="1433" 
d="M150 1253l-109 -24v137l264 98h35v-1026h-190v815zM358 0l351 1464h170l-353 -1464h-168zM752 227v162l383 637h161v-637h78v-162h-78v-227h-178v227h-366zM930 389h188v326z" />
    <glyph glyph-name="onehalf" unicode="&#xbd;" horiz-adv-x="1478" 
d="M150 1253l-109 -24v137l264 98h35v-1026h-190v815zM358 0l351 1464h170l-353 -1464h-168zM1393 856v-104q0 -50 -29 -99l-315 -479h198v131l178 -37v-98q0 -77 -40.5 -123.5t-131.5 -46.5h-426v123q0 47 25 78l352 526l-2 125h-162v-184l-186 37v151q0 77 41 123.5
t133 46.5h193q91 0 131.5 -46.5t40.5 -123.5z" />
    <glyph glyph-name="threequarters" unicode="&#xbe;" horiz-adv-x="1703" 
d="M653 821v-213q0 -77 -41.5 -123.5t-132.5 -46.5h-248q-92 0 -133 46.5t-41 123.5v99l181 36v-137h174q21 0 34 13t13 34v174q0 23 -14.5 38.5t-34.5 15.5h-134v163h117q19 0 33 15.5t14 38.5v153q0 20 -13.5 33.5t-33.5 13.5h-141v-135l-182 37v94q0 77 41.5 123.5
t132.5 46.5h213q91 0 132.5 -46.5t41.5 -123.5v-137q0 -72 -30.5 -119.5t-74.5 -60.5v-2q57 -10 92 -52.5t35 -101.5zM629 0l350 1464h170l-352 -1464h-168zM1022 227v162l383 637h162v-637h78v-162h-78v-227h-178v227h-367zM1200 389h189v326z" />
    <glyph glyph-name="questiondown" unicode="&#xbf;" horiz-adv-x="743" 
d="M248 410v-179q0 -22 12.5 -36.5t32.5 -14.5h153q20 0 34 14.5t14 36.5v150l188 -53v-150q0 -75 -50.5 -126.5t-121.5 -51.5h-262q-78 0 -133.5 57t-55.5 140v237q0 49 12 79t38 60l174 193v254h200v-322l-157 -172q-5 -6 -15.5 -17.5t-15 -16.5t-12.5 -14t-11 -13
t-8 -11.5t-7 -11.5t-4.5 -10t-3.5 -11.5t-1 -10.5zM518 1393v-144q0 -32 -15.5 -51.5t-43.5 -19.5h-154q-28 0 -42.5 19.5t-14.5 51.5v144q0 32 14.5 51.5t42.5 19.5h154q28 0 43.5 -19.5t15.5 -51.5z" />
    <glyph glyph-name="Agrave" unicode="&#xc0;" horiz-adv-x="995" 
d="M741 0l-75 330h-359l-78 -330h-213l385 1464h191l389 -1464h-240zM623 520l-131 584h-3l-137 -584h271zM631 1548h-148l-241 250h245z" />
    <glyph glyph-name="Aacute" unicode="&#xc1;" horiz-adv-x="995" 
d="M741 0l-75 330h-359l-78 -330h-213l385 1464h191l389 -1464h-240zM623 520l-131 584h-3l-137 -584h271zM512 1548h-147l145 250h244z" />
    <glyph glyph-name="Acircumflex" unicode="&#xc2;" horiz-adv-x="995" 
d="M741 0l-75 330h-359l-78 -330h-213l385 1464h191l389 -1464h-240zM623 520l-131 584h-3l-137 -584h271zM745 1548h-118l-127 125l-129 -125h-123l155 250h187z" />
    <glyph glyph-name="Atilde" unicode="&#xc3;" horiz-adv-x="995" 
d="M741 0l-75 330h-359l-78 -330h-213l385 1464h191l389 -1464h-240zM623 520l-131 584h-3l-137 -584h271zM219 1552q0 133 44 193.5t114 60.5q66 0 137 -59q6 -4 22 -17t22.5 -17.5t18.5 -9.5t23 -5q55 0 55 100h111q0 -132 -45 -194t-115 -62q-57 0 -125 53q-5 4 -23.5 19
t-26 20t-20.5 11t-24 6q-57 0 -57 -99h-111z" />
    <glyph glyph-name="Adieresis" unicode="&#xc4;" horiz-adv-x="995" 
d="M741 0l-75 330h-359l-78 -330h-213l385 1464h191l389 -1464h-240zM623 520l-131 584h-3l-137 -584h271zM246 1612v96q0 24 12 38.5t33 14.5h108q43 0 43 -53v-96q0 -25 -11 -40.5t-32 -15.5h-108q-21 0 -33 16t-12 40zM551 1612v96q0 53 43 53h108q43 0 43 -53v-96
q0 -25 -11 -40.5t-32 -15.5h-108q-21 0 -32 15.5t-11 40.5z" />
    <glyph glyph-name="Aring" unicode="&#xc5;" horiz-adv-x="995" 
d="M741 0l-75 330h-359l-78 -330h-213l385 1464h191l389 -1464h-240zM623 520l-131 584h-3l-137 -584h271zM700 1708q0 -76 -52.5 -129t-147.5 -53q-96 0 -150.5 53.5t-54.5 128.5q0 80 54.5 136.5t150.5 56.5q95 0 147.5 -56.5t52.5 -136.5zM588 1708q0 39 -24.5 68.5
t-63.5 29.5q-43 0 -68.5 -29.5t-25.5 -68.5q0 -35 25.5 -60.5t68.5 -25.5q39 0 63.5 26t24.5 60z" />
    <glyph glyph-name="AE" unicode="&#xc6;" horiz-adv-x="1441" 
d="M1407 0h-723v330h-317l-150 -330h-225l692 1464h698v-194h-477v-430h295v-201h-295v-444h502v-195zM453 520h231v504h-2z" />
    <glyph glyph-name="Ccedilla" unicode="&#xc7;" horiz-adv-x="1015" 
d="M129 244v977q0 110 59.5 176.5t190.5 66.5h297q131 0 189.5 -66t58.5 -177v-205l-213 -45v299h-359v-1075h359v335l213 -43v-243q0 -111 -58.5 -177.5t-189.5 -66.5h-84l-19 -86q61 -7 101.5 -37t40.5 -88q0 -65 -61 -102t-185 -37q-77 0 -141 22v101q72 -23 135 -23
q84 0 84 45t-70 45h-45l29 160h-82q-131 0 -190.5 66.5t-59.5 177.5z" />
    <glyph glyph-name="Egrave" unicode="&#xc8;" 
d="M862 0h-723v1464h699v-194h-478v-430h295v-201h-295v-444h502v-195zM623 1548h-148l-242 250h246z" />
    <glyph glyph-name="Eacute" unicode="&#xc9;" 
d="M862 0h-723v1464h699v-194h-478v-430h295v-201h-295v-444h502v-195zM504 1548h-148l146 250h243z" />
    <glyph glyph-name="Ecircumflex" unicode="&#xca;" 
d="M862 0h-723v1464h699v-194h-478v-430h295v-201h-295v-444h502v-195zM737 1548h-119l-126 125l-130 -125h-122l155 250h187z" />
    <glyph glyph-name="Edieresis" unicode="&#xcb;" 
d="M862 0h-723v1464h699v-194h-478v-430h295v-201h-295v-444h502v-195zM238 1612v96q0 24 12 38.5t33 14.5h108q43 0 43 -53v-96q0 -25 -11 -40.5t-32 -15.5h-108q-21 0 -33 16t-12 40zM543 1612v96q0 53 43 53h108q43 0 43 -53v-96q0 -25 -11 -40.5t-32 -15.5h-108
q-21 0 -32 15.5t-11 40.5z" />
    <glyph glyph-name="Igrave" unicode="&#xcc;" horiz-adv-x="499" 
d="M360 1464v-1464h-221v1464h221zM383 1548h-147l-242 250h246z" />
    <glyph glyph-name="Iacute" unicode="&#xcd;" horiz-adv-x="499" 
d="M360 1464v-1464h-221v1464h221zM264 1548h-147l145 250h244z" />
    <glyph glyph-name="Icircumflex" unicode="&#xce;" horiz-adv-x="499" 
d="M360 1464v-1464h-221v1464h221zM498 1548h-119l-127 125l-129 -125h-123l156 250h186z" />
    <glyph glyph-name="Idieresis" unicode="&#xcf;" horiz-adv-x="499" 
d="M360 1464v-1464h-221v1464h221zM-2 1612v96q0 24 12 38.5t33 14.5h109q43 0 43 -53v-96q0 -25 -11 -40.5t-32 -15.5h-109q-21 0 -33 16t-12 40zM303 1612v96q0 53 43 53h109q43 0 43 -53v-96q0 -25 -11 -40.5t-32 -15.5h-109q-21 0 -32 15.5t-11 40.5z" />
    <glyph glyph-name="Eth" unicode="&#xd0;" horiz-adv-x="1077" 
d="M43 659v181h115v624h399q92 0 168 -28t135.5 -85t93 -152.5t33.5 -221.5v-490q0 -126 -33.5 -221.5t-93 -152.5t-135.5 -85t-168 -28h-399v659h-115zM569 659h-188v-464h174q60 0 103.5 25t65.5 66t32 84t10 89v547q0 46 -10 89t-32 84t-65.5 66t-103.5 25h-174v-430h188
v-181z" />
    <glyph glyph-name="Ntilde" unicode="&#xd1;" horiz-adv-x="1116" 
d="M139 1464h176l449 -895h2v895h211v-1464h-154l-473 930h-2v-930h-209v1464zM281 1552q0 133 43.5 193.5t113.5 60.5q66 0 137 -59q6 -5 18 -14.5t18.5 -14t15.5 -10t17.5 -8t17.5 -2.5q55 0 55 100h110q0 -132 -45 -194t-114 -62q-57 0 -125 53q-5 4 -23.5 19t-26 20
t-20.5 11t-24 6q-58 0 -58 -99h-110z" />
    <glyph glyph-name="Ograve" unicode="&#xd2;" horiz-adv-x="1132" 
d="M1001 1221v-977q0 -111 -58 -177.5t-189 -66.5h-375q-131 0 -190.5 66.5t-59.5 177.5v977q0 110 59.5 176.5t190.5 66.5h375q131 0 189 -66t58 -177zM780 195v1075h-428v-1075h428zM696 1548h-147l-242 250h246z" />
    <glyph glyph-name="Oacute" unicode="&#xd3;" horiz-adv-x="1132" 
d="M1001 1221v-977q0 -111 -58 -177.5t-189 -66.5h-375q-131 0 -190.5 66.5t-59.5 177.5v977q0 110 59.5 176.5t190.5 66.5h375q131 0 189 -66t58 -177zM780 195v1075h-428v-1075h428zM578 1548h-148l145 250h244z" />
    <glyph glyph-name="Ocircumflex" unicode="&#xd4;" horiz-adv-x="1132" 
d="M1001 1221v-977q0 -111 -58 -177.5t-189 -66.5h-375q-131 0 -190.5 66.5t-59.5 177.5v977q0 110 59.5 176.5t190.5 66.5h375q131 0 189 -66t58 -177zM780 195v1075h-428v-1075h428zM811 1548h-119l-127 125l-129 -125h-123l156 250h186z" />
    <glyph glyph-name="Otilde" unicode="&#xd5;" horiz-adv-x="1132" 
d="M1001 1221v-977q0 -111 -58 -177.5t-189 -66.5h-375q-131 0 -190.5 66.5t-59.5 177.5v977q0 110 59.5 176.5t190.5 66.5h375q131 0 189 -66t58 -177zM780 195v1075h-428v-1075h428zM285 1552q0 133 43.5 193.5t113.5 60.5q67 0 138 -59q6 -4 22 -17t22.5 -17.5t18.5 -9.5
t23 -5q55 0 55 100h110q0 -132 -45 -194t-114 -62q-57 0 -125 53q-5 4 -23.5 19t-26 20t-20.5 11t-24 6q-58 0 -58 -99h-110z" />
    <glyph glyph-name="Odieresis" unicode="&#xd6;" horiz-adv-x="1132" 
d="M1001 1221v-977q0 -111 -58 -177.5t-189 -66.5h-375q-131 0 -190.5 66.5t-59.5 177.5v977q0 110 59.5 176.5t190.5 66.5h375q131 0 189 -66t58 -177zM780 195v1075h-428v-1075h428zM311 1612v96q0 24 12 38.5t33 14.5h109q43 0 43 -53v-96q0 -25 -11 -40.5t-32 -15.5
h-109q-21 0 -33 16t-12 40zM616 1612v96q0 53 43 53h109q43 0 43 -53v-96q0 -25 -11 -40.5t-32 -15.5h-109q-21 0 -32 15.5t-11 40.5z" />
    <glyph glyph-name="multiply" unicode="&#xd7;" horiz-adv-x="1034" 
d="M174 113l-133 131l344 366l-346 371l135 135l348 -368l340 368l133 -131l-340 -371l344 -370l-137 -133l-344 370z" />
    <glyph glyph-name="Oslash" unicode="&#xd8;" horiz-adv-x="1132" 
d="M362 -139h-165l55 162q-123 53 -123 221v977q0 110 59.5 176.5t190.5 66.5h340l49 140h168l-55 -162q120 -53 120 -221v-977q0 -111 -58 -177.5t-189 -66.5h-344zM780 195v925l-356 -925h356zM352 1270v-924l355 924h-355z" />
    <glyph glyph-name="Ugrave" unicode="&#xd9;" horiz-adv-x="1083" 
d="M133 1464h223v-1265h371v1265h223v-1220q0 -244 -245 -244h-324q-131 0 -189.5 66.5t-58.5 177.5v1220zM674 1548h-148l-241 250h245z" />
    <glyph glyph-name="Uacute" unicode="&#xda;" horiz-adv-x="1083" 
d="M133 1464h223v-1265h371v1265h223v-1220q0 -244 -245 -244h-324q-131 0 -189.5 66.5t-58.5 177.5v1220zM555 1548h-147l145 250h244z" />
    <glyph glyph-name="Ucircumflex" unicode="&#xdb;" horiz-adv-x="1083" 
d="M133 1464h223v-1265h371v1265h223v-1220q0 -244 -245 -244h-324q-131 0 -189.5 66.5t-58.5 177.5v1220zM788 1548h-118l-127 125l-129 -125h-123l155 250h187z" />
    <glyph glyph-name="Udieresis" unicode="&#xdc;" horiz-adv-x="1083" 
d="M133 1464h223v-1265h371v1265h223v-1220q0 -244 -245 -244h-324q-131 0 -189.5 66.5t-58.5 177.5v1220zM289 1612v96q0 24 12 38.5t33 14.5h108q43 0 43 -53v-96q0 -25 -11 -40.5t-32 -15.5h-108q-21 0 -33 16t-12 40zM594 1612v96q0 53 43 53h108q43 0 43 -53v-96
q0 -25 -11 -40.5t-32 -15.5h-108q-21 0 -32 15.5t-11 40.5z" />
    <glyph glyph-name="Yacute" unicode="&#xdd;" horiz-adv-x="942" 
d="M358 0v702l-348 762h248l219 -551l221 551h232l-348 -762v-702h-224zM492 1548h-148l145 250h244z" />
    <glyph glyph-name="Thorn" unicode="&#xde;" horiz-adv-x="1038" 
d="M950 973v-443q0 -110 -58.5 -175.5t-189.5 -65.5h-342v-289h-221v1464h221v-247h342q131 0 189.5 -66.5t58.5 -177.5zM664 1022h-304v-539h304q26 0 44.5 20t18.5 48v403q0 28 -18.5 48t-44.5 20z" />
    <glyph glyph-name="germandbls" unicode="&#xdf;" horiz-adv-x="1982" 
d="M334 1202v-254q0 -52 20.5 -72.5t73.5 -23.5l215 -8q248 -11 248 -246v-354q0 -111 -58.5 -177.5t-189.5 -66.5h-315q-131 0 -189.5 66.5t-58.5 177.5v147l213 45v-174q0 -28 19.5 -47.5t45.5 -19.5h246q26 0 45 19.5t19 47.5v283q0 52 -19 70.5t-74 21.5l-215 8
q-249 11 -249 244v332q0 111 59 177t190 66h275q131 0 189.5 -66t58.5 -177v-136l-217 -45v162q0 28 -18.5 48t-43.5 20h-207q-26 0 -44.5 -20t-18.5 -48zM1325 1202v-254q0 -52 20.5 -72.5t73.5 -23.5l215 -8q248 -11 248 -246v-354q0 -111 -58.5 -177.5t-189.5 -66.5h-315
q-131 0 -189.5 66.5t-58.5 177.5v147l213 45v-174q0 -28 20 -47.5t46 -19.5h245q26 0 45 19.5t19 47.5v283q0 52 -19 70.5t-73 21.5l-215 8q-250 11 -250 244v332q0 110 59.5 176.5t190.5 66.5h274q131 0 189.5 -66t58.5 -177v-136l-217 -45v162q0 28 -18.5 48t-43.5 20
h-206q-26 0 -45 -20t-19 -48z" />
    <glyph glyph-name="agrave" unicode="&#xe0;" horiz-adv-x="995" 
d="M741 0l-75 330h-359l-78 -330h-213l385 1464h191l389 -1464h-240zM623 520l-131 584h-3l-137 -584h271zM631 1548h-148l-241 250h245z" />
    <glyph glyph-name="aacute" unicode="&#xe1;" horiz-adv-x="995" 
d="M741 0l-75 330h-359l-78 -330h-213l385 1464h191l389 -1464h-240zM623 520l-131 584h-3l-137 -584h271zM512 1548h-147l145 250h244z" />
    <glyph glyph-name="acircumflex" unicode="&#xe2;" horiz-adv-x="995" 
d="M741 0l-75 330h-359l-78 -330h-213l385 1464h191l389 -1464h-240zM623 520l-131 584h-3l-137 -584h271zM745 1548h-118l-127 125l-129 -125h-123l155 250h187z" />
    <glyph glyph-name="atilde" unicode="&#xe3;" horiz-adv-x="995" 
d="M741 0l-75 330h-359l-78 -330h-213l385 1464h191l389 -1464h-240zM623 520l-131 584h-3l-137 -584h271zM219 1552q0 133 44 193.5t114 60.5q66 0 137 -59q6 -4 22 -17t22.5 -17.5t18.5 -9.5t23 -5q55 0 55 100h111q0 -132 -45 -194t-115 -62q-57 0 -125 53q-5 4 -23.5 19
t-26 20t-20.5 11t-24 6q-57 0 -57 -99h-111z" />
    <glyph glyph-name="adieresis" unicode="&#xe4;" horiz-adv-x="995" 
d="M741 0l-75 330h-359l-78 -330h-213l385 1464h191l389 -1464h-240zM623 520l-131 584h-3l-137 -584h271zM246 1612v96q0 24 12 38.5t33 14.5h108q43 0 43 -53v-96q0 -25 -11 -40.5t-32 -15.5h-108q-21 0 -33 16t-12 40zM551 1612v96q0 53 43 53h108q43 0 43 -53v-96
q0 -25 -11 -40.5t-32 -15.5h-108q-21 0 -32 15.5t-11 40.5z" />
    <glyph glyph-name="aring" unicode="&#xe5;" horiz-adv-x="995" 
d="M741 0l-75 330h-359l-78 -330h-213l385 1464h191l389 -1464h-240zM623 520l-131 584h-3l-137 -584h271zM700 1708q0 -76 -52.5 -129t-147.5 -53q-96 0 -150.5 53.5t-54.5 128.5q0 80 54.5 136.5t150.5 56.5q95 0 147.5 -56.5t52.5 -136.5zM588 1708q0 39 -24.5 68.5
t-63.5 29.5q-43 0 -68.5 -29.5t-25.5 -68.5q0 -35 25.5 -60.5t68.5 -25.5q39 0 63.5 26t24.5 60z" />
    <glyph glyph-name="ae" unicode="&#xe6;" horiz-adv-x="1441" 
d="M1407 0h-723v330h-317l-150 -330h-225l692 1464h698v-194h-477v-430h295v-201h-295v-444h502v-195zM453 520h231v504h-2z" />
    <glyph glyph-name="ccedilla" unicode="&#xe7;" horiz-adv-x="1015" 
d="M129 244v977q0 110 59.5 176.5t190.5 66.5h297q131 0 189.5 -66t58.5 -177v-205l-213 -45v299h-359v-1075h359v335l213 -43v-243q0 -111 -58.5 -177.5t-189.5 -66.5h-84l-19 -86q61 -7 101.5 -37t40.5 -88q0 -65 -61 -102t-185 -37q-77 0 -141 22v101q72 -23 135 -23
q84 0 84 45t-70 45h-45l29 160h-82q-131 0 -190.5 66.5t-59.5 177.5z" />
    <glyph glyph-name="egrave" unicode="&#xe8;" 
d="M862 0h-723v1464h699v-194h-478v-430h295v-201h-295v-444h502v-195zM623 1548h-148l-242 250h246z" />
    <glyph glyph-name="eacute" unicode="&#xe9;" 
d="M862 0h-723v1464h699v-194h-478v-430h295v-201h-295v-444h502v-195zM504 1548h-148l146 250h243z" />
    <glyph glyph-name="ecircumflex" unicode="&#xea;" 
d="M862 0h-723v1464h699v-194h-478v-430h295v-201h-295v-444h502v-195zM737 1548h-119l-126 125l-130 -125h-122l155 250h187z" />
    <glyph glyph-name="edieresis" unicode="&#xeb;" 
d="M862 0h-723v1464h699v-194h-478v-430h295v-201h-295v-444h502v-195zM238 1612v96q0 24 12 38.5t33 14.5h108q43 0 43 -53v-96q0 -25 -11 -40.5t-32 -15.5h-108q-21 0 -33 16t-12 40zM543 1612v96q0 53 43 53h108q43 0 43 -53v-96q0 -25 -11 -40.5t-32 -15.5h-108
q-21 0 -32 15.5t-11 40.5z" />
    <glyph glyph-name="igrave" unicode="&#xec;" horiz-adv-x="499" 
d="M360 1464v-1464h-221v1464h221zM383 1548h-147l-242 250h246z" />
    <glyph glyph-name="iacute" unicode="&#xed;" horiz-adv-x="499" 
d="M360 1464v-1464h-221v1464h221zM264 1548h-147l145 250h244z" />
    <glyph glyph-name="icircumflex" unicode="&#xee;" horiz-adv-x="499" 
d="M360 1464v-1464h-221v1464h221zM498 1548h-119l-127 125l-129 -125h-123l156 250h186z" />
    <glyph glyph-name="idieresis" unicode="&#xef;" horiz-adv-x="499" 
d="M360 1464v-1464h-221v1464h221zM-2 1612v96q0 24 12 38.5t33 14.5h109q43 0 43 -53v-96q0 -25 -11 -40.5t-32 -15.5h-109q-21 0 -33 16t-12 40zM303 1612v96q0 53 43 53h109q43 0 43 -53v-96q0 -25 -11 -40.5t-32 -15.5h-109q-21 0 -32 15.5t-11 40.5z" />
    <glyph glyph-name="eth" unicode="&#xf0;" horiz-adv-x="1077" 
d="M43 659v181h115v624h399q92 0 168 -28t135.5 -85t93 -152.5t33.5 -221.5v-490q0 -126 -33.5 -221.5t-93 -152.5t-135.5 -85t-168 -28h-399v659h-115zM569 659h-188v-464h174q60 0 103.5 25t65.5 66t32 84t10 89v547q0 46 -10 89t-32 84t-65.5 66t-103.5 25h-174v-430h188
v-181z" />
    <glyph glyph-name="ntilde" unicode="&#xf1;" horiz-adv-x="1116" 
d="M139 1464h176l449 -895h2v895h211v-1464h-154l-473 930h-2v-930h-209v1464zM281 1552q0 133 43.5 193.5t113.5 60.5q66 0 137 -59q6 -5 18 -14.5t18.5 -14t15.5 -10t17.5 -8t17.5 -2.5q55 0 55 100h110q0 -132 -45 -194t-114 -62q-57 0 -125 53q-5 4 -23.5 19t-26 20
t-20.5 11t-24 6q-58 0 -58 -99h-110z" />
    <glyph glyph-name="ograve" unicode="&#xf2;" horiz-adv-x="1132" 
d="M1001 1221v-977q0 -111 -58 -177.5t-189 -66.5h-375q-131 0 -190.5 66.5t-59.5 177.5v977q0 110 59.5 176.5t190.5 66.5h375q131 0 189 -66t58 -177zM780 195v1075h-428v-1075h428zM696 1548h-147l-242 250h246z" />
    <glyph glyph-name="oacute" unicode="&#xf3;" horiz-adv-x="1132" 
d="M1001 1221v-977q0 -111 -58 -177.5t-189 -66.5h-375q-131 0 -190.5 66.5t-59.5 177.5v977q0 110 59.5 176.5t190.5 66.5h375q131 0 189 -66t58 -177zM780 195v1075h-428v-1075h428zM578 1548h-148l145 250h244z" />
    <glyph glyph-name="ocircumflex" unicode="&#xf4;" horiz-adv-x="1132" 
d="M1001 1221v-977q0 -111 -58 -177.5t-189 -66.5h-375q-131 0 -190.5 66.5t-59.5 177.5v977q0 110 59.5 176.5t190.5 66.5h375q131 0 189 -66t58 -177zM780 195v1075h-428v-1075h428zM811 1548h-119l-127 125l-129 -125h-123l156 250h186z" />
    <glyph glyph-name="otilde" unicode="&#xf5;" horiz-adv-x="1132" 
d="M1001 1221v-977q0 -111 -58 -177.5t-189 -66.5h-375q-131 0 -190.5 66.5t-59.5 177.5v977q0 110 59.5 176.5t190.5 66.5h375q131 0 189 -66t58 -177zM780 195v1075h-428v-1075h428zM285 1552q0 133 43.5 193.5t113.5 60.5q67 0 138 -59q6 -4 22 -17t22.5 -17.5t18.5 -9.5
t23 -5q55 0 55 100h110q0 -132 -45 -194t-114 -62q-57 0 -125 53q-5 4 -23.5 19t-26 20t-20.5 11t-24 6q-58 0 -58 -99h-110z" />
    <glyph glyph-name="odieresis" unicode="&#xf6;" horiz-adv-x="1132" 
d="M1001 1221v-977q0 -111 -58 -177.5t-189 -66.5h-375q-131 0 -190.5 66.5t-59.5 177.5v977q0 110 59.5 176.5t190.5 66.5h375q131 0 189 -66t58 -177zM780 195v1075h-428v-1075h428zM311 1612v96q0 24 12 38.5t33 14.5h109q43 0 43 -53v-96q0 -25 -11 -40.5t-32 -15.5
h-109q-21 0 -33 16t-12 40zM616 1612v96q0 53 43 53h109q43 0 43 -53v-96q0 -25 -11 -40.5t-32 -15.5h-109q-21 0 -32 15.5t-11 40.5z" />
    <glyph glyph-name="divide" unicode="&#xf7;" horiz-adv-x="1034" 
d="M66 520v185h901v-185h-901zM395 973v98q0 32 15 52t43 20h129q28 0 43.5 -20t15.5 -52v-98q0 -32 -15.5 -52t-43.5 -20h-129q-28 0 -43 20t-15 52zM395 156v98q0 32 15 52t43 20h129q28 0 43.5 -20t15.5 -52v-98q0 -32 -15.5 -52t-43.5 -20h-129q-28 0 -43 20t-15 52z
" />
    <glyph glyph-name="oslash" unicode="&#xf8;" horiz-adv-x="1132" 
d="M362 -139h-165l55 162q-123 53 -123 221v977q0 110 59.5 176.5t190.5 66.5h340l49 140h168l-55 -162q120 -53 120 -221v-977q0 -111 -58 -177.5t-189 -66.5h-344zM780 195v925l-356 -925h356zM352 1270v-924l355 924h-355z" />
    <glyph glyph-name="ugrave" unicode="&#xf9;" horiz-adv-x="1083" 
d="M133 1464h223v-1265h371v1265h223v-1220q0 -244 -245 -244h-324q-131 0 -189.5 66.5t-58.5 177.5v1220zM674 1548h-148l-241 250h245z" />
    <glyph glyph-name="uacute" unicode="&#xfa;" horiz-adv-x="1083" 
d="M133 1464h223v-1265h371v1265h223v-1220q0 -244 -245 -244h-324q-131 0 -189.5 66.5t-58.5 177.5v1220zM555 1548h-147l145 250h244z" />
    <glyph glyph-name="ucircumflex" unicode="&#xfb;" horiz-adv-x="1083" 
d="M133 1464h223v-1265h371v1265h223v-1220q0 -244 -245 -244h-324q-131 0 -189.5 66.5t-58.5 177.5v1220zM788 1548h-118l-127 125l-129 -125h-123l155 250h187z" />
    <glyph glyph-name="udieresis" unicode="&#xfc;" horiz-adv-x="1083" 
d="M133 1464h223v-1265h371v1265h223v-1220q0 -244 -245 -244h-324q-131 0 -189.5 66.5t-58.5 177.5v1220zM289 1612v96q0 24 12 38.5t33 14.5h108q43 0 43 -53v-96q0 -25 -11 -40.5t-32 -15.5h-108q-21 0 -33 16t-12 40zM594 1612v96q0 53 43 53h108q43 0 43 -53v-96
q0 -25 -11 -40.5t-32 -15.5h-108q-21 0 -32 15.5t-11 40.5z" />
    <glyph glyph-name="yacute" unicode="&#xfd;" horiz-adv-x="942" 
d="M358 0v702l-348 762h248l219 -551l221 551h232l-348 -762v-702h-224zM492 1548h-148l145 250h244z" />
    <glyph glyph-name="thorn" unicode="&#xfe;" horiz-adv-x="1038" 
d="M950 973v-443q0 -110 -58.5 -175.5t-189.5 -65.5h-342v-289h-221v1464h221v-247h342q131 0 189.5 -66.5t58.5 -177.5zM664 1022h-304v-539h304q26 0 44.5 20t18.5 48v403q0 28 -18.5 48t-44.5 20z" />
    <glyph glyph-name="ydieresis" unicode="&#xff;" horiz-adv-x="942" 
d="M358 0v702l-348 762h248l219 -551l221 551h232l-348 -762v-702h-224zM227 1612v96q0 24 12 38.5t33 14.5h109q43 0 43 -53v-96q0 -25 -11 -40.5t-32 -15.5h-109q-21 0 -33 16t-12 40zM532 1612v96q0 53 43 53h109q43 0 43 -53v-96q0 -25 -11 -40.5t-32 -15.5h-109
q-21 0 -32 15.5t-11 40.5z" />
    <glyph glyph-name="Amacron" unicode="&#x100;" horiz-adv-x="995" 
d="M741 0l-75 330h-359l-78 -330h-213l385 1464h191l389 -1464h-240zM623 520l-131 584h-3l-137 -584h271zM709 1565h-422v149h422v-149z" />
    <glyph glyph-name="amacron" unicode="&#x101;" horiz-adv-x="995" 
d="M741 0l-75 330h-359l-78 -330h-213l385 1464h191l389 -1464h-240zM623 520l-131 584h-3l-137 -584h271zM709 1565h-422v149h422v-149z" />
    <glyph glyph-name="Abreve" unicode="&#x102;" horiz-adv-x="995" 
d="M741 0l-75 330h-359l-78 -330h-213l385 1464h191l389 -1464h-240zM623 520l-131 584h-3l-137 -584h271zM586 1798h125v-78q0 -95 -62.5 -144.5t-150.5 -49.5q-86 0 -149.5 49.5t-63.5 144.5v78h125v-53q0 -98 88 -98t88 98v53z" />
    <glyph glyph-name="abreve" unicode="&#x103;" horiz-adv-x="995" 
d="M741 0l-75 330h-359l-78 -330h-213l385 1464h191l389 -1464h-240zM623 520l-131 584h-3l-137 -584h271zM586 1798h125v-78q0 -95 -62.5 -144.5t-150.5 -49.5q-86 0 -149.5 49.5t-63.5 144.5v78h125v-53q0 -98 88 -98t88 98v53z" />
    <glyph glyph-name="Aogonek" unicode="&#x104;" horiz-adv-x="995" 
d="M956 -195v-114q-16 -14 -56.5 -27.5t-98.5 -13.5q-53 0 -97 12.5t-77 47t-33 85.5q0 99 147 205l-75 330h-359l-78 -330h-213l385 1464h191l389 -1464h-107q-110 -104 -110 -166q0 -35 21 -50t51 -15q74 0 120 36zM623 520l-131 584h-3l-137 -584h271z" />
    <glyph glyph-name="aogonek" unicode="&#x105;" horiz-adv-x="995" 
d="M956 -195v-114q-16 -14 -56.5 -27.5t-98.5 -13.5q-53 0 -97 12.5t-77 47t-33 85.5q0 99 147 205l-75 330h-359l-78 -330h-213l385 1464h191l389 -1464h-107q-110 -104 -110 -166q0 -35 21 -50t51 -15q74 0 120 36zM623 520l-131 584h-3l-137 -584h271z" />
    <glyph glyph-name="Cacute" unicode="&#x106;" horiz-adv-x="1015" 
d="M129 244v977q0 110 59.5 176.5t190.5 66.5h297q131 0 189.5 -66t58.5 -177v-205l-213 -45v299h-359v-1075h359v335l213 -43v-243q0 -111 -58.5 -177.5t-189.5 -66.5h-297q-131 0 -190.5 66.5t-59.5 177.5zM547 1548h-148l146 250h243z" />
    <glyph glyph-name="cacute" unicode="&#x107;" horiz-adv-x="1015" 
d="M129 244v977q0 110 59.5 176.5t190.5 66.5h297q131 0 189.5 -66t58.5 -177v-205l-213 -45v299h-359v-1075h359v335l213 -43v-243q0 -111 -58.5 -177.5t-189.5 -66.5h-297q-131 0 -190.5 66.5t-59.5 177.5zM547 1548h-148l146 250h243z" />
    <glyph glyph-name="Ccircumflex" unicode="&#x108;" horiz-adv-x="1015" 
d="M129 244v977q0 110 59.5 176.5t190.5 66.5h297q131 0 189.5 -66t58.5 -177v-205l-213 -45v299h-359v-1075h359v335l213 -43v-243q0 -111 -58.5 -177.5t-189.5 -66.5h-297q-131 0 -190.5 66.5t-59.5 177.5zM780 1548h-118l-127 125l-129 -125h-123l155 250h187z" />
    <glyph glyph-name="ccircumflex" unicode="&#x109;" horiz-adv-x="1015" 
d="M129 244v977q0 110 59.5 176.5t190.5 66.5h297q131 0 189.5 -66t58.5 -177v-205l-213 -45v299h-359v-1075h359v335l213 -43v-243q0 -111 -58.5 -177.5t-189.5 -66.5h-297q-131 0 -190.5 66.5t-59.5 177.5zM780 1548h-118l-127 125l-129 -125h-123l155 250h187z" />
    <glyph glyph-name="Cdotaccent" unicode="&#x10a;" horiz-adv-x="1015" 
d="M129 244v977q0 110 59.5 176.5t190.5 66.5h297q131 0 189.5 -66t58.5 -177v-205l-213 -45v299h-359v-1075h359v335l213 -43v-243q0 -111 -58.5 -177.5t-189.5 -66.5h-297q-131 0 -190.5 66.5t-59.5 177.5zM434 1612v96q0 53 43 53h111q43 0 43 -53v-96q0 -25 -11 -40.5
t-32 -15.5h-111q-21 0 -32 15.5t-11 40.5z" />
    <glyph glyph-name="cdotaccent" unicode="&#x10b;" horiz-adv-x="1015" 
d="M129 244v977q0 110 59.5 176.5t190.5 66.5h297q131 0 189.5 -66t58.5 -177v-205l-213 -45v299h-359v-1075h359v335l213 -43v-243q0 -111 -58.5 -177.5t-189.5 -66.5h-297q-131 0 -190.5 66.5t-59.5 177.5zM434 1612v96q0 53 43 53h111q43 0 43 -53v-96q0 -25 -11 -40.5
t-32 -15.5h-111q-21 0 -32 15.5t-11 40.5z" />
    <glyph glyph-name="Ccaron" unicode="&#x10c;" horiz-adv-x="1015" 
d="M129 244v977q0 110 59.5 176.5t190.5 66.5h297q131 0 189.5 -66t58.5 -177v-205l-213 -45v299h-359v-1075h359v335l213 -43v-243q0 -111 -58.5 -177.5t-189.5 -66.5h-297q-131 0 -190.5 66.5t-59.5 177.5zM662 1798h118l-155 -250h-187l-155 250h123l129 -123z" />
    <glyph glyph-name="ccaron" unicode="&#x10d;" horiz-adv-x="1015" 
d="M129 244v977q0 110 59.5 176.5t190.5 66.5h297q131 0 189.5 -66t58.5 -177v-205l-213 -45v299h-359v-1075h359v335l213 -43v-243q0 -111 -58.5 -177.5t-189.5 -66.5h-297q-131 0 -190.5 66.5t-59.5 177.5zM662 1798h118l-155 -250h-187l-155 250h123l129 -123z" />
    <glyph glyph-name="Dcaron" unicode="&#x10e;" horiz-adv-x="1058" 
d="M969 977v-490q0 -126 -33.5 -221.5t-93 -152.5t-136 -85t-169.5 -28h-398v1464h398q93 0 169.5 -28t136 -85t93 -152.5t33.5 -221.5zM537 1270h-177v-1075h177q48 0 85.5 17t60.5 43.5t38 62.5t21 70.5t6 70.5v547q0 36 -6 70.5t-21 70.5t-38 62.5t-60.5 43.5t-85.5 17z
M655 1798h119l-156 -250h-186l-156 250h123l129 -123z" />
    <glyph glyph-name="dcaron" unicode="&#x10f;" horiz-adv-x="1058" 
d="M969 977v-490q0 -126 -33.5 -221.5t-93 -152.5t-136 -85t-169.5 -28h-398v1464h398q93 0 169.5 -28t136 -85t93 -152.5t33.5 -221.5zM537 1270h-177v-1075h177q48 0 85.5 17t60.5 43.5t38 62.5t21 70.5t6 70.5v547q0 36 -6 70.5t-21 70.5t-38 62.5t-60.5 43.5t-85.5 17z
M655 1798h119l-156 -250h-186l-156 250h123l129 -123z" />
    <glyph glyph-name="Dcroat" unicode="&#x110;" horiz-adv-x="1077" 
d="M43 659v181h115v624h399q92 0 168 -28t135.5 -85t93 -152.5t33.5 -221.5v-490q0 -126 -33.5 -221.5t-93 -152.5t-135.5 -85t-168 -28h-399v659h-115zM569 659h-188v-464h174q60 0 103.5 25t65.5 66t32 84t10 89v547q0 46 -10 89t-32 84t-65.5 66t-103.5 25h-174v-430h188
v-181z" />
    <glyph glyph-name="dcroat" unicode="&#x111;" horiz-adv-x="1077" 
d="M43 659v181h115v624h399q92 0 168 -28t135.5 -85t93 -152.5t33.5 -221.5v-490q0 -126 -33.5 -221.5t-93 -152.5t-135.5 -85t-168 -28h-399v659h-115zM569 659h-188v-464h174q60 0 103.5 25t65.5 66t32 84t10 89v547q0 46 -10 89t-32 84t-65.5 66t-103.5 25h-174v-430h188
v-181z" />
    <glyph glyph-name="Emacron" unicode="&#x112;" 
d="M862 0h-723v1464h699v-194h-478v-430h295v-201h-295v-444h502v-195zM700 1565h-421v149h421v-149z" />
    <glyph glyph-name="emacron" unicode="&#x113;" 
d="M862 0h-723v1464h699v-194h-478v-430h295v-201h-295v-444h502v-195zM700 1565h-421v149h421v-149z" />
    <glyph glyph-name="Ebreve" unicode="&#x114;" 
d="M862 0h-723v1464h699v-194h-478v-430h295v-201h-295v-444h502v-195zM578 1798h124v-78q0 -95 -62.5 -144.5t-150.5 -49.5q-86 0 -149.5 49.5t-63.5 144.5v78h125v-53q0 -98 88 -98q89 0 89 98v53z" />
    <glyph glyph-name="ebreve" unicode="&#x115;" 
d="M862 0h-723v1464h699v-194h-478v-430h295v-201h-295v-444h502v-195zM578 1798h124v-78q0 -95 -62.5 -144.5t-150.5 -49.5q-86 0 -149.5 49.5t-63.5 144.5v78h125v-53q0 -98 88 -98q89 0 89 98v53z" />
    <glyph glyph-name="Edotaccent" unicode="&#x116;" 
d="M862 0h-723v1464h699v-194h-478v-430h295v-201h-295v-444h502v-195zM391 1612v96q0 53 43 53h111q43 0 43 -53v-96q0 -25 -11 -40.5t-32 -15.5h-111q-21 0 -32 15.5t-11 40.5z" />
    <glyph glyph-name="edotaccent" unicode="&#x117;" 
d="M862 0h-723v1464h699v-194h-478v-430h295v-201h-295v-444h502v-195zM391 1612v96q0 53 43 53h111q43 0 43 -53v-96q0 -25 -11 -40.5t-32 -15.5h-111q-21 0 -32 15.5t-11 40.5z" />
    <glyph glyph-name="Eogonek" unicode="&#x118;" 
d="M862 -195v-114q-16 -14 -56.5 -27.5t-98.5 -13.5q-53 0 -97 12.5t-77 47t-33 85.5q0 99 147 205h-508v1464h699v-194h-478v-430h295v-201h-295v-444h502v-195h-82q-110 -104 -110 -166q0 -35 21 -50t50 -15q75 0 121 36z" />
    <glyph glyph-name="eogonek" unicode="&#x119;" 
d="M862 -195v-114q-16 -14 -56.5 -27.5t-98.5 -13.5q-53 0 -97 12.5t-77 47t-33 85.5q0 99 147 205h-508v1464h699v-194h-478v-430h295v-201h-295v-444h502v-195h-82q-110 -104 -110 -166q0 -35 21 -50t50 -15q75 0 121 36z" />
    <glyph glyph-name="Ecaron" unicode="&#x11a;" 
d="M862 0h-723v1464h699v-194h-478v-430h295v-201h-295v-444h502v-195zM618 1798h119l-155 -250h-187l-155 250h122l130 -123z" />
    <glyph glyph-name="ecaron" unicode="&#x11b;" 
d="M862 0h-723v1464h699v-194h-478v-430h295v-201h-295v-444h502v-195zM618 1798h119l-155 -250h-187l-155 250h122l130 -123z" />
    <glyph glyph-name="Gcircumflex" unicode="&#x11c;" horiz-adv-x="1097" 
d="M772 612h-215v195h428v-563q0 -111 -57.5 -177.5t-188.5 -66.5h-360q-131 0 -190.5 66.5t-59.5 177.5v977q0 110 59.5 176.5t190.5 66.5h360q131 0 188.5 -66t57.5 -177v-144l-213 -43v236h-420v-1075h420v417zM807 1548h-119l-127 125l-129 -125h-123l156 250h186z" />
    <glyph glyph-name="gcircumflex" unicode="&#x11d;" horiz-adv-x="1097" 
d="M772 612h-215v195h428v-563q0 -111 -57.5 -177.5t-188.5 -66.5h-360q-131 0 -190.5 66.5t-59.5 177.5v977q0 110 59.5 176.5t190.5 66.5h360q131 0 188.5 -66t57.5 -177v-144l-213 -43v236h-420v-1075h420v417zM807 1548h-119l-127 125l-129 -125h-123l156 250h186z" />
    <glyph glyph-name="Gbreve" unicode="&#x11e;" horiz-adv-x="1097" 
d="M772 612h-215v195h428v-563q0 -111 -57.5 -177.5t-188.5 -66.5h-360q-131 0 -190.5 66.5t-59.5 177.5v977q0 110 59.5 176.5t190.5 66.5h360q131 0 188.5 -66t57.5 -177v-144l-213 -43v236h-420v-1075h420v417zM647 1798h125v-78q0 -95 -62.5 -144.5t-150.5 -49.5
q-86 0 -149.5 49.5t-63.5 144.5v78h125v-53q0 -98 88 -98t88 98v53z" />
    <glyph glyph-name="gbreve" unicode="&#x11f;" horiz-adv-x="1097" 
d="M772 612h-215v195h428v-563q0 -111 -57.5 -177.5t-188.5 -66.5h-360q-131 0 -190.5 66.5t-59.5 177.5v977q0 110 59.5 176.5t190.5 66.5h360q131 0 188.5 -66t57.5 -177v-144l-213 -43v236h-420v-1075h420v417zM647 1798h125v-78q0 -95 -62.5 -144.5t-150.5 -49.5
q-86 0 -149.5 49.5t-63.5 144.5v78h125v-53q0 -98 88 -98t88 98v53z" />
    <glyph glyph-name="Gdotaccent" unicode="&#x120;" horiz-adv-x="1097" 
d="M772 612h-215v195h428v-563q0 -111 -57.5 -177.5t-188.5 -66.5h-360q-131 0 -190.5 66.5t-59.5 177.5v977q0 110 59.5 176.5t190.5 66.5h360q131 0 188.5 -66t57.5 -177v-144l-213 -43v236h-420v-1075h420v417zM461 1612v96q0 53 43 53h110q43 0 43 -53v-96
q0 -25 -11 -40.5t-32 -15.5h-110q-21 0 -32 15.5t-11 40.5z" />
    <glyph glyph-name="gdotaccent" unicode="&#x121;" horiz-adv-x="1097" 
d="M772 612h-215v195h428v-563q0 -111 -57.5 -177.5t-188.5 -66.5h-360q-131 0 -190.5 66.5t-59.5 177.5v977q0 110 59.5 176.5t190.5 66.5h360q131 0 188.5 -66t57.5 -177v-144l-213 -43v236h-420v-1075h420v417zM461 1612v96q0 53 43 53h110q43 0 43 -53v-96
q0 -25 -11 -40.5t-32 -15.5h-110q-21 0 -32 15.5t-11 40.5z" />
    <glyph glyph-name="uni0122" unicode="&#x122;" horiz-adv-x="1097" 
d="M772 612h-215v195h428v-563q0 -111 -57.5 -177.5t-188.5 -66.5h-360q-131 0 -190.5 66.5t-59.5 177.5v977q0 110 59.5 176.5t190.5 66.5h360q131 0 188.5 -66t57.5 -177v-144l-213 -43v236h-420v-1075h420v417zM469 -342h-147l147 252h244z" />
    <glyph glyph-name="uni0123" unicode="&#x123;" horiz-adv-x="1097" 
d="M772 612h-215v195h428v-563q0 -111 -57.5 -177.5t-188.5 -66.5h-360q-131 0 -190.5 66.5t-59.5 177.5v977q0 110 59.5 176.5t190.5 66.5h360q131 0 188.5 -66t57.5 -177v-144l-213 -43v236h-420v-1075h420v417zM469 -342h-147l147 252h244z" />
    <glyph glyph-name="Hcircumflex" unicode="&#x124;" horiz-adv-x="1126" 
d="M360 840h404v624h223v-1464h-223v649h-404v-649h-221v1464h221v-624zM809 1548h-119l-127 125l-129 -125h-123l156 250h186z" />
    <glyph glyph-name="hcircumflex" unicode="&#x125;" horiz-adv-x="1126" 
d="M360 840h404v624h223v-1464h-223v649h-404v-649h-221v1464h221v-624zM809 1548h-119l-127 125l-129 -125h-123l156 250h186z" />
    <glyph glyph-name="Hbar" unicode="&#x126;" horiz-adv-x="1167" 
d="M45 1247h115v217h221v-217h403v217h224v-217h114v-180h-114v-1067h-224v639h-403v-639h-221v1067h-115v180zM381 831h403v236h-403v-236z" />
    <glyph glyph-name="hbar" unicode="&#x127;" horiz-adv-x="1167" 
d="M45 1247h115v217h221v-217h403v217h224v-217h114v-180h-114v-1067h-224v639h-403v-639h-221v1067h-115v180zM381 831h403v236h-403v-236z" />
    <glyph glyph-name="Itilde" unicode="&#x128;" horiz-adv-x="499" 
d="M360 1464v-1464h-221v1464h221zM-29 1552q0 133 44 193.5t114 60.5q66 0 137 -59q6 -4 22 -17t22.5 -17.5t18.5 -9.5t23 -5q56 0 56 100h110q0 -132 -45 -194t-115 -62q-57 0 -125 53q-5 4 -23.5 19t-26 20t-20.5 11t-24 6q-57 0 -57 -99h-111z" />
    <glyph glyph-name="itilde" unicode="&#x129;" horiz-adv-x="499" 
d="M360 1464v-1464h-221v1464h221zM-29 1552q0 133 44 193.5t114 60.5q66 0 137 -59q6 -4 22 -17t22.5 -17.5t18.5 -9.5t23 -5q56 0 56 100h110q0 -132 -45 -194t-115 -62q-57 0 -125 53q-5 4 -23.5 19t-26 20t-20.5 11t-24 6q-57 0 -57 -99h-111z" />
    <glyph glyph-name="Imacron" unicode="&#x12a;" horiz-adv-x="499" 
d="M360 1464v-1464h-221v1464h221zM461 1565h-422v149h422v-149z" />
    <glyph glyph-name="imacron" unicode="&#x12b;" horiz-adv-x="499" 
d="M360 1464v-1464h-221v1464h221zM461 1565h-422v149h422v-149z" />
    <glyph glyph-name="Ibreve" unicode="&#x12c;" horiz-adv-x="499" 
d="M360 1464v-1464h-221v1464h221zM338 1798h125v-78q0 -95 -62.5 -144.5t-150.5 -49.5q-86 0 -149.5 49.5t-63.5 144.5v78h125v-53q0 -98 88 -98t88 98v53z" />
    <glyph glyph-name="ibreve" unicode="&#x12d;" horiz-adv-x="499" 
d="M360 1464v-1464h-221v1464h221zM338 1798h125v-78q0 -95 -62.5 -144.5t-150.5 -49.5q-86 0 -149.5 49.5t-63.5 144.5v78h125v-53q0 -98 88 -98t88 98v53z" />
    <glyph glyph-name="Iogonek" unicode="&#x12e;" horiz-adv-x="499" 
d="M401 -195v-114q-16 -14 -56.5 -27.5t-98.5 -13.5q-53 0 -97 12.5t-77 47t-33 85.5q0 99 147 205h-47v1464h221v-1464h-41q-110 -104 -110 -166q0 -35 21 -50t51 -15q74 0 120 36z" />
    <glyph glyph-name="iogonek" unicode="&#x12f;" horiz-adv-x="499" 
d="M401 -195v-114q-16 -14 -56.5 -27.5t-98.5 -13.5q-53 0 -97 12.5t-77 47t-33 85.5q0 99 147 205h-47v1464h221v-1464h-41q-110 -104 -110 -166q0 -35 21 -50t51 -15q74 0 120 36z" />
    <glyph glyph-name="Idotaccent" unicode="&#x130;" horiz-adv-x="499" 
d="M360 1464v-1464h-221v1464h221zM139 1612v96q0 53 43 53h135q43 0 43 -53v-96q0 -25 -11 -40.5t-32 -15.5h-135q-21 0 -32 15.5t-11 40.5z" />
    <glyph glyph-name="dotlessi" unicode="&#x131;" horiz-adv-x="499" 
d="M360 1464v-1464h-221v1464h221z" />
    <glyph glyph-name="IJ" unicode="&#x132;" horiz-adv-x="1357" 
d="M360 1464v-1464h-221v1464h221zM977 0h-189q-131 0 -190 66.5t-59 177.5v233l215 41v-323h247v1269h224v-1220q0 -111 -58.5 -177.5t-189.5 -66.5z" />
    <glyph glyph-name="ij" unicode="&#x133;" horiz-adv-x="1357" 
d="M360 1464v-1464h-221v1464h221zM977 0h-189q-131 0 -190 66.5t-59 177.5v233l215 41v-323h247v1269h224v-1220q0 -111 -58.5 -177.5t-189.5 -66.5z" />
    <glyph glyph-name="Jcircumflex" unicode="&#x134;" horiz-adv-x="858" 
d="M477 0h-188q-131 0 -190.5 66.5t-59.5 177.5v233l215 41v-323h248v1269h223v-1220q0 -111 -58.5 -177.5t-189.5 -66.5zM860 1548h-119l-127 125l-129 -125h-123l156 250h187z" />
    <glyph glyph-name="jcircumflex" unicode="&#x135;" horiz-adv-x="858" 
d="M477 0h-188q-131 0 -190.5 66.5t-59.5 177.5v233l215 41v-323h248v1269h223v-1220q0 -111 -58.5 -177.5t-189.5 -66.5zM860 1548h-119l-127 125l-129 -125h-123l156 250h187z" />
    <glyph glyph-name="uni0136" unicode="&#x136;" horiz-adv-x="991" 
d="M360 1464v-655h2l345 655h231l-371 -690l441 -774h-263l-383 692h-2v-692h-221v1464h221zM453 -342h-148l148 252h243z" />
    <glyph glyph-name="uni0137" unicode="&#x137;" horiz-adv-x="991" 
d="M360 1464v-655h2l345 655h231l-371 -690l441 -774h-263l-383 692h-2v-692h-221v1464h221zM453 -342h-148l148 252h243z" />
    <glyph glyph-name="kgreenlandic" unicode="&#x138;" horiz-adv-x="1161" 
d="M360 1464v-655h2l345 655h231l-371 -690l441 -774h-263l-383 692h-2v-692h-221v1464h221zM950 1464h199l-78 -440h-121v440z" />
    <glyph glyph-name="Lacute" unicode="&#x139;" horiz-adv-x="856" 
d="M829 0h-690v1464h221v-1269h469v-195zM264 1548h-147l145 250h244z" />
    <glyph glyph-name="lacute" unicode="&#x13a;" horiz-adv-x="856" 
d="M829 0h-690v1464h221v-1269h469v-195zM264 1548h-147l145 250h244z" />
    <glyph glyph-name="uni013B" unicode="&#x13b;" horiz-adv-x="856" 
d="M829 0h-690v1464h221v-1269h469v-195zM385 -342h-147l147 252h244z" />
    <glyph glyph-name="uni013C" unicode="&#x13c;" horiz-adv-x="856" 
d="M829 0h-690v1464h221v-1269h469v-195zM385 -342h-147l147 252h244z" />
    <glyph glyph-name="Lcaron" unicode="&#x13d;" horiz-adv-x="856" 
d="M829 0h-690v1464h221v-1269h469v-195zM606 1464h199l-78 -440h-121v440z" />
    <glyph glyph-name="lcaron" unicode="&#x13e;" horiz-adv-x="856" 
d="M829 0h-690v1464h221v-1269h469v-195zM606 1464h199l-78 -440h-121v440z" />
    <glyph glyph-name="Ldot" unicode="&#x13f;" horiz-adv-x="856" 
d="M571 694v101q0 24 11.5 38.5t31.5 14.5h138q43 0 43 -53v-101q0 -53 -43 -53h-138q-20 0 -31.5 14.5t-11.5 38.5zM829 0h-690v1464h221v-1269h469v-195z" />
    <glyph glyph-name="ldot" unicode="&#x140;" horiz-adv-x="856" 
d="M571 694v101q0 24 11.5 38.5t31.5 14.5h138q43 0 43 -53v-101q0 -53 -43 -53h-138q-20 0 -31.5 14.5t-11.5 38.5zM829 0h-690v1464h221v-1269h469v-195z" />
    <glyph glyph-name="Lslash" unicode="&#x141;" horiz-adv-x="876" 
d="M41 575v191l115 43v655h223v-569l252 98v-192l-252 -96v-510h467v-195h-690v618z" />
    <glyph glyph-name="lslash" unicode="&#x142;" horiz-adv-x="876" 
d="M41 575v191l115 43v655h223v-569l252 98v-192l-252 -96v-510h467v-195h-690v618z" />
    <glyph glyph-name="Nacute" unicode="&#x143;" horiz-adv-x="1116" 
d="M139 1464h176l449 -895h2v895h211v-1464h-154l-473 930h-2v-930h-209v1464zM573 1548h-147l145 250h244z" />
    <glyph glyph-name="nacute" unicode="&#x144;" horiz-adv-x="1116" 
d="M139 1464h176l449 -895h2v895h211v-1464h-154l-473 930h-2v-930h-209v1464zM573 1548h-147l145 250h244z" />
    <glyph glyph-name="uni0145" unicode="&#x145;" horiz-adv-x="1116" 
d="M139 1464h176l449 -895h2v895h211v-1464h-154l-473 930h-2v-930h-209v1464zM489 -342h-147l147 252h244z" />
    <glyph glyph-name="uni0146" unicode="&#x146;" horiz-adv-x="1116" 
d="M139 1464h176l449 -895h2v895h211v-1464h-154l-473 930h-2v-930h-209v1464zM489 -342h-147l147 252h244z" />
    <glyph glyph-name="Ncaron" unicode="&#x147;" horiz-adv-x="1116" 
d="M139 1464h176l449 -895h2v895h211v-1464h-154l-473 930h-2v-930h-209v1464zM688 1798h119l-156 -250h-186l-156 250h123l129 -123z" />
    <glyph glyph-name="ncaron" unicode="&#x148;" horiz-adv-x="1116" 
d="M139 1464h176l449 -895h2v895h211v-1464h-154l-473 930h-2v-930h-209v1464zM688 1798h119l-156 -250h-186l-156 250h123l129 -123z" />
    <glyph glyph-name="napostrophe" unicode="&#x149;" horiz-adv-x="1232" 
d="M256 1464h176l449 -895h2v895h211v-1464h-154l-473 930h-2v-930h-209v1464zM-2 1464h199l-78 -440h-121v440z" />
    <glyph glyph-name="Eng" unicode="&#x14a;" horiz-adv-x="1116" 
d="M621 -195v195h139v125q-68 136 -204.5 402.5t-205.5 402.5h-2v-930h-209v1464h176l449 -895h2v895h211v-1415q0 -109 -58.5 -176.5t-179.5 -67.5h-118z" />
    <glyph glyph-name="eng" unicode="&#x14b;" horiz-adv-x="1116" 
d="M621 -195v195h139v125q-68 136 -204.5 402.5t-205.5 402.5h-2v-930h-209v1464h176l449 -895h2v895h211v-1415q0 -109 -58.5 -176.5t-179.5 -67.5h-118z" />
    <glyph glyph-name="Omacron" unicode="&#x14c;" horiz-adv-x="1132" 
d="M1001 1221v-977q0 -111 -58 -177.5t-189 -66.5h-375q-131 0 -190.5 66.5t-59.5 177.5v977q0 110 59.5 176.5t190.5 66.5h375q131 0 189 -66t58 -177zM780 195v1075h-428v-1075h428zM774 1565h-422v149h422v-149z" />
    <glyph glyph-name="omacron" unicode="&#x14d;" horiz-adv-x="1132" 
d="M1001 1221v-977q0 -111 -58 -177.5t-189 -66.5h-375q-131 0 -190.5 66.5t-59.5 177.5v977q0 110 59.5 176.5t190.5 66.5h375q131 0 189 -66t58 -177zM780 195v1075h-428v-1075h428zM774 1565h-422v149h422v-149z" />
    <glyph glyph-name="Obreve" unicode="&#x14e;" horiz-adv-x="1132" 
d="M1001 1221v-977q0 -111 -58 -177.5t-189 -66.5h-375q-131 0 -190.5 66.5t-59.5 177.5v977q0 110 59.5 176.5t190.5 66.5h375q131 0 189 -66t58 -177zM780 195v1075h-428v-1075h428zM651 1798h125v-78q0 -95 -62.5 -144.5t-150.5 -49.5q-86 0 -149.5 49.5t-63.5 144.5v78
h125v-53q0 -98 88 -98t88 98v53z" />
    <glyph glyph-name="obreve" unicode="&#x14f;" horiz-adv-x="1132" 
d="M1001 1221v-977q0 -111 -58 -177.5t-189 -66.5h-375q-131 0 -190.5 66.5t-59.5 177.5v977q0 110 59.5 176.5t190.5 66.5h375q131 0 189 -66t58 -177zM780 195v1075h-428v-1075h428zM651 1798h125v-78q0 -95 -62.5 -144.5t-150.5 -49.5q-86 0 -149.5 49.5t-63.5 144.5v78
h125v-53q0 -98 88 -98t88 98v53z" />
    <glyph glyph-name="Ohungarumlaut" unicode="&#x150;" horiz-adv-x="1132" 
d="M1001 1221v-977q0 -111 -58 -177.5t-189 -66.5h-375q-131 0 -190.5 66.5t-59.5 177.5v977q0 110 59.5 176.5t190.5 66.5h375q131 0 189 -66t58 -177zM780 195v1075h-428v-1075h428zM455 1548h-150l117 250h182zM735 1548h-145l119 250h180z" />
    <glyph glyph-name="ohungarumlaut" unicode="&#x151;" horiz-adv-x="1132" 
d="M1001 1221v-977q0 -111 -58 -177.5t-189 -66.5h-375q-131 0 -190.5 66.5t-59.5 177.5v977q0 110 59.5 176.5t190.5 66.5h375q131 0 189 -66t58 -177zM780 195v1075h-428v-1075h428zM455 1548h-150l117 250h182zM735 1548h-145l119 250h180z" />
    <glyph glyph-name="OE" unicode="&#x152;" horiz-adv-x="1538" 
d="M1503 0h-1124q-131 0 -190.5 66.5t-59.5 177.5v977q0 110 59.5 176.5t190.5 66.5h1100v-194h-478v-430h295v-201h-295v-444h502v-195zM780 195v1075h-428v-1075h428z" />
    <glyph glyph-name="oe" unicode="&#x153;" horiz-adv-x="1538" 
d="M1503 0h-1124q-131 0 -190.5 66.5t-59.5 177.5v977q0 110 59.5 176.5t190.5 66.5h1100v-194h-478v-430h295v-201h-295v-444h502v-195zM780 195v1075h-428v-1075h428z" />
    <glyph glyph-name="Racute" unicode="&#x154;" horiz-adv-x="1042" 
d="M139 1464h543q131 0 190.5 -66.5t59.5 -176.5v-381q0 -110 -59.5 -176t-190.5 -66h-2l326 -598h-263l-305 598h-78v-598h-221v1464zM360 1270v-477h285q26 0 45 19.5t19 47.5v342q0 28 -19 48t-45 20h-285zM535 1548h-148l145 250h244z" />
    <glyph glyph-name="racute" unicode="&#x155;" horiz-adv-x="1042" 
d="M139 1464h543q131 0 190.5 -66.5t59.5 -176.5v-381q0 -110 -59.5 -176t-190.5 -66h-2l326 -598h-263l-305 598h-78v-598h-221v1464zM360 1270v-477h285q26 0 45 19.5t19 47.5v342q0 28 -19 48t-45 20h-285zM535 1548h-148l145 250h244z" />
    <glyph glyph-name="uni0156" unicode="&#x156;" horiz-adv-x="1042" 
d="M139 1464h543q131 0 190.5 -66.5t59.5 -176.5v-381q0 -110 -59.5 -176t-190.5 -66h-2l326 -598h-263l-305 598h-78v-598h-221v1464zM360 1270v-477h285q26 0 45 19.5t19 47.5v342q0 28 -19 48t-45 20h-285zM479 -342h-147l147 252h244z" />
    <glyph glyph-name="uni0157" unicode="&#x157;" horiz-adv-x="1042" 
d="M139 1464h543q131 0 190.5 -66.5t59.5 -176.5v-381q0 -110 -59.5 -176t-190.5 -66h-2l326 -598h-263l-305 598h-78v-598h-221v1464zM360 1270v-477h285q26 0 45 19.5t19 47.5v342q0 28 -19 48t-45 20h-285zM479 -342h-147l147 252h244z" />
    <glyph glyph-name="Rcaron" unicode="&#x158;" horiz-adv-x="1042" 
d="M139 1464h543q131 0 190.5 -66.5t59.5 -176.5v-381q0 -110 -59.5 -176t-190.5 -66h-2l326 -598h-263l-305 598h-78v-598h-221v1464zM360 1270v-477h285q26 0 45 19.5t19 47.5v342q0 28 -19 48t-45 20h-285zM649 1798h119l-156 -250h-186l-156 250h123l129 -123z" />
    <glyph glyph-name="rcaron" unicode="&#x159;" horiz-adv-x="1042" 
d="M139 1464h543q131 0 190.5 -66.5t59.5 -176.5v-381q0 -110 -59.5 -176t-190.5 -66h-2l326 -598h-263l-305 598h-78v-598h-221v1464zM360 1270v-477h285q26 0 45 19.5t19 47.5v342q0 28 -19 48t-45 20h-285zM649 1798h119l-156 -250h-186l-156 250h123l129 -123z" />
    <glyph glyph-name="Sacute" unicode="&#x15a;" horiz-adv-x="991" 
d="M334 1202v-254q0 -52 20.5 -72.5t73.5 -23.5l215 -8q248 -11 248 -246v-354q0 -111 -58.5 -177.5t-189.5 -66.5h-315q-131 0 -189.5 66.5t-58.5 177.5v147l213 45v-174q0 -28 19.5 -47.5t45.5 -19.5h246q26 0 45 19.5t19 47.5v283q0 52 -19 70.5t-74 21.5l-215 8
q-249 11 -249 244v332q0 111 59 177t190 66h275q131 0 189.5 -66t58.5 -177v-136l-217 -45v162q0 28 -18.5 48t-43.5 20h-207q-26 0 -44.5 -20t-18.5 -48zM514 1548h-147l145 250h244z" />
    <glyph glyph-name="sacute" unicode="&#x15b;" horiz-adv-x="991" 
d="M334 1202v-254q0 -52 20.5 -72.5t73.5 -23.5l215 -8q248 -11 248 -246v-354q0 -111 -58.5 -177.5t-189.5 -66.5h-315q-131 0 -189.5 66.5t-58.5 177.5v147l213 45v-174q0 -28 19.5 -47.5t45.5 -19.5h246q26 0 45 19.5t19 47.5v283q0 52 -19 70.5t-74 21.5l-215 8
q-249 11 -249 244v332q0 111 59 177t190 66h275q131 0 189.5 -66t58.5 -177v-136l-217 -45v162q0 28 -18.5 48t-43.5 20h-207q-26 0 -44.5 -20t-18.5 -48zM514 1548h-147l145 250h244z" />
    <glyph glyph-name="Scircumflex" unicode="&#x15c;" horiz-adv-x="991" 
d="M334 1202v-254q0 -52 20.5 -72.5t73.5 -23.5l215 -8q248 -11 248 -246v-354q0 -111 -58.5 -177.5t-189.5 -66.5h-315q-131 0 -189.5 66.5t-58.5 177.5v147l213 45v-174q0 -28 19.5 -47.5t45.5 -19.5h246q26 0 45 19.5t19 47.5v283q0 52 -19 70.5t-74 21.5l-215 8
q-249 11 -249 244v332q0 111 59 177t190 66h275q131 0 189.5 -66t58.5 -177v-136l-217 -45v162q0 28 -18.5 48t-43.5 20h-207q-26 0 -44.5 -20t-18.5 -48zM748 1548h-119l-127 125l-129 -125h-123l156 250h186z" />
    <glyph glyph-name="scircumflex" unicode="&#x15d;" horiz-adv-x="991" 
d="M334 1202v-254q0 -52 20.5 -72.5t73.5 -23.5l215 -8q248 -11 248 -246v-354q0 -111 -58.5 -177.5t-189.5 -66.5h-315q-131 0 -189.5 66.5t-58.5 177.5v147l213 45v-174q0 -28 19.5 -47.5t45.5 -19.5h246q26 0 45 19.5t19 47.5v283q0 52 -19 70.5t-74 21.5l-215 8
q-249 11 -249 244v332q0 111 59 177t190 66h275q131 0 189.5 -66t58.5 -177v-136l-217 -45v162q0 28 -18.5 48t-43.5 20h-207q-26 0 -44.5 -20t-18.5 -48zM748 1548h-119l-127 125l-129 -125h-123l156 250h186z" />
    <glyph glyph-name="uni015E" unicode="&#x15e;" horiz-adv-x="991" 
d="M334 1202v-254q0 -52 20.5 -72.5t73.5 -23.5l215 -8q248 -11 248 -246v-354q0 -111 -58.5 -177.5t-189.5 -66.5h-88l-18 -86q60 -7 100.5 -37t40.5 -88q0 -65 -61 -102t-185 -37q-77 0 -141 22v101q72 -23 135 -23q84 0 84 45t-70 45h-45l29 160h-96q-131 0 -189.5 66.5
t-58.5 177.5v147l213 45v-174q0 -28 19.5 -47.5t45.5 -19.5h246q26 0 45 19.5t19 47.5v283q0 52 -19 70.5t-74 21.5l-215 8q-249 11 -249 244v332q0 111 59 177t190 66h275q131 0 189.5 -66t58.5 -177v-136l-217 -45v162q0 28 -18.5 48t-43.5 20h-207q-26 0 -44.5 -20
t-18.5 -48z" />
    <glyph glyph-name="uni015F" unicode="&#x15f;" horiz-adv-x="991" 
d="M334 1202v-254q0 -52 20.5 -72.5t73.5 -23.5l215 -8q248 -11 248 -246v-354q0 -111 -58.5 -177.5t-189.5 -66.5h-88l-18 -86q60 -7 100.5 -37t40.5 -88q0 -65 -61 -102t-185 -37q-77 0 -141 22v101q72 -23 135 -23q84 0 84 45t-70 45h-45l29 160h-96q-131 0 -189.5 66.5
t-58.5 177.5v147l213 45v-174q0 -28 19.5 -47.5t45.5 -19.5h246q26 0 45 19.5t19 47.5v283q0 52 -19 70.5t-74 21.5l-215 8q-249 11 -249 244v332q0 111 59 177t190 66h275q131 0 189.5 -66t58.5 -177v-136l-217 -45v162q0 28 -18.5 48t-43.5 20h-207q-26 0 -44.5 -20
t-18.5 -48z" />
    <glyph glyph-name="Scaron" unicode="&#x160;" horiz-adv-x="991" 
d="M334 1202v-254q0 -52 20.5 -72.5t73.5 -23.5l215 -8q248 -11 248 -246v-354q0 -111 -58.5 -177.5t-189.5 -66.5h-315q-131 0 -189.5 66.5t-58.5 177.5v147l213 45v-174q0 -28 19.5 -47.5t45.5 -19.5h246q26 0 45 19.5t19 47.5v283q0 52 -19 70.5t-74 21.5l-215 8
q-249 11 -249 244v332q0 111 59 177t190 66h275q131 0 189.5 -66t58.5 -177v-136l-217 -45v162q0 28 -18.5 48t-43.5 20h-207q-26 0 -44.5 -20t-18.5 -48zM629 1798h119l-156 -250h-186l-156 250h123l129 -123z" />
    <glyph glyph-name="scaron" unicode="&#x161;" horiz-adv-x="991" 
d="M334 1202v-254q0 -52 20.5 -72.5t73.5 -23.5l215 -8q248 -11 248 -246v-354q0 -111 -58.5 -177.5t-189.5 -66.5h-315q-131 0 -189.5 66.5t-58.5 177.5v147l213 45v-174q0 -28 19.5 -47.5t45.5 -19.5h246q26 0 45 19.5t19 47.5v283q0 52 -19 70.5t-74 21.5l-215 8
q-249 11 -249 244v332q0 111 59 177t190 66h275q131 0 189.5 -66t58.5 -177v-136l-217 -45v162q0 28 -18.5 48t-43.5 20h-207q-26 0 -44.5 -20t-18.5 -48zM629 1798h119l-156 -250h-186l-156 250h123l129 -123z" />
    <glyph glyph-name="uni0162" unicode="&#x162;" horiz-adv-x="823" 
d="M16 1270v194h793v-194h-287v-1270h-43l-18 -86q60 -7 100.5 -37t40.5 -88q0 -65 -61 -102t-185 -37q-77 0 -141 22v101q72 -23 135 -23q84 0 84 45t-69 45h-46l29 160h-47v1270h-285z" />
    <glyph glyph-name="uni0163" unicode="&#x163;" horiz-adv-x="823" 
d="M16 1270v194h793v-194h-287v-1270h-43l-18 -86q60 -7 100.5 -37t40.5 -88q0 -65 -61 -102t-185 -37q-77 0 -141 22v101q72 -23 135 -23q84 0 84 45t-69 45h-46l29 160h-47v1270h-285z" />
    <glyph glyph-name="Tcaron" unicode="&#x164;" horiz-adv-x="823" 
d="M16 1270v194h793v-194h-287v-1270h-221v1270h-285zM539 1798h118l-155 -250h-187l-155 250h123l129 -123z" />
    <glyph glyph-name="tcaron" unicode="&#x165;" horiz-adv-x="823" 
d="M16 1270v194h793v-194h-287v-1270h-221v1270h-285zM539 1798h118l-155 -250h-187l-155 250h123l129 -123z" />
    <glyph glyph-name="Tbar" unicode="&#x166;" horiz-adv-x="847" 
d="M127 659v181h186v430h-284v194h792v-194h-284v-430h186v-181h-186v-659h-224v659h-186z" />
    <glyph glyph-name="tbar" unicode="&#x167;" horiz-adv-x="847" 
d="M127 659v181h186v430h-284v194h792v-194h-284v-430h186v-181h-186v-659h-224v659h-186z" />
    <glyph glyph-name="Utilde" unicode="&#x168;" horiz-adv-x="1083" 
d="M133 1464h223v-1265h371v1265h223v-1220q0 -244 -245 -244h-324q-131 0 -189.5 66.5t-58.5 177.5v1220zM262 1552q0 133 44 193.5t114 60.5q66 0 137 -59q6 -4 22 -17t22.5 -17.5t18.5 -9.5t23 -5q55 0 55 100h111q0 -132 -45 -194t-115 -62q-57 0 -125 53q-5 4 -23.5 19
t-26 20t-20.5 11t-24 6q-57 0 -57 -99h-111z" />
    <glyph glyph-name="utilde" unicode="&#x169;" horiz-adv-x="1083" 
d="M133 1464h223v-1265h371v1265h223v-1220q0 -244 -245 -244h-324q-131 0 -189.5 66.5t-58.5 177.5v1220zM262 1552q0 133 44 193.5t114 60.5q66 0 137 -59q6 -4 22 -17t22.5 -17.5t18.5 -9.5t23 -5q55 0 55 100h111q0 -132 -45 -194t-115 -62q-57 0 -125 53q-5 4 -23.5 19
t-26 20t-20.5 11t-24 6q-57 0 -57 -99h-111z" />
    <glyph glyph-name="Umacron" unicode="&#x16a;" horiz-adv-x="1083" 
d="M133 1464h223v-1265h371v1265h223v-1220q0 -244 -245 -244h-324q-131 0 -189.5 66.5t-58.5 177.5v1220zM752 1565h-422v149h422v-149z" />
    <glyph glyph-name="umacron" unicode="&#x16b;" horiz-adv-x="1083" 
d="M133 1464h223v-1265h371v1265h223v-1220q0 -244 -245 -244h-324q-131 0 -189.5 66.5t-58.5 177.5v1220zM752 1565h-422v149h422v-149z" />
    <glyph glyph-name="Ubreve" unicode="&#x16c;" horiz-adv-x="1083" 
d="M133 1464h223v-1265h371v1265h223v-1220q0 -244 -245 -244h-324q-131 0 -189.5 66.5t-58.5 177.5v1220zM629 1798h125v-78q0 -95 -62.5 -144.5t-150.5 -49.5q-86 0 -149.5 49.5t-63.5 144.5v78h125v-53q0 -98 88 -98t88 98v53z" />
    <glyph glyph-name="ubreve" unicode="&#x16d;" horiz-adv-x="1083" 
d="M133 1464h223v-1265h371v1265h223v-1220q0 -244 -245 -244h-324q-131 0 -189.5 66.5t-58.5 177.5v1220zM629 1798h125v-78q0 -95 -62.5 -144.5t-150.5 -49.5q-86 0 -149.5 49.5t-63.5 144.5v78h125v-53q0 -98 88 -98t88 98v53z" />
    <glyph glyph-name="Uring" unicode="&#x16e;" horiz-adv-x="1083" 
d="M133 1464h223v-1265h371v1265h223v-1220q0 -244 -245 -244h-324q-131 0 -189.5 66.5t-58.5 177.5v1220zM743 1708q0 -76 -52.5 -129t-147.5 -53q-96 0 -150.5 53.5t-54.5 128.5q0 80 54.5 136.5t150.5 56.5q95 0 147.5 -56.5t52.5 -136.5zM631 1708q0 39 -24.5 68.5
t-63.5 29.5q-43 0 -68.5 -29.5t-25.5 -68.5q0 -35 25.5 -60.5t68.5 -25.5q39 0 63.5 26t24.5 60z" />
    <glyph glyph-name="uring" unicode="&#x16f;" horiz-adv-x="1083" 
d="M133 1464h223v-1265h371v1265h223v-1220q0 -244 -245 -244h-324q-131 0 -189.5 66.5t-58.5 177.5v1220zM743 1708q0 -76 -52.5 -129t-147.5 -53q-96 0 -150.5 53.5t-54.5 128.5q0 80 54.5 136.5t150.5 56.5q95 0 147.5 -56.5t52.5 -136.5zM631 1708q0 39 -24.5 68.5
t-63.5 29.5q-43 0 -68.5 -29.5t-25.5 -68.5q0 -35 25.5 -60.5t68.5 -25.5q39 0 63.5 26t24.5 60z" />
    <glyph glyph-name="Uhungarumlaut" unicode="&#x170;" horiz-adv-x="1083" 
d="M133 1464h223v-1265h371v1265h223v-1220q0 -244 -245 -244h-324q-131 0 -189.5 66.5t-58.5 177.5v1220zM432 1548h-149l116 250h183zM713 1548h-146l119 250h180z" />
    <glyph glyph-name="uhungarumlaut" unicode="&#x171;" horiz-adv-x="1083" 
d="M133 1464h223v-1265h371v1265h223v-1220q0 -244 -245 -244h-324q-131 0 -189.5 66.5t-58.5 177.5v1220zM432 1548h-149l116 250h183zM713 1548h-146l119 250h180z" />
    <glyph glyph-name="Uogonek" unicode="&#x172;" horiz-adv-x="1083" 
d="M709 -195v-114q-16 -13 -57 -27t-99 -14q-53 0 -97 12.5t-77 47t-33 85.5q0 99 148 205h-113q-131 0 -189.5 66.5t-58.5 177.5v1220h223v-1265h371v1265h223v-1220q0 -244 -245 -244h-78q-111 -105 -111 -166q0 -35 21 -50t51 -15q75 0 121 36z" />
    <glyph glyph-name="uogonek" unicode="&#x173;" horiz-adv-x="1083" 
d="M709 -195v-114q-16 -13 -57 -27t-99 -14q-53 0 -97 12.5t-77 47t-33 85.5q0 99 148 205h-113q-131 0 -189.5 66.5t-58.5 177.5v1220h223v-1265h371v1265h223v-1220q0 -244 -245 -244h-78q-111 -105 -111 -166q0 -35 21 -50t51 -15q75 0 121 36z" />
    <glyph glyph-name="Wcircumflex" unicode="&#x174;" horiz-adv-x="1257" 
d="M285 0l-250 1464h227l121 -932h2l147 932h203l150 -932h2l119 932h213l-252 -1464h-179l-161 1034h-2l-160 -1034h-180zM887 1548h-119l-127 125l-129 -125h-123l156 250h186z" />
    <glyph glyph-name="wcircumflex" unicode="&#x175;" horiz-adv-x="1257" 
d="M285 0l-250 1464h227l121 -932h2l147 932h203l150 -932h2l119 932h213l-252 -1464h-179l-161 1034h-2l-160 -1034h-180zM887 1548h-119l-127 125l-129 -125h-123l156 250h186z" />
    <glyph glyph-name="Ycircumflex" unicode="&#x176;" horiz-adv-x="942" 
d="M358 0v702l-348 762h248l219 -551l221 551h232l-348 -762v-702h-224zM725 1548h-119l-127 125l-129 -125h-123l156 250h186z" />
    <glyph glyph-name="ycircumflex" unicode="&#x177;" horiz-adv-x="942" 
d="M358 0v702l-348 762h248l219 -551l221 551h232l-348 -762v-702h-224zM725 1548h-119l-127 125l-129 -125h-123l156 250h186z" />
    <glyph glyph-name="Ydieresis" unicode="&#x178;" horiz-adv-x="942" 
d="M358 0v702l-348 762h248l219 -551l221 551h232l-348 -762v-702h-224zM227 1612v96q0 24 12 38.5t33 14.5h109q43 0 43 -53v-96q0 -25 -11 -40.5t-32 -15.5h-109q-21 0 -33 16t-12 40zM532 1612v96q0 53 43 53h109q43 0 43 -53v-96q0 -25 -11 -40.5t-32 -15.5h-109
q-21 0 -32 15.5t-11 40.5z" />
    <glyph glyph-name="Zacute" unicode="&#x179;" 
d="M827 1360l-510 -1165h510v-195h-784v106l508 1168h-457v190h733v-104zM469 1548h-147l145 250h244z" />
    <glyph glyph-name="zacute" unicode="&#x17a;" 
d="M827 1360l-510 -1165h510v-195h-784v106l508 1168h-457v190h733v-104zM469 1548h-147l145 250h244z" />
    <glyph glyph-name="Zdotaccent" unicode="&#x17b;" 
d="M827 1360l-510 -1165h510v-195h-784v106l508 1168h-457v190h733v-104zM356 1612v96q0 53 43 53h111q43 0 43 -53v-96q0 -25 -11 -40.5t-32 -15.5h-111q-21 0 -32 15.5t-11 40.5z" />
    <glyph glyph-name="zdotaccent" unicode="&#x17c;" 
d="M827 1360l-510 -1165h510v-195h-784v106l508 1168h-457v190h733v-104zM356 1612v96q0 53 43 53h111q43 0 43 -53v-96q0 -25 -11 -40.5t-32 -15.5h-111q-21 0 -32 15.5t-11 40.5z" />
    <glyph glyph-name="Zcaron" unicode="&#x17d;" 
d="M827 1360l-510 -1165h510v-195h-784v106l508 1168h-457v190h733v-104zM584 1798h118l-155 -250h-187l-155 250h123l129 -123z" />
    <glyph glyph-name="zcaron" unicode="&#x17e;" 
d="M827 1360l-510 -1165h510v-195h-784v106l508 1168h-457v190h733v-104zM584 1798h118l-155 -250h-187l-155 250h123l129 -123z" />
    <glyph glyph-name="uni018F" unicode="&#x18f;" horiz-adv-x="1097" 
d="M969 1221v-977q0 -111 -59.5 -177.5t-190.5 -66.5h-361q-131 0 -189 66.5t-58 177.5v563h634v463h-419v-236l-215 43v144q0 111 58 177t189 66h361q131 0 190.5 -66.5t59.5 -176.5zM326 612v-417h419v417h-419z" />
    <glyph glyph-name="uni0192" unicode="&#x192;" horiz-adv-x="884" 
d="M51 618v181h148v422q0 111 58 177t189 66h150q248 0 248 -243v-88l-213 -43v180h-209v-471h248v-181h-248v-819h-223v819h-148z" />
    <glyph glyph-name="Aringacute" unicode="&#x1fa;" horiz-adv-x="995" 
d="M700 1544q0 -48 -23 -89.5t-65 -65.5l369 -1389h-240l-75 330h-359l-78 -330h-213l365 1391q-42 24 -64 65t-22 88q0 80 54.5 136.5t150.5 56.5q95 0 147.5 -56.5t52.5 -136.5zM512 1804h-147l145 250h244zM588 1544q0 39 -24.5 68.5t-63.5 29.5q-43 0 -68.5 -29.5
t-25.5 -68.5q0 -35 25.5 -60.5t68.5 -25.5q39 0 63.5 26t24.5 60zM623 520l-131 584h-3l-137 -584h271z" />
    <glyph glyph-name="aringacute" unicode="&#x1fb;" horiz-adv-x="995" 
d="M700 1544q0 -48 -23 -89.5t-65 -65.5l369 -1389h-240l-75 330h-359l-78 -330h-213l365 1391q-42 24 -64 65t-22 88q0 80 54.5 136.5t150.5 56.5q95 0 147.5 -56.5t52.5 -136.5zM512 1804h-147l145 250h244zM588 1544q0 39 -24.5 68.5t-63.5 29.5q-43 0 -68.5 -29.5
t-25.5 -68.5q0 -35 25.5 -60.5t68.5 -25.5q39 0 63.5 26t24.5 60zM623 520l-131 584h-3l-137 -584h271z" />
    <glyph glyph-name="AEacute" unicode="&#x1fc;" horiz-adv-x="1441" 
d="M1407 0h-723v330h-317l-150 -330h-225l692 1464h698v-194h-477v-430h295v-201h-295v-444h502v-195zM453 520h231v504h-2zM985 1548h-147l145 250h244z" />
    <glyph glyph-name="aeacute" unicode="&#x1fd;" horiz-adv-x="1441" 
d="M1407 0h-723v330h-317l-150 -330h-225l692 1464h698v-194h-477v-430h295v-201h-295v-444h502v-195zM453 520h231v504h-2zM985 1548h-147l145 250h244z" />
    <glyph glyph-name="Oslashacute" unicode="&#x1fe;" horiz-adv-x="1132" 
d="M592 1548h-146l91 250h227zM362 -139h-165l55 162q-123 53 -123 221v977q0 110 59.5 176.5t190.5 66.5h340l49 140h168l-55 -162q120 -53 120 -221v-977q0 -111 -58 -177.5t-189 -66.5h-344zM780 195v925l-356 -925h356zM352 1270v-924l355 924h-355z" />
    <glyph glyph-name="oslashacute" unicode="&#x1ff;" horiz-adv-x="1132" 
d="M592 1548h-146l91 250h227zM362 -139h-165l55 162q-123 53 -123 221v977q0 110 59.5 176.5t190.5 66.5h340l49 140h168l-55 -162q120 -53 120 -221v-977q0 -111 -58 -177.5t-189 -66.5h-344zM780 195v925l-356 -925h356zM352 1270v-924l355 924h-355z" />
    <glyph glyph-name="uni0218" unicode="&#x218;" horiz-adv-x="991" 
d="M334 1202v-254q0 -52 20.5 -72.5t73.5 -23.5l215 -8q248 -11 248 -246v-354q0 -111 -58.5 -177.5t-189.5 -66.5h-315q-131 0 -189.5 66.5t-58.5 177.5v147l213 45v-174q0 -28 19.5 -47.5t45.5 -19.5h246q26 0 45 19.5t19 47.5v283q0 52 -19 70.5t-74 21.5l-215 8
q-249 11 -249 244v332q0 111 59 177t190 66h275q131 0 189.5 -66t58.5 -177v-136l-217 -45v162q0 28 -18.5 48t-43.5 20h-207q-26 0 -44.5 -20t-18.5 -48zM416 -342h-148l148 252h243z" />
    <glyph glyph-name="uni0219" unicode="&#x219;" horiz-adv-x="991" 
d="M334 1202v-254q0 -52 20.5 -72.5t73.5 -23.5l215 -8q248 -11 248 -246v-354q0 -111 -58.5 -177.5t-189.5 -66.5h-315q-131 0 -189.5 66.5t-58.5 177.5v147l213 45v-174q0 -28 19.5 -47.5t45.5 -19.5h246q26 0 45 19.5t19 47.5v283q0 52 -19 70.5t-74 21.5l-215 8
q-249 11 -249 244v332q0 111 59 177t190 66h275q131 0 189.5 -66t58.5 -177v-136l-217 -45v162q0 28 -18.5 48t-43.5 20h-207q-26 0 -44.5 -20t-18.5 -48zM416 -342h-148l148 252h243z" />
    <glyph glyph-name="uni021A" unicode="&#x21a;" horiz-adv-x="823" 
d="M16 1270v194h793v-194h-287v-1270h-221v1270h-285zM330 -342h-148l148 252h243z" />
    <glyph glyph-name="uni021B" unicode="&#x21b;" horiz-adv-x="823" 
d="M16 1270v194h793v-194h-287v-1270h-221v1270h-285zM330 -342h-148l148 252h243z" />
    <glyph glyph-name="uni0237" unicode="&#x237;" horiz-adv-x="858" 
d="M477 0h-188q-131 0 -190.5 66.5t-59.5 177.5v233l215 41v-323h248v1269h223v-1220q0 -111 -58.5 -177.5t-189.5 -66.5z" />
    <glyph glyph-name="h.superior" unicode="&#x2b0;" horiz-adv-x="847" 
d="M301 1044h246v420h192v-1026h-192v436h-246v-436h-192v1026h192v-420z" />
    <glyph glyph-name="r.superior" unicode="&#x2b3;" horiz-adv-x="792" 
d="M109 1464h417q91 0 132.5 -46.5t41.5 -123.5v-286q0 -159 -153 -170l205 -400h-222l-192 400h-37v-400h-192v1026zM301 1292v-280h162q17 0 31 14t14 33v186q0 19 -14 33t-31 14h-162z" />
    <glyph glyph-name="circumflex" unicode="&#x2c6;" horiz-adv-x="661" 
d="M578 1548h-119l-127 125l-129 -125h-123l156 250h186z" />
    <glyph glyph-name="caron" unicode="&#x2c7;" horiz-adv-x="661" 
d="M459 1798h119l-156 -250h-186l-156 250h123l129 -123z" />
    <glyph glyph-name="breve" unicode="&#x2d8;" horiz-adv-x="661" 
d="M418 1798h125v-78q0 -95 -62.5 -144.5t-150.5 -49.5q-86 0 -149.5 49.5t-63.5 144.5v78h125v-53q0 -98 88 -98t88 98v53z" />
    <glyph glyph-name="dotaccent" unicode="&#x2d9;" horiz-adv-x="661" 
d="M231 1612v96q0 53 43 53h111q43 0 43 -53v-96q0 -25 -11 -40.5t-32 -15.5h-111q-21 0 -32 15.5t-11 40.5z" />
    <glyph glyph-name="ring" unicode="&#x2da;" horiz-adv-x="661" 
d="M532 1708q0 -76 -52.5 -129t-147.5 -53q-96 0 -150.5 53.5t-54.5 128.5q0 80 54.5 136.5t150.5 56.5q95 0 147.5 -56.5t52.5 -136.5zM420 1708q0 39 -24.5 68.5t-63.5 29.5q-43 0 -68.5 -29.5t-25.5 -68.5q0 -35 25.5 -60.5t68.5 -25.5q39 0 63.5 26t24.5 60z" />
    <glyph glyph-name="ogonek" unicode="&#x2db;" horiz-adv-x="661" 
d="M498 -195v-114q-16 -13 -57 -27t-99 -14q-53 0 -97 12.5t-77 47t-33 85.5q0 104 168 219h129q-17 -15 -40.5 -38.5t-55 -67.5t-31.5 -74q0 -35 21 -50t51 -15q75 0 121 36z" />
    <glyph glyph-name="tilde" unicode="&#x2dc;" horiz-adv-x="661" 
d="M51 1552q0 133 44 193.5t114 60.5q66 0 137 -59q6 -4 22 -17t22.5 -17.5t18.5 -9.5t23 -5q55 0 55 100h111q0 -132 -45 -194t-115 -62q-57 0 -125 53q-5 4 -23.5 19t-26 20t-20.5 11t-24 6q-57 0 -57 -99h-111z" />
    <glyph glyph-name="hungarumlaut" unicode="&#x2dd;" horiz-adv-x="661" 
d="M221 1548h-149l116 250h183zM502 1548h-146l119 250h180z" />
    <glyph glyph-name="Delta" unicode="&#x394;" horiz-adv-x="999" 
d="M961 0h-924l311 1464h303zM461 1022l-168 -836h412l-168 836q-26 142 -31 203h-12q-15 -119 -33 -203z" />
    <glyph glyph-name="Delta" unicode="&#x2206;" horiz-adv-x="999" 
d="M961 0h-924l311 1464h303zM461 1022l-168 -836h412l-168 836q-26 142 -31 203h-12q-15 -119 -33 -203z" />
    <glyph glyph-name="Omega" unicode="&#x3a9;" horiz-adv-x="1095" 
d="M84 0v182h205v8q-53 24 -84.5 57t-49.5 92.5t-18 149.5v474q0 198 33.5 296t103.5 152q104 78 277 78q169 0 272 -76q70 -52 102.5 -152.5t32.5 -297.5v-474q0 -133 -35 -198.5t-114 -100.5v-8h205v-182h-400v176q75 22 97 80.5t22 206.5v543q0 123 -13.5 179t-49.5 81
q-47 30 -121 30q-80 0 -123 -32q-36 -26 -50 -84t-14 -174v-543q0 -147 23 -206t98 -81v-176h-399z" />
    <glyph glyph-name="Omega" unicode="&#x2126;" horiz-adv-x="1095" 
d="M84 0v182h205v8q-53 24 -84.5 57t-49.5 92.5t-18 149.5v474q0 198 33.5 296t103.5 152q104 78 277 78q169 0 272 -76q70 -52 102.5 -152.5t32.5 -297.5v-474q0 -133 -35 -198.5t-114 -100.5v-8h205v-182h-400v176q75 22 97 80.5t22 206.5v543q0 123 -13.5 179t-49.5 81
q-47 30 -121 30q-80 0 -123 -32q-36 -26 -50 -84t-14 -174v-543q0 -147 23 -206t98 -81v-176h-399z" />
    <glyph glyph-name="pi" unicode="&#x3c0;" horiz-adv-x="1132" 
d="M756 913h-273l-221 -913h-207l230 913h-179v170h1006v-170h-156l-186 -745q-14 -60 -14 -168h-207q0 95 14 150z" />
    <glyph glyph-name="uni04D9" unicode="&#x4d9;" horiz-adv-x="1097" 
d="M969 1221v-977q0 -111 -59.5 -177.5t-190.5 -66.5h-361q-131 0 -189 66.5t-58 177.5v563h634v463h-419v-236l-215 43v144q0 111 58 177t189 66h361q131 0 190.5 -66.5t59.5 -176.5zM326 612v-417h419v417h-419z" />
    <glyph glyph-name="Wgrave" unicode="&#x1e80;" horiz-adv-x="1257" 
d="M285 0l-250 1464h227l121 -932h2l147 932h203l150 -932h2l119 932h213l-252 -1464h-179l-161 1034h-2l-160 -1034h-180zM772 1548h-147l-242 250h246z" />
    <glyph glyph-name="wgrave" unicode="&#x1e81;" horiz-adv-x="1257" 
d="M285 0l-250 1464h227l121 -932h2l147 932h203l150 -932h2l119 932h213l-252 -1464h-179l-161 1034h-2l-160 -1034h-180zM772 1548h-147l-242 250h246z" />
    <glyph glyph-name="Wacute" unicode="&#x1e82;" horiz-adv-x="1257" 
d="M285 0l-250 1464h227l121 -932h2l147 932h203l150 -932h2l119 932h213l-252 -1464h-179l-161 1034h-2l-160 -1034h-180zM653 1548h-147l145 250h244z" />
    <glyph glyph-name="wacute" unicode="&#x1e83;" horiz-adv-x="1257" 
d="M285 0l-250 1464h227l121 -932h2l147 932h203l150 -932h2l119 932h213l-252 -1464h-179l-161 1034h-2l-160 -1034h-180zM653 1548h-147l145 250h244z" />
    <glyph glyph-name="Wdieresis" unicode="&#x1e84;" horiz-adv-x="1257" 
d="M285 0l-250 1464h227l121 -932h2l147 932h203l150 -932h2l119 932h213l-252 -1464h-179l-161 1034h-2l-160 -1034h-180zM387 1612v96q0 24 12 38.5t33 14.5h109q43 0 43 -53v-96q0 -25 -11 -40.5t-32 -15.5h-109q-21 0 -33 16t-12 40zM692 1612v96q0 53 43 53h109
q43 0 43 -53v-96q0 -25 -11 -40.5t-32 -15.5h-109q-21 0 -32 15.5t-11 40.5z" />
    <glyph glyph-name="wdieresis" unicode="&#x1e85;" horiz-adv-x="1257" 
d="M285 0l-250 1464h227l121 -932h2l147 932h203l150 -932h2l119 932h213l-252 -1464h-179l-161 1034h-2l-160 -1034h-180zM387 1612v96q0 24 12 38.5t33 14.5h109q43 0 43 -53v-96q0 -25 -11 -40.5t-32 -15.5h-109q-21 0 -33 16t-12 40zM692 1612v96q0 53 43 53h109
q43 0 43 -53v-96q0 -25 -11 -40.5t-32 -15.5h-109q-21 0 -32 15.5t-11 40.5z" />
    <glyph glyph-name="Ygrave" unicode="&#x1ef2;" horiz-adv-x="942" 
d="M358 0v702l-348 762h248l219 -551l221 551h232l-348 -762v-702h-224zM610 1548h-147l-242 250h246z" />
    <glyph glyph-name="ygrave" unicode="&#x1ef3;" horiz-adv-x="942" 
d="M358 0v702l-348 762h248l219 -551l221 551h232l-348 -762v-702h-224zM610 1548h-147l-242 250h246z" />
    <glyph glyph-name="uni2009" unicode="&#x2009;" horiz-adv-x="73" 
 />
    <glyph glyph-name="endash" unicode="&#x2013;" horiz-adv-x="989" 
d="M115 786h759v-184h-759v184z" />
    <glyph glyph-name="emdash" unicode="&#x2014;" horiz-adv-x="1427" 
d="M115 602v184h1198v-184h-1198z" />
    <glyph glyph-name="quoteleft" unicode="&#x2018;" horiz-adv-x="407" 
d="M78 1137l110 327h115l-74 -241h41q28 0 44 -20t16 -52v-121q0 -32 -16 -52t-44 -20h-135q-28 0 -42.5 20t-14.5 52v107z" />
    <glyph glyph-name="quoteright" unicode="&#x2019;" horiz-adv-x="399" 
d="M332 1286l-111 -328h-115l74 242h-43q-27 0 -42 20t-15 52v121q0 32 15 51.5t42 19.5h137q28 0 43 -19.5t15 -51.5v-107z" />
    <glyph glyph-name="quotesinglbase" unicode="&#x201a;" horiz-adv-x="407" 
d="M328 109l-111 -328h-115l74 242h-43q-27 0 -42 19.5t-15 51.5v121q0 32 15 52t42 20h137q28 0 43 -20t15 -52v-106z" />
    <glyph glyph-name="quotedblleft" unicode="&#x201c;" horiz-adv-x="747" 
d="M414 1137l110 327h117l-74 -241h41q28 0 43 -20t15 -52v-121q0 -32 -15 -52t-43 -20h-137q-28 0 -42.5 20t-14.5 52v107zM78 1137l110 327h115l-74 -241h41q28 0 44 -20t16 -52v-121q0 -32 -16 -52t-44 -20h-135q-28 0 -42.5 20t-14.5 52v107z" />
    <glyph glyph-name="quotedblright" unicode="&#x201d;" horiz-adv-x="737" 
d="M672 1286l-111 -328h-117l74 242h-41q-28 0 -43.5 20t-15.5 52v121q0 32 15.5 51.5t43.5 19.5h135q28 0 44 -19.5t16 -51.5v-107zM334 1286l-111 -328h-117l74 242h-41q-27 0 -42 20t-15 52v121q0 32 15 51.5t42 19.5h137q28 0 43 -19.5t15 -51.5v-107z" />
    <glyph glyph-name="quotedblbase" unicode="&#x201e;" horiz-adv-x="743" 
d="M666 109l-111 -328h-117l74 242h-41q-28 0 -43.5 19.5t-15.5 51.5v121q0 32 15.5 52t43.5 20h135q28 0 44 -20t16 -52v-106zM328 109l-111 -328h-117l74 242h-41q-27 0 -42 19.5t-15 51.5v121q0 32 15 52t42 20h137q28 0 43 -20t15 -52v-106z" />
    <glyph glyph-name="dagger" unicode="&#x2020;" horiz-adv-x="643" 
d="M53 987v191l189 -13l-4 299h170l-7 -299l189 13v-191l-189 17l7 -824h-170l4 824z" />
    <glyph glyph-name="daggerdbl" unicode="&#x2021;" horiz-adv-x="698" 
d="M82 987v191l186 -13l-4 299h168l-2 -299l186 13v-191l-186 17v-312l186 23v-191l-186 17l2 -361h-168l4 361l-186 -17v191l186 -23v312z" />
    <glyph glyph-name="bullet" unicode="&#x2022;" horiz-adv-x="710" 
d="M131 557v266q0 55 27 90t75 35h244q48 0 75.5 -35.5t27.5 -89.5v-266q0 -55 -27.5 -90t-75.5 -35h-244q-48 0 -75 34.5t-27 90.5z" />
    <glyph glyph-name="ellipsis" unicode="&#x2026;" horiz-adv-x="1427" 
d="M115 72v143q0 32 15.5 52t43.5 20h154q28 0 42.5 -20t14.5 -52v-143q0 -32 -14.5 -52t-42.5 -20h-154q-28 0 -43.5 20t-15.5 52zM580 72v143q0 32 14.5 52t42.5 20h154q28 0 43.5 -20t15.5 -52v-143q0 -32 -15.5 -52t-43.5 -20h-154q-28 0 -42.5 20t-14.5 52zM1040 72
v143q0 32 16 52t44 20h153q28 0 43 -20t15 -52v-143q0 -32 -15 -52t-43 -20h-153q-28 0 -44 20t-16 52z" />
    <glyph glyph-name="perthousand" unicode="&#x2030;" horiz-adv-x="2070" 
d="M430 674h-182q-92 0 -133 46.5t-41 123.5v450q0 77 41 123.5t133 46.5h182q91 0 132.5 -46.5t41.5 -123.5v-450q0 -77 -41.5 -123.5t-132.5 -46.5zM1208 0h-182q-92 0 -133 46.5t-41 123.5v451q0 77 41 123.5t133 46.5h182q91 0 132.5 -46.5t41.5 -123.5v-451
q0 -77 -41.5 -123.5t-132.5 -46.5zM1821 0h-181q-92 0 -133 46.5t-41 123.5v451q0 77 41 123.5t133 46.5h181q91 0 132.5 -46.5t41.5 -123.5v-451q0 -77 -41.5 -123.5t-132.5 -46.5zM410 0l471 1464h170l-473 -1464h-168zM422 1303h-164v-467h164v467zM1812 629h-163v-467
h163v467zM1198 629h-162v-467h162v467z" />
    <glyph glyph-name="guilsinglleft" unicode="&#x2039;" horiz-adv-x="518" 
d="M424 350h-158l-211 334v41l207 332h162l-162 -355z" />
    <glyph glyph-name="guilsinglright" unicode="&#x203a;" horiz-adv-x="518" 
d="M250 350h-156l158 352l-158 355h158l213 -332v-41z" />
    <glyph glyph-name="fraction" unicode="&#x2044;" horiz-adv-x="325" 
d="M-96 0l350 1464h170l-352 -1464h-168z" />
    <glyph glyph-name="zero.superior" unicode="&#x2070;" horiz-adv-x="774" 
d="M518 438h-262q-174 0 -174 170v686q0 170 174 170h262q91 0 132.5 -46.5t41.5 -123.5v-686q0 -77 -41.5 -123.5t-132.5 -46.5zM500 1292h-226v-682h226v682z" />
    <glyph glyph-name="i.superior" unicode="&#x2071;" horiz-adv-x="411" 
d="M301 1464v-1026h-192v1026h192z" />
    <glyph glyph-name="four.superior" unicode="&#x2074;" horiz-adv-x="722" 
d="M41 666v161l383 637h162v-637h78v-161h-78v-228h-178v228h-367zM219 827h189v326z" />
    <glyph glyph-name="five.superior" unicode="&#x2075;" horiz-adv-x="714" 
d="M264 1083h211q91 0 132.5 -46.5t41.5 -123.5v-305q0 -77 -41.5 -123.5t-132.5 -46.5h-239q-92 0 -133.5 46.5t-41.5 123.5v72q185 37 187 37v-111h211v303h-371v555h530l-28 -174h-326v-207z" />
    <glyph glyph-name="six.superior" unicode="&#x2076;" horiz-adv-x="737" 
d="M274 1296v-245h222q92 0 133 -46.5t41 -123.5v-273q0 -77 -41 -123.5t-133 -46.5h-240q-174 0 -174 170v686q0 170 174 170h229q91 0 131.5 -46.5t40.5 -123.5v-65l-186 -37v104h-197zM274 604h205v281h-205v-281z" />
    <glyph glyph-name="seven.superior" unicode="&#x2077;" horiz-adv-x="686" 
d="M649 1313l-235 -875h-213l237 852h-209v-194l-186 39v329h606v-151z" />
    <glyph glyph-name="eight.superior" unicode="&#x2078;" horiz-adv-x="751" 
d="M70 608v187q0 60 33.5 110t82.5 62v2q-43 14 -70.5 64.5t-27.5 121.5v139q0 77 41 123.5t133 46.5h223q92 0 133 -46.5t41 -123.5v-139q0 -71 -27.5 -121.5t-70.5 -64.5v-2q49 -12 83 -62t34 -110v-187q0 -77 -41 -123.5t-133 -46.5h-260q-92 0 -133 46.5t-41 123.5z
M426 879h-102q-27 0 -46.5 -21t-19.5 -49v-156q0 -19 13 -33t30 -14h145q18 0 32 14t14 33v156q0 28 -20 49t-46 21zM430 1303h-113q-19 0 -31 -14t-12 -34v-139q0 -28 18 -47.5t44 -19.5h76q26 0 44.5 19.5t18.5 47.5v139q0 21 -12.5 34.5t-32.5 13.5z" />
    <glyph glyph-name="nine.superior" unicode="&#x2079;" horiz-adv-x="739" 
d="M270 606h197v246h-223q-91 0 -131.5 46.5t-40.5 123.5v272q0 77 40.5 123.5t131.5 46.5h243q172 0 172 -170v-686q0 -170 -172 -170h-231q-92 0 -133 46.5t-41 123.5v66l188 39v-107zM467 1298h-203v-282h203v282z" />
    <glyph glyph-name="parenleft.superior" unicode="&#x207d;" horiz-adv-x="419" 
d="M371 297h-146q-64 83 -115 250t-51 358q0 189 49 353.5t117 263.5h146q0 -1 -22 -61t-32.5 -99t-27.5 -113t-25 -160t-8 -182q0 -97 8.5 -183t24 -154.5t28 -111.5t31.5 -95.5t23 -65.5z" />
    <glyph glyph-name="parenright.superior" unicode="&#x207e;" horiz-adv-x="419" 
d="M195 297h-146q1 4 28.5 84.5t41.5 133.5t29.5 163.5t15.5 228.5q0 98 -8.5 185t-24.5 158t-28 113t-31.5 96.5t-22.5 62.5h146q68 -101 115.5 -263t47.5 -354q0 -189 -50 -359.5t-113 -248.5z" />
    <glyph glyph-name="n.superior" unicode="&#x207f;" horiz-adv-x="841" 
d="M109 1464h163l275 -569v569h186v-1026h-147l-291 586v-586h-186v1026z" />
    <glyph glyph-name="zero.inferior" unicode="&#x2080;" horiz-adv-x="774" 
d="M518 -147h-262q-174 0 -174 170v686q0 170 174 170h262q91 0 132.5 -46.5t41.5 -123.5v-686q0 -77 -41.5 -123.5t-132.5 -46.5zM500 707h-226v-682h226v682z" />
    <glyph glyph-name="one.inferior" unicode="&#x2081;" horiz-adv-x="446" 
d="M150 668l-109 -25v137l264 99h35v-1026h-190v815z" />
    <glyph glyph-name="two.inferior" unicode="&#x2082;" horiz-adv-x="698" 
d="M612 709v-105q0 -51 -28 -98l-316 -479h199v131l178 -37v-98q0 -77 -40.5 -123.5t-131.5 -46.5h-426v122q0 47 25 78l352 527l-2 125h-162v-185l-186 37v152q0 77 41 123.5t133 46.5h192q91 0 131.5 -46.5t40.5 -123.5z" />
    <glyph glyph-name="three.inferior" unicode="&#x2083;" horiz-adv-x="722" 
d="M653 236v-213q0 -77 -41.5 -123.5t-132.5 -46.5h-248q-92 0 -133 46.5t-41 123.5v98l181 37v-138h174q20 0 33.5 13t13.5 35v174q0 23 -14 38t-35 15h-134v164h117q19 0 33 15t14 38v154q0 20 -13.5 33.5t-33.5 13.5h-141v-135l-182 36v95q0 77 41.5 123.5t132.5 46.5
h213q91 0 132.5 -46.5t41.5 -123.5v-138q0 -72 -30.5 -119.5t-74.5 -60.5v-2q57 -11 92 -53t35 -100z" />
    <glyph glyph-name="four.inferior" unicode="&#x2084;" horiz-adv-x="722" 
d="M41 80v162l383 637h162v-637h78v-162h-78v-227h-178v227h-367zM219 242h189v325z" />
    <glyph glyph-name="five.inferior" unicode="&#x2085;" horiz-adv-x="714" 
d="M264 498h211q91 0 132.5 -46.5t41.5 -123.5v-305q0 -77 -41.5 -123.5t-132.5 -46.5h-239q-92 0 -133.5 46.5t-41.5 123.5v71q185 37 187 37v-111h211v304h-371v555h530l-28 -174h-326v-207z" />
    <glyph glyph-name="six.inferior" unicode="&#x2086;" horiz-adv-x="737" 
d="M274 711v-246h222q92 0 133 -46.5t41 -123.5v-272q0 -77 -41 -123.5t-133 -46.5h-240q-174 0 -174 170v686q0 170 174 170h229q91 0 131.5 -46.5t40.5 -123.5v-66l-186 -37v105h-197zM274 18h205v281h-205v-281z" />
    <glyph glyph-name="seven.inferior" unicode="&#x2087;" horiz-adv-x="684" 
d="M649 727l-235 -874h-213l237 852h-209v-195l-186 39v330h606v-152z" />
    <glyph glyph-name="eight.inferior" unicode="&#x2088;" horiz-adv-x="751" 
d="M70 23v186q0 60 33.5 110t82.5 62v2q-43 14 -70.5 64.5t-27.5 121.5v140q0 77 41 123.5t133 46.5h223q92 0 133 -46.5t41 -123.5v-140q0 -71 -27.5 -121.5t-70.5 -64.5v-2q49 -12 83 -62t34 -110v-186q0 -77 -41 -123.5t-133 -46.5h-260q-92 0 -133 46.5t-41 123.5z
M426 293h-102q-27 0 -46.5 -21t-19.5 -49v-155q0 -19 13 -33.5t30 -14.5h145q17 0 31.5 14.5t14.5 33.5v155q0 28 -20 49t-46 21zM430 717h-113q-19 0 -31 -13.5t-12 -33.5v-140q0 -28 18 -47.5t44 -19.5h76q26 0 44.5 19.5t18.5 47.5v140q0 20 -12.5 33.5t-32.5 13.5z" />
    <glyph glyph-name="nine.inferior" unicode="&#x2089;" horiz-adv-x="741" 
d="M270 20h197v246h-223q-91 0 -131.5 46.5t-40.5 123.5v273q0 77 40.5 123.5t131.5 46.5h243q172 0 172 -170v-686q0 -170 -172 -170h-231q-92 0 -133 46.5t-41 123.5v65l188 39v-107zM467 713h-203v-283h203v283z" />
    <glyph glyph-name="colonmonetary" unicode="&#x20a1;" horiz-adv-x="927" 
d="M326 -203v244q-215 16 -215 244v895q0 225 215 241v209h104v-207h90v207h105v-209q114 -7 165.5 -72t51.5 -169v-150l-215 -43v242h-293v-993h293v284l215 -43v-192q0 -104 -51.5 -170t-165.5 -74v-244h-105v244h-90v-244h-104z" />
    <glyph glyph-name="franc" unicode="&#x20a3;" horiz-adv-x="868" 
d="M414 0h-221v262h-142v117h142v1085h620v-188h-399v-436h297v-201h-297v-260h225v-117h-225v-262z" />
    <glyph glyph-name="lira" unicode="&#x20a4;" horiz-adv-x="1001" 
d="M96 936h148v285q0 243 248 243h149q131 0 189.5 -66t58.5 -177v-88l-215 -43v180h-207v-334h229v-115h-229v-139h229v-115h-229v-352h244v195l215 -43v-103q0 -115 -63 -190.5t-152 -75.5q-52 0 -168 29l-140 34q-61 -61 -184 -61h-123v195h84q26 0 45 19.5t19 47.5v305
h-148v115h148v139h-148v115z" />
    <glyph glyph-name="peseta" unicode="&#x20a7;" horiz-adv-x="2314" 
d="M918 1221v-392q0 -241 -246 -241h-312v-588h-221v1464h533q131 0 188.5 -66t57.5 -177zM631 1270h-271v-488h271q26 0 45.5 20t19.5 48v352q0 28 -19.5 48t-45.5 20zM1012 1292v172h553v-172h-181v-854h-190v854h-182zM1915 1055l151 -8q172 -10 172 -175v-264
q0 -170 -172 -170h-262q-92 0 -133 46.5t-41 123.5v105l187 39v-95q0 -20 12.5 -33.5t30.5 -13.5h143q19 0 32 13.5t13 33.5v142q0 39 -14 51t-54 14l-149 10q-174 11 -174 170v250q0 77 41 123.5t133 46.5h225q176 0 176 -170v-94l-188 -39v84q0 19 -13 33t-30 14h-107
q-20 0 -32.5 -14t-12.5 -33v-121q0 -40 14 -53t52 -16z" />
    <glyph glyph-name="Euro" unicode="&#x20ac;" horiz-adv-x="999" 
d="M72 936h141v285q0 111 58.5 177t189.5 66h203q131 0 189 -66t58 -177v-88l-215 -43v180h-262v-334h285v-115h-285v-139h285v-115h-285v-372h262v243l215 -43v-151q0 -111 -58 -177.5t-189 -66.5h-203q-130 0 -189 67t-59 177v323h-141v115h141v139h-141v115z" />
    <glyph glyph-name="uni20B1" unicode="&#x20b1;" horiz-adv-x="1005" 
d="M848 1221v-134h106v-116h-106v-142q0 -110 -58.5 -175.5t-189.5 -65.5h-186v-588h-221v971h-142v116h142v377h407q131 0 189.5 -66t58.5 -177zM563 782q25 0 43.5 20t18.5 48v121h-211v-189h149zM563 1270h-149v-183h211v115q0 28 -18.5 48t-43.5 20z" />
    <glyph glyph-name="uni20B9" unicode="&#x20b9;" horiz-adv-x="899" 
d="M362 1270h-260v194h711v-182h-160q54 -63 54 -164v-31h106v-116h-106v-144q0 -110 -57.5 -175t-186.5 -66l317 -586h-264l-301 586h-113v194h318q26 0 44.5 20t18.5 48v123h-381v116h381v54q0 59 -33 94t-88 35z" />
    <glyph glyph-name="uni20BA" unicode="&#x20ba;" horiz-adv-x="966" 
d="M72 846l141 53v565h221v-479l279 109v-123l-279 -107v-139l279 109v-123l-279 -107v-409h262v346l215 -43v-254q0 -111 -58 -177.5t-189 -66.5h-451v518l-141 -53v121l141 53v139l-141 -53v121z" />
    <glyph glyph-name="uni20BD" unicode="&#x20bd;" horiz-adv-x="962" 
d="M881 1221v-365q0 -111 -58.5 -176.5t-189.5 -65.5h-184v-235h223v-117h-223v-262h-222v262h-143v117h143v235h-143v195h143v655h406q131 0 189.5 -66t58.5 -177zM594 1270h-145v-461h145q26 0 44.5 20t18.5 48v325q0 28 -18.5 48t-44.5 20z" />
    <glyph glyph-name="uni2113" unicode="&#x2113;" horiz-adv-x="845" 
d="M750 225v-162q-104 -86 -279 -86q-289 0 -289 271v98l-131 -100v198l131 105v565q0 375 303 375q133 0 214 -85t81 -271q0 -183 -87.5 -331.5t-291.5 -305.5v-211q0 -68 27.5 -96.5t87.5 -28.5q117 0 234 65zM401 688q106 97 147.5 197.5t41.5 234.5q0 110 -24 158.5
t-72 48.5q-45 0 -69 -43.5t-24 -150.5v-445z" />
    <glyph glyph-name="uni2117" unicode="&#x2117;" horiz-adv-x="1740" 
d="M63 711q0 186 59.5 352t164 288t256 193.5t327.5 71.5q177 0 328.5 -71.5t256 -193.5t163.5 -288t59 -352t-59 -352t-163.5 -288.5t-256.5 -194t-328 -71.5t-327.5 71.5t-256 194t-164 288.5t-59.5 352zM231 711q0 -158 47.5 -298.5t130.5 -243.5t203 -163.5t258 -60.5
q139 0 259 60.5t202.5 163.5t129 243.5t46.5 298.5q0 157 -46.5 297.5t-129 244t-202.5 164t-259 60.5q-184 0 -331.5 -103.5t-227.5 -278t-80 -384.5zM1270 1067v-254q0 -217 -221 -217h-234v-465h-199v1155h433q221 0 221 -219zM1012 1112h-197v-342h197q23 0 41 18t18 43
v220q0 25 -18 43t-41 18z" />
    <glyph glyph-name="uni2120" unicode="&#x2120;" horiz-adv-x="1034" 
d="M825 879v305q0 53 2 71h-4l-16 -71l-70 -305h-78l-69 305l-17 71h-4q4 -36 4 -71v-305h-100v585h150l63 -284l12 -72h4l15 72l63 284h152v-585h-107zM72 1059l106 6q6 -92 68 -92q49 0 49 45q0 42 -64 88l-65 51q-86 69 -82 162q1 75 47.5 115.5t120.5 40.5t116.5 -46.5
t45.5 -128.5l-105 -10q-7 80 -57 80q-47 0 -47 -47q0 -22 12 -37t43 -37l66 -55q94 -76 94 -172q0 -72 -48 -114t-124 -40q-81 1 -126 51t-50 140z" />
    <glyph glyph-name="trademark" unicode="&#x2122;" horiz-adv-x="999" 
d="M791 879v305q0 53 2 71h-5l-16 -71l-70 -305h-77l-70 305l-16 71h-4q4 -36 4 -71v-305h-101v585h150l63 -284l13 -72h4l14 72l63 284h152v-585h-106zM383 1366h-102v-487h-117v487h-105v98h324v-98z" />
    <glyph glyph-name="estimated" unicode="&#x212e;" horiz-adv-x="1744" 
d="M1610 340q-138 -186 -325.5 -278.5t-393.5 -92.5q-163 0 -314.5 57t-265.5 156t-181.5 242.5t-66.5 306.5q0 168 71.5 313t188 240.5t263.5 150t301 54.5q128 0 249.5 -37.5t223 -109.5t178 -170t119 -226t41.5 -270h-1264q-5 0 -10.5 -6.5t-5.5 -14.5v-274q0 -46 16 -70
q55 -98 191 -160.5t274 -62.5q132 0 264 64.5t223 187.5h224zM438 805h885q20 0 20 18v273q0 30 -14 51q-51 84 -175.5 152.5t-270.5 68.5q-158 0 -286 -73t-165 -148q-14 -27 -14 -51v-273q0 -18 20 -18z" />
    <glyph glyph-name="onethird" unicode="&#x2153;" horiz-adv-x="1503" 
d="M150 1253l-109 -24v137l264 98h35v-1026h-190v815zM358 0l351 1464h170l-353 -1464h-168zM1434 383v-213q0 -77 -41.5 -123.5t-132.5 -46.5h-248q-92 0 -133 46.5t-41 123.5v98l180 37v-137h174q21 0 34 13t13 34v174q0 23 -14 38t-35 15h-133v164h117q19 0 33 15t14 38
v154q0 20 -13.5 33.5t-33.5 13.5h-142v-135l-182 37v94q0 77 41.5 123.5t132.5 46.5h213q91 0 132.5 -46.5t41.5 -123.5v-137q0 -73 -30 -120t-74 -60v-2q57 -10 92 -52.5t35 -101.5z" />
    <glyph glyph-name="twothirds" unicode="&#x2154;" horiz-adv-x="1748" 
d="M612 1294v-104q0 -51 -28 -98l-316 -480h199v131l178 -36v-99q0 -77 -40.5 -123.5t-131.5 -46.5h-426v123q0 47 25 78l352 526l-2 125h-162v-184l-186 37v151q0 77 41 123.5t133 46.5h192q91 0 131.5 -46.5t40.5 -123.5zM604 0l350 1464h170l-352 -1464h-168zM1679 383
v-213q0 -77 -41.5 -123.5t-132.5 -46.5h-248q-92 0 -133 46.5t-41 123.5v98l181 37v-137h174q21 0 34 13t13 34v174q0 23 -14 38t-35 15h-133v164h116q19 0 33 15t14 38v154q0 20 -13.5 33.5t-33.5 13.5h-141v-135l-182 37v94q0 77 41.5 123.5t132.5 46.5h213
q91 0 132.5 -46.5t41.5 -123.5v-137q0 -72 -30.5 -119.5t-74.5 -60.5v-2q57 -10 92 -52.5t35 -101.5z" />
    <glyph glyph-name="oneeighth" unicode="&#x215b;" horiz-adv-x="1531" 
d="M150 1253l-109 -24v137l264 98h35v-1026h-190v815zM358 0l351 1464h170l-353 -1464h-168zM850 170v186q0 60 34 110t83 62v2q-43 14 -71 65t-28 122v139q0 77 41 123.5t133 46.5h224q92 0 133 -46.5t41 -123.5v-139q0 -71 -28 -122t-71 -65v-2q49 -12 83 -62t34 -110
v-186q0 -77 -41 -123.5t-133 -46.5h-260q-92 0 -133 46.5t-41 123.5zM1206 440h-102q-27 0 -46.5 -20.5t-19.5 -48.5v-156q0 -19 13 -33t30 -14h146q17 0 31 14t14 33v156q0 28 -20 48.5t-46 20.5zM1210 864h-112q-19 0 -31 -13.5t-12 -33.5v-139q0 -28 17.5 -48t43.5 -20
h76q26 0 44.5 20t18.5 48v139q0 20 -12.5 33.5t-32.5 13.5z" />
    <glyph glyph-name="threeeighths" unicode="&#x215c;" horiz-adv-x="1802" 
d="M653 821v-213q0 -77 -41.5 -123.5t-132.5 -46.5h-248q-92 0 -133 46.5t-41 123.5v99l181 36v-137h174q21 0 34 13t13 34v174q0 23 -14.5 38.5t-34.5 15.5h-134v163h117q19 0 33 15.5t14 38.5v153q0 20 -13.5 33.5t-33.5 13.5h-141v-135l-182 37v94q0 77 41.5 123.5
t132.5 46.5h213q91 0 132.5 -46.5t41.5 -123.5v-137q0 -72 -30.5 -119.5t-74.5 -60.5v-2q57 -10 92 -52.5t35 -101.5zM629 0l350 1464h170l-352 -1464h-168zM1120 170v186q0 60 34 110t83 62v2q-43 14 -70.5 64.5t-27.5 122.5v139q0 77 41 123.5t133 46.5h223
q92 0 133 -46.5t41 -123.5v-139q0 -72 -27.5 -122.5t-70.5 -64.5v-2q49 -12 83 -62t34 -110v-186q0 -77 -41.5 -123.5t-133.5 -46.5h-260q-92 0 -133 46.5t-41 123.5zM1477 440h-103q-27 0 -46 -20.5t-19 -48.5v-156q0 -19 13 -33t30 -14h145q17 0 31 14t14 33v156
q0 28 -19.5 48.5t-45.5 20.5zM1481 864h-113q-19 0 -31 -13.5t-12 -33.5v-139q0 -28 17.5 -48t43.5 -20h76q26 0 45 20t19 48v139q0 20 -12.5 33.5t-32.5 13.5z" />
    <glyph glyph-name="fiveeighths" unicode="&#x215d;" horiz-adv-x="1792" 
d="M264 1083h211q91 0 132.5 -46.5t41.5 -123.5v-305q0 -77 -41.5 -123.5t-132.5 -46.5h-239q-92 0 -133.5 46.5t-41.5 123.5v72q185 37 187 37v-111h211v303h-371v555h530l-28 -174h-326v-207zM618 0l351 1464h170l-353 -1464h-168zM1110 170v186q0 60 34 110t83 62v2
q-43 14 -71 65t-28 122v139q0 77 41.5 123.5t133.5 46.5h223q92 0 133 -46.5t41 -123.5v-139q0 -72 -27.5 -122.5t-70.5 -64.5v-2q49 -12 82.5 -62t33.5 -110v-186q0 -77 -41 -123.5t-133 -46.5h-260q-92 0 -133 46.5t-41 123.5zM1466 440h-102q-27 0 -46.5 -20.5
t-19.5 -48.5v-156q0 -19 13 -33t30 -14h146q17 0 31 14t14 33v156q0 28 -20 48.5t-46 20.5zM1470 864h-112q-19 0 -31 -13.5t-12 -33.5v-139q0 -28 17.5 -48t43.5 -20h76q26 0 45 20t19 48v139q0 20 -13 33.5t-33 13.5z" />
    <glyph glyph-name="seveneighths" unicode="&#x215e;" horiz-adv-x="1705" 
d="M649 1313l-235 -875h-213l237 852h-209v-194l-186 39v329h606v-151zM532 0l351 1464h170l-353 -1464h-168zM1024 170v186q0 60 34 110t83 62v2q-43 14 -71 65t-28 122v139q0 77 41.5 123.5t133.5 46.5h223q92 0 133 -46.5t41 -123.5v-139q0 -72 -27.5 -122.5t-70.5 -64.5
v-2q49 -12 82.5 -62t33.5 -110v-186q0 -77 -41 -123.5t-133 -46.5h-260q-92 0 -133 46.5t-41 123.5zM1380 440h-102q-27 0 -46.5 -20.5t-19.5 -48.5v-156q0 -19 13 -33t30 -14h146q17 0 31 14t14 33v156q0 28 -20 48.5t-46 20.5zM1384 864h-112q-19 0 -31 -13.5t-12 -33.5
v-139q0 -28 17.5 -48t43.5 -20h76q26 0 45 20t19 48v139q0 20 -13 33.5t-33 13.5z" />
    <glyph glyph-name="partialdiff" unicode="&#x2202;" horiz-adv-x="1026" 
d="M516 1100q128 0 225 -105q-12 170 -69.5 245t-188.5 75q-45 0 -143 -12l-6 153q79 17 158 17q238 0 345 -155t107 -493q0 -396 -134.5 -620.5t-363.5 -224.5q-76 0 -140.5 26t-117 80t-82.5 147t-30 216q0 138 35.5 259.5t95 207t140.5 135t169 49.5zM461 143
q44 0 82.5 20t74.5 68.5t63 122.5t44 189t20 262q-35 60 -85 95.5t-107 35.5q-121 0 -199 -139t-78 -342q0 -158 51 -235t134 -77z" />
    <glyph glyph-name="product" unicode="&#x220f;" horiz-adv-x="1099" 
d="M739 -336v1616h-379v-1616h-217v1800h815v-1800h-219z" />
    <glyph glyph-name="summation" unicode="&#x2211;" horiz-adv-x="919" 
d="M63 -160l523 725l-523 723v176h764v-182h-508l484 -672v-88l-486 -676h510v-182h-764v176z" />
    <glyph glyph-name="minus" unicode="&#x2212;" horiz-adv-x="1034" 
d="M55 705h922v-185h-922v185z" />
    <glyph glyph-name="radical" unicode="&#x221a;" horiz-adv-x="1214" 
d="M39 698v179h334l233 -568h2l373 1172h229l-518 -1481h-172l-299 698h-182z" />
    <glyph glyph-name="infinity" unicode="&#x221e;" horiz-adv-x="1644" 
d="M1227 307q-127 0 -220 47t-188 138q-86 -88 -181.5 -136.5t-219.5 -48.5q-157 0 -257 82.5t-100 231.5q0 155 100.5 236t256.5 81q127 0 222 -50.5t179 -144.5q93 97 186.5 146t223.5 49q156 0 256 -81t100 -236q0 -148 -101 -231t-257 -83zM1208 473q77 0 127.5 39.5
t50.5 108.5q0 73 -48.5 112t-120.5 39q-77 0 -140.5 -38.5t-132.5 -112.5q72 -73 132.5 -110.5t131.5 -37.5zM430 473q73 0 132.5 36t135.5 112q-74 76 -134 113.5t-132 37.5q-74 0 -124 -39t-50 -112q0 -68 50 -108t122 -40z" />
    <glyph glyph-name="integral" unicode="&#x222b;" horiz-adv-x="786" 
d="M293 -31v1211q0 143 82 213.5t233 70.5h150v-170h-109q-77 0 -116 -31t-39 -104v-1210q0 -143 -81.5 -214t-234.5 -71h-149v168h108q78 0 117 31t39 106z" />
    <glyph glyph-name="approxequal" unicode="&#x2248;" horiz-adv-x="1034" 
d="M55 684v186q57 55 129.5 88t137.5 33q66 0 118.5 -19t83 -41.5t83 -41.5t118.5 -19q128 0 252 121v-190q-58 -52 -131 -84.5t-135 -32.5q-54 0 -97.5 12.5t-74 30t-61.5 34.5t-75.5 29.5t-99.5 12.5q-122 0 -248 -119zM55 238v188q57 54 130 86.5t137 32.5
q54 0 97.5 -12.5t74 -30t60.5 -34.5t73.5 -29.5t97.5 -12.5q130 0 252 119v-193q-57 -51 -130 -82.5t-136 -31.5q-54 0 -97.5 11.5t-74 28t-61.5 33t-75.5 28t-99.5 11.5q-126 0 -248 -112z" />
    <glyph glyph-name="notequal" unicode="&#x2260;" horiz-adv-x="1034" 
d="M55 748v184h551l125 211h187l-123 -211h182v-184h-289l-156 -269h445v-184h-551l-123 -211h-190l123 211h-181v184h287l158 269h-445z" />
    <glyph glyph-name="lessequal" unicode="&#x2264;" horiz-adv-x="1034" 
d="M74 791l882 389v-205l-491 -197l-111 -45v-20l111 -35l491 -195v-207l-882 383v132zM74 180h882v-180h-882v180z" />
    <glyph glyph-name="greaterequal" unicode="&#x2265;" horiz-adv-x="1034" 
d="M74 0v180h882v-180h-882zM74 276v207l495 195l107 35v20l-107 45l-495 197v205l882 -389v-132z" />
    <glyph glyph-name="lozenge" unicode="&#x25ca;" horiz-adv-x="1060" 
d="M455 0l-422 512v70l422 503h143l430 -503v-70l-430 -512h-143zM260 545l268 -332l269 330l-271 331z" />
    <glyph glyph-name="R_p" unicode="&#xf6dd;" horiz-adv-x="1828" 
d="M1145 1462h418q91 0 132.5 -46.5t41.5 -123.5v-284q0 -77 -41.5 -123.5t-132.5 -46.5h-226v-400h-192v1024zM1337 1290v-278h162q17 0 31 14t14 33v184q0 19 -14 33t-31 14h-162zM139 1464h543q131 0 190.5 -66.5t59.5 -176.5v-381q0 -110 -59.5 -176t-190.5 -66h-2
l326 -598h-263l-305 598h-78v-598h-221v1464zM360 1270v-477h285q26 0 45 19.5t19 47.5v342q0 28 -19 48t-45 20h-285z" />
    <glyph glyph-name="atftype.com" unicode="&#xf8ff;" horiz-adv-x="2252" 
d="M348 0v1464h1557v-1464h-1557zM651 508l19 119h106l21 -119h129l-113 620h-176l-115 -620h129zM1556 770h130v113h-130v135h162v110h-293l2 -63v-494l-2 -63h134l-3 63v199zM1204 1018h111v110h-348v-110h110v-447l-2 -63h131l-2 63v447zM1200 -129q17 0 17 -10
q0 -2 -3.5 -10t-7.5 -20t-6 -24q0 -8 6 -8q3 0 12.5 2t14.5 2q53 0 53 -43q0 -45 -38 -105.5t-85 -60.5q-6 0 -13.5 1.5t-8.5 1.5q-4 0 -8 -13q-21 -71 -21 -76q0 -9 6.5 -13t30.5 -5q8 0 8 -8t-8 -8q-4 0 -25 3t-32 3l-12 -2q-13 -2 -29 -2q-13 0 -13 8t11 8q17 1 21 5
t9 18q56 191 78 256q3 8 -4 8h-20q-7 0 -7 4q0 11 25 14q18 3 20 8q6 23 13 58q0 8 16 8zM1878 -264q0 11 32 42.5t50 31.5q7 0 11.5 -4.5t4.5 -8.5q0 -6 -4 -18t-9.5 -26t-6.5 -17q-3 -8 2 -8q4 0 6 4q17 35 38 57.5t36 22.5q14 0 21 -7.5t7 -17.5q0 -9 -3.5 -19.5
t-9.5 -23t-7 -16.5q-3 -9 2 -9q4 0 8 9q42 84 84 84q14 0 22.5 -9.5t8.5 -21.5q0 -7 -2.5 -14.5t-11.5 -26t-15 -31.5q-8 -17 -17.5 -37.5t-13.5 -29t-4 -11.5q0 -4 4 -4q3 0 19 12t27 25q6 6 8 6q6 0 6 -8q0 -7 -36 -38.5t-56 -31.5q-15 0 -15 13q0 14 43 94q31 58 31 80
q0 12 -10 12q-25 0 -80 -96q-6 -9 -16.5 -31.5t-14.5 -30.5q-3 -6 -7 -14.5t-6 -12.5t-5.5 -8.5t-6.5 -6t-7 -1.5q-17 0 -17 11q0 3 3.5 10t15 30.5t24.5 57.5q27 69 27 76q0 12 -15 12q-11 0 -73 -92q-23 -41 -35 -70q-13 -32 -21 -34q-2 -1 -4 -1q-6 0 -11 4.5t-5 10.5
q0 2 1 4l3.5 7t6.5 13.5t12 27.5t18 44q24 63 24 68q0 10 -4 10q-3 0 -18 -15q-6 -6 -11.5 -13t-9 -11.5t-7.5 -8t-7 -3.5q-4 0 -4 8zM1743 -410q-22 0 -33.5 21t-11.5 41q0 64 35 111t67 47q18 0 30.5 -20.5t12.5 -59.5q0 -52 -33.5 -96t-66.5 -44zM82 -381q0 -5 16 -10
q13 -3 13 -8q0 -7 -11 -7q-1 0 -17.5 2.5t-23.5 2.5q-5 0 -17.5 -1t-18.5 -1q-9 0 -9 6q0 5 19 10q13 3 39 33q137 158 170 190q6 6 10 6q10 0 10 -6l-2 -6q-1 -7 -3 -18.5t-3 -22.5q-10 -88 -10 -158q0 -10 3 -13t11 -5q16 -3 16 -8q0 -8 -10 -8l-16 2q-17 2 -29 2
q-8 0 -23 -2t-18 -2q-6 0 -6 6t14 8q23 3 23 22l4 52q0 6 -6 6h-66q-4 0 -10 -6q-5 -6 -12.5 -15.5t-13.5 -16t-11.5 -14t-8.5 -12.5t-3 -8zM934 -264q0 21 20 53q14 21 33 21t26 -30.5t7 -92.5q0 -12 -1 -26t-2 -23l-1 -9q0 -6 4 -6q3 0 9.5 13t14 36.5t13.5 48.5
q10 45 10 74q0 15 14 15q13 0 13 -17q0 -21 -18 -78.5t-46 -109.5q-64 -119 -131 -119q-22 0 -22 20q0 19 20 19q9 0 15 -8.5t8 -8.5q23 0 47 37t24 58q0 168 -18 168q-17 0 -25 -33q-3 -8 -8 -8q-6 0 -6 6zM545 -152q10 0 10 -10l-8 -24q-1 -3 -2 -10t-2 -10.5t-3 -8
t-5 -6.5t-7 -2q-8 0 -8 8q0 3 2 9t2 9q0 4 -2.5 5.5t-13.5 2.5t-35 1q-12 0 -15.5 -3.5t-6.5 -15.5l-35 -147q-5 -22 -1.5 -27.5t29.5 -9.5q15 -3 15 -8q0 -9 -8 -9q-1 0 -23 4.5t-37 4.5q-5 0 -24 -3.5t-27 -3.5q-14 0 -10 11q3 6 16 6q18 1 22.5 8t12.5 39l35 135
q3 18 -2 19q-51 0 -68 -13q-7 -4 -16 -16t-13 -12q-6 0 -6 6q0 3 15 33q2 4 4 11t3 12t3.5 9t7.5 4q4 0 5.5 -8t10.5 -8q3 0 29.5 -1t54.5 -1q19 0 46 1t30 1q10 0 15 9t10 9zM1419 -190q33 0 33 -43q0 -65 -94 -80q-15 -2 -15 -27q0 -35 29 -35q12 0 33 21q10 10 14 10
l4 -6q0 -9 -23.5 -33.5t-41.5 -24.5q-17 0 -31 14t-14 40q0 58 36 111t70 53zM653 -395q0 -8 -10 -8q-4 0 -20 2t-31 2q-5 0 -18.5 -2t-18.5 -2q-14 0 -14 8t12 8q18 2 22.5 6t8.5 27l34 147q2 11 2.5 15t-1.5 5.5t-7 2.5q-22 2 -22 8q0 10 8 10q3 0 33.5 -2t40.5 -2
q51 0 67 2q3 1 6.5 2t5.5 1.5t3 0.5q12 0 12 -16v-37q0 -6 -8 -6q-4 0 -8 5t-8 13.5t-5 9.5q-5 6 -15 7.5t-54 1.5q-13 0 -15 -11l-14 -69q-2 -10 -1 -12.5t7 -2.5h45q20 0 29 27q4 8 8 8q8 0 8 -6q0 -5 -4.5 -21t-5.5 -22q-3 -35 -12 -35q-8 0 -8 8q0 17 -4.5 22t-16.5 5
h-43q-9 0 -12 -14l-11 -45l-2 -10l-1.5 -7.5t-0.5 -3.5q0 -5 2 -7.5t7 -4t16 -2.5q14 0 14 -6zM881 -221l-47 -133q0 -6 8 -6q12 0 32 26q15 19 17 19q4 0 4 -7q0 -15 -37.5 -50.5t-54.5 -35.5q-15 0 -15 13q0 7 10 34.5t26.5 69.5t25.5 70q1 3 -1 4.5t-7 1.5h-27q-6 0 -6 8
t8 8q4 0 15 -1t16 -1q10 0 14 8l15 48q3 11 6.5 13.5t13.5 2.5q4 0 8 -3.5t4 -6.5q0 -5 -8 -23t-10 -31q-3 -8 4 -8q12 0 23 1l12 1q4 0 4 -4q0 -12 -6 -12h-35q-9 0 -12 -6zM1212 -211q-16 0 -22 -16q-37 -119 -37 -144q0 -20 14 -20q29 0 57.5 57.5t28.5 91.5
q0 11 -10.5 21t-30.5 10zM1802 -203q-21 0 -48.5 -57t-27.5 -98q0 -37 17 -37q25 0 51.5 56.5t26.5 98.5q0 14 -6 25.5t-13 11.5zM1663 -190q17 0 27 -8.5t10 -16.5q0 -21 -14 -21t-26 13.5t-15 13.5q-17 0 -41.5 -50t-24.5 -81q0 -33 23 -33q13 0 27.5 16.5t17.5 16.5
q4 0 4 -8q0 -10 -29 -35q-32 -27 -45 -27q-12 0 -22.5 15t-10.5 41q0 34 16.5 71t41.5 62q31 31 61 31zM686 737l25 144l12 96h4l12 -96l21 -144h-74zM1417 -207q-17 0 -38 -33.5t-21 -50.5q0 -6 6 -6q16 0 43 24.5t27 45.5q0 20 -17 20zM215 -283l6 60q3 18 0 18
q-2 0 -4.5 -2.5t-4.5 -6.5l-3 -3l-49 -64q-7 -10 2 -10h47q6 0 6 8zM1483 -356q16 0 16 -21q0 -14 -8.5 -23.5t-20.5 -9.5q-16 0 -16 21q0 14 8.5 23.5t20.5 9.5z" />
    <glyph glyph-name="fi" unicode="&#xfb01;" horiz-adv-x="1349" 
d="M360 0h-221v1464h682v-194h-461v-430h295v-201h-295v-639zM1210 1464v-1464h-221v1464h221z" />
    <glyph glyph-name="fl" unicode="&#xfb02;" horiz-adv-x="1705" 
d="M360 0h-221v1464h682v-194h-461v-430h295v-201h-295v-639zM1679 0h-690v1464h221v-1269h469v-195z" />
    <glyph glyph-name="dollar.superior" horiz-adv-x="733" 
d="M444 297h-151v170h-60q-92 0 -133 46.5t-41 123.5v90l181 37v-78q0 -21 12 -34t33 -13h141q19 0 31 13.5t12 33.5v113q0 38 -13.5 50.5t-49.5 14.5l-146 10q-94 6 -134 49.5t-40 120.5v222q0 78 41 125t133 47h33v143h151v-143h31q92 0 133 -47t41 -125v-80l-180 -37v74
q0 19 -12.5 33t-32.5 14h-109q-20 0 -32.5 -14t-12.5 -33v-99q0 -41 14.5 -53.5t51.5 -15.5l133 -8q97 -9 142.5 -55.5t45.5 -119.5v-235q0 -77 -41 -123.5t-131 -46.5h-41v-170z" />
    <glyph glyph-name="cent.superior" horiz-adv-x="647" 
d="M406 438h-150v129h-10q-92 0 -133 46.5t-41 123.5v428q0 78 41 125t133 47h10v127h150v-127h6q92 0 133 -47t41 -125v-75l-189 -37v110h-133v-424h133v127l189 -37v-92q0 -77 -41 -123.5t-133 -46.5h-6v-129z" />
    <glyph glyph-name="Euro.superior" horiz-adv-x="751" 
d="M55 1104h99v190q0 77 41 123.5t133 46.5h188q92 0 133 -46.5t41 -123.5v-61l-186 -37v96h-156v-188h207v-100h-207v-78h207v-101h-207v-215h156v142l186 -37v-107q0 -77 -41 -123.5t-133 -46.5h-188q-91 0 -132.5 46.5t-41.5 123.5v217h-99v101h99v78h-99v100z" />
    <glyph glyph-name="sterling.superior" horiz-adv-x="743" 
d="M61 891v145h105v258q0 77 41 123.5t133 46.5h160q92 0 133 -46.5t41 -123.5v-61l-187 -37v96h-131v-256h197v-145h-197v-266h146v141l186 -37v-106q0 -75 -41 -131t-110 -56q-11 0 -101 19l-123 26q-43 -43 -129 -43h-123v172h60q19 0 32 13.5t13 33.5v234h-105z" />
    <glyph glyph-name="yen.superior" horiz-adv-x="712" 
d="M72 1104h102l-143 360h209l120 -360l123 360h199l-150 -360h105v-100h-148l-34 -84h182v-101h-186v-381h-193v381h-186v101h178l-35 84h-143v100z" />
    <glyph glyph-name="numbersign.superior" horiz-adv-x="804" 
d="M604 1464h125l-55 -254h82v-149h-115l-45 -217h98v-150h-131l-53 -256h-127l55 256h-176l-53 -256h-129l55 256h-86v150h119l45 217h-98v149h131l55 254h125l-53 -254h176zM340 1061l-45 -217h176l45 217h-176z" />
    <glyph glyph-name="percent.superior" horiz-adv-x="1101" 
d="M174 909q-121 0 -121 119v320q0 116 121 116h160q121 0 121 -116v-320q0 -54 -28.5 -86.5t-92.5 -32.5h-160zM770 438q-123 0 -123 119v320q0 116 123 116h158q121 0 121 -116v-320q0 -54 -28.5 -86.5t-92.5 -32.5h-158zM301 438l354 1026h146l-352 -1026h-148zM801 578
h92v276h-92v-276zM207 1051h92v274h-92v-274z" />
    <glyph glyph-name="period.superior" horiz-adv-x="376" 
d="M76 487v138q0 49 41 49h143q41 0 41 -49v-138q0 -21 -11 -35t-30 -14h-143q-41 0 -41 49z" />
    <glyph glyph-name="comma.superior" horiz-adv-x="372" 
d="M299 506l-82 -230h-125l66 179h-43q-41 0 -41 51v119q0 49 41 49h141q43 0 43 -49v-119z" />
    <glyph glyph-name="hyphen.superior" horiz-adv-x="448" 
d="M86 831v187h276v-187h-276z" />
    <glyph glyph-name="zero.tl" horiz-adv-x="980" 
d="M631 0h-283q-131 0 -189.5 66.5t-58.5 177.5v977q0 111 58.5 177t189.5 66h283q131 0 189.5 -66t58.5 -177v-977q0 -111 -58.5 -177.5t-189.5 -66.5zM657 1270h-335v-1075h335v1075z" />
    <glyph glyph-name="one.tl" horiz-adv-x="980" 
d="M408 1219q1 0 -54.5 -10.5t-111.5 -20.5l-56 -10v145l416 141h29v-1269h203v-195h-687v195h261v1024z" />
    <glyph glyph-name="two.tl" horiz-adv-x="980" 
d="M862 1221v-140q0 -88 -37 -143l-503 -741h362v223l215 -41v-135q0 -111 -58.5 -177.5t-189.5 -66.5h-561v174q0 56 33 113l520 747l-2 234h-299v-305l-213 41v217q0 111 57.5 177t188.5 66h239q131 0 189.5 -66t58.5 -177z" />
    <glyph glyph-name="three.tl" horiz-adv-x="980" 
d="M881 547v-303q0 -111 -58.5 -177.5t-189.5 -66.5h-287q-131 0 -189.5 66.5t-58.5 177.5v135l215 41v-230h277q28 0 46.5 19.5t18.5 48.5v326q0 32 -19.5 52.5t-47.5 20.5h-191v185h164q29 0 48.5 20.5t19.5 52.5v293q0 29 -19 48.5t-47 19.5h-231v-234l-217 43v136
q0 110 58.5 176.5t188.5 66.5h238q131 0 189.5 -66t58.5 -177v-193q0 -102 -38.5 -171.5t-100.5 -90.5v-2q72 -12 122 -73.5t50 -143.5z" />
    <glyph glyph-name="four.tl" horiz-adv-x="980" 
d="M59 350v180l541 934h178v-934h144v-180h-144v-350h-200v350h-519zM256 530h322v566z" />
    <glyph glyph-name="five.tl" horiz-adv-x="980" 
d="M334 895h301q131 0 189.5 -66.5t58.5 -177.5v-407q0 -111 -58.5 -177.5t-189.5 -66.5h-287q-131 0 -190.5 66.5t-59.5 177.5v100q213 43 215 43v-197h349v508h-529v766h705l-31 -196h-473v-373z" />
    <glyph glyph-name="six.tl" horiz-adv-x="980" 
d="M317 1274v-426h320q131 0 189.5 -66.5t58.5 -177.5v-360q0 -111 -58.5 -177.5t-189.5 -66.5h-293q-131 0 -189.5 66.5t-58.5 177.5v977q0 111 58.5 177t189.5 66h266q131 0 189.5 -66t58.5 -177v-95l-215 -43v191h-326zM317 188h347v476h-347v-476z" />
    <glyph glyph-name="seven.tl" horiz-adv-x="980" 
d="M897 1247l-336 -1247h-237l356 1268h-385v-320l-213 43v473h815v-217z" />
    <glyph glyph-name="eight.tl" horiz-adv-x="980" 
d="M78 244v266q0 86 47.5 156t118.5 90v2q-61 24 -101.5 97t-40.5 169v197q0 110 59 176.5t189 66.5h277q130 0 188.5 -66.5t58.5 -176.5v-197q0 -97 -39 -169.5t-100 -96.5v-2q71 -20 118.5 -90t47.5 -156v-266q0 -111 -59.5 -177.5t-190.5 -66.5h-325q-130 0 -189 67
t-59 177zM592 655h-207q-37 0 -64.5 -29t-27.5 -69v-299q0 -28 18.5 -48t44.5 -20h265q26 0 44.5 20t18.5 48v299q0 40 -27 69t-65 29zM600 1284h-223q-25 0 -44.5 -20t-19.5 -47v-275q0 -40 28.5 -69t66.5 -29h161q38 0 65.5 29t27.5 69v275q0 28 -18 47.5t-44 19.5z" />
    <glyph glyph-name="nine.tl" horiz-adv-x="980" 
d="M336 190h326v426h-318q-131 0 -190.5 66.5t-59.5 177.5v361q0 110 59.5 176.5t190.5 66.5h293q131 0 189.5 -66t58.5 -177v-977q0 -111 -58.5 -177.5t-189.5 -66.5h-268q-131 0 -188.5 66.5t-57.5 177.5v94l213 43v-191zM662 1276h-345v-475h345v475z" />
    <glyph glyph-name="dollar.tl" horiz-adv-x="980" 
d="M588 -201h-166v242h-78q-131 0 -188.5 66.5t-57.5 177.5v127l203 43v-152q0 -28 19 -47.5t47 -19.5h239q26 0 45 19.5t19 47.5v242q0 52 -19.5 70.5t-72.5 21.5l-195 10q-246 13 -246 244v289q0 111 57.5 177t188.5 66h39v207h166v-207h37q131 0 189 -66t58 -177v-115
l-204 -43v147q0 28 -18.5 48t-45.5 20h-192q-28 0 -47 -20t-19 -48v-219q0 -54 20.5 -73.5t73.5 -22.5l199 -10q246 -13 246 -246v-313q0 -110 -59 -177t-189 -67h-49v-242z" />
    <glyph glyph-name="cent.tl" horiz-adv-x="980" 
d="M573 0h-163v184h-7q-131 0 -189 66.5t-58 177.5v608q0 111 58 177.5t189 66.5h7v184h163v-184h2q131 0 189.5 -66.5t58.5 -177.5v-108l-215 -43v200h-229v-706h229v223l215 -43v-131q0 -111 -58.5 -177.5t-189.5 -66.5h-2v-184z" />
    <glyph glyph-name="Euro.tl" horiz-adv-x="980" 
d="M70 936h141v285q0 111 58.5 177t189.5 66h203q131 0 189 -66t58 -177v-88l-215 -43v180h-262v-334h285v-115h-285v-139h285v-115h-285v-372h262v243l215 -43v-151q0 -111 -58 -177.5t-189 -66.5h-203q-130 0 -189 67t-59 177v323h-141v115h141v139h-141v115z" />
    <glyph glyph-name="sterling.tl" horiz-adv-x="980" 
d="M76 659v181h145v381q0 111 58.5 177t189.5 66h149q131 0 190.5 -66.5t59.5 -176.5v-88l-217 -43v180h-207v-430h230v-181h-230v-444h244v244l215 -43v-152q0 -115 -63 -190.5t-152 -75.5q-14 0 -147 29l-158 36q-63 -63 -186 -63h-121v195h82q26 0 44.5 19.5t18.5 47.5
v397h-145z" />
    <glyph glyph-name="uni20BD.tl" horiz-adv-x="980" 
d="M887 1221v-365q0 -111 -58.5 -176.5t-189.5 -65.5h-184v-235h223v-117h-223v-262h-222v262h-143v117h143v235h-143v195h143v655h406q131 0 189.5 -66t58.5 -177zM600 1270h-145v-461h145q26 0 45 20t19 48v325q0 28 -19 48t-45 20z" />
    <glyph glyph-name="yen.tl" horiz-adv-x="980" 
d="M117 936h159l-225 528h250l199 -536l200 536h230l-228 -528h160v-115h-209l-53 -133h262v-117h-262v-571h-221v571h-262v117h262l-53 133h-209v115z" />
    <glyph glyph-name="uni0192.tl" horiz-adv-x="980" 
d="M92 618v181h148v422q0 111 58 177t189 66h150q248 0 248 -243v-88l-213 -43v180h-209v-471h248v-181h-248v-819h-223v819h-148z" />
    <glyph glyph-name="colonmonetary.tl" horiz-adv-x="980" 
d="M340 -203v244q-215 16 -215 244v895q0 225 215 241v209h104v-207h91v207h104v-209q114 -7 165.5 -72t51.5 -169v-150l-215 -43v242h-293v-993h293v284l215 -43v-192q0 -104 -51.5 -170t-165.5 -74v-244h-104v244h-91v-244h-104z" />
    <glyph glyph-name="franc.tl" horiz-adv-x="980" 
d="M471 0h-221v262h-141v117h141v1085h620v-188h-399v-436h297v-201h-297v-260h225v-117h-225v-262z" />
    <glyph glyph-name="lira.tl" horiz-adv-x="980" 
d="M76 936h147v285q0 243 248 243h150q131 0 189 -66t58 -177v-88l-215 -43v180h-207v-334h230v-115h-230v-139h230v-115h-230v-352h244v195l215 -43v-103q0 -115 -63 -190.5t-152 -75.5q-52 0 -168 29l-139 34q-61 -61 -184 -61h-123v195h84q26 0 44.5 19.5t18.5 47.5v305
h-147v115h147v139h-147v115z" />
    <glyph glyph-name="uni20B1.tl" horiz-adv-x="980" 
d="M834 1221v-134h106v-116h-106v-142q0 -110 -58.5 -175.5t-189.5 -65.5h-187v-588h-221v971h-141v116h141v377h408q131 0 189.5 -66t58.5 -177zM549 782q25 0 43 20t18 48v121h-211v-189h150zM549 1270h-150v-183h211v115q0 28 -18 48t-43 20z" />
    <glyph glyph-name="uni20B9.tl" horiz-adv-x="980" 
d="M395 1270h-260v194h711v-182h-160q53 -62 53 -164v-31h107v-116h-107v-144q0 -238 -243 -241l317 -586h-264l-301 586h-113v194h318q26 0 44.5 20t18.5 48v123h-381v116h381v54q0 59 -33 94t-88 35z" />
    <glyph glyph-name="uni20BA.tl" horiz-adv-x="980" 
d="M70 846l141 53v565h221v-479l279 109v-123l-279 -107v-139l279 109v-123l-279 -107v-409h262v346l215 -43v-254q0 -111 -58 -177.5t-189 -66.5h-451v518l-141 -53v121l141 53v139l-141 -53v121z" />
    <glyph glyph-name="section.tl" horiz-adv-x="980" 
d="M190 -27l191 27q24 -172 117 -172q42 0 66 30.5t24 78.5q0 51 -25.5 93t-91.5 97l-199 164q-202 165 -202 377q0 109 51.5 180.5t146.5 101.5q-75 102 -75 228q0 139 79 225t207 86q126 0 206 -87t99 -241l-188 -26q-13 84 -40.5 128t-78.5 44q-41 0 -65.5 -30.5
t-24.5 -78.5q0 -51 26 -94t91 -94l201 -164q200 -166 200 -377q0 -109 -51.5 -181t-146.5 -102q75 -102 75 -227q0 -140 -79.5 -226.5t-206.5 -86.5q-126 0 -206 86.5t-100 240.5zM561 696l-199 158q-42 -13 -66 -56t-24 -104q0 -68 32 -128.5t112 -125.5l196 -159
q43 15 68 58t25 103q0 139 -144 254z" />
    <glyph glyph-name="numbersign.tl" horiz-adv-x="980" 
d="M766 1464h145l-75 -385h120v-172h-155l-68 -348h137v-172h-172l-75 -387h-146l76 387h-254l-74 -387h-149l76 387h-127v172h161l68 348h-143v172h178l76 385h145l-76 -385h256zM401 907l-67 -348h254l67 348h-254z" />
    <glyph glyph-name="zero.numerator" horiz-adv-x="774" 
d="M518 438h-262q-174 0 -174 170v686q0 170 174 170h262q91 0 132.5 -46.5t41.5 -123.5v-686q0 -77 -41.5 -123.5t-132.5 -46.5zM500 1292h-226v-682h226v682z" />
    <glyph glyph-name="one.numerator" horiz-adv-x="446" 
d="M150 1253l-109 -24v137l264 98h35v-1026h-190v815z" />
    <glyph glyph-name="two.numerator" horiz-adv-x="700" 
d="M612 1294v-104q0 -51 -28 -98l-316 -480h199v131l178 -36v-99q0 -77 -40.5 -123.5t-131.5 -46.5h-426v123q0 47 25 78l352 526l-2 125h-162v-184l-186 37v151q0 77 41 123.5t133 46.5h192q91 0 131.5 -46.5t40.5 -123.5z" />
    <glyph glyph-name="three.numerator" horiz-adv-x="724" 
d="M653 821v-213q0 -77 -41.5 -123.5t-132.5 -46.5h-248q-92 0 -133 46.5t-41 123.5v99l181 36v-137h174q21 0 34 13t13 34v174q0 23 -14.5 38.5t-34.5 15.5h-134v163h117q19 0 33 15.5t14 38.5v153q0 20 -13.5 33.5t-33.5 13.5h-141v-135l-182 37v94q0 77 41.5 123.5
t132.5 46.5h213q91 0 132.5 -46.5t41.5 -123.5v-137q0 -72 -30.5 -119.5t-74.5 -60.5v-2q57 -10 92 -52.5t35 -101.5z" />
    <glyph glyph-name="four.numerator" horiz-adv-x="722" 
d="M41 666v161l383 637h162v-637h78v-161h-78v-228h-178v228h-367zM219 827h189v326z" />
    <glyph glyph-name="five.numerator" horiz-adv-x="714" 
d="M264 1083h211q91 0 132.5 -46.5t41.5 -123.5v-305q0 -77 -41.5 -123.5t-132.5 -46.5h-239q-92 0 -133.5 46.5t-41.5 123.5v72q185 37 187 37v-111h211v303h-371v555h530l-28 -174h-326v-207z" />
    <glyph glyph-name="six.numerator" horiz-adv-x="737" 
d="M274 1296v-245h222q92 0 133 -46.5t41 -123.5v-273q0 -77 -41 -123.5t-133 -46.5h-240q-174 0 -174 170v686q0 170 174 170h229q91 0 131.5 -46.5t40.5 -123.5v-65l-186 -37v104h-197zM274 604h205v281h-205v-281z" />
    <glyph glyph-name="seven.numerator" horiz-adv-x="686" 
d="M649 1313l-235 -875h-213l237 852h-209v-194l-186 39v329h606v-151z" />
    <glyph glyph-name="eight.numerator" horiz-adv-x="751" 
d="M70 608v187q0 60 33.5 110t82.5 62v2q-43 14 -70.5 64.5t-27.5 121.5v139q0 77 41 123.5t133 46.5h223q92 0 133 -46.5t41 -123.5v-139q0 -71 -27.5 -121.5t-70.5 -64.5v-2q49 -12 83 -62t34 -110v-187q0 -77 -41 -123.5t-133 -46.5h-260q-92 0 -133 46.5t-41 123.5z
M426 879h-102q-27 0 -46.5 -21t-19.5 -49v-156q0 -19 13 -33t30 -14h145q18 0 32 14t14 33v156q0 28 -20 49t-46 21zM430 1303h-113q-19 0 -31 -14t-12 -34v-139q0 -28 18 -47.5t44 -19.5h76q26 0 44.5 19.5t18.5 47.5v139q0 21 -12.5 34.5t-32.5 13.5z" />
    <glyph glyph-name="nine.numerator" horiz-adv-x="739" 
d="M270 606h197v246h-223q-91 0 -131.5 46.5t-40.5 123.5v272q0 77 40.5 123.5t131.5 46.5h243q172 0 172 -170v-686q0 -170 -172 -170h-231q-92 0 -133 46.5t-41 123.5v66l188 39v-107zM467 1298h-203v-282h203v282z" />
    <glyph glyph-name="zero.denominator" horiz-adv-x="774" 
d="M518 0h-262q-174 0 -174 170v686q0 170 174 170h262q91 0 132.5 -46.5t41.5 -123.5v-686q0 -77 -41.5 -123.5t-132.5 -46.5zM500 854h-226v-682h226v682z" />
    <glyph glyph-name="one.denominator" horiz-adv-x="446" 
d="M150 815l-109 -24v137l264 98h35v-1026h-190v815z" />
    <glyph glyph-name="two.denominator" horiz-adv-x="698" 
d="M612 856v-104q0 -52 -28 -99l-316 -479h199v131l178 -37v-98q0 -77 -40.5 -123.5t-131.5 -46.5h-426v123q0 47 25 78l352 526l-2 125h-162v-184l-186 37v151q0 77 41 123.5t133 46.5h192q91 0 131.5 -46.5t40.5 -123.5z" />
    <glyph glyph-name="three.denominator" horiz-adv-x="722" 
d="M653 383v-213q0 -77 -41.5 -123.5t-132.5 -46.5h-248q-92 0 -133 46.5t-41 123.5v98l181 37v-137h174q21 0 34 13t13 34v174q0 23 -14 38t-35 15h-134v164h117q19 0 33 15t14 38v154q0 20 -13.5 33.5t-33.5 13.5h-141v-135l-182 37v94q0 77 41.5 123.5t132.5 46.5h213
q91 0 132.5 -46.5t41.5 -123.5v-137q0 -72 -30.5 -119.5t-74.5 -60.5v-2q57 -10 92 -52.5t35 -101.5z" />
    <glyph glyph-name="four.denominator" horiz-adv-x="722" 
d="M41 227v162l383 637h162v-637h78v-162h-78v-227h-178v227h-367zM219 389h189v326z" />
    <glyph glyph-name="five.denominator" horiz-adv-x="714" 
d="M264 645h211q91 0 132.5 -46.5t41.5 -123.5v-305q0 -77 -41.5 -123.5t-132.5 -46.5h-239q-92 0 -133.5 46.5t-41.5 123.5v72q185 37 187 37v-111h211v303h-371v555h530l-28 -174h-326v-207z" />
    <glyph glyph-name="six.denominator" horiz-adv-x="737" 
d="M274 858v-246h222q92 0 133 -46.5t41 -123.5v-272q0 -77 -41 -123.5t-133 -46.5h-240q-174 0 -174 170v686q0 170 174 170h229q91 0 131.5 -46.5t40.5 -123.5v-65l-186 -37v104h-197zM274 166h205v280h-205v-280z" />
    <glyph glyph-name="seven.denominator" horiz-adv-x="684" 
d="M649 874l-235 -874h-213l237 852h-209v-195l-186 39v330h606v-152z" />
    <glyph glyph-name="eight.denominator" horiz-adv-x="751" 
d="M70 170v186q0 60 33.5 110t82.5 62v2q-43 14 -70.5 64.5t-27.5 122.5v139q0 77 41 123.5t133 46.5h223q92 0 133 -46.5t41 -123.5v-139q0 -72 -27.5 -122.5t-70.5 -64.5v-2q49 -12 83 -62t34 -110v-186q0 -77 -41 -123.5t-133 -46.5h-260q-92 0 -133 46.5t-41 123.5z
M426 440h-102q-27 0 -46.5 -20.5t-19.5 -48.5v-156q0 -19 13 -33t30 -14h145q18 0 32 14t14 33v156q0 28 -20 48.5t-46 20.5zM430 864h-113q-19 0 -31 -13.5t-12 -33.5v-139q0 -28 18 -48t44 -20h76q26 0 44.5 20t18.5 48v139q0 20 -12.5 33.5t-32.5 13.5z" />
    <glyph glyph-name="nine.denominator" horiz-adv-x="741" 
d="M270 168h197v246h-223q-91 0 -131.5 46.5t-40.5 123.5v272q0 77 40.5 123.5t131.5 46.5h243q172 0 172 -170v-686q0 -170 -172 -170h-231q-92 0 -133 46.5t-41 123.5v66l188 38v-106zM467 860h-203v-282h203v282z" />
    <glyph glyph-name="i.dot" horiz-adv-x="499" 
d="M360 1464v-1464h-221v1464h221zM139 1612v96q0 53 43 53h135q43 0 43 -53v-96q0 -25 -11 -40.5t-32 -15.5h-135q-21 0 -32 15.5t-11 40.5z" />
    <glyph glyph-name="uni00200326" horiz-adv-x="661" 
d="M281 -342h-148l148 252h243z" />
    <glyph glyph-name="caron.alt" horiz-adv-x="661" 
d="M238 1464h198l-78 -440h-120v440z" />
    <glyph glyph-name="a.superior" horiz-adv-x="720" 
d="M516 438l-45 207h-238l-47 -207h-182l266 1026h174l271 -1026h-199zM270 813h164l-80 363z" />
    <glyph glyph-name="b.superior" horiz-adv-x="800" 
d="M502 653v131q0 40 -23.5 65t-60.5 25h-117v-268h156q19 0 32 13.5t13 33.5zM301 1296v-252h117q37 0 60.5 25.5t23.5 65.5v114q0 20 -12.5 33.5t-30.5 13.5h-158zM700 801v-193q0 -77 -41.5 -123.5t-132.5 -46.5h-417v1026h413q91 0 131.5 -46.5t40.5 -123.5v-161
q0 -54 -30 -105t-91 -67v-5q62 -13 94.5 -56.5t32.5 -98.5z" />
    <glyph glyph-name="d.superior" horiz-adv-x="784" 
d="M725 1079v-254q0 -195 -95.5 -291t-248.5 -96h-272v1026h272q73 0 134 -22.5t109 -67.5t74.5 -120.5t26.5 -174.5zM385 1292h-84v-682h84q42 0 72.5 17.5t46 46.5t22 58.5t6.5 62.5v313q0 32 -6.5 61.5t-22 58.5t-46 46.5t-72.5 17.5z" />
    <glyph glyph-name="e.superior" horiz-adv-x="690" 
d="M633 438h-524v1026h509v-172h-317v-248h207v-178h-207v-256h332v-172z" />
    <glyph glyph-name="egrave.superior" horiz-adv-x="690" 
d="M465 1550h-148l-172 174h220zM633 438h-524v1026h509v-172h-317v-248h207v-178h-207v-256h332v-172z" />
    <glyph glyph-name="l.superior" horiz-adv-x="677" 
d="M653 438h-544v1026h192v-854h352v-172z" />
    <glyph glyph-name="m.superior" horiz-adv-x="974" 
d="M109 1464h172l208 -534l213 534h164v-1026h-186v537l-184 -420h-19l-184 420v-537h-184v1026z" />
    <glyph glyph-name="o.superior" horiz-adv-x="847" 
d="M748 1294v-686q0 -77 -41.5 -123.5t-133.5 -46.5h-299q-174 0 -174 170v686q0 170 174 170h299q92 0 133.5 -46.5t41.5 -123.5zM555 610v682h-262v-682h262z" />
    <glyph glyph-name="s.superior" horiz-adv-x="741" 
d="M342 1055l152 -8q172 -10 172 -175v-264q0 -170 -172 -170h-263q-92 0 -133 46.5t-41 123.5v105l187 39v-95q0 -20 12.5 -33.5t30.5 -13.5h143q19 0 32 13.5t13 33.5v142q0 39 -13.5 51t-53.5 14l-150 10q-174 11 -174 170v250q0 77 41 123.5t133 46.5h225
q176 0 176 -170v-94l-188 -39v84q0 19 -13 33t-30 14h-106q-20 0 -33 -14t-13 -33v-121q0 -40 14 -53t52 -16z" />
    <glyph glyph-name="t.superior" horiz-adv-x="579" 
d="M18 1292v172h553v-172h-180v-854h-190v854h-183z" />
    </font>
</defs>
</svg>
