<?xml version="1.0" standalone="no"?>
<!DOCTYPE svg PUBLIC "-//W3C//DTD SVG 1.1//EN" "http://www.w3.org/Graphics/SVG/1.1/DTD/svg11.dtd" >
<svg xmlns="http://www.w3.org/2000/svg" xmlns:xlink="http://www.w3.org/1999/xlink" version="1.1">
<metadata>
Created by FontForge 20201107 at Fri Mar  1 11:11:50 2019
 By 
Copyright (c) 2019 by Galaxa. All rights reserved.
</metadata>
<defs>
<font id="Tachyon-LightItalic" horiz-adv-x="460" >
  <font-face 
    font-family="Tachyon Light"
    font-weight="300"
    font-style="italic"
    font-stretch="normal"
    units-per-em="1000"
    panose-1="0 0 0 0 0 0 0 0 0 0"
    ascent="800"
    descent="-200"
    x-height="600"
    cap-height="800"
    bbox="-168 -200 838.526 1070"
    underline-thickness="50"
    underline-position="-125"
    slope="-12"
    unicode-range="U+000D-2022"
  />
<missing-glyph horiz-adv-x="333" 
 />
    <glyph glyph-name=".notdef" horiz-adv-x="333" 
 />
    <glyph glyph-name=".null" horiz-adv-x="0" 
 />
    <glyph glyph-name="nonmarkingreturn" unicode="&#xd;" horiz-adv-x="300" 
 />
    <glyph glyph-name="NULL" horiz-adv-x="0" 
 />
    <glyph glyph-name="NULL" horiz-adv-x="0" 
 />
    <glyph glyph-name="space" unicode=" " horiz-adv-x="300" 
 />
    <glyph glyph-name="exclam" unicode="!" horiz-adv-x="180" 
d="M115 800l-115 -540q-3 -14 -12.5 -25.5t-23.5 -17.5l-37 -17l115 540q3 14 13 25.5t23 17.5zM-27 130l-28 -130h-60l15 70q3 14 12.5 25.5t23.5 17.5z" />
    <glyph glyph-name="quotedbl" unicode="&#x22;" horiz-adv-x="310" 
d="M69 630q-3 -14 -12.5 -25.5t-23.5 -17.5l-37 -17l36 170q3 14 13 25.5t23 17.5l37 17zM219 630q-3 -14 -12.5 -25.5t-23.5 -17.5l-37 -17l36 170q3 14 13 25.5t23 17.5l37 17z" />
    <glyph glyph-name="numbersign" unicode="#" horiz-adv-x="700" 
d="M265 260l130 280h-140l-130 -280h140zM455 540l-130 -280h135l-23 -33q-9 -12 -22 -19.5t-27 -7.5h-90l-80 -171q-6 -13 -17.5 -21t-25.5 -8h-30l93 200h-140l-80 -171q-6 -13 -17.5 -21t-25.5 -8h-30l93 200h-121l24 33q9 12 22 19.5t27 7.5h75l130 280h-135l24 33
q8 12 21.5 19.5t26.5 7.5h91l79 171q6 13 17.5 21t25.5 8h30l-92 -200h140l79 171q6 13 17.5 21t25.5 8h30l-92 -200h120l-24 -33q-9 -12 -22 -19.5t-27 -7.5h-75z" />
    <glyph glyph-name="dollar" unicode="$" 
d="M239 300q6 29 -10 49.5t-45 20.5h-20l-66 -310h20q29 0 53.5 20.5t31.5 49.5zM116 430l66 310h-20q-29 0 -53.5 -20.5t-31.5 -49.5l-36 -170q-6 -29 10 -49.5t45 -20.5h20zM242 740l-66 -310h20q27 0 48.5 -10t35.5 -28t19.5 -41.5t-0.5 -50.5l-36 -170
q-6 -27 -21.5 -50.5t-36.5 -41.5t-47 -28t-53 -10h-20l-8 -40q-3 -14 -13 -25.5t-23 -17.5l-37 -17l21 100h-150l24 33q8 12 21.5 19.5t27.5 7.5h90l66 310h-20q-27 0 -48.5 10t-35.5 28t-19.5 41.5t0.5 50.5l36 170q6 27 21.5 50.5t36.5 41.5t47 28t53 10h20l9 40
q2 14 12 25.5t23 17.5l37 17l-21 -100h150l-24 -33q-8 -12 -21.5 -19.5t-26.5 -7.5h-91z" />
    <glyph glyph-name="percent" unicode="%" horiz-adv-x="720" 
d="M412 771q6 13 17.5 21t25.5 8h30l-357 -771q-6 -13 -17.5 -21t-25.5 -8h-30zM120 540q-27 0 -48.5 10t-35.5 28t-19.5 41.5t0.5 50.5t21.5 50.5t36.5 41.5t47 28t53 10t48.5 -10t35.5 -28t19 -41.5t-1 -50.5t-21 -50.5t-36 -41.5t-47 -28t-53 -10zM162 740
q-29 0 -53.5 -20.5t-31.5 -49.5q-6 -29 10.5 -49.5t45.5 -20.5t53.5 20.5t30.5 49.5q7 29 -9.5 49.5t-45.5 20.5zM365 0q-27 0 -48.5 10t-35.5 28t-19 41.5t1 50.5t21 50.5t36.5 41.5t47 28t52.5 10t48.5 -10t35.5 -28t19.5 -41.5t-0.5 -50.5t-21.5 -50.5t-36.5 -41.5
t-47 -28t-53 -10zM408 200q-29 0 -54 -20.5t-31 -49.5q-7 -29 9.5 -49.5t45.5 -20.5t53.5 20.5t31.5 49.5q6 29 -10 49.5t-45 20.5z" />
    <glyph glyph-name="ampersand" unicode="&#x26;" 
d="M296 570l21 100q7 29 -9.5 49.5t-45.5 20.5h-100q-29 0 -53.5 -20.5t-31.5 -49.5l-36 -170q-6 -29 10 -49.5t45 -20.5h80l-23 -33q-9 -12 -22 -19.5t-27 -7.5h-20q-29 0 -54 -20.5t-31 -49.5l-36 -170q-7 -29 9.5 -49.5t45.5 -20.5h170l59 280q3 14 12.5 25.5t23.5 17.5
l37 17l-85 -400h-230q-27 0 -48.5 10t-35.5 28t-19 41.5t1 50.5l36 170q6 30 24 56t44 44q-38 38 -26 100l36 170q6 27 21.5 50.5t36.5 41.5t47 28t53 10h100q27 0 48.5 -10t35.5 -28t19 -41.5t-1 -50.5l-8 -40q-3 -14 -12.5 -25.5t-23.5 -17.5z" />
    <glyph glyph-name="quotesingle" unicode="'" horiz-adv-x="160" 
d="M69 630q-3 -14 -12.5 -25.5t-23.5 -17.5l-37 -17l36 170q3 14 13 25.5t23 17.5l37 17z" />
    <glyph glyph-name="parenleft" unicode="(" horiz-adv-x="292" 
d="M259 900q-94 -112 -152.5 -240.5t-86.5 -259.5q-29 -137 -23 -259.5t49 -240.5h-40q-14 0 -24.5 7.5t-13.5 18.5q-34 110 -34 230.5t26 243.5q12 56 31.5 118t45.5 124.5t59 121.5t72 110q20 26 51 26h40z" />
    <glyph glyph-name="parenright" unicode=")" horiz-adv-x="292" 
d="M106 900q14 0 25 -7t15 -19q18 -51 25.5 -110t7 -121.5t-7.5 -124.5t-19 -118q-26 -123 -77 -243.5t-132 -230.5q-8 -11 -21.5 -18.5t-27.5 -7.5h-40q93 118 151 240.5t87 259.5q28 131 24.5 259.5t-50.5 240.5h40z" />
    <glyph glyph-name="asterisk" unicode="*" 
d="M255 800l-32 -153l167 83l-6 -30q-3 -14 -12.5 -26t-23.5 -18l-111 -56l88 -55q11 -7 15 -19t1 -26l-6 -30l-132 83l-20 -93q-3 -14 -12.5 -25.5t-23.5 -17.5l-37 -17l33 153l-168 -83l6 30q3 14 12.5 26t23.5 19l112 55l-89 56q-10 6 -14.5 18t-1.5 26l6 30l133 -83
l19 93q3 14 13 25.5t23 17.5z" />
    <glyph glyph-name="plus" unicode="+" 
d="M198 530l-32 -150h150l-24 -33q-8 -12 -21.5 -19.5t-27.5 -7.5h-90l-19 -90q-3 -14 -12.5 -25.5t-23.5 -17.5l-37 -17l32 150h-150l24 33q8 12 21.5 19.5t27.5 7.5h90l19 90q3 14 12.5 25.5t23.5 17.5z" />
    <glyph glyph-name="comma" unicode="," horiz-adv-x="210" 
d="M-74 -71q-5 -13 -16.5 -21t-25.5 -8h-30l91 221q5 13 16.5 21t25.5 8h30z" />
    <glyph glyph-name="hyphen" unicode="-" 
d="M292 347q-8 -12 -21.5 -19.5t-27.5 -7.5h-300l24 34q8 12 21.5 19t27.5 7h300z" />
    <glyph glyph-name="period" unicode="." horiz-adv-x="160" 
d="M-65 0h-60l15 70q3 14 12.5 25.5t23.5 17.5l37 17z" />
    <glyph glyph-name="slash" unicode="/" horiz-adv-x="360" 
d="M232 771q6 13 17.5 21t25.5 8h30l-357 -771q-6 -13 -17.5 -21t-25.5 -8h-30z" />
    <glyph glyph-name="zero" unicode="0" 
d="M105 0h-100q-27 0 -48.5 10t-35.5 28t-19 41.5t1 50.5l114 540q6 27 21.5 50.5t36.5 41.5t47 28t53 10h100q27 0 48.5 -10t35.5 -28t19 -41.5t-1 -50.5l-114 -540q-6 -27 -21.5 -50.5t-36.5 -41.5t-47 -28t-53 -10zM162 740q-29 0 -53.5 -20.5t-31.5 -49.5l-114 -540
q-7 -29 9.5 -49.5t45.5 -20.5h100q29 0 53.5 20.5t31.5 49.5l114 540q7 29 -9.5 49.5t-45.5 20.5h-100z" />
    <glyph glyph-name="one" unicode="1" horiz-adv-x="350" 
d="M295 800l-170 -800h-60l149 700l-142 -175q-9 -11 -23 -18t-27 -7h-41l223 275q10 11 23.5 18t27.5 7h40z" />
    <glyph glyph-name="two" unicode="2" 
d="M217 433q14 15 27.5 36.5t25 44t20.5 45.5t13 41l14 70q7 29 -9.5 49.5t-45.5 20.5h-100q-29 0 -53.5 -20.5t-31.5 -49.5l-8 -40q-3 -14 -12.5 -25.5t-23.5 -17.5l-37 -17l21 100q6 27 21.5 50.5t36.5 41.5t47 28t53 10h100q27 0 48.5 -10t35.5 -28t19 -41.5t-1 -50.5
l-14 -70q-5 -23 -15.5 -50t-24.5 -54t-30 -52t-33 -44l-292 -340h280l-24 -33q-8 -12 -21.5 -19.5t-27.5 -7.5h-300l6 30q3 14 10.5 29t17.5 26z" />
    <glyph glyph-name="three" unicode="3" 
d="M-4 570l21 100q6 27 21.5 50.5t36.5 41.5t47 28t53 10h100q27 0 48.5 -10t35.5 -28t19 -41.5t-1 -50.5l-36 -170q-6 -30 -24 -56t-44 -44q18 -18 25 -44t1 -56l-36 -170q-6 -27 -21.5 -50.5t-36.5 -41.5t-47 -28t-53 -10h-100q-27 0 -48.5 10t-35.5 28t-19 41.5t1 50.5
l8 40q3 14 12.5 25.5t23.5 17.5l37 17l-21 -100q-7 -29 9.5 -49.5t45.5 -20.5h100q29 0 53.5 20.5t31.5 49.5l36 170q6 29 -10 49.5t-45 20.5h-80l24 34q8 11 21 18.5t27 7.5h20q29 0 54 20.5t31 49.5l36 170q7 29 -9.5 49.5t-45.5 20.5h-100q-29 0 -53.5 -20.5t-31.5 -49.5
l-8 -40q-3 -14 -12.5 -25.5t-23.5 -17.5z" />
    <glyph glyph-name="four" unicode="4" 
d="M180 772q7 13 19 20.5t26 7.5h30l-250 -470h300l-24 -33q-8 -12 -21 -19.5t-27 -7.5h-91l-57 -270h-60l57 270h-150l7 30q3 14 8.5 29.5t12.5 28.5z" />
    <glyph glyph-name="five" unicode="5" 
d="M92 740l-66 -310h170q27 0 48.5 -10t35.5 -28t19.5 -41.5t-0.5 -50.5l-36 -170q-6 -27 -21.5 -50.5t-36.5 -41.5t-47 -28t-53 -10h-100q-27 0 -48.5 10t-35.5 28t-19 41.5t1 50.5l8 40q3 14 12.5 25.5t23.5 17.5l37 17l-21 -100q-7 -29 9.5 -49.5t45.5 -20.5h100
q29 0 53.5 20.5t31.5 49.5l36 170q6 29 -10 49.5t-45 20.5h-230l91 430h360l-24 -33q-8 -12 -21.5 -19.5t-26.5 -7.5h-241z" />
    <glyph glyph-name="six" unicode="6" 
d="M369 630q-3 -14 -12.5 -25.5t-23.5 -17.5l-37 -17l21 100q7 29 -9.5 49.5t-45.5 20.5h-100q-29 0 -53.5 -20.5t-31.5 -49.5l-51 -240h170q27 0 48.5 -10t35.5 -28t19.5 -41.5t-0.5 -50.5l-36 -170q-6 -27 -21.5 -50.5t-36.5 -41.5t-47 -28t-53 -10h-100q-27 0 -48.5 10
t-35.5 28t-19 41.5t1 50.5l114 540q6 27 21.5 50.5t36.5 41.5t47 28t53 10h100q27 0 48.5 -10t35.5 -28t19 -41.5t-1 -50.5zM14 370l-51 -240q-7 -29 9.5 -49.5t45.5 -20.5h100q29 0 53.5 20.5t31.5 49.5l36 170q6 29 -10 49.5t-45 20.5h-170z" />
    <glyph glyph-name="seven" unicode="7" 
d="M405 800l-6 -30q-3 -14 -9 -29.5t-14 -28.5l-414 -684q-8 -13 -20.5 -20.5t-26.5 -7.5h-40l447 740h-290l24 34q9 11 22 18.5t27 7.5h300z" />
    <glyph glyph-name="eight" unicode="8" 
d="M239 300q6 29 -10 49.5t-45 20.5h-100q-29 0 -54 -20.5t-31 -49.5l-36 -170q-7 -29 9.5 -49.5t45.5 -20.5h100q29 0 53.5 20.5t31.5 49.5zM41 500q-6 -29 10 -49.5t45 -20.5h100q29 0 54 20.5t31 49.5l36 170q7 29 -9.5 49.5t-45.5 20.5h-100q-29 0 -53.5 -20.5
t-31.5 -49.5zM341 500q-6 -30 -24 -56t-44 -44q18 -18 25 -44t1 -56l-36 -170q-6 -27 -21.5 -50.5t-36.5 -41.5t-47 -28t-53 -10h-100q-27 0 -48.5 10t-35.5 28t-19 41.5t1 50.5l36 170q6 30 24 56t44 44q-38 38 -26 100l36 170q6 27 21.5 50.5t36.5 41.5t47 28t53 10h100
q27 0 48.5 -10t35.5 -28t19 -41.5t-1 -50.5z" />
    <glyph glyph-name="nine" unicode="9" 
d="M-89 170q3 14 12.5 25.5t23.5 17.5l37 17l-21 -100q-7 -29 9.5 -49.5t45.5 -20.5h100q29 0 53.5 20.5t31.5 49.5l51 240h-170q-27 0 -48.5 10t-35.5 28t-19.5 41.5t0.5 50.5l36 170q6 27 21.5 50.5t36.5 41.5t47 28t53 10h100q27 0 48.5 -10t35.5 -28t19 -41.5t-1 -50.5
l-114 -540q-6 -27 -21.5 -50.5t-36.5 -41.5t-47 -28t-53 -10h-100q-27 0 -48.5 10t-35.5 28t-19 41.5t1 50.5zM162 740q-29 0 -53.5 -20.5t-31.5 -49.5l-36 -170q-6 -29 10 -49.5t45 -20.5h170l51 240q7 29 -9.5 49.5t-45.5 20.5h-100z" />
    <glyph glyph-name="colon" unicode=":" horiz-adv-x="160" 
d="M48 530q-3 -14 -12.5 -25.5t-23.5 -17.5l-37 -17l15 70q3 14 12.5 25.5t23.5 17.5l37 17zM-65 0h-60l15 70q3 14 12.5 25.5t23.5 17.5l37 17z" />
    <glyph glyph-name="semicolon" unicode=";" horiz-adv-x="210" 
d="M98 530q-3 -14 -12.5 -25.5t-23.5 -17.5l-37 -17l15 70q3 14 12.5 25.5t23.5 17.5l37 17zM-74 -71q-5 -13 -16.5 -21t-25.5 -8h-30l91 221q5 13 16.5 21t25.5 8h30z" />
    <glyph glyph-name="less" unicode="&#x3c;" 
d="M354 560l-6 -30q-3 -14 -12.5 -25.5t-23.5 -17.5l-303 -137l245 -137q11 -6 15.5 -17.5t1.5 -25.5l-6 -30l-322 180l6 30q3 14 13 25.5t23 17.5z" />
    <glyph glyph-name="equal" unicode="=" 
d="M309 427q-8 -12 -21.5 -19.5t-27.5 -7.5h-300l24 34q8 12 21.5 19t27.5 7h300zM275 267q-8 -12 -21.5 -19.5t-27.5 -7.5h-300l24 34q8 12 21.5 19t27.5 7h300z" />
    <glyph glyph-name="greater" unicode="&#x3e;" 
d="M309 350q-2 -14 -12 -25.5t-23 -17.5l-369 -167l6 30q3 14 12.5 25.5t23.5 17.5l302 137l-244 137q-11 6 -15.5 17.5t-1.5 25.5l6 30l322 -180z" />
    <glyph glyph-name="question" unicode="?" 
d="M113 130l-28 -130h-60l15 70q3 14 12.5 25.5t23.5 17.5zM-4 570l21 100q6 27 21.5 50.5t36.5 41.5t47 28t53 10h100q27 0 48.5 -10t35.5 -28t19 -41.5t-1 -50.5l-42 -200q-6 -27 -21 -50.5t-36.5 -41.5t-47.5 -28t-53 -10h-20l-17 -80q-3 -14 -12.5 -25.5t-23.5 -17.5
l-36 -17l42 200h80q29 0 54 20.5t31 49.5l42 200q7 29 -9.5 49.5t-45.5 20.5h-100q-29 0 -53.5 -20.5t-31.5 -49.5l-8 -40q-3 -14 -12.5 -25.5t-23.5 -17.5z" />
    <glyph glyph-name="at" unicode="@" horiz-adv-x="1000" 
d="M458 60l81 380h-170q-29 0 -54 -20.5t-31 -49.5l-51 -240q-7 -29 9.5 -49.5t45.5 -20.5h170zM283 -200q-94 0 -168.5 35.5t-122.5 97t-66 143t2 174.5q20 94 73 176t127.5 143t163.5 96t182 35t167 -35t122.5 -96t66.5 -143t-2 -176l-25 -120q-6 -27 -21.5 -50.5
t-36.5 -41.5t-47 -28t-53 -10h-370q-27 0 -48.5 10t-35.5 28t-19 41.5t1 50.5l51 240q6 27 21 50.5t36.5 41.5t47 28t52.5 10h230l-93 -440h140q29 0 53.5 20.5t31.5 49.5l25 120q17 81 1.5 152t-57 124t-106 83.5t-145.5 30.5t-158.5 -30.5t-141.5 -83.5t-110 -124
t-63 -152t-1.5 -152t57 -124t106 -83.5t145.5 -30.5h180l-23 -33q-9 -12 -22 -19.5t-27 -7.5h-120z" />
    <glyph glyph-name="A" unicode="A" 
d="M255 800l-20 -800h-30q-14 0 -22 8t-7 21l15 611l-244 -611q-5 -13 -16.5 -21t-25.5 -8h-30l308 771q5 13 16.5 21t25.5 8h30z" />
    <glyph glyph-name="B" unicode="B" 
d="M239 300q6 29 -10 49.5t-45 20.5h-170l-66 -310h170q29 0 53.5 20.5t31.5 49.5zM26 430h170q29 0 54 20.5t31 49.5l36 170q7 29 -9.5 49.5t-45.5 20.5h-170zM341 500q-6 -30 -24 -56t-44 -44q18 -18 25 -44t1 -56l-36 -170q-6 -27 -21.5 -50.5t-36.5 -41.5t-47 -28
t-53 -10h-230l170 800h230q27 0 48.5 -10t35.5 -28t19 -41.5t-1 -50.5z" />
    <glyph glyph-name="C" unicode="C" 
d="M369 630q-3 -14 -12.5 -25.5t-23.5 -17.5l-37 -17l21 100q7 29 -9.5 49.5t-45.5 20.5h-100q-29 0 -53.5 -20.5t-31.5 -49.5l-114 -540q-7 -29 9.5 -49.5t45.5 -20.5h100q29 0 53.5 20.5t31.5 49.5l8 40q3 14 12.5 25.5t23.5 17.5l37 17l-21 -100q-6 -27 -21.5 -50.5
t-36.5 -41.5t-47 -28t-53 -10h-100q-27 0 -48.5 10t-35.5 28t-19 41.5t1 50.5l114 540q6 27 21.5 50.5t36.5 41.5t47 28t53 10h100q27 0 48.5 -10t35.5 -28t19 -41.5t-1 -50.5z" />
    <glyph glyph-name="D" unicode="D" 
d="M105 0h-230l170 800h230q27 0 48.5 -10t35.5 -28t19 -41.5t-1 -50.5l-114 -540q-6 -27 -21.5 -50.5t-36.5 -41.5t-47 -28t-53 -10zM-52 60h170q29 0 53.5 20.5t31.5 49.5l114 540q7 29 -9.5 49.5t-45.5 20.5h-170z" />
    <glyph glyph-name="E" unicode="E" 
d="M14 370l-66 -310h300l-24 -33q-8 -12 -21.5 -19.5t-27.5 -7.5h-300l170 800h360l-24 -33q-8 -12 -21 -19.5t-27 -7.5h-241l-66 -310h210l-23 -33q-9 -12 -22 -19.5t-27 -7.5h-150z" />
    <glyph glyph-name="F" unicode="F" 
d="M92 740l-66 -310h210l-23 -33q-9 -12 -22 -19.5t-27 -7.5h-150l-79 -370h-60l170 800h360l-24 -33q-8 -12 -21.5 -19.5t-26.5 -7.5h-241z" />
    <glyph glyph-name="G" unicode="G" 
d="M369 630q-3 -14 -12.5 -25.5t-23.5 -17.5l-37 -17l21 100q7 29 -9.5 49.5t-45.5 20.5h-100q-29 0 -53.5 -20.5t-31.5 -49.5l-114 -540q-7 -29 9.5 -49.5t45.5 -20.5h100q29 0 53.5 20.5t31.5 49.5l51 240h-150l24 34q8 11 21 18.5t27 7.5h150l-63 -300
q-6 -27 -21.5 -50.5t-36.5 -41.5t-47 -28t-53 -10h-100q-27 0 -48.5 10t-35.5 28t-19 41.5t1 50.5l114 540q6 27 21.5 50.5t36.5 41.5t47 28t53 10h100q27 0 48.5 -10t35.5 -28t19 -41.5t-1 -50.5z" />
    <glyph glyph-name="H" unicode="H" 
d="M405 800l-170 -800h-60l79 370h-240l-79 -370h-60l157 740q3 14 12.5 25.5t23.5 17.5l37 17l-79 -370h240l66 310q3 14 12.5 25.5t23.5 17.5z" />
    <glyph glyph-name="I" unicode="I" horiz-adv-x="180" 
d="M42 740q3 14 12.5 25.5t23.5 17.5l37 17l-170 -800h-60z" />
    <glyph glyph-name="J" unicode="J" 
d="M-89 170q3 14 12.5 25.5t23.5 17.5l37 17l-21 -100q-7 -29 9.5 -49.5t45.5 -20.5h100q29 0 53.5 20.5t31.5 49.5l129 610h-300l24 34q9 11 22 18.5t27 7.5h300l-142 -670q-6 -27 -21.5 -50.5t-36.5 -41.5t-47 -28t-53 -10h-100q-27 0 -48.5 10t-35.5 28t-19 41.5t1 50.5z
" />
    <glyph glyph-name="K" unicode="K" 
d="M405 800l-224 -400l54 -400h-30q-29 0 -34 28l-46 342h-111l-79 -370h-60l157 740q3 14 12.5 25.5t23.5 17.5l37 17l-79 -370h111l192 342q8 13 20 20.5t26 7.5h30z" />
    <glyph glyph-name="L" unicode="L" 
d="M224 27q-8 -12 -21.5 -19.5t-27.5 -7.5h-300l157 740q3 14 12.5 25.5t23.5 17.5l37 17l-157 -740h300z" />
    <glyph glyph-name="M" unicode="M" horiz-adv-x="520" 
d="M465 800l-170 -800h-60l128 600l-191 -372q-7 -13 -18.5 -20.5t-25.5 -7.5h-30l-35 400l-128 -600h-60l170 800h30q14 0 22.5 -7.5t10.5 -20.5l41 -472l242 472q6 13 18 20.5t26 7.5h30z" />
    <glyph glyph-name="N" unicode="N" 
d="M405 800l-170 -800h-30q-14 0 -23 7.5t-11 20.5l-100 612l-136 -640h-60l170 800h30q14 0 23.5 -7.5t11.5 -20.5l99 -612l123 580q3 14 12.5 25.5t23.5 17.5z" />
    <glyph glyph-name="O" unicode="O" 
d="M105 0h-100q-27 0 -48.5 10t-35.5 28t-19 41.5t1 50.5l114 540q6 27 21.5 50.5t36.5 41.5t47 28t53 10h100q27 0 48.5 -10t35.5 -28t19 -41.5t-1 -50.5l-114 -540q-6 -27 -21.5 -50.5t-36.5 -41.5t-47 -28t-53 -10zM162 740q-29 0 -53.5 -20.5t-31.5 -49.5l-114 -540
q-7 -29 9.5 -49.5t45.5 -20.5h100q29 0 53.5 20.5t31.5 49.5l114 540q7 29 -9.5 49.5t-45.5 20.5h-100z" />
    <glyph glyph-name="P" unicode="P" 
d="M317 670q7 29 -9.5 49.5t-45.5 20.5h-170l-66 -310h170q29 0 54 20.5t31 49.5zM275 800q27 0 48.5 -10t35.5 -28t19 -41.5t-1 -50.5l-36 -170q-6 -27 -21 -50.5t-36.5 -41.5t-47 -28t-52.5 -10h-170l-79 -370h-60l170 800h230z" />
    <glyph glyph-name="Q" unicode="Q" 
d="M317 670q7 29 -9.5 49.5t-45.5 20.5h-100q-29 0 -53.5 -20.5t-31.5 -49.5l-114 -540q-7 -29 9.5 -49.5t45.5 -20.5h100q29 0 53.5 20.5t31.5 49.5zM4 -100l21 100h-20q-27 0 -48.5 10t-35.5 28t-19 41.5t1 50.5l114 540q6 27 21.5 50.5t36.5 41.5t47 28t53 10h100
q27 0 48.5 -10t35.5 -28t19 -41.5t-1 -50.5l-114 -540q-6 -27 -21.5 -50.5t-36.5 -41.5t-47 -28t-53 -10h-20l-9 -40q-2 -14 -12 -25.5t-23 -17.5z" />
    <glyph glyph-name="R" unicode="R" 
d="M26 430h170q29 0 54 20.5t31 49.5l36 170q7 29 -9.5 49.5t-45.5 20.5h-170zM341 500q-6 -30 -24 -56t-44 -44q18 -18 25 -44t1 -56l-64 -300h-60l64 300q6 29 -10 49.5t-45 20.5h-170l-79 -370h-60l170 800h230q27 0 48.5 -10t35.5 -28t19 -41.5t-1 -50.5z" />
    <glyph glyph-name="S" unicode="S" 
d="M-101 34q8 11 21.5 18.5t26.5 7.5h171q29 0 53.5 20.5t31.5 49.5l36 170q6 29 -10 49.5t-45 20.5h-100q-27 0 -48.5 10t-35.5 28t-19.5 41.5t0.5 50.5l36 170q6 27 21.5 50.5t36.5 41.5t47 28t53 10h230l-24 -33q-8 -12 -21 -19.5t-27 -7.5h-171q-29 0 -53.5 -20.5
t-31.5 -49.5l-36 -170q-6 -29 10 -49.5t45 -20.5h100q27 0 48.5 -10t35.5 -28t19.5 -41.5t-0.5 -50.5l-36 -170q-6 -27 -21.5 -50.5t-36.5 -41.5t-47 -28t-53 -10h-230z" />
    <glyph glyph-name="T" unicode="T" 
d="M405 800l-24 -33q-8 -12 -21.5 -19.5t-26.5 -7.5h-91l-157 -740h-60l157 740h-150l24 34q9 11 22 18.5t27 7.5h300z" />
    <glyph glyph-name="U" unicode="U" 
d="M32 740q3 14 12.5 25.5t23.5 17.5l37 17l-142 -670q-7 -29 9.5 -49.5t45.5 -20.5h100q29 0 53.5 20.5t31.5 49.5l129 610q3 14 12.5 25.5t23.5 17.5l37 17l-142 -670q-6 -27 -21.5 -50.5t-36.5 -41.5t-47 -28t-53 -10h-100q-27 0 -48.5 10t-35.5 28t-19 41.5t1 50.5z" />
    <glyph glyph-name="V" unicode="V" 
d="M25 0l20 800h30q14 0 22 -8t7 -21l-15 -611l244 611q5 13 16.5 21t25.5 8h30l-308 -771q-5 -13 -16.5 -21t-25.5 -8h-30z" />
    <glyph glyph-name="W" unicode="W" horiz-adv-x="580" 
d="M525 800l-279 -771q-5 -13 -16 -21t-25 -8h-30l25 400l-134 -371q-5 -13 -16 -21t-25 -8h-30l50 800h30q14 0 21.5 -8t6.5 -21l-35 -571l134 371q5 13 15.5 21t24.5 8h31l-25 -400l206 571q5 13 16 21t25 8h30z" />
    <glyph glyph-name="X" unicode="X" 
d="M405 800l-235 -400l65 -400h-30q-14 0 -23 7.5t-11 20.5l-48 292l-172 -292q-8 -13 -20 -20.5t-26 -7.5h-30l235 400l-65 400h30q14 0 23.5 -7.5t11.5 -20.5l47 -292l172 292q8 13 20 20.5t26 7.5h30z" />
    <glyph glyph-name="Y" unicode="Y" 
d="M405 800l-246 -450l-74 -350h-60l74 350l-54 450h30q14 0 22.5 -7.5t10.5 -20.5l41 -332l181 332q7 13 19 20.5t26 7.5h30z" />
    <glyph glyph-name="Z" unicode="Z" 
d="M322 740h-290l24 34q9 11 22 18.5t27 7.5h300l-6 -30q-3 -14 -9.5 -29.5t-14.5 -27.5l-417 -653h290l-24 -33q-8 -12 -21.5 -19.5t-27.5 -7.5h-300l6 30q3 14 9.5 29.5t14.5 27.5z" />
    <glyph glyph-name="bracketleft" unicode="[" horiz-adv-x="310" 
d="M61 -33q-8 -12 -21.5 -19.5t-27.5 -7.5h-150l196 920h210l-24 -33q-8 -12 -21.5 -19.5t-27.5 -7.5h-90l-170 -800h150z" />
    <glyph glyph-name="backslash" unicode="\" horiz-adv-x="360" 
d="M135 0h-30q-14 0 -22 8t-9 21l-29 771h30q14 0 22.5 -8t8.5 -21z" />
    <glyph glyph-name="bracketright" unicode="]" horiz-adv-x="310" 
d="M-125 0h150l170 800h-90q-14 0 -24 7.5t-14 19.5l-9 33h210l-196 -920h-150q-14 0 -24 7.5t-13 19.5z" />
    <glyph glyph-name="asciicircum" unicode="^" 
d="M255 800l108 -200h-31q-13 0 -25 6.5t-17 17.5l-73 136l-131 -136q-11 -11 -25 -17.5t-28 -6.5h-30l169 176q11 11 25 17.5t28 6.5h30z" />
    <glyph glyph-name="underscore" unicode="_" 
d="M201 -83q-9 -12 -22 -19.5t-27 -7.5h-300l23 33q9 12 22 19.5t27 7.5h300z" />
    <glyph glyph-name="grave" unicode="`" horiz-adv-x="260" 
d="M45 800h30q14 0 25 -7t16 -18l57 -125h-30q-14 0 -25 7t-16 18z" />
    <glyph glyph-name="a" unicode="a" 
d="M188 60l59 280h-170q-29 0 -53.5 -20.5t-31.5 -49.5l-29 -140q-7 -29 9.5 -49.5t45.5 -20.5h170zM233 600q27 0 48 -10t35 -28t19.5 -41.5t-0.5 -50.5l-100 -470h-230q-27 0 -48.5 10t-35.5 28t-19 41.5t1 50.5l29 140q6 27 21.5 50.5t36.5 41.5t47 28t53 10h170l15 70
q6 29 -10 49.5t-45 20.5h-230l24 34q8 11 21 18.5t27 7.5h171z" />
    <glyph glyph-name="b" unicode="b" 
d="M105 800l-42 -200h170q27 0 48 -10t35 -28t19.5 -41.5t-0.5 -50.5l-72 -340q-6 -27 -21.5 -50.5t-36.5 -41.5t-47 -28t-53 -10h-230l157 740q3 14 12.5 25.5t23.5 17.5zM275 470q6 29 -10 49.5t-45 20.5h-170l-102 -480h170q29 0 53.5 20.5t31.5 49.5z" />
    <glyph glyph-name="c" unicode="c" 
d="M326 430q-2 -14 -12 -25.5t-23 -17.5l-37 -17l21 100q6 29 -10 49.5t-45 20.5h-100q-29 0 -54 -20.5t-31 -49.5l-72 -340q-7 -29 9.5 -49.5t45.5 -20.5h100q29 0 53.5 20.5t31.5 49.5l8 40q3 14 12.5 25.5t23.5 17.5l37 17l-21 -100q-6 -27 -21.5 -50.5t-36.5 -41.5
t-47 -28t-53 -10h-100q-27 0 -48.5 10t-35.5 28t-19 41.5t1 50.5l72 340q6 27 21 50.5t36.5 41.5t47.5 28t53 10h100q27 0 48 -10t35 -28t19.5 -41.5t-0.5 -50.5z" />
    <glyph glyph-name="d" unicode="d" 
d="M188 60l102 480h-170q-29 0 -54 -20.5t-31 -49.5l-72 -340q-7 -29 9.5 -49.5t45.5 -20.5h170zM405 800l-170 -800h-230q-27 0 -48.5 10t-35.5 28t-19 41.5t1 50.5l72 340q6 27 21 50.5t36.5 41.5t47.5 28t53 10h170l29 140q3 14 12.5 25.5t23.5 17.5z" />
    <glyph glyph-name="e" unicode="e" 
d="M121 374q9 11 22 18.5t27 7.5h90l15 70q6 29 -10 49.5t-45 20.5h-100q-29 0 -54 -20.5t-31 -49.5l-72 -340q-7 -29 9.5 -49.5t45.5 -20.5h100q29 0 53.5 20.5t31.5 49.5l8 40q3 14 12.5 25.5t23.5 17.5l37 17l-21 -100q-6 -27 -21.5 -50.5t-36.5 -41.5t-47 -28t-53 -10
h-100q-27 0 -48.5 10t-35.5 28t-19 41.5t1 50.5l72 340q6 27 21 50.5t36.5 41.5t47.5 28t53 10h100q27 0 48 -10t35 -28t19.5 -41.5t-0.5 -50.5l-28 -130h-210z" />
    <glyph glyph-name="f" unicode="f" horiz-adv-x="310" 
d="M162 740q-29 0 -53.5 -20.5t-31.5 -49.5l-14 -70h120l-24 -33q-9 -12 -22 -19.5t-27 -7.5h-60l-115 -540h-60l142 670q6 27 21.5 50.5t36.5 41.5t47 28t53 10h80l-24 -33q-8 -12 -21.5 -19.5t-26.5 -7.5h-21z" />
    <glyph glyph-name="g" unicode="g" 
d="M188 60l102 480h-170q-29 0 -54 -20.5t-31 -49.5l-72 -340q-7 -29 9.5 -49.5t45.5 -20.5h170zM75 -140q29 0 54 20.5t31 49.5l15 70h-170q-27 0 -48.5 10t-35.5 28t-19 41.5t1 50.5l72 340q6 27 21 50.5t36.5 41.5t47.5 28t53 10h230l-143 -670q-6 -27 -21 -50.5
t-36.5 -41.5t-47 -28t-52.5 -10h-231l24 33q9 12 22 19.5t27 7.5h170z" />
    <glyph glyph-name="h" unicode="h" 
d="M105 800l-42 -200h170q27 0 48 -10t35 -28t19.5 -41.5t-0.5 -50.5l-100 -470h-60l100 470q6 29 -10 49.5t-45 20.5h-170l-115 -540h-60l157 740q3 14 12.5 25.5t23.5 17.5z" />
    <glyph glyph-name="i" unicode="i" horiz-adv-x="180" 
d="M0 540q3 14 12.5 25.5t23.5 17.5l37 17l-128 -600h-60zM100 730q-3 -14 -12.5 -25.5t-22.5 -17.5l-38 -17l15 70q3 14 12.5 25.5t23.5 17.5l37 17z" />
    <glyph glyph-name="j" unicode="j" horiz-adv-x="310" 
d="M240 730q-3 -14 -12.5 -25.5t-22.5 -17.5l-37 -17l14 70q3 14 12.5 25.5t23.5 17.5l37 17zM-144 -167q9 12 22 19.5t27 7.5h20q29 0 54 20.5t31 49.5l130 610q3 14 12.5 25.5t23.5 17.5l37 17l-143 -670q-6 -27 -21 -50.5t-36.5 -41.5t-47.5 -28t-53 -10h-80z" />
    <glyph glyph-name="k" unicode="k" 
d="M363 600l-187 -236l59 -364h-30q-14 0 -23 7.5t-11 20.5l-51 312h-113l-72 -340h-60l157 740q3 14 12.5 25.5t23.5 17.5l37 17l-85 -400h125l137 174q9 12 22.5 19t27.5 7h31z" />
    <glyph glyph-name="l" unicode="l" horiz-adv-x="180" 
d="M42 740q3 14 12.5 25.5t23.5 17.5l37 17l-170 -800h-60z" />
    <glyph glyph-name="m" unicode="m" horiz-adv-x="580" 
d="M353 600q27 0 48 -10t35 -28t19.5 -41.5t-0.5 -50.5l-100 -470h-60l100 470q6 29 -10 49.5t-45 20.5h-80l-115 -540h-60l115 540h-150l-115 -540h-60l128 600h350v0z" />
    <glyph glyph-name="n" unicode="n" 
d="M235 0h-60l100 470q6 29 -10 49.5t-45 20.5h-170l-115 -540h-60l128 600h230q27 0 48 -10t35 -28t19.5 -41.5t-0.5 -50.5z" />
    <glyph glyph-name="o" unicode="o" 
d="M105 0h-100q-27 0 -48.5 10t-35.5 28t-19 41.5t1 50.5l72 340q6 27 21 50.5t36.5 41.5t47.5 28t53 10h100q27 0 48 -10t35 -28t19.5 -41.5t-0.5 -50.5l-72 -340q-6 -27 -21.5 -50.5t-36.5 -41.5t-47 -28t-53 -10zM120 540q-29 0 -54 -20.5t-31 -49.5l-72 -340
q-7 -29 9.5 -49.5t45.5 -20.5h100q29 0 53.5 20.5t31.5 49.5l72 340q6 29 -10 49.5t-45 20.5h-100z" />
    <glyph glyph-name="p" unicode="p" 
d="M-168 -200l171 800h230q27 0 48 -10t35 -28t19.5 -41.5t-0.5 -50.5l-72 -340q-6 -27 -21.5 -50.5t-36.5 -41.5t-47 -28t-53 -10h-170l-30 -140q-3 -14 -12.5 -25.5t-22.5 -17.5zM275 470q6 29 -10 49.5t-45 20.5h-170l-102 -480h170q29 0 53.5 20.5t31.5 49.5z" />
    <glyph glyph-name="q" unicode="q" 
d="M132 -200l43 200h-170q-27 0 -48.5 10t-35.5 28t-19 41.5t1 50.5l72 340q6 27 21 50.5t36.5 41.5t47.5 28t53 10h230l-158 -740q-3 -14 -12.5 -25.5t-22.5 -17.5zM188 60l102 480h-170q-29 0 -54 -20.5t-31 -49.5l-72 -340q-7 -29 9.5 -49.5t45.5 -20.5h170z" />
    <glyph glyph-name="r" unicode="r" horiz-adv-x="370" 
d="M249 567q-9 -12 -22 -19.5t-27 -7.5h-80q-29 0 -54 -20.5t-31 -49.5l-100 -470h-60l100 470q6 27 21 50.5t36.5 41.5t47.5 28t53 10h140z" />
    <glyph glyph-name="s" unicode="s" 
d="M-101 34q8 11 21.5 18.5t26.5 7.5h171q29 0 53.5 20.5t31.5 49.5l29 140q7 29 -9.5 49.5t-45.5 20.5h-100q-27 0 -48 10t-35 28t-19.5 41.5t0.5 50.5t21 50.5t36.5 41.5t47.5 28t53 10h230l-24 -33q-9 -12 -22 -19.5t-27 -7.5h-170q-29 0 -54 -20.5t-31 -49.5t10 -49.5
t45 -20.5h100q27 0 48.5 -10t35.5 -28t19 -41.5t-1 -50.5l-29 -140q-6 -27 -21.5 -50.5t-36.5 -41.5t-47 -28t-53 -10h-230z" />
    <glyph glyph-name="t" unicode="t" horiz-adv-x="370" 
d="M50 540l-87 -410q-7 -29 9.5 -49.5t45.5 -20.5h140l-24 -33q-8 -12 -21.5 -19.5t-27.5 -7.5h-80q-27 0 -48.5 10t-35.5 28t-19 41.5t1 50.5l129 610q3 14 12.5 25.5t23.5 17.5l37 17l-42 -200h150l-24 -33q-9 -12 -22 -19.5t-27 -7.5h-90z" />
    <glyph glyph-name="u" unicode="u" 
d="M-10 540q3 14 12.5 25.5t23.5 17.5l37 17l-100 -470q-7 -29 9.5 -49.5t45.5 -20.5h100q29 0 53.5 20.5t31.5 49.5l87 410q3 14 12.5 25.5t23.5 17.5l37 17l-100 -470q-6 -27 -21.5 -50.5t-36.5 -41.5t-47 -28t-53 -10h-100q-27 0 -48.5 10t-35.5 28t-19 41.5t1 50.5z" />
    <glyph glyph-name="v" unicode="v" 
d="M363 600l-265 -571q-6 -13 -17.5 -21t-25.5 -8h-30l-22 600h30q29 0 31 -29l17 -451l208 451q6 14 17.5 21.5t25.5 7.5h31z" />
    <glyph glyph-name="w" unicode="w" horiz-adv-x="580" 
d="M483 600l-236 -571q-5 -13 -16.5 -21t-25.5 -8h-30l11 333l-120 -304q-5 -13 -16 -21t-25 -8h-30l8 600h30q14 0 21.5 -8t7.5 -21l-5 -413l123 313q5 13 16 21t25 8h30l-11 -342l171 413q5 13 16 21t25 8h31z" />
    <glyph glyph-name="x" unicode="x" 
d="M363 600l-214 -300l86 -300h-30q-14 0 -24 7.5t-14 19.5l-61 213l-152 -213q-8 -12 -21.5 -19.5t-27.5 -7.5h-30l214 300l-86 300h30q14 0 24 -7.5t13 -18.5l62 -214l152 214q8 11 21 18.5t27 7.5h31z" />
    <glyph glyph-name="y" unicode="y" 
d="M-95 -138q28 7 53 26.5t37 45.5l30 66l-22 600h30q29 0 31 -29l17 -451l208 451q6 14 17.5 21.5t25.5 7.5h31l-315 -680q-11 -24 -30.5 -46t-43.5 -38.5t-50.5 -26t-51.5 -9.5h-40l24 33q15 21 49 29z" />
    <glyph glyph-name="z" unicode="z" 
d="M280 540h-290l24 34q8 11 21 18.5t27 7.5h301l-7 -30q-3 -14 -10 -29t-17 -26l-371 -455h290l-24 -33q-8 -12 -21.5 -19.5t-27.5 -7.5h-300l6 30q3 14 10.5 29t16.5 26z" />
    <glyph glyph-name="braceleft" unicode="{" 
d="M325 800q-29 0 -54 -20.5t-31 -49.5l-49 -230q-6 -30 -24 -56t-44 -44q18 -18 25 -44t1 -56l-49 -230q-6 -29 10 -49.5t45 -20.5h80l-24 -33q-8 -12 -21.5 -19.5t-27.5 -7.5h-20q-27 0 -48 10t-35 28t-19.5 41.5t0.5 50.5l49 230q6 29 -10 49.5t-45 20.5v0h-80l23 33
q9 12 22 19.5t27 7.5h20q29 0 54 20.5t31 49.5l49 230q6 27 21 50.5t36.5 41.5t47.5 28t53 10h80l-24 -33q-8 -12 -21.5 -19.5t-27.5 -7.5h-20z" />
    <glyph glyph-name="bar" unicode="|" horiz-adv-x="180" 
d="M-64 -40q-2 -14 -12 -25.5t-23 -17.5l-37 -17l200 940q2 14 12 25.5t23 17.5l37 17z" />
    <glyph glyph-name="braceright" unicode="}" 
d="M69 833q8 12 21.5 19.5t27.5 7.5h20q27 0 48.5 -10t35 -28t19 -41.5t-0.5 -50.5l-49 -230q-6 -29 10 -49.5t45 -20.5h80l-23 -33q-9 -12 -22 -19.5t-27 -7.5h-20q-29 0 -54 -20.5t-31 -49.5l-49 -230q-6 -27 -21 -50.5t-36.5 -41.5t-47.5 -28t-53 -10h-80l24 33
q8 12 21.5 19.5t27.5 7.5h20q29 0 54 20.5t31 49.5l49 230q6 30 24 56t44 44q-38 38 -26 100l49 230q6 29 -10 49.5t-45 20.5h-80z" />
    <glyph glyph-name="asciitilde" unicode="~" 
d="M15 339q-13 -16 -23 -22.5t-21 -6.5h-30q5 24 17.5 44t30 35t39.5 23t46 8q18 0 31.5 -5t23 -12.5t16 -16t11.5 -16.5q11 -15 18.5 -22.5t22.5 -7.5q30 0 47 22q24 28 44 28h30q-10 -48 -47.5 -79t-85.5 -31q-18 0 -31.5 5t-23 12.5t-16 16.5t-11.5 17q-11 15 -18.5 22
t-22.5 7q-29 0 -47 -21z" />
    <glyph glyph-name="exclamdown" unicode="&#xa1;" horiz-adv-x="180" 
d="M0 540q3 14 12.5 25.5t23.5 17.5l37 17l-128 -600h-60zM100 730q-3 -14 -12.5 -25.5t-22.5 -17.5l-38 -17l15 70q3 14 12.5 25.5t23.5 17.5l37 17z" />
    <glyph glyph-name="cent" unicode="&#xa2;" 
d="M38 60l102 480h-20q-29 0 -54 -20.5t-31 -49.5l-72 -340q-7 -29 9.5 -49.5t45.5 -20.5h20zM254 370l21 100q6 29 -10 49.5t-45 20.5h-20l-102 -480h20q29 0 53.5 20.5t31.5 49.5l8 40q3 14 12.5 25.5t23.5 17.5l37 17l-21 -100q-6 -27 -21.5 -50.5t-36.5 -41.5t-47 -28
t-53 -10h-20l-8 -40q-3 -14 -13 -25.5t-23 -17.5l-37 -17l21 100h-20q-27 0 -48.5 10t-35.5 28t-19 41.5t1 50.5l72 340q6 27 21 50.5t36.5 41.5t47.5 28t53 10h20l8 40q3 14 12.5 25.5t23.5 17.5l37 17l-21 -100h20q27 0 48 -10t35 -28t19.5 -41.5t-0.5 -50.5l-9 -40
q-2 -14 -12 -25.5t-23 -17.5z" />
    <glyph glyph-name="sterling" unicode="&#xa3;" horiz-adv-x="580" 
d="M416 570l21 100q7 29 -9.5 49.5t-45.5 20.5h-100q-29 0 -53.5 -20.5t-31.5 -49.5l-50 -239h150l-24 -33q-8 -12 -21.5 -19.5t-27.5 -7.5h-90l-66 -311h300l-24 -33q-8 -12 -21.5 -19.5t-27.5 -7.5h-300l79 371h-120l24 33q8 12 21.5 19.5t26.5 7.5h61l50 239
q6 27 21.5 50.5t36.5 41.5t47 28t53 10h100q27 0 48.5 -10t35.5 -28t19 -41.5t-1 -50.5l-8 -40q-3 -14 -12.5 -25.5t-23.5 -17.5z" />
    <glyph glyph-name="currency" unicode="&#xa4;" horiz-adv-x="502" 
d="M31 350q-5 -25 -0.5 -46.5t17.5 -38t32.5 -26t44.5 -9.5t49 9.5t43.5 26t34 38t19.5 46.5t0 46.5t-17.5 38t-32.5 26t-45 9.5t-48.5 -9.5t-43.5 -26t-34 -38t-19 -46.5zM331 350q-7 -29 -21.5 -55.5t-34.5 -48.5l43 -55l-51 -42l-43 54q-53 -33 -112 -33q-58 0 -97 33
l-66 -54l-33 42l66 55q-11 22 -14.5 48.5t3.5 55.5q6 29 20.5 55.5t34.5 48.5l-43 55l52 42l43 -54q25 15 53.5 24t57.5 9t53.5 -9t43.5 -24l66 54l34 -42l-67 -55q11 -22 14.5 -48.5t-2.5 -55.5z" />
    <glyph glyph-name="yen" unicode="&#xa5;" 
d="M405 800l-218 -400h133l-24 -33q-8 -12 -21.5 -19.5t-26.5 -7.5h-91l-72 -340h-60l72 340h-150l24 33q8 12 21.5 19.5t27.5 7.5h73l-48 400h30q29 0 34 -28l40 -332l181 332q7 13 19 20.5t26 7.5h30z" />
    <glyph glyph-name="brokenbar" unicode="&#xa6;" horiz-adv-x="180" 
d="M136 900l-72 -340q-3 -14 -12.5 -25.5t-23.5 -17.5l-37 -17l73 340q2 14 12 25.5t24 17.5zM9 300l-73 -340q-2 -14 -12 -25.5t-23 -17.5l-37 -17l72 340q3 14 12.5 25.5t23.5 17.5z" />
    <glyph glyph-name="section" unicode="&#xa7;" 
d="M218 200l27 130q6 29 -10 49.5t-45 20.5h-170l-28 -130q-6 -29 10.5 -49.5t45.5 -20.5h170zM162 740q-29 0 -53.5 -20.5t-31.5 -49.5l-44 -210h170q27 0 48.5 -10t35 -28t19 -41.5t-0.5 -50.5l-85 -400q-6 -27 -21 -50.5t-36.5 -41.5t-47 -28t-52.5 -10h-231l24 33
q9 12 22 19.5t27 7.5h170q29 0 54 20.5t31 49.5l45 210h-170q-27 0 -48.5 10t-35.5 28t-19.5 41.5t0.5 50.5l85 400q6 27 21.5 50.5t36.5 41.5t47 28t53 10h230l-24 -33q-8 -12 -21.5 -19.5t-26.5 -7.5h-171z" />
    <glyph glyph-name="dieresis" unicode="&#xa8;" horiz-adv-x="280" 
d="M90 730q-3 -14 -12.5 -25.5t-22.5 -17.5l-38 -17l15 70q3 14 12.5 25.5t23.5 17.5l37 17zM210 730q-3 -14 -12.5 -25.5t-22.5 -17.5l-38 -17l15 70q3 14 12.5 25.5t23.5 17.5l37 17z" />
    <glyph glyph-name="copyright" unicode="&#xa9;" horiz-adv-x="1000" 
d="M461 640q-81 0 -158.5 -30.5t-141.5 -83.5t-110 -124t-63 -152t-1.5 -152t57 -124t106 -83.5t145.5 -30.5t158.5 30.5t141.5 83.5t110 124t63 152t1.5 152t-57 124t-106 83.5t-145.5 30.5zM283 -200q-93 0 -167.5 35t-122.5 96t-66.5 143t1.5 176q20 93 72.5 174.5
t126.5 143t163.5 97t183.5 35.5q93 0 167 -35t122.5 -96t66.5 -143t-2 -176q-19 -93 -71.5 -174.5t-126.5 -143t-163.5 -97t-183.5 -35.5zM582 360q-3 -14 -13 -25.5t-23 -17.5l-37 -17l15 70q6 29 -10 49.5t-45 20.5h-100q-29 0 -54 -20.5t-31 -49.5l-51 -240
q-7 -29 9.5 -49.5t45.5 -20.5h100q29 0 53.5 20.5t31.5 49.5l8 40q3 14 12.5 25.5t23.5 17.5l37 17l-21 -100q-6 -27 -21.5 -50.5t-36.5 -41.5t-47 -28t-53 -10h-100q-27 0 -48.5 10t-35.5 28t-19 41.5t1 50.5l51 240q6 27 21 50.5t36.5 41.5t47 28t52.5 10h100
q27 0 48.5 -10t35.5 -28t19.5 -41.5t-0.5 -50.5z" />
    <glyph glyph-name="guillemotleft" unicode="&#xab;" horiz-adv-x="630" 
d="M524 560l-6 -30q-3 -14 -12.5 -26.5t-22.5 -19.5l-229 -134l172 -133q10 -8 14 -20.5t1 -26.5l-6 -30l-232 180l6 30q3 14 12.5 26.5t22.5 20.5zM-6 351l172 -134q10 -8 14 -20.5t1 -26.5l-6 -30l-232 180l6 30q3 14 12.5 26.5t22.5 20.5l270 163l-6 -30
q-3 -14 -12.5 -26.5t-22.5 -20.5z" />
    <glyph glyph-name="logicalnot" unicode="&#xac;" 
d="M290 260l-55 -260h-60l43 200h-301l24 33q9 12 22 19.5t27 7.5h300z" />
    <glyph glyph-name="registered" unicode="&#xae;" horiz-adv-x="1000" 
d="M295 -140q81 0 158.5 30.5t141.5 83.5t110 124t63 152t1.5 152t-57 124t-106 83.5t-145.5 30.5t-158.5 -30.5t-141.5 -83.5t-110 -124t-63 -152t-1.5 -152t57 -124t106 -83.5t145.5 -30.5zM254 230h170q29 0 54 20.5t31 49.5l15 70q6 29 -10 49.5t-45 20.5h-170zM481 500
q27 0 48.5 -10t35.5 -28t19.5 -41.5t-0.5 -50.5l-15 -70q-7 -30 -25 -56t-43 -44q17 -18 24.5 -44t0.5 -56l-21 -100h-60l21 100q7 29 -9.5 49.5t-45.5 20.5h-170l-36 -170h-60l106 500h230zM474 700q93 0 167 -35t122.5 -96t66.5 -143t-2 -176t-73 -176t-127 -143
t-163.5 -96t-181.5 -35q-94 0 -168.5 35.5t-122.5 97t-66 143t2 174.5q20 94 73 176t127.5 143t163.5 96t182 35z" />
    <glyph glyph-name="macron" unicode="&#xaf;" 
d="M405 877q-9 -12 -22 -19.5t-27 -7.5h-300l23 33q9 12 22 19.5t27 7.5h300z" />
    <glyph glyph-name="degree" unicode="&#xb0;" horiz-adv-x="360" 
d="M120 540q-27 0 -48.5 10t-35.5 28t-19.5 41.5t0.5 50.5t21.5 50.5t36.5 41.5t47 28t53 10t48.5 -10t35.5 -28t19 -41.5t-1 -50.5t-21 -50.5t-36 -41.5t-47 -28t-53 -10zM162 740q-29 0 -53.5 -20.5t-31.5 -49.5q-6 -29 10.5 -49.5t45.5 -20.5t53.5 20.5t30.5 49.5
q7 29 -9.5 49.5t-45.5 20.5z" />
    <glyph glyph-name="plusminus" unicode="&#xb1;" 
d="M215 610l-32 -150h150l-24 -33q-8 -12 -21.5 -19.5t-27.5 -7.5h-90l-19 -90q-3 -14 -12.5 -25.5t-23.5 -17.5l-37 -17l32 150h-150l24 33q8 12 21.5 19.5t27.5 7.5h90l19 90q3 14 12.5 25.5t23.5 17.5zM243 117q-8 -12 -21.5 -19.5t-27.5 -7.5h-300l24 33q8 12 21.5 19.5
t27.5 7.5h300z" />
    <glyph glyph-name="acute" unicode="&#xb4;" horiz-adv-x="260" 
d="M123 775q10 11 24 18t28 7h30l-110 -125q-10 -11 -24 -18t-28 -7h-30z" />
    <glyph glyph-name="mu" unicode="&#xb5;" 
d="M363 600l-100 -470q-6 -27 -21.5 -50.5t-36.5 -41.5t-47 -28t-53 -10h-170l-30 -140q-3 -14 -12.5 -25.5t-23.5 -17.5l-37 -17l158 740q3 14 12.5 25.5t23.5 17.5l37 17l-115 -540h170q29 0 53.5 20.5t31.5 49.5l87 410q3 14 12.5 25.5t23.5 17.5z" />
    <glyph glyph-name="paragraph" unicode="&#xb6;" horiz-adv-x="540" 
d="M485 800l-170 -800h-60l157 740h-120l-157 -740h-60l85 400q-41 0 -74 16t-54.5 43t-29.5 63.5t1 77.5q9 42 32 78.5t56 63.5t73 42.5t81 15.5h240z" />
    <glyph glyph-name="periodcentered" unicode="&#xb7;" horiz-adv-x="160" 
d="M48 530q-3 -14 -12.5 -25.5t-23.5 -17.5l-37 -17l15 70q3 14 12.5 25.5t23.5 17.5l37 17z" />
    <glyph glyph-name="guillemotright" unicode="&#xbb;" horiz-adv-x="630" 
d="M-6 560l232 -180l-7 -30q-2 -14 -11.5 -26.5t-22.5 -19.5l-280 -164l6 30q3 14 12.5 26.5t22.5 20.5l228 133l-171 134q-10 7 -14 19.5t-1 26.5zM264 560l222 -180l-7 -30q-2 -14 -11.5 -26.5t-22.5 -19.5l-280 -164l6 30q3 14 12.5 26.5t22.5 20.5l229 134l-163 132
q-9 8 -13 20.5t-1 26.5z" />
    <glyph glyph-name="questiondown" unicode="&#xbf;" 
d="M255 800l-15 -70q-3 -14 -12.5 -25.5t-23.5 -17.5l-37 -17l15 70q3 14 13 25.5t23 17.5zM284 230l-21 -100q-6 -27 -21.5 -50.5t-36.5 -41.5t-47 -28t-53 -10h-100q-27 0 -48.5 10t-35.5 28t-19 41.5t1 50.5l42 200q6 27 21 50.5t36.5 41.5t47.5 28t53 10h20l17 80
q3 14 12.5 25.5t23.5 17.5l37 17l-43 -200h-80q-29 0 -54 -20.5t-31 -49.5l-42 -200q-7 -29 9.5 -49.5t45.5 -20.5h100q29 0 53.5 20.5t31.5 49.5l8 40q3 14 12.5 25.5t23.5 17.5z" />
    <glyph glyph-name="Agrave" unicode="&#xc0;" 
d="M255 800l-20 -800h-30q-14 0 -22 8t-7 21l15 611l-244 -611q-5 -13 -16.5 -21t-25.5 -8h-30l308 771q5 13 16.5 21t25.5 8h30zM138 1000h30q14 0 25 -7t16 -18l57 -125h-30q-14 0 -25 7t-16 18z" />
    <glyph glyph-name="Aacute" unicode="&#xc1;" 
d="M255 800l-20 -800h-30q-14 0 -22 8t-7 21l15 611l-244 -611q-5 -13 -16.5 -21t-25.5 -8h-30l308 771q5 13 16.5 21t25.5 8h30zM316 975q10 11 24 18t28 7h30l-110 -125q-10 -11 -24 -18t-28 -7h-30z" />
    <glyph glyph-name="Acircumflex" unicode="&#xc2;" 
d="M255 800l-20 -800h-30q-14 0 -22 8t-7 21l15 611l-244 -611q-5 -13 -16.5 -21t-25.5 -8h-30l308 771q5 13 16.5 21t25.5 8h30zM335 850q-13 0 -24 7t-16 18l-37 80l-71 -80q-10 -11 -23.5 -18t-27.5 -7h-30l110 126q10 11 24 17.5t27 6.5h31l68 -150h-31z" />
    <glyph glyph-name="Atilde" unicode="&#xc3;" 
d="M255 800l-20 -800h-30q-14 0 -22 8t-7 21l15 611l-244 -611q-5 -13 -16.5 -21t-25.5 -8h-30l308 771q5 13 16.5 21t25.5 8h30zM136 900q-15 -25 -35 -25h-25q5 21 15.5 40t25.5 33.5t34.5 23t41.5 8.5q35 0 51.5 -16t27.5 -33q11 -15 19 -23t25 -8t28.5 8.5t19.5 21.5
q14 25 34 25h25q-4 -21 -15 -40t-26 -33.5t-34.5 -23t-41.5 -8.5q-35 0 -51.5 16t-27.5 32q-10 16 -18.5 24t-25.5 8t-28.5 -8.5t-18.5 -21.5z" />
    <glyph glyph-name="Adieresis" unicode="&#xc4;" 
d="M255 800l-20 -800h-30q-14 0 -22 8t-7 21l15 611l-244 -611q-5 -13 -16.5 -21t-25.5 -8h-30l308 771q5 13 16.5 21t25.5 8h30zM223 930q-3 -14 -12.5 -25.5t-23.5 -17.5l-37 -17l15 70q3 14 12.5 25.5t23.5 17.5l37 17zM343 930q-3 -14 -12.5 -25.5t-23.5 -17.5l-37 -17
l15 70q3 14 12.5 25.5t23.5 17.5l37 17z" />
    <glyph glyph-name="Aring" unicode="&#xc5;" 
d="M272 1020q-25 0 -46.5 -17.5t-26.5 -42.5t8.5 -42.5t38.5 -17.5t46.5 17.5t26.5 42.5t-8.5 42.5t-38.5 17.5zM255 800l-20 -800h-30q-14 0 -22 8t-7 21l15 611l-244 -611q-5 -13 -16.5 -21t-25.5 -8h-30l308 771q5 13 16.5 21t25.5 8h30zM236 850q-23 0 -41 8.5t-30 23.5
t-16.5 35t0.5 43t18 43t31 35t40 23.5t44 8.5q23 0 41 -8.5t30 -23.5t16.5 -35t-0.5 -43t-18 -43t-31 -35t-39.5 -23.5t-44.5 -8.5z" />
    <glyph glyph-name="AE" unicode="&#xc6;" horiz-adv-x="760" 
d="M314 370l-66 -310h300l-24 -33q-8 -12 -21.5 -19.5t-27.5 -7.5h-300l136 640l-360 -612q-7 -13 -19.5 -20.5t-26.5 -7.5h-30l470 800h360l-24 -33q-8 -12 -21.5 -19.5t-26.5 -7.5h-241l-66 -310h210l-23 -33q-9 -12 -22 -19.5t-27 -7.5h-150z" />
    <glyph glyph-name="Ccedilla" unicode="&#xc7;" 
d="M-55 -140h60q21 0 38.5 14.5t22.5 35.5l-21 90h-40q-27 0 -48.5 10t-35.5 28t-19 41.5t1 50.5l114 540q6 27 21.5 50.5t36.5 41.5t47 28t53 10h100q27 0 48.5 -10t35.5 -28t19 -41.5t-1 -50.5l-8 -40q-3 -14 -12.5 -25.5t-23.5 -17.5l-37 -17l21 100q7 29 -9.5 49.5
t-45.5 20.5h-100q-29 0 -53.5 -20.5t-31.5 -49.5l-114 -540q-7 -29 9.5 -49.5t45.5 -20.5h100q29 0 53.5 20.5t31.5 49.5l8 40q3 14 12.5 25.5t23.5 17.5l37 17l-21 -100q-6 -27 -21.5 -50.5t-36.5 -41.5t-47 -28t-53 -10l21 -90q-5 -23 -18 -43t-31 -35t-40 -23.5t-45 -8.5
q-14 0 -24 7.5t-13 19.5z" />
    <glyph glyph-name="Egrave" unicode="&#xc8;" 
d="M14 370l-66 -310h300l-24 -33q-8 -12 -21.5 -19.5t-27.5 -7.5h-300l170 800h360l-24 -33q-8 -12 -21 -19.5t-27 -7.5h-241l-66 -310h210l-23 -33q-9 -12 -22 -19.5t-27 -7.5h-150zM138 1000h30q14 0 25 -7t16 -18l57 -125h-30q-14 0 -25 7t-16 18z" />
    <glyph glyph-name="Eacute" unicode="&#xc9;" 
d="M14 370l-66 -310h300l-24 -33q-8 -12 -21.5 -19.5t-27.5 -7.5h-300l170 800h360l-24 -33q-8 -12 -21 -19.5t-27 -7.5h-241l-66 -310h210l-23 -33q-9 -12 -22 -19.5t-27 -7.5h-150zM316 975q10 11 24 18t28 7h30l-110 -125q-10 -11 -24 -18t-28 -7h-30z" />
    <glyph glyph-name="Ecircumflex" unicode="&#xca;" 
d="M14 370l-66 -310h300l-24 -33q-8 -12 -21.5 -19.5t-27.5 -7.5h-300l170 800h360l-24 -33q-8 -12 -21 -19.5t-27 -7.5h-241l-66 -310h210l-23 -33q-9 -12 -22 -19.5t-27 -7.5h-150zM335 850q-13 0 -24 7t-16 18l-37 80l-71 -80q-10 -11 -23.5 -18t-27.5 -7h-30l110 126
q10 11 24 17.5t27 6.5h31l68 -150h-31z" />
    <glyph glyph-name="Edieresis" unicode="&#xcb;" 
d="M14 370l-66 -310h300l-24 -33q-8 -12 -21.5 -19.5t-27.5 -7.5h-300l170 800h360l-24 -33q-8 -12 -21 -19.5t-27 -7.5h-241l-66 -310h210l-23 -33q-9 -12 -22 -19.5t-27 -7.5h-150zM223 930q-3 -14 -12.5 -25.5t-23.5 -17.5l-37 -17l15 70q3 14 12.5 25.5t23.5 17.5l37 17
zM343 930q-3 -14 -12.5 -25.5t-23.5 -17.5l-37 -17l15 70q3 14 12.5 25.5t23.5 17.5l37 17z" />
    <glyph glyph-name="Igrave" unicode="&#xcc;" horiz-adv-x="260" 
d="M132 740q3 14 12.5 25.5t23.5 17.5l37 17l-170 -800h-61zM88 1000h30q14 0 25 -7t16 -18l57 -125h-30q-14 0 -25.5 7t-16.5 18z" />
    <glyph glyph-name="Iacute" unicode="&#xcd;" horiz-adv-x="260" 
d="M32 740q3 14 12.5 25.5t23.5 17.5l37 17l-170 -800h-60zM166 975q10 11 24 18t28 7h30l-110 -125q-11 -11 -24.5 -18t-27.5 -7h-30z" />
    <glyph glyph-name="Icircumflex" unicode="&#xce;" horiz-adv-x="360" 
d="M132 740q3 14 12.5 25.5t23.5 17.5l37 17l-170 -800h-60zM285 850q-13 0 -24 7t-16 18l-37 80l-71 -80q-10 -11 -23.5 -18t-27.5 -7h-30l110 126q10 11 24 17.5t27 6.5h31l68 -150h-31z" />
    <glyph glyph-name="Idieresis" unicode="&#xcf;" horiz-adv-x="280" 
d="M92 740q3 14 12.5 25.5t23.5 17.5l37 17l-170 -800h-60zM133 930q-3 -14 -12.5 -25.5t-23.5 -17.5l-37 -17l15 70q3 14 12.5 25.5t23.5 17.5l37 17zM253 930q-3 -14 -12.5 -25.5t-23.5 -17.5l-37 -17l15 70q3 14 12.5 25.5t23.5 17.5l37 17z" />
    <glyph glyph-name="Eth" unicode="&#xd0;" horiz-adv-x="580" 
d="M86 430l79 370h230q27 0 48.5 -10t35.5 -28t19 -41.5t-1 -50.5l-114 -540q-6 -27 -21.5 -50.5t-36.5 -41.5t-47 -28t-53 -10h-230l79 370h-120l23 33q9 12 22 19.5t27 7.5h60zM134 370l-66 -310h170q29 0 53.5 20.5t31.5 49.5l114 540q7 29 -9.5 49.5t-45.5 20.5h-170
l-66 -310h150l-23 -33q-9 -12 -22 -19.5t-27 -7.5h-90z" />
    <glyph glyph-name="Ntilde" unicode="&#xd1;" 
d="M405 800l-170 -800h-30q-14 0 -23 7.5t-11 20.5l-100 612l-136 -640h-60l170 800h30q14 0 23.5 -7.5t11.5 -20.5l99 -612l123 580q3 14 12.5 25.5t23.5 17.5zM136 900q-15 -25 -35 -25h-25q5 21 15.5 40t25.5 33.5t34.5 23t41.5 8.5q35 0 51.5 -16t27.5 -33
q11 -15 19 -23t25 -8t28.5 8.5t19.5 21.5q14 25 34 25h25q-4 -21 -15 -40t-26 -33.5t-34.5 -23t-41.5 -8.5q-35 0 -51.5 16t-27.5 32q-10 16 -18.5 24t-25.5 8t-28.5 -8.5t-18.5 -21.5z" />
    <glyph glyph-name="Ograve" unicode="&#xd2;" 
d="M105 0h-100q-27 0 -48.5 10t-35.5 28t-19 41.5t1 50.5l114 540q6 27 21.5 50.5t36.5 41.5t47 28t53 10h100q27 0 48.5 -10t35.5 -28t19 -41.5t-1 -50.5l-114 -540q-6 -27 -21.5 -50.5t-36.5 -41.5t-47 -28t-53 -10zM162 740q-29 0 -53.5 -20.5t-31.5 -49.5l-114 -540
q-7 -29 9.5 -49.5t45.5 -20.5h100q29 0 53.5 20.5t31.5 49.5l114 540q7 29 -9.5 49.5t-45.5 20.5h-100zM138 1000h30q14 0 25 -7t16 -18l57 -125h-30q-14 0 -25 7t-16 18z" />
    <glyph glyph-name="Oacute" unicode="&#xd3;" 
d="M105 0h-100q-27 0 -48.5 10t-35.5 28t-19 41.5t1 50.5l114 540q6 27 21.5 50.5t36.5 41.5t47 28t53 10h100q27 0 48.5 -10t35.5 -28t19 -41.5t-1 -50.5l-114 -540q-6 -27 -21.5 -50.5t-36.5 -41.5t-47 -28t-53 -10zM162 740q-29 0 -53.5 -20.5t-31.5 -49.5l-114 -540
q-7 -29 9.5 -49.5t45.5 -20.5h100q29 0 53.5 20.5t31.5 49.5l114 540q7 29 -9.5 49.5t-45.5 20.5h-100zM316 975q10 11 24 18t28 7h30l-110 -125q-10 -11 -24 -18t-28 -7h-30z" />
    <glyph glyph-name="Ocircumflex" unicode="&#xd4;" 
d="M105 0h-100q-27 0 -48.5 10t-35.5 28t-19 41.5t1 50.5l114 540q6 27 21.5 50.5t36.5 41.5t47 28t53 10h100q27 0 48.5 -10t35.5 -28t19 -41.5t-1 -50.5l-114 -540q-6 -27 -21.5 -50.5t-36.5 -41.5t-47 -28t-53 -10zM162 740q-29 0 -53.5 -20.5t-31.5 -49.5l-114 -540
q-7 -29 9.5 -49.5t45.5 -20.5h100q29 0 53.5 20.5t31.5 49.5l114 540q7 29 -9.5 49.5t-45.5 20.5h-100zM335 850q-13 0 -24 7t-16 18l-37 80l-71 -80q-10 -11 -23.5 -18t-27.5 -7h-30l110 126q10 11 24 17.5t27 6.5h31l68 -150h-31z" />
    <glyph glyph-name="Otilde" unicode="&#xd5;" 
d="M105 0h-100q-27 0 -48.5 10t-35.5 28t-19 41.5t1 50.5l114 540q6 27 21.5 50.5t36.5 41.5t47 28t53 10h100q27 0 48.5 -10t35.5 -28t19 -41.5t-1 -50.5l-114 -540q-6 -27 -21.5 -50.5t-36.5 -41.5t-47 -28t-53 -10zM162 740q-29 0 -53.5 -20.5t-31.5 -49.5l-114 -540
q-7 -29 9.5 -49.5t45.5 -20.5h100q29 0 53.5 20.5t31.5 49.5l114 540q7 29 -9.5 49.5t-45.5 20.5h-100zM136 900q-15 -25 -35 -25h-25q5 21 15.5 40t25.5 33.5t34.5 23t41.5 8.5q35 0 51.5 -16t27.5 -33q11 -15 19 -23t25 -8t28.5 8.5t19.5 21.5q14 25 34 25h25
q-4 -21 -15 -40t-26 -33.5t-34.5 -23t-41.5 -8.5q-35 0 -51.5 16t-27.5 32q-10 16 -18.5 24t-25.5 8t-28.5 -8.5t-18.5 -21.5z" />
    <glyph glyph-name="Odieresis" unicode="&#xd6;" 
d="M105 0h-100q-27 0 -48.5 10t-35.5 28t-19 41.5t1 50.5l114 540q6 27 21.5 50.5t36.5 41.5t47 28t53 10h100q27 0 48.5 -10t35.5 -28t19 -41.5t-1 -50.5l-114 -540q-6 -27 -21.5 -50.5t-36.5 -41.5t-47 -28t-53 -10zM162 740q-29 0 -53.5 -20.5t-31.5 -49.5l-114 -540
q-7 -29 9.5 -49.5t45.5 -20.5h100q29 0 53.5 20.5t31.5 49.5l114 540q7 29 -9.5 49.5t-45.5 20.5h-100zM223 930q-3 -14 -12.5 -25.5t-23.5 -17.5l-37 -17l15 70q3 14 12.5 25.5t23.5 17.5l37 17zM343 930q-3 -14 -12.5 -25.5t-23.5 -17.5l-37 -17l15 70q3 14 12.5 25.5
t23.5 17.5l37 17z" />
    <glyph glyph-name="multiply" unicode="&#xd7;" horiz-adv-x="442" 
d="M163 350l101 -129l-51 -42l-101 128l-157 -128l-33 42l156 129l-101 129l51 42l102 -129l156 129l33 -42z" />
    <glyph glyph-name="Oslash" unicode="&#xd8;" 
d="M275 800q27 0 48.5 -10t35.5 -28t19 -41.5t-1 -50.5l-114 -540q-6 -27 -21.5 -50.5t-36.5 -41.5t-47 -28t-53 -10h-100q-27 0 -48.5 10t-35.5 28t-19 41.5t1 50.5l114 540q6 27 21.5 50.5t36.5 41.5t47 28t53 10h100zM162 740q-29 0 -53.5 -20.5t-31.5 -49.5l-108 -510
l332 566q-14 14 -39 14h-100zM118 60q29 0 53.5 20.5t31.5 49.5l108 510l-332 -566q14 -14 39 -14h100z" />
    <glyph glyph-name="Ugrave" unicode="&#xd9;" 
d="M32 740q3 14 12.5 25.5t23.5 17.5l37 17l-142 -670q-7 -29 9.5 -49.5t45.5 -20.5h100q29 0 53.5 20.5t31.5 49.5l129 610q3 14 12.5 25.5t23.5 17.5l37 17l-142 -670q-6 -27 -21.5 -50.5t-36.5 -41.5t-47 -28t-53 -10h-100q-27 0 -48.5 10t-35.5 28t-19 41.5t1 50.5z
M138 1000h30q14 0 25 -7t16 -18l57 -125h-30q-14 0 -25 7t-16 18z" />
    <glyph glyph-name="Uacute" unicode="&#xda;" 
d="M32 740q3 14 12.5 25.5t23.5 17.5l37 17l-142 -670q-7 -29 9.5 -49.5t45.5 -20.5h100q29 0 53.5 20.5t31.5 49.5l129 610q3 14 12.5 25.5t23.5 17.5l37 17l-142 -670q-6 -27 -21.5 -50.5t-36.5 -41.5t-47 -28t-53 -10h-100q-27 0 -48.5 10t-35.5 28t-19 41.5t1 50.5z
M316 975q10 11 24 18t28 7h30l-110 -125q-10 -11 -24 -18t-28 -7h-30z" />
    <glyph glyph-name="Ucircumflex" unicode="&#xdb;" 
d="M32 740q3 14 12.5 25.5t23.5 17.5l37 17l-142 -670q-7 -29 9.5 -49.5t45.5 -20.5h100q29 0 53.5 20.5t31.5 49.5l129 610q3 14 12.5 25.5t23.5 17.5l37 17l-142 -670q-6 -27 -21.5 -50.5t-36.5 -41.5t-47 -28t-53 -10h-100q-27 0 -48.5 10t-35.5 28t-19 41.5t1 50.5z
M335 850q-13 0 -24 7t-16 18l-37 80l-71 -80q-10 -11 -23.5 -18t-27.5 -7h-30l110 126q10 11 24 17.5t27 6.5h31l68 -150h-31z" />
    <glyph glyph-name="Udieresis" unicode="&#xdc;" 
d="M32 740q3 14 12.5 25.5t23.5 17.5l37 17l-142 -670q-7 -29 9.5 -49.5t45.5 -20.5h100q29 0 53.5 20.5t31.5 49.5l129 610q3 14 12.5 25.5t23.5 17.5l37 17l-142 -670q-6 -27 -21.5 -50.5t-36.5 -41.5t-47 -28t-53 -10h-100q-27 0 -48.5 10t-35.5 28t-19 41.5t1 50.5z
M223 930q-3 -14 -12.5 -25.5t-23.5 -17.5l-37 -17l15 70q3 14 12.5 25.5t23.5 17.5l37 17zM343 930q-3 -14 -12.5 -25.5t-23.5 -17.5l-37 -17l15 70q3 14 12.5 25.5t23.5 17.5l37 17z" />
    <glyph glyph-name="Yacute" unicode="&#xdd;" 
d="M405 800l-246 -450l-74 -350h-60l74 350l-54 450h30q14 0 22.5 -7.5t10.5 -20.5l41 -332l181 332q7 13 19 20.5t26 7.5h30zM316 975q10 11 24 18t28 7h30l-110 -125q-10 -11 -24 -18t-28 -7h-30z" />
    <glyph glyph-name="Thorn" unicode="&#xde;" 
d="M63 600l-30 -140h170q27 0 48 -10t35 -28t19.5 -41.5t-0.5 -50.5l-13 -60q-6 -27 -21 -50.5t-36.5 -41.5t-47 -28t-52.5 -10h-170l-30 -140h-60l115 540q3 14 12.5 25.5t23.5 17.5zM245 330q6 29 -10 49.5t-45 20.5h-170l-42 -200h170q29 0 53.5 20.5t30.5 49.5z" />
    <glyph glyph-name="germandbls" unicode="&#xdf;" 
d="M196 430q29 0 54 20.5t31 49.5l36 170q7 29 -9.5 49.5t-45.5 20.5h-100q-29 0 -53.5 -20.5t-31.5 -49.5l-142 -670h-60l142 670q6 27 21.5 50.5t36.5 41.5t47 28t53 10h100q27 0 48.5 -10t35.5 -28t19 -41.5t-1 -50.5l-36 -170q-6 -30 -24 -56t-44 -44q18 -18 25 -44
t1 -56l-36 -170q-6 -27 -21.5 -50.5t-36.5 -41.5t-47 -28t-53 -10h-80l24 33q8 12 21.5 19.5t27.5 7.5h20q29 0 53.5 20.5t31.5 49.5l36 170q6 29 -10 49.5t-45 20.5h-80l23 33q9 12 22 19.5t27 7.5h20z" />
    <glyph glyph-name="agrave" unicode="&#xe0;" 
d="M188 60l59 280h-170q-29 0 -53.5 -20.5t-31.5 -49.5l-29 -140q-7 -29 9.5 -49.5t45.5 -20.5h170zM233 600q27 0 48 -10t35 -28t19.5 -41.5t-0.5 -50.5l-100 -470h-230q-27 0 -48.5 10t-35.5 28t-19 41.5t1 50.5l29 140q6 27 21.5 50.5t36.5 41.5t47 28t53 10h170l15 70
q6 29 -10 49.5t-45 20.5h-230l24 34q8 11 21 18.5t27 7.5h171zM96 800h30q14 0 25 -7t16 -18l57 -125h-30q-14 0 -25.5 7t-16.5 18z" />
    <glyph glyph-name="aacute" unicode="&#xe1;" 
d="M188 60l59 280h-170q-29 0 -53.5 -20.5t-31.5 -49.5l-29 -140q-7 -29 9.5 -49.5t45.5 -20.5h170zM233 600q27 0 48 -10t35 -28t19.5 -41.5t-0.5 -50.5l-100 -470h-230q-27 0 -48.5 10t-35.5 28t-19 41.5t1 50.5l29 140q6 27 21.5 50.5t36.5 41.5t47 28t53 10h170l15 70
q6 29 -10 49.5t-45 20.5h-230l24 34q8 11 21 18.5t27 7.5h171zM164 650l109 125q11 11 24.5 18t27.5 7h30l-110 -125q-10 -11 -23.5 -18t-27.5 -7h-30z" />
    <glyph glyph-name="acircumflex" unicode="&#xe2;" 
d="M188 60l59 280h-170q-29 0 -53.5 -20.5t-31.5 -49.5l-29 -140q-7 -29 9.5 -49.5t45.5 -20.5h170zM233 600q27 0 48 -10t35 -28t19.5 -41.5t-0.5 -50.5l-100 -470h-230q-27 0 -48.5 10t-35.5 28t-19 41.5t1 50.5l29 140q6 27 21.5 50.5t36.5 41.5t47 28t53 10h170l15 70
q6 29 -10 49.5t-45 20.5h-230l24 34q8 11 21 18.5t27 7.5h171zM323 650h-30q-14 0 -25 7t-16 18l-36 80l-71 -80q-10 -11 -24 -18t-27 -7h-31l110 126q10 11 24 17.5t28 6.5h30z" />
    <glyph glyph-name="atilde" unicode="&#xe3;" 
d="M188 60l59 280h-170q-29 0 -53.5 -20.5t-31.5 -49.5l-29 -140q-7 -29 9.5 -49.5t45.5 -20.5h170zM233 600q27 0 48 -10t35 -28t19.5 -41.5t-0.5 -50.5l-100 -470h-230q-27 0 -48.5 10t-35.5 28t-19 41.5t1 50.5l29 140q6 27 21.5 50.5t36.5 41.5t47 28t53 10h170l15 70
q6 29 -10 49.5t-45 20.5h-230l24 34q8 11 21 18.5t27 7.5h171zM93 700q-13 -25 -35 -25h-24q4 21 14.5 40t26 33.5t35 23t41.5 8.5q17 0 29.5 -4.5t21.5 -11.5t15.5 -16t11.5 -17q11 -15 19.5 -23t25.5 -8t28 8.5t19 21.5q14 25 35 25h25q-4 -21 -15 -40t-26 -33.5
t-34.5 -23t-42.5 -8.5q-17 0 -29.5 4.5t-21.5 11.5t-15.5 15.5t-11.5 16.5q-11 16 -19.5 24t-25.5 8q-16 0 -27.5 -8.5t-19.5 -21.5z" />
    <glyph glyph-name="adieresis" unicode="&#xe4;" 
d="M188 60l59 280h-170q-29 0 -53.5 -20.5t-31.5 -49.5l-29 -140q-7 -29 9.5 -49.5t45.5 -20.5h170zM233 600q27 0 48 -10t35 -28t19.5 -41.5t-0.5 -50.5l-100 -470h-230q-27 0 -48.5 10t-35.5 28t-19 41.5t1 50.5l29 140q6 27 21.5 50.5t36.5 41.5t47 28t53 10h170l15 70
q6 29 -10 49.5t-45 20.5h-230l24 34q8 11 21 18.5t27 7.5h171zM195 800l-15 -70q-3 -14 -12.5 -25.5t-22.5 -17.5l-37 -17l14 70q3 14 13 25.5t23 17.5zM315 800l-15 -70q-3 -14 -12.5 -25.5t-22.5 -17.5l-37 -17l14 70q3 14 13 25.5t23 17.5z" />
    <glyph glyph-name="aring" unicode="&#xe5;" 
d="M188 60l59 280h-170q-29 0 -53.5 -20.5t-31.5 -49.5l-29 -140q-7 -29 9.5 -49.5t45.5 -20.5h170zM229 820q-25 0 -46 -17.5t-26 -42.5t8.5 -42.5t38.5 -17.5t46.5 17.5t26.5 42.5t-9 42.5t-39 17.5zM233 600q27 0 48 -10t35 -28t19.5 -41.5t-0.5 -50.5l-100 -470h-230
q-27 0 -48.5 10t-35.5 28t-19 41.5t1 50.5l29 140q6 27 21.5 50.5t36.5 41.5t47 28t53 10h170l15 70q6 29 -10 49.5t-45 20.5h-230l24 34q8 11 21 18.5t27 7.5h171zM193 650q-22 0 -40.5 8.5t-30 23.5t-16 35t0.5 43t17.5 43t30.5 35t40 23.5t45 8.5t41 -8.5t30 -23.5
t16.5 -35t-0.5 -43t-18 -43t-31 -35t-40 -23.5t-45 -8.5z" />
    <glyph glyph-name="ae" unicode="&#xe6;" horiz-adv-x="760" 
d="M188 60l59 280h-170q-29 0 -53.5 -20.5t-31.5 -49.5l-29 -140q-7 -29 9.5 -49.5t45.5 -20.5h170zM560 400l15 70q6 29 -10 49.5t-45 20.5h-100q-29 0 -54 -20.5t-31 -49.5l-87 -410h170q29 0 53.5 20.5t31.5 49.5l8 40q3 14 12.5 25.5t23.5 17.5l37 17l-21 -100
q-6 -27 -21.5 -50.5t-36.5 -41.5t-47 -28t-53 -10h-400q-27 0 -48.5 10t-35.5 28t-19 41.5t1 50.5l29 140q6 27 21.5 50.5t36.5 41.5t47 28t53 10h170l15 70q6 29 -10 49.5t-45 20.5h-230l24 33q8 12 21.5 19.5t26.5 7.5h171q30 0 53 -12.5t37 -34.5q23 22 51 34.5t59 12.5
h100q27 0 48 -10t35 -28t19.5 -41.5t-0.5 -50.5l-28 -130h-210l24 33q8 12 21.5 19.5t27.5 7.5h90z" />
    <glyph glyph-name="ccedilla" unicode="&#xe7;" 
d="M-55 -140h60q21 0 38.5 14.5t22.5 35.5l-21 90h-40q-27 0 -48.5 10t-35.5 28t-19 41.5t1 50.5l72 340q6 27 21 50.5t36.5 41.5t47.5 28t53 10h100q27 0 48 -10t35 -28t19.5 -41.5t-0.5 -50.5l-9 -40q-2 -14 -12 -25.5t-23 -17.5l-37 -17l21 100q6 29 -10 49.5t-45 20.5
h-100q-29 0 -54 -20.5t-31 -49.5l-72 -340q-7 -29 9.5 -49.5t45.5 -20.5h100q29 0 53.5 20.5t31.5 49.5l8 40q3 14 12.5 25.5t23.5 17.5l37 17l-21 -100q-6 -27 -21.5 -50.5t-36.5 -41.5t-47 -28t-53 -10l21 -90q-5 -23 -18 -43t-31 -35t-40 -23.5t-45 -8.5q-14 0 -24 7.5
t-13 19.5z" />
    <glyph glyph-name="egrave" unicode="&#xe8;" 
d="M121 374q9 11 22 18.5t27 7.5h90l15 70q6 29 -10 49.5t-45 20.5h-100q-29 0 -54 -20.5t-31 -49.5l-72 -340q-7 -29 9.5 -49.5t45.5 -20.5h100q29 0 53.5 20.5t31.5 49.5l8 40q3 14 12.5 25.5t23.5 17.5l37 17l-21 -100q-6 -27 -21.5 -50.5t-36.5 -41.5t-47 -28t-53 -10
h-100q-27 0 -48.5 10t-35.5 28t-19 41.5t1 50.5l72 340q6 27 21 50.5t36.5 41.5t47.5 28t53 10h100q27 0 48 -10t35 -28t19.5 -41.5t-0.5 -50.5l-28 -130h-210zM96 800h30q14 0 25 -7t16 -18l57 -125h-30q-14 0 -25.5 7t-16.5 18z" />
    <glyph glyph-name="eacute" unicode="&#xe9;" 
d="M121 374q9 11 22 18.5t27 7.5h90l15 70q6 29 -10 49.5t-45 20.5h-100q-29 0 -54 -20.5t-31 -49.5l-72 -340q-7 -29 9.5 -49.5t45.5 -20.5h100q29 0 53.5 20.5t31.5 49.5l8 40q3 14 12.5 25.5t23.5 17.5l37 17l-21 -100q-6 -27 -21.5 -50.5t-36.5 -41.5t-47 -28t-53 -10
h-100q-27 0 -48.5 10t-35.5 28t-19 41.5t1 50.5l72 340q6 27 21 50.5t36.5 41.5t47.5 28t53 10h100q27 0 48 -10t35 -28t19.5 -41.5t-0.5 -50.5l-28 -130h-210zM273 775q11 11 24.5 18t27.5 7h30l-110 -125q-10 -11 -23.5 -18t-27.5 -7h-30z" />
    <glyph glyph-name="ecircumflex" unicode="&#xea;" 
d="M121 374q9 11 22 18.5t27 7.5h90l15 70q6 29 -10 49.5t-45 20.5h-100q-29 0 -54 -20.5t-31 -49.5l-72 -340q-7 -29 9.5 -49.5t45.5 -20.5h100q29 0 53.5 20.5t31.5 49.5l8 40q3 14 12.5 25.5t23.5 17.5l37 17l-21 -100q-6 -27 -21.5 -50.5t-36.5 -41.5t-47 -28t-53 -10
h-100q-27 0 -48.5 10t-35.5 28t-19 41.5t1 50.5l72 340q6 27 21 50.5t36.5 41.5t47.5 28t53 10h100q27 0 48 -10t35 -28t19.5 -41.5t-0.5 -50.5l-28 -130h-210zM293 650q-14 0 -25 7t-16 18l-36 80l-71 -80q-10 -11 -24 -18t-27 -7h-31l110 126q10 11 24 17.5t28 6.5h30
l68 -150h-30z" />
    <glyph glyph-name="edieresis" unicode="&#xeb;" 
d="M121 374q9 11 22 18.5t27 7.5h90l15 70q6 29 -10 49.5t-45 20.5h-100q-29 0 -54 -20.5t-31 -49.5l-72 -340q-7 -29 9.5 -49.5t45.5 -20.5h100q29 0 53.5 20.5t31.5 49.5l8 40q3 14 12.5 25.5t23.5 17.5l37 17l-21 -100q-6 -27 -21.5 -50.5t-36.5 -41.5t-47 -28t-53 -10
h-100q-27 0 -48.5 10t-35.5 28t-19 41.5t1 50.5l72 340q6 27 21 50.5t36.5 41.5t47.5 28t53 10h100q27 0 48 -10t35 -28t19.5 -41.5t-0.5 -50.5l-28 -130h-210zM180 730q-3 -14 -12.5 -25.5t-22.5 -17.5l-37 -17l14 70q3 14 13 25.5t23 17.5l37 17zM300 730
q-3 -14 -12.5 -25.5t-22.5 -17.5l-37 -17l14 70q3 14 13 25.5t23 17.5l37 17z" />
    <glyph glyph-name="igrave" unicode="&#xec;" horiz-adv-x="260" 
d="M89 540q3 14 12.5 25.5t23.5 17.5l37 17l-127 -600h-61zM45 800h30q14 0 25 -7t16 -18l57 -125h-30q-14 0 -25 7t-16 18z" />
    <glyph glyph-name="iacute" unicode="&#xed;" horiz-adv-x="260" 
d="M-10 540q3 14 12.5 25.5t23.5 17.5l37 17l-128 -600h-60zM123 775q10 11 24 18t28 7h30l-110 -125q-10 -11 -24 -18t-28 -7h-30z" />
    <glyph glyph-name="icircumflex" unicode="&#xee;" horiz-adv-x="360" 
d="M90 540q3 14 12.5 25.5t23.5 17.5l37 17l-128 -600h-60zM243 650q-14 0 -25 7t-16 18l-36 80l-71 -80q-10 -11 -24 -18t-27 -7h-31l110 126q10 11 24 17.5t28 6.5h30l68 -150h-30z" />
    <glyph glyph-name="idieresis" unicode="&#xef;" horiz-adv-x="280" 
d="M50 540q3 14 12.5 25.5t22.5 17.5l38 17l-128 -600h-60zM90 730q-3 -14 -12.5 -25.5t-22.5 -17.5l-38 -17l15 70q3 14 12.5 25.5t23.5 17.5l37 17zM210 730q-3 -14 -12.5 -25.5t-22.5 -17.5l-38 -17l15 70q3 14 12.5 25.5t23.5 17.5l37 17z" />
    <glyph glyph-name="eth" unicode="&#xf0;" horiz-adv-x="580" 
d="M247 340h-170q-29 0 -53.5 -20.5t-31.5 -49.5l-29 -140q-7 -29 9.5 -49.5t45.5 -20.5h100q29 0 53.5 20.5t31.5 49.5zM275 800q27 0 48.5 -10t35.5 -28t19 -41.5t-1 -50.5l-14 -70h120l-24 -33q-9 -12 -22 -19.5t-27 -7.5h-60l-87 -410q-6 -27 -21.5 -50.5t-36.5 -41.5
t-47 -28t-53 -10h-100q-27 0 -48.5 10t-35.5 28t-19 41.5t1 50.5l29 140q6 27 21.5 50.5t36.5 41.5t47 28t53 10h170l30 140h-150l24 33q8 12 21.5 19.5t26.5 7.5h91l14 70q7 29 -9.5 49.5t-45.5 20.5h-230l24 33q8 12 21.5 19.5t27.5 7.5h170z" />
    <glyph glyph-name="ntilde" unicode="&#xf1;" 
d="M235 0h-60l100 470q6 29 -10 49.5t-45 20.5h-170l-115 -540h-60l128 600h230q27 0 48 -10t35 -28t19.5 -41.5t-0.5 -50.5zM93 700q-13 -25 -35 -25h-24q4 21 14.5 40t26 33.5t35 23t41.5 8.5q17 0 29.5 -4.5t21.5 -11.5t15.5 -16t11.5 -17q11 -15 19.5 -23t25.5 -8
t28 8.5t19 21.5q14 25 35 25h25q-4 -21 -15 -40t-26 -33.5t-34.5 -23t-42.5 -8.5q-17 0 -29.5 4.5t-21.5 11.5t-15.5 15.5t-11.5 16.5q-11 16 -19.5 24t-25.5 8q-16 0 -27.5 -8.5t-19.5 -21.5z" />
    <glyph glyph-name="ograve" unicode="&#xf2;" 
d="M105 0h-100q-27 0 -48.5 10t-35.5 28t-19 41.5t1 50.5l72 340q6 27 21 50.5t36.5 41.5t47.5 28t53 10h100q27 0 48 -10t35 -28t19.5 -41.5t-0.5 -50.5l-72 -340q-6 -27 -21.5 -50.5t-36.5 -41.5t-47 -28t-53 -10zM120 540q-29 0 -54 -20.5t-31 -49.5l-72 -340
q-7 -29 9.5 -49.5t45.5 -20.5h100q29 0 53.5 20.5t31.5 49.5l72 340q6 29 -10 49.5t-45 20.5h-100zM96 800h30q14 0 25 -7t16 -18l57 -125h-30q-14 0 -25.5 7t-16.5 18z" />
    <glyph glyph-name="oacute" unicode="&#xf3;" 
d="M105 0h-100q-27 0 -48.5 10t-35.5 28t-19 41.5t1 50.5l72 340q6 27 21 50.5t36.5 41.5t47.5 28t53 10h100q27 0 48 -10t35 -28t19.5 -41.5t-0.5 -50.5l-72 -340q-6 -27 -21.5 -50.5t-36.5 -41.5t-47 -28t-53 -10zM120 540q-29 0 -54 -20.5t-31 -49.5l-72 -340
q-7 -29 9.5 -49.5t45.5 -20.5h100q29 0 53.5 20.5t31.5 49.5l72 340q6 29 -10 49.5t-45 20.5h-100zM273 775q11 11 24.5 18t27.5 7h30l-110 -125q-10 -11 -23.5 -18t-27.5 -7h-30z" />
    <glyph glyph-name="ocircumflex" unicode="&#xf4;" 
d="M105 0h-100q-27 0 -48.5 10t-35.5 28t-19 41.5t1 50.5l72 340q6 27 21 50.5t36.5 41.5t47.5 28t53 10h100q27 0 48 -10t35 -28t19.5 -41.5t-0.5 -50.5l-72 -340q-6 -27 -21.5 -50.5t-36.5 -41.5t-47 -28t-53 -10zM120 540q-29 0 -54 -20.5t-31 -49.5l-72 -340
q-7 -29 9.5 -49.5t45.5 -20.5h100q29 0 53.5 20.5t31.5 49.5l72 340q6 29 -10 49.5t-45 20.5h-100zM293 650q-14 0 -25 7t-16 18l-36 80l-71 -80q-10 -11 -24 -18t-27 -7h-31l110 126q10 11 24 17.5t28 6.5h30l68 -150h-30z" />
    <glyph glyph-name="otilde" unicode="&#xf5;" 
d="M105 0h-100q-27 0 -48.5 10t-35.5 28t-19 41.5t1 50.5l72 340q6 27 21 50.5t36.5 41.5t47.5 28t53 10h100q27 0 48 -10t35 -28t19.5 -41.5t-0.5 -50.5l-72 -340q-6 -27 -21.5 -50.5t-36.5 -41.5t-47 -28t-53 -10zM120 540q-29 0 -54 -20.5t-31 -49.5l-72 -340
q-7 -29 9.5 -49.5t45.5 -20.5h100q29 0 53.5 20.5t31.5 49.5l72 340q6 29 -10 49.5t-45 20.5h-100zM93 700q-13 -25 -35 -25h-24q4 21 14.5 40t26 33.5t35 23t41.5 8.5q17 0 29.5 -4.5t21.5 -11.5t15.5 -16t11.5 -17q11 -15 19.5 -23t25.5 -8t28 8.5t19 21.5q14 25 35 25h25
q-4 -21 -15 -40t-26 -33.5t-34.5 -23t-42.5 -8.5q-17 0 -29.5 4.5t-21.5 11.5t-15.5 15.5t-11.5 16.5q-11 16 -19.5 24t-25.5 8q-16 0 -27.5 -8.5t-19.5 -21.5z" />
    <glyph glyph-name="odieresis" unicode="&#xf6;" 
d="M105 0h-100q-27 0 -48.5 10t-35.5 28t-19 41.5t1 50.5l72 340q6 27 21 50.5t36.5 41.5t47.5 28t53 10h100q27 0 48 -10t35 -28t19.5 -41.5t-0.5 -50.5l-72 -340q-6 -27 -21.5 -50.5t-36.5 -41.5t-47 -28t-53 -10zM120 540q-29 0 -54 -20.5t-31 -49.5l-72 -340
q-7 -29 9.5 -49.5t45.5 -20.5h100q29 0 53.5 20.5t31.5 49.5l72 340q6 29 -10 49.5t-45 20.5h-100zM180 730q-3 -14 -12.5 -25.5t-22.5 -17.5l-37 -17l14 70q3 14 13 25.5t23 17.5l37 17zM300 730q-3 -14 -12.5 -25.5t-22.5 -17.5l-37 -17l14 70q3 14 13 25.5t23 17.5l37 17
z" />
    <glyph glyph-name="divide" unicode="&#xf7;" 
d="M198 530q-3 -14 -12.5 -25.5t-23.5 -17.5l-37 -17l15 70q3 14 12.5 25.5t23.5 17.5l37 17zM85 0h-60l15 70q3 14 12.5 25.5t23.5 17.5l37 17zM281 297q-8 -12 -21 -19.5t-27 -7.5h-301l24 34q9 12 22 19t27 7h300z" />
    <glyph glyph-name="oslash" unicode="&#xf8;" 
d="M233 600q27 0 48 -10t35 -28t19.5 -41.5t-0.5 -50.5l-72 -340q-6 -27 -21.5 -50.5t-36.5 -41.5t-47 -28t-53 -10h-100q-27 0 -48.5 10t-35.5 28t-19 41.5t1 50.5l72 340q6 27 21 50.5t36.5 41.5t47.5 28t53 10h100zM-37 130q-1 -2 -1 -4.5t-1 -4.5l292 409q-13 10 -33 10
h-100q-29 0 -54 -20.5t-31 -49.5zM275 470q1 3 1 9l-291 -409q13 -10 33 -10h100q29 0 53.5 20.5t31.5 49.5z" />
    <glyph glyph-name="ugrave" unicode="&#xf9;" 
d="M-10 540q3 14 12.5 25.5t23.5 17.5l37 17l-100 -470q-7 -29 9.5 -49.5t45.5 -20.5h100q29 0 53.5 20.5t31.5 49.5l87 410q3 14 12.5 25.5t23.5 17.5l37 17l-100 -470q-6 -27 -21.5 -50.5t-36.5 -41.5t-47 -28t-53 -10h-100q-27 0 -48.5 10t-35.5 28t-19 41.5t1 50.5z
M96 800h30q14 0 25 -7t16 -18l57 -125h-30q-14 0 -25.5 7t-16.5 18z" />
    <glyph glyph-name="uacute" unicode="&#xfa;" 
d="M-10 540q3 14 12.5 25.5t23.5 17.5l37 17l-100 -470q-7 -29 9.5 -49.5t45.5 -20.5h100q29 0 53.5 20.5t31.5 49.5l87 410q3 14 12.5 25.5t23.5 17.5l37 17l-100 -470q-6 -27 -21.5 -50.5t-36.5 -41.5t-47 -28t-53 -10h-100q-27 0 -48.5 10t-35.5 28t-19 41.5t1 50.5z
M273 775q11 11 24.5 18t27.5 7h30l-110 -125q-10 -11 -23.5 -18t-27.5 -7h-30z" />
    <glyph glyph-name="ucircumflex" unicode="&#xfb;" 
d="M-10 540q3 14 12.5 25.5t23.5 17.5l37 17l-100 -470q-7 -29 9.5 -49.5t45.5 -20.5h100q29 0 53.5 20.5t31.5 49.5l87 410q3 14 12.5 25.5t23.5 17.5l37 17l-100 -470q-6 -27 -21.5 -50.5t-36.5 -41.5t-47 -28t-53 -10h-100q-27 0 -48.5 10t-35.5 28t-19 41.5t1 50.5z
M293 650q-14 0 -25 7t-16 18l-36 80l-71 -80q-10 -11 -24 -18t-27 -7h-31l110 126q10 11 24 17.5t28 6.5h30l68 -150h-30z" />
    <glyph glyph-name="udieresis" unicode="&#xfc;" 
d="M-10 540q3 14 12.5 25.5t23.5 17.5l37 17l-100 -470q-7 -29 9.5 -49.5t45.5 -20.5h100q29 0 53.5 20.5t31.5 49.5l87 410q3 14 12.5 25.5t23.5 17.5l37 17l-100 -470q-6 -27 -21.5 -50.5t-36.5 -41.5t-47 -28t-53 -10h-100q-27 0 -48.5 10t-35.5 28t-19 41.5t1 50.5z
M180 730q-3 -14 -12.5 -25.5t-22.5 -17.5l-37 -17l14 70q3 14 13 25.5t23 17.5l37 17zM300 730q-3 -14 -12.5 -25.5t-22.5 -17.5l-37 -17l14 70q3 14 13 25.5t23 17.5l37 17z" />
    <glyph glyph-name="yacute" unicode="&#xfd;" 
d="M-95 -138q28 7 53 26.5t37 45.5l30 66l-22 600h30q29 0 31 -29l17 -451l208 451q6 14 17.5 21.5t25.5 7.5h31l-315 -680q-11 -24 -30.5 -46t-43.5 -38.5t-50.5 -26t-51.5 -9.5h-40l24 33q15 21 49 29zM274 775q10 11 23.5 18t27.5 7h30l-110 -125q-10 -11 -23.5 -18
t-27.5 -7h-30z" />
    <glyph glyph-name="thorn" unicode="&#xfe;" 
d="M63 600l-43 -200h170q27 0 48.5 -10t35.5 -28t19 -41.5t-1 -50.5l-29 -140q-6 -27 -21.5 -50.5t-36.5 -41.5t-47 -28t-53 -10h-170l-30 -140q-3 -14 -12.5 -25.5t-23.5 -17.5l-37 -17l158 740q3 14 12.5 25.5t23.5 17.5zM232 270q7 29 -9.5 49.5t-45.5 20.5h-170
l-59 -280h170q29 0 53.5 20.5t31.5 49.5z" />
    <glyph glyph-name="ydieresis" unicode="&#xff;" 
d="M-95 -138q28 7 53 26.5t37 45.5l30 66l-22 600h30q29 0 31 -29l17 -451l208 451q6 14 17.5 21.5t25.5 7.5h31l-315 -680q-11 -24 -30.5 -46t-43.5 -38.5t-50.5 -26t-51.5 -9.5h-40l24 33q15 21 49 29zM180 730q-3 -14 -12.5 -25.5t-22.5 -17.5l-37 -17l15 70
q2 14 12 25.5t23 17.5l37 17zM300 730q-3 -14 -12.5 -25.5t-22.5 -17.5l-37 -17l15 70q2 14 12 25.5t23 17.5l37 17z" />
    <glyph glyph-name="Amacron" unicode="&#x100;" 
d="M255 800l-20 -800h-30q-14 0 -22 8t-7 21l15 611l-244 -611q-5 -13 -16.5 -21t-25.5 -8h-30l308 771q5 13 16.5 21t25.5 8h30zM394 966q-9 -12 -22 -19t-27 -7h-240l24 33q8 12 21.5 19.5t26.5 7.5h241z" />
    <glyph glyph-name="amacron" unicode="&#x101;" 
d="M188 60l59 280h-170q-29 0 -53.5 -20.5t-31.5 -49.5l-29 -140q-7 -29 9.5 -49.5t45.5 -20.5h170zM233 600q27 0 48 -10t35 -28t19.5 -41.5t-0.5 -50.5l-100 -470h-230q-27 0 -48.5 10t-35.5 28t-19 41.5t1 50.5l29 140q6 27 21.5 50.5t36.5 41.5t47 28t53 10h170l15 70
q6 29 -10 49.5t-45 20.5h-230l24 34q8 11 21 18.5t27 7.5h171zM375 800l-24 -34q-8 -12 -21.5 -19t-26.5 -7h-241l24 33q8 12 21.5 19.5t27.5 7.5h240z" />
    <glyph glyph-name="Abreve" unicode="&#x102;" 
d="M255 800l-20 -800h-30q-14 0 -22 8t-7 21l15 611l-244 -611q-5 -13 -16.5 -21t-25.5 -8h-30l308 771q5 13 16.5 21t25.5 8h30zM149 960q2 11 10.5 21t20.5 15l30 14l-11 -50q-5 -25 8.5 -42.5t38.5 -17.5t46.5 17.5t26.5 42.5q2 11 11 21t20 15l30 14l-11 -50
q-5 -23 -18 -43t-31 -35t-39.5 -23.5t-44.5 -8.5t-41 8.5t-30 23.5t-16.5 35t0.5 43z" />
    <glyph glyph-name="abreve" unicode="&#x103;" 
d="M188 60l59 280h-170q-29 0 -53.5 -20.5t-31.5 -49.5l-29 -140q-7 -29 9.5 -49.5t45.5 -20.5h170zM233 600q27 0 48 -10t35 -28t19.5 -41.5t-0.5 -50.5l-100 -470h-230q-27 0 -48.5 10t-35.5 28t-19 41.5t1 50.5l29 140q6 27 21.5 50.5t36.5 41.5t47 28t53 10h170l15 70
q6 29 -10 49.5t-45 20.5h-230l24 34q8 11 21 18.5t27 7.5h171zM107 760q2 11 10.5 21t19.5 15l30 14l-10 -50q-5 -25 8.5 -42.5t38.5 -17.5t46 17.5t27 42.5q2 11 10.5 21t19.5 15l30 14l-10 -50q-5 -23 -18 -43t-31 -35t-40 -23.5t-45 -8.5q-22 0 -40.5 8.5t-30 23.5
t-16 35t0.5 43z" />
    <glyph glyph-name="Aogonek" unicode="&#x104;" horiz-adv-x="530" 
d="M203 -200q-23 0 -41 8.5t-30 23.5t-16.5 35t0.5 43l59 90l16 640l-244 -611q-5 -13 -16.5 -21t-25.5 -8h-30l308 771q5 13 16.5 21t25.5 8h30l-20 -800l-59 -90q-5 -21 7 -35.5t32 -14.5h60l-23 -33q-9 -12 -22 -19.5t-27 -7.5z" />
    <glyph glyph-name="aogonek" unicode="&#x105;" horiz-adv-x="530" 
d="M188 60l59 280h-170q-29 0 -53.5 -20.5t-31.5 -49.5l-29 -140q-7 -29 9.5 -49.5t45.5 -20.5h170zM203 -200q-23 0 -41 8.5t-30 23.5t-16.5 35t0.5 43l59 90h-170q-27 0 -48.5 10t-35.5 28t-19 41.5t1 50.5l29 140q6 27 21.5 50.5t36.5 41.5t47 28t53 10h170l15 70
q6 29 -10 49.5t-45 20.5h-230l24 34q8 11 21 18.5t27 7.5h171q27 0 48 -10t35 -28t19.5 -41.5t-0.5 -50.5l-100 -470l-59 -90q-5 -21 7 -35.5t32 -14.5h60l-23 -33q-9 -12 -22 -19.5t-27 -7.5z" />
    <glyph glyph-name="Cacute" unicode="&#x106;" 
d="M369 630q-3 -14 -12.5 -25.5t-23.5 -17.5l-37 -17l21 100q7 29 -9.5 49.5t-45.5 20.5h-100q-29 0 -53.5 -20.5t-31.5 -49.5l-114 -540q-7 -29 9.5 -49.5t45.5 -20.5h100q29 0 53.5 20.5t31.5 49.5l8 40q3 14 12.5 25.5t23.5 17.5l37 17l-21 -100q-6 -27 -21.5 -50.5
t-36.5 -41.5t-47 -28t-53 -10h-100q-27 0 -48.5 10t-35.5 28t-19 41.5t1 50.5l114 540q6 27 21.5 50.5t36.5 41.5t47 28t53 10h100q27 0 48.5 -10t35.5 -28t19 -41.5t-1 -50.5zM316 975q10 11 24 18t28 7h30l-110 -125q-10 -11 -24 -18t-28 -7h-30z" />
    <glyph glyph-name="cacute" unicode="&#x107;" 
d="M326 430q-2 -14 -12 -25.5t-23 -17.5l-37 -17l21 100q6 29 -10 49.5t-45 20.5h-100q-29 0 -54 -20.5t-31 -49.5l-72 -340q-7 -29 9.5 -49.5t45.5 -20.5h100q29 0 53.5 20.5t31.5 49.5l8 40q3 14 12.5 25.5t23.5 17.5l37 17l-21 -100q-6 -27 -21.5 -50.5t-36.5 -41.5
t-47 -28t-53 -10h-100q-27 0 -48.5 10t-35.5 28t-19 41.5t1 50.5l72 340q6 27 21 50.5t36.5 41.5t47.5 28t53 10h100q27 0 48 -10t35 -28t19.5 -41.5t-0.5 -50.5zM273 775q11 11 24.5 18t27.5 7h30l-110 -125q-10 -11 -23.5 -18t-27.5 -7h-30z" />
    <glyph glyph-name="Ccircumflex" unicode="&#x108;" 
d="M369 630q-3 -14 -12.5 -25.5t-23.5 -17.5l-37 -17l21 100q7 29 -9.5 49.5t-45.5 20.5h-100q-29 0 -53.5 -20.5t-31.5 -49.5l-114 -540q-7 -29 9.5 -49.5t45.5 -20.5h100q29 0 53.5 20.5t31.5 49.5l8 40q3 14 12.5 25.5t23.5 17.5l37 17l-21 -100q-6 -27 -21.5 -50.5
t-36.5 -41.5t-47 -28t-53 -10h-100q-27 0 -48.5 10t-35.5 28t-19 41.5t1 50.5l114 540q6 27 21.5 50.5t36.5 41.5t47 28t53 10h100q27 0 48.5 -10t35.5 -28t19 -41.5t-1 -50.5zM335 850q-13 0 -24 7t-16 18l-37 80l-71 -80q-10 -11 -23.5 -18t-27.5 -7h-30l110 126
q10 11 24 17.5t27 6.5h31l68 -150h-31z" />
    <glyph glyph-name="ccircumflex" unicode="&#x109;" 
d="M326 430q-2 -14 -12 -25.5t-23 -17.5l-37 -17l21 100q6 29 -10 49.5t-45 20.5h-100q-29 0 -54 -20.5t-31 -49.5l-72 -340q-7 -29 9.5 -49.5t45.5 -20.5h100q29 0 53.5 20.5t31.5 49.5l8 40q3 14 12.5 25.5t23.5 17.5l37 17l-21 -100q-6 -27 -21.5 -50.5t-36.5 -41.5
t-47 -28t-53 -10h-100q-27 0 -48.5 10t-35.5 28t-19 41.5t1 50.5l72 340q6 27 21 50.5t36.5 41.5t47.5 28t53 10h100q27 0 48 -10t35 -28t19.5 -41.5t-0.5 -50.5zM293 650q-14 0 -25 7t-16 18l-36 80l-71 -80q-10 -11 -24 -18t-27 -7h-31l110 126q10 11 24 17.5t28 6.5h30
l68 -150h-30z" />
    <glyph glyph-name="Cdotaccent" unicode="&#x10a;" 
d="M369 630q-3 -14 -12.5 -25.5t-23.5 -17.5l-37 -17l21 100q7 29 -9.5 49.5t-45.5 20.5h-100q-29 0 -53.5 -20.5t-31.5 -49.5l-114 -540q-7 -29 9.5 -49.5t45.5 -20.5h100q29 0 53.5 20.5t31.5 49.5l8 40q3 14 12.5 25.5t23.5 17.5l37 17l-21 -100q-6 -27 -21.5 -50.5
t-36.5 -41.5t-47 -28t-53 -10h-100q-27 0 -48.5 10t-35.5 28t-19 41.5t1 50.5l114 540q6 27 21.5 50.5t36.5 41.5t47 28t53 10h100q27 0 48.5 -10t35.5 -28t19 -41.5t-1 -50.5zM283 930q-3 -14 -12.5 -25.5t-23.5 -17.5l-37 -17l15 70q3 14 12.5 25.5t23.5 17.5l37 17z" />
    <glyph glyph-name="cdotaccent" unicode="&#x10b;" 
d="M326 430q-2 -14 -12 -25.5t-23 -17.5l-37 -17l21 100q6 29 -10 49.5t-45 20.5h-100q-29 0 -54 -20.5t-31 -49.5l-72 -340q-7 -29 9.5 -49.5t45.5 -20.5h100q29 0 53.5 20.5t31.5 49.5l8 40q3 14 12.5 25.5t23.5 17.5l37 17l-21 -100q-6 -27 -21.5 -50.5t-36.5 -41.5
t-47 -28t-53 -10h-100q-27 0 -48.5 10t-35.5 28t-19 41.5t1 50.5l72 340q6 27 21 50.5t36.5 41.5t47.5 28t53 10h100q27 0 48 -10t35 -28t19.5 -41.5t-0.5 -50.5zM240 730q-3 -14 -12.5 -25.5t-22.5 -17.5l-38 -17l15 70q3 14 12.5 25.5t23.5 17.5l37 17z" />
    <glyph glyph-name="Ccaron" unicode="&#x10c;" 
d="M369 630q-3 -14 -12.5 -25.5t-23.5 -17.5l-37 -17l21 100q7 29 -9.5 49.5t-45.5 20.5h-100q-29 0 -53.5 -20.5t-31.5 -49.5l-114 -540q-7 -29 9.5 -49.5t45.5 -20.5h100q29 0 53.5 20.5t31.5 49.5l8 40q3 14 12.5 25.5t23.5 17.5l37 17l-21 -100q-6 -27 -21.5 -50.5
t-36.5 -41.5t-47 -28t-53 -10h-100q-27 0 -48.5 10t-35.5 28t-19 41.5t1 50.5l114 540q6 27 21.5 50.5t36.5 41.5t47 28t53 10h100q27 0 48.5 -10t35.5 -28t19 -41.5t-1 -50.5zM398 1000l-110 -125q-11 -11 -24.5 -18t-27.5 -7h-30l-68 150h30q14 0 25 -7t16 -18l36 -80
l71 80q10 11 24 18t28 7h30z" />
    <glyph glyph-name="ccaron" unicode="&#x10d;" 
d="M326 430q-2 -14 -12 -25.5t-23 -17.5l-37 -17l21 100q6 29 -10 49.5t-45 20.5h-100q-29 0 -54 -20.5t-31 -49.5l-72 -340q-7 -29 9.5 -49.5t45.5 -20.5h100q29 0 53.5 20.5t31.5 49.5l8 40q3 14 12.5 25.5t23.5 17.5l37 17l-21 -100q-6 -27 -21.5 -50.5t-36.5 -41.5
t-47 -28t-53 -10h-100q-27 0 -48.5 10t-35.5 28t-19 41.5t1 50.5l72 340q6 27 21 50.5t36.5 41.5t47.5 28t53 10h100q27 0 48 -10t35 -28t19.5 -41.5t-0.5 -50.5zM355 800l-110 -125q-10 -11 -24 -18t-28 -7h-30l-68 150h30q14 0 25 -7t16 -18l37 -80l70 80q10 11 24 18
t28 7h30z" />
    <glyph glyph-name="Dcaron" unicode="&#x10e;" 
d="M105 0h-230l170 800h230q27 0 48.5 -10t35.5 -28t19 -41.5t-1 -50.5l-114 -540q-6 -27 -21.5 -50.5t-36.5 -41.5t-47 -28t-53 -10zM-52 60h170q29 0 53.5 20.5t31.5 49.5l114 540q7 29 -9.5 49.5t-45.5 20.5h-170zM398 1000l-110 -125q-11 -11 -24.5 -18t-27.5 -7h-30
l-68 150h30q14 0 25 -7t16 -18l36 -80l71 80q10 11 24 18t28 7h30z" />
    <glyph glyph-name="dcaron" unicode="&#x10f;" horiz-adv-x="650" 
d="M188 60l102 480h-170q-29 0 -54 -20.5t-31 -49.5l-72 -340q-7 -29 9.5 -49.5t45.5 -20.5h170zM405 800l-170 -800h-230q-27 0 -48.5 10t-35.5 28t-19 41.5t1 50.5l72 340q6 27 21 50.5t36.5 41.5t47.5 28t53 10h170l29 140q3 14 12.5 25.5t23.5 17.5zM404 650l109 125
q11 11 24.5 18t27.5 7h30l-110 -125q-10 -11 -23.5 -18t-27.5 -7h-30z" />
    <glyph glyph-name="Dcroat" unicode="&#x110;" horiz-adv-x="580" 
d="M86 430l79 370h230q27 0 48.5 -10t35.5 -28t19 -41.5t-1 -50.5l-114 -540q-6 -27 -21.5 -50.5t-36.5 -41.5t-47 -28t-53 -10h-230l79 370h-120l23 33q9 12 22 19.5t27 7.5h60zM134 370l-66 -310h170q29 0 53.5 20.5t31.5 49.5l114 540q7 29 -9.5 49.5t-45.5 20.5h-170
l-66 -310h150l-23 -33q-9 -12 -22 -19.5t-27 -7.5h-90z" />
    <glyph glyph-name="dcroat" unicode="&#x111;" horiz-adv-x="580" 
d="M188 60l59 280h-170q-29 0 -53.5 -20.5t-31.5 -49.5l-29 -140q-7 -29 9.5 -49.5t45.5 -20.5h170zM405 800l-42 -200h120l-24 -33q-9 -12 -22 -19.5t-27 -7.5h-60l-115 -540h-230q-27 0 -48.5 10t-35.5 28t-19 41.5t1 50.5l29 140q6 27 21.5 50.5t36.5 41.5t47 28t53 10
h170l30 140h-150l24 33q8 12 21.5 19.5t26.5 7.5h91l29 140q3 14 13 25.5t23 17.5z" />
    <glyph glyph-name="Emacron" unicode="&#x112;" 
d="M14 370l-66 -310h300l-24 -33q-8 -12 -21.5 -19.5t-27.5 -7.5h-300l170 800h360l-24 -33q-8 -12 -21 -19.5t-27 -7.5h-241l-66 -310h210l-23 -33q-9 -12 -22 -19.5t-27 -7.5h-150zM394 966q-9 -12 -22 -19t-27 -7h-240l24 33q8 12 21.5 19.5t26.5 7.5h241z" />
    <glyph glyph-name="emacron" unicode="&#x113;" 
d="M121 374q9 11 22 18.5t27 7.5h90l15 70q6 29 -10 49.5t-45 20.5h-100q-29 0 -54 -20.5t-31 -49.5l-72 -340q-7 -29 9.5 -49.5t45.5 -20.5h100q29 0 53.5 20.5t31.5 49.5l8 40q3 14 12.5 25.5t23.5 17.5l37 17l-21 -100q-6 -27 -21.5 -50.5t-36.5 -41.5t-47 -28t-53 -10
h-100q-27 0 -48.5 10t-35.5 28t-19 41.5t1 50.5l72 340q6 27 21 50.5t36.5 41.5t47.5 28t53 10h100q27 0 48 -10t35 -28t19.5 -41.5t-0.5 -50.5l-28 -130h-210zM351 766q-8 -12 -21.5 -19t-26.5 -7h-241l24 33q8 12 21.5 19.5t27.5 7.5h240z" />
    <glyph glyph-name="Ebreve" unicode="&#x114;" 
d="M14 370l-66 -310h300l-24 -33q-8 -12 -21.5 -19.5t-27.5 -7.5h-300l170 800h360l-24 -33q-8 -12 -21 -19.5t-27 -7.5h-241l-66 -310h210l-23 -33q-9 -12 -22 -19.5t-27 -7.5h-150zM149 960q2 11 10.5 21t20.5 15l30 14l-11 -50q-5 -25 8.5 -42.5t38.5 -17.5t46.5 17.5
t26.5 42.5q2 11 11 21t20 15l30 14l-11 -50q-5 -23 -18 -43t-31 -35t-39.5 -23.5t-44.5 -8.5t-41 8.5t-30 23.5t-16.5 35t0.5 43z" />
    <glyph glyph-name="ebreve" unicode="&#x115;" 
d="M121 374q9 11 22 18.5t27 7.5h90l15 70q6 29 -10 49.5t-45 20.5h-100q-29 0 -54 -20.5t-31 -49.5l-72 -340q-7 -29 9.5 -49.5t45.5 -20.5h100q29 0 53.5 20.5t31.5 49.5l8 40q3 14 12.5 25.5t23.5 17.5l37 17l-21 -100q-6 -27 -21.5 -50.5t-36.5 -41.5t-47 -28t-53 -10
h-100q-27 0 -48.5 10t-35.5 28t-19 41.5t1 50.5l72 340q6 27 21 50.5t36.5 41.5t47.5 28t53 10h100q27 0 48 -10t35 -28t19.5 -41.5t-0.5 -50.5l-28 -130h-210zM107 760q2 11 10.5 21t19.5 15l30 14l-10 -50q-5 -25 8.5 -42.5t38.5 -17.5t46 17.5t27 42.5q2 11 10.5 21
t19.5 15l30 14l-10 -50q-5 -23 -18 -43t-31 -35t-40 -23.5t-45 -8.5q-22 0 -40.5 8.5t-30 23.5t-16 35t0.5 43z" />
    <glyph glyph-name="Edotaccent" unicode="&#x116;" 
d="M14 370l-66 -310h300l-24 -33q-8 -12 -21.5 -19.5t-27.5 -7.5h-300l170 800h360l-24 -33q-8 -12 -21 -19.5t-27 -7.5h-241l-66 -310h210l-23 -33q-9 -12 -22 -19.5t-27 -7.5h-150zM283 930q-3 -14 -12.5 -25.5t-23.5 -17.5l-37 -17l15 70q3 14 12.5 25.5t23.5 17.5l37 17
z" />
    <glyph glyph-name="edotaccent" unicode="&#x117;" 
d="M121 374q9 11 22 18.5t27 7.5h90l15 70q6 29 -10 49.5t-45 20.5h-100q-29 0 -54 -20.5t-31 -49.5l-72 -340q-7 -29 9.5 -49.5t45.5 -20.5h100q29 0 53.5 20.5t31.5 49.5l8 40q3 14 12.5 25.5t23.5 17.5l37 17l-21 -100q-6 -27 -21.5 -50.5t-36.5 -41.5t-47 -28t-53 -10
h-100q-27 0 -48.5 10t-35.5 28t-19 41.5t1 50.5l72 340q6 27 21 50.5t36.5 41.5t47.5 28t53 10h100q27 0 48 -10t35 -28t19.5 -41.5t-0.5 -50.5l-28 -130h-210zM240 730q-3 -14 -12.5 -25.5t-22.5 -17.5l-38 -17l15 70q3 14 12.5 25.5t23.5 17.5l37 17z" />
    <glyph glyph-name="Eogonek" unicode="&#x118;" horiz-adv-x="500" 
d="M173 -200q-23 0 -41 8.5t-30 23.5t-16.5 35t0.5 43l59 90h-270l170 800h360l-24 -33q-8 -12 -21.5 -19.5t-26.5 -7.5h-241l-66 -310h210l-23 -33q-9 -12 -22 -19.5t-27 -7.5h-150l-66 -310h300l-102 -150q-5 -21 7 -35.5t32 -14.5h60l-23 -33q-9 -12 -22 -19.5t-27 -7.5z
" />
    <glyph glyph-name="eogonek" unicode="&#x119;" 
d="M73 -200q-23 0 -41 8.5t-30 23.5t-16.5 35t0.5 43l59 90h-40q-27 0 -48.5 10t-35.5 28t-19 41.5t1 50.5l72 340q6 27 21 50.5t36.5 41.5t47.5 28t53 10h100q27 0 48 -10t35 -28t19.5 -41.5t-0.5 -50.5l-28 -130h-210l24 34q9 11 22 18.5t27 7.5h90l15 70q6 29 -10 49.5
t-45 20.5h-100q-29 0 -54 -20.5t-31 -49.5l-72 -340q-7 -29 9.5 -49.5t45.5 -20.5h100q29 0 53.5 20.5t31.5 49.5l8 40q3 14 12.5 25.5t23.5 17.5l37 17l-21 -100q-6 -27 -21.5 -50.5t-36.5 -41.5t-47 -28t-53 -10l-59 -90q-5 -21 7 -35.5t32 -14.5h60l-23 -33
q-9 -12 -22 -19.5t-27 -7.5z" />
    <glyph glyph-name="Ecaron" unicode="&#x11a;" 
d="M14 370l-66 -310h300l-24 -33q-8 -12 -21.5 -19.5t-27.5 -7.5h-300l170 800h360l-24 -33q-8 -12 -21 -19.5t-27 -7.5h-241l-66 -310h210l-23 -33q-9 -12 -22 -19.5t-27 -7.5h-150zM398 1000l-110 -125q-11 -11 -24.5 -18t-27.5 -7h-30l-68 150h30q14 0 25 -7t16 -18
l36 -80l71 80q10 11 24 18t28 7h30z" />
    <glyph glyph-name="ecaron" unicode="&#x11b;" 
d="M121 374q9 11 22 18.5t27 7.5h90l15 70q6 29 -10 49.5t-45 20.5h-100q-29 0 -54 -20.5t-31 -49.5l-72 -340q-7 -29 9.5 -49.5t45.5 -20.5h100q29 0 53.5 20.5t31.5 49.5l8 40q3 14 12.5 25.5t23.5 17.5l37 17l-21 -100q-6 -27 -21.5 -50.5t-36.5 -41.5t-47 -28t-53 -10
h-100q-27 0 -48.5 10t-35.5 28t-19 41.5t1 50.5l72 340q6 27 21 50.5t36.5 41.5t47.5 28t53 10h100q27 0 48 -10t35 -28t19.5 -41.5t-0.5 -50.5l-28 -130h-210zM355 800l-110 -125q-10 -11 -24 -18t-28 -7h-30l-68 150h30q14 0 25 -7t16 -18l37 -80l70 80q10 11 24 18t28 7
h30z" />
    <glyph glyph-name="Gcircumflex" unicode="&#x11c;" 
d="M369 630q-3 -14 -12.5 -25.5t-23.5 -17.5l-37 -17l21 100q7 29 -9.5 49.5t-45.5 20.5h-100q-29 0 -53.5 -20.5t-31.5 -49.5l-114 -540q-7 -29 9.5 -49.5t45.5 -20.5h100q29 0 53.5 20.5t31.5 49.5l51 240h-150l24 34q8 11 21 18.5t27 7.5h150l-63 -300
q-6 -27 -21.5 -50.5t-36.5 -41.5t-47 -28t-53 -10h-100q-27 0 -48.5 10t-35.5 28t-19 41.5t1 50.5l114 540q6 27 21.5 50.5t36.5 41.5t47 28t53 10h100q27 0 48.5 -10t35.5 -28t19 -41.5t-1 -50.5zM335 850q-13 0 -24 7t-16 18l-37 80l-71 -80q-10 -11 -23.5 -18t-27.5 -7
h-30l110 126q10 11 24 17.5t27 6.5h31l68 -150h-31z" />
    <glyph glyph-name="gcircumflex" unicode="&#x11d;" 
d="M188 60l102 480h-170q-29 0 -54 -20.5t-31 -49.5l-72 -340q-7 -29 9.5 -49.5t45.5 -20.5h170zM75 -140q29 0 54 20.5t31 49.5l15 70h-170q-27 0 -48.5 10t-35.5 28t-19 41.5t1 50.5l72 340q6 27 21 50.5t36.5 41.5t47.5 28t53 10h230l-143 -670q-6 -27 -21 -50.5
t-36.5 -41.5t-47 -28t-52.5 -10h-231l24 33q9 12 22 19.5t27 7.5h170zM323 650h-30q-14 0 -25 7t-16 18l-36 80l-71 -80q-10 -11 -24 -18t-27 -7h-31l110 126q11 11 24.5 17.5t27.5 6.5h30z" />
    <glyph glyph-name="Gbreve" unicode="&#x11e;" 
d="M369 630q-3 -14 -12.5 -25.5t-23.5 -17.5l-37 -17l21 100q7 29 -9.5 49.5t-45.5 20.5h-100q-29 0 -53.5 -20.5t-31.5 -49.5l-114 -540q-7 -29 9.5 -49.5t45.5 -20.5h100q29 0 53.5 20.5t31.5 49.5l51 240h-150l24 34q8 11 21 18.5t27 7.5h150l-63 -300
q-6 -27 -21.5 -50.5t-36.5 -41.5t-47 -28t-53 -10h-100q-27 0 -48.5 10t-35.5 28t-19 41.5t1 50.5l114 540q6 27 21.5 50.5t36.5 41.5t47 28t53 10h100q27 0 48.5 -10t35.5 -28t19 -41.5t-1 -50.5zM149 960q2 11 10.5 21t20.5 15l30 14l-11 -50q-5 -25 8.5 -42.5t38.5 -17.5
t46.5 17.5t26.5 42.5q2 11 11 21t20 15l30 14l-11 -50q-5 -23 -18 -43t-31 -35t-39.5 -23.5t-44.5 -8.5t-41 8.5t-30 23.5t-16.5 35t0.5 43z" />
    <glyph glyph-name="gbreve" unicode="&#x11f;" 
d="M188 60l102 480h-170q-29 0 -54 -20.5t-31 -49.5l-72 -340q-7 -29 9.5 -49.5t45.5 -20.5h170zM75 -140q29 0 54 20.5t31 49.5l15 70h-170q-27 0 -48.5 10t-35.5 28t-19 41.5t1 50.5l72 340q6 27 21 50.5t36.5 41.5t47.5 28t53 10h230l-143 -670q-6 -27 -21 -50.5
t-36.5 -41.5t-47 -28t-52.5 -10h-231l24 33q9 12 22 19.5t27 7.5h170zM107 760q2 11 10.5 21t19.5 15l30 14l-10 -50q-5 -25 8.5 -42.5t38.5 -17.5t46 17.5t27 42.5q2 11 10.5 21t19.5 15l30 14l-10 -50q-5 -23 -18 -43t-31 -35t-40 -23.5t-45 -8.5q-22 0 -40.5 8.5
t-30 23.5t-16 35t0.5 43z" />
    <glyph glyph-name="Gdotaccent" unicode="&#x120;" 
d="M369 630q-3 -14 -12.5 -25.5t-23.5 -17.5l-37 -17l21 100q7 29 -9.5 49.5t-45.5 20.5h-100q-29 0 -53.5 -20.5t-31.5 -49.5l-114 -540q-7 -29 9.5 -49.5t45.5 -20.5h100q29 0 53.5 20.5t31.5 49.5l51 240h-150l24 34q8 11 21 18.5t27 7.5h150l-63 -300
q-6 -27 -21.5 -50.5t-36.5 -41.5t-47 -28t-53 -10h-100q-27 0 -48.5 10t-35.5 28t-19 41.5t1 50.5l114 540q6 27 21.5 50.5t36.5 41.5t47 28t53 10h100q27 0 48.5 -10t35.5 -28t19 -41.5t-1 -50.5zM283 930q-3 -14 -12.5 -25.5t-23.5 -17.5l-37 -17l15 70q3 14 12.5 25.5
t23.5 17.5l37 17z" />
    <glyph glyph-name="gdotaccent" unicode="&#x121;" 
d="M188 60l102 480h-170q-29 0 -54 -20.5t-31 -49.5l-72 -340q-7 -29 9.5 -49.5t45.5 -20.5h170zM75 -140q29 0 54 20.5t31 49.5l15 70h-170q-27 0 -48.5 10t-35.5 28t-19 41.5t1 50.5l72 340q6 27 21 50.5t36.5 41.5t47.5 28t53 10h230l-143 -670q-6 -27 -21 -50.5
t-36.5 -41.5t-47 -28t-52.5 -10h-231l24 33q9 12 22 19.5t27 7.5h170zM255 800l-15 -70q-3 -14 -12.5 -25.5t-22.5 -17.5l-37 -17l14 70q3 14 13 25.5t23 17.5z" />
    <glyph glyph-name="uni0122" unicode="&#x122;" 
d="M369 630q-3 -14 -12.5 -25.5t-23.5 -17.5l-37 -17l21 100q7 29 -9.5 49.5t-45.5 20.5h-100q-29 0 -53.5 -20.5t-31.5 -49.5l-114 -540q-7 -29 9.5 -49.5t45.5 -20.5h100q29 0 53.5 20.5t31.5 49.5l51 240h-150l24 34q8 11 21 18.5t27 7.5h150l-63 -300
q-6 -27 -21.5 -50.5t-36.5 -41.5t-47 -28t-53 -10h-100q-27 0 -48.5 10t-35.5 28t-19 41.5t1 50.5l114 540q6 27 21.5 50.5t36.5 41.5t47 28t53 10h100q27 0 48.5 -10t35.5 -28t19 -41.5t-1 -50.5zM-7 -75q10 11 24 18t28 7h30l-110 -125q-10 -11 -24 -18t-28 -7h-30z" />
    <glyph glyph-name="uni0123" unicode="&#x123;" 
d="M188 60l102 480h-170q-29 0 -54 -20.5t-31 -49.5l-72 -340q-7 -29 9.5 -49.5t45.5 -20.5h170zM75 -140q29 0 54 20.5t31 49.5l15 70h-170q-27 0 -48.5 10t-35.5 28t-19 41.5t1 50.5l72 340q6 27 21 50.5t36.5 41.5t47.5 28t53 10h230l-143 -670q-6 -27 -21 -50.5
t-36.5 -41.5t-47 -28t-52.5 -10h-231l24 33q9 12 22 19.5t27 7.5h170zM164 650l110 125q10 11 23.5 18t27.5 7h30l-110 -125q-10 -11 -23.5 -18t-27.5 -7h-30z" />
    <glyph glyph-name="Hcircumflex" unicode="&#x124;" 
d="M405 800l-170 -800h-60l79 370h-240l-79 -370h-60l157 740q3 14 12.5 25.5t23.5 17.5l37 17l-79 -370h240l66 310q3 14 12.5 25.5t23.5 17.5zM335 850q-13 0 -24 7t-16 18l-37 80l-71 -80q-10 -11 -23.5 -18t-27.5 -7h-30l110 126q10 11 24 17.5t27 6.5h31l68 -150h-31z
" />
    <glyph glyph-name="hcircumflex" unicode="&#x125;" 
d="M105 800l-42 -200h170q27 0 48 -10t35 -28t19.5 -41.5t-0.5 -50.5l-100 -470h-60l100 470q6 29 -10 49.5t-45 20.5h-170l-115 -540h-60l157 740q3 14 12.5 25.5t23.5 17.5zM335 850q-13 0 -24 7t-16 18l-37 80l-71 -80q-10 -11 -23.5 -18t-27.5 -7h-30l110 126
q10 11 24 17.5t27 6.5h31l68 -150h-31z" />
    <glyph glyph-name="Hbar" unicode="&#x126;" horiz-adv-x="700" 
d="M386 430l30 140h-240l-30 -140h240zM525 800l-36 -170h120l-24 -33q-8 -12 -21.5 -19.5t-27.5 -7.5h-60l-121 -570h-60l79 370h-240l-79 -370h-60l121 570h-120l24 33q8 12 21.5 19.5t27.5 7.5h60l23 110q3 14 13 25.5t23 17.5l37 17l-36 -170h240l23 110q3 14 13 25.5
t23 17.5z" />
    <glyph glyph-name="hbar" unicode="&#x127;" horiz-adv-x="580" 
d="M170 540l-30 -140h170q27 0 48.5 -10t35.5 -28t19 -41.5t-1 -50.5l-57 -270h-60l57 270q7 29 -9.5 49.5t-45.5 20.5h-170l-72 -340h-60l115 540h-120l24 33q8 12 21.5 19.5t26.5 7.5h61l29 140q3 14 13 25.5t23 17.5l37 17l-42 -200h150l-24 -33q-9 -12 -22 -19.5
t-27 -7.5h-90z" />
    <glyph glyph-name="Itilde" unicode="&#x128;" horiz-adv-x="430" 
d="M167 740q3 14 12.5 25.5t23.5 17.5l37 17l-170 -800h-60zM120 900q-13 -25 -34 -25h-25q5 21 15.5 40t25.5 33.5t34.5 23t41.5 8.5q35 0 51.5 -16t27.5 -33q10 -15 18.5 -23t25.5 -8t28.5 8.5t19.5 21.5q14 25 34 25h25q-4 -21 -15 -40t-26 -33.5t-34.5 -23t-41.5 -8.5
q-18 0 -30.5 4.5t-21.5 11.5t-15.5 15.5t-11.5 16.5q-11 16 -19 24t-25 8t-28.5 -8.5t-19.5 -21.5z" />
    <glyph glyph-name="itilde" unicode="&#x129;" horiz-adv-x="430" 
d="M125 540q3 14 12.5 25.5t23.5 17.5l37 17l-128 -600h-60zM78 700q-13 -25 -35 -25h-25q5 21 15.5 40t26 33.5t35 23t41.5 8.5q17 0 29.5 -4.5t21.5 -11.5t15.5 -16t11.5 -17q11 -15 19.5 -23t25.5 -8t28 8.5t19 21.5q14 25 35 25h24q-4 -21 -14.5 -40t-25.5 -33.5
t-34.5 -23t-42.5 -8.5q-17 0 -29.5 4.5t-21.5 11.5t-15.5 15.5t-11.5 16.5q-11 16 -19.5 24t-25.5 8q-16 0 -27.5 -8.5t-19.5 -21.5z" />
    <glyph glyph-name="Imacron" unicode="&#x12a;" horiz-adv-x="400" 
d="M152 740q3 14 12.5 25.5t23.5 17.5l37 17l-170 -800h-60zM364 966q-9 -12 -22 -19t-27 -7h-240l24 33q8 12 21 19.5t27 7.5h241z" />
    <glyph glyph-name="imacron" unicode="&#x12b;" horiz-adv-x="400" 
d="M110 540q3 14 12.5 25.5t23.5 17.5l37 17l-128 -600h-60zM321 766q-8 -12 -21.5 -19t-27.5 -7h-240l24 33q8 12 21.5 19.5t27.5 7.5h240z" />
    <glyph glyph-name="Iogonek" unicode="&#x12e;" horiz-adv-x="270" 
d="M-57 -200q-23 0 -41 8.5t-30 23.5t-16.5 35t0.5 43l59 90l157 740q3 14 12.5 25.5t23.5 17.5l37 17l-170 -800l-59 -90q-5 -21 7 -35.5t32 -14.5h60l-24 -33q-8 -12 -21 -19.5t-27 -7.5z" />
    <glyph glyph-name="iogonek" unicode="&#x12f;" horiz-adv-x="270" 
d="M-57 -200q-23 0 -41 8.5t-30 23.5t-16.5 35t0.5 43l59 90l115 540q3 14 12.5 25.5t22.5 17.5l38 17l-128 -600l-59 -90q-5 -21 7 -35.5t32 -14.5h60l-24 -33q-8 -12 -21 -19.5t-27 -7.5zM130 730q-3 -14 -12.5 -25.5t-23.5 -17.5l-37 -17l15 70q3 14 12.5 25.5t23.5 17.5
l37 17z" />
    <glyph glyph-name="Idotaccent" unicode="&#x130;" horiz-adv-x="180" 
d="M42 740q3 14 12.5 25.5t23.5 17.5l37 17l-170 -800h-60zM143 930q-3 -14 -12.5 -25.5t-23.5 -17.5l-37 -17l15 70q3 14 12.5 25.5t23.5 17.5l37 17z" />
    <glyph glyph-name="dotlessi" unicode="&#x131;" horiz-adv-x="180" 
d="M0 540q3 14 12.5 25.5t23.5 17.5l37 17l-128 -600h-60z" />
    <glyph glyph-name="Jcircumflex" unicode="&#x134;" 
d="M-89 170q3 14 12.5 25.5t23.5 17.5l37 17l-21 -100q-7 -29 9.5 -49.5t45.5 -20.5h100q29 0 53.5 20.5t31.5 49.5l129 610h-300l24 34q9 11 22 18.5t27 7.5h300l-142 -670q-6 -27 -21.5 -50.5t-36.5 -41.5t-47 -28t-53 -10h-100q-27 0 -48.5 10t-35.5 28t-19 41.5t1 50.5z
M335 850q-13 0 -24 7t-16 18l-37 80l-71 -80q-10 -11 -23.5 -18t-27.5 -7h-30l110 126q10 11 24 17.5t27 6.5h31l68 -150h-31z" />
    <glyph glyph-name="jcircumflex" unicode="&#x135;" horiz-adv-x="410" 
d="M293 650q-14 0 -25 7t-16 18l-36 80l-71 -80q-10 -11 -24 -18t-27 -7h-31l110 126q10 11 24 17.5t28 6.5h30l68 -150h-30zM-144 -167q9 12 22 19.5t27 7.5h20q29 0 54 20.5t31 49.5l130 610q3 14 12.5 25.5t23.5 17.5l37 17l-143 -670q-6 -27 -21 -50.5t-36.5 -41.5
t-47.5 -28t-53 -10h-80z" />
    <glyph glyph-name="uni0136" unicode="&#x136;" 
d="M405 800l-224 -400l54 -400h-30q-29 0 -34 28l-46 342h-111l-79 -370h-60l157 740q3 14 12.5 25.5t23.5 17.5l37 17l-79 -370h111l192 342q8 13 20 20.5t26 7.5h30zM-7 -75q10 11 24 18t28 7h30l-110 -125q-10 -11 -24 -18t-28 -7h-30z" />
    <glyph glyph-name="uni0137" unicode="&#x137;" 
d="M363 600l-187 -236l59 -364h-30q-14 0 -23 7.5t-11 20.5l-51 312h-113l-72 -340h-60l157 740q3 14 12.5 25.5t23.5 17.5l37 17l-85 -400h125l137 174q9 12 22.5 19t27.5 7h31zM-7 -75q10 11 24 18t28 7h30l-110 -125q-10 -11 -24 -18t-28 -7h-30z" />
    <glyph glyph-name="Lacute" unicode="&#x139;" 
d="M224 27q-8 -12 -21.5 -19.5t-27.5 -7.5h-300l157 740q3 14 12.5 25.5t23.5 17.5l37 17l-157 -740h300zM316 975q10 11 24 18t28 7h30l-110 -125q-10 -11 -24 -18t-28 -7h-30z" />
    <glyph glyph-name="lacute" unicode="&#x13a;" horiz-adv-x="260" 
d="M32 740q3 14 12.5 25.5t23.5 17.5l37 17l-170 -800h-60zM166 975q10 11 24 18t28 7h30l-110 -125q-11 -11 -24.5 -18t-27.5 -7h-30z" />
    <glyph glyph-name="uni013B" unicode="&#x13b;" 
d="M224 27q-8 -12 -21.5 -19.5t-27.5 -7.5h-300l157 740q3 14 12.5 25.5t23.5 17.5l37 17l-157 -740h300zM-7 -75q10 11 24 18t28 7h30l-110 -125q-10 -11 -24 -18t-28 -7h-30z" />
    <glyph glyph-name="uni013C" unicode="&#x13c;" horiz-adv-x="260" 
d="M132 740q3 14 12.5 25.5t23.5 17.5l37 17l-170 -800h-60zM-58 -75q11 11 24.5 18t27.5 7h30l-110 -125q-10 -11 -24 -18t-28 -7h-30z" />
    <glyph glyph-name="Lcaron" unicode="&#x13d;" 
d="M224 27q-8 -12 -21.5 -19.5t-27.5 -7.5h-300l157 740q3 14 12.5 25.5t23.5 17.5l37 17l-157 -740h300zM273 775q11 11 24.5 18t27.5 7h30l-110 -125q-10 -11 -23.5 -18t-27.5 -7h-30z" />
    <glyph glyph-name="lcaron" unicode="&#x13e;" horiz-adv-x="350" 
d="M32 740q3 14 12.5 25.5t23.5 17.5l37 17l-170 -800h-60zM213 775q11 11 24.5 18t27.5 7h30l-110 -125q-10 -11 -23.5 -18t-27.5 -7h-30z" />
    <glyph glyph-name="Ldot" unicode="&#x13f;" 
d="M224 27q-8 -12 -21.5 -19.5t-27.5 -7.5h-300l157 740q3 14 12.5 25.5t23.5 17.5l37 17l-157 -740h300zM198 530q-3 -14 -12.5 -25.5t-23.5 -17.5l-37 -17l15 70q3 14 12.5 25.5t23.5 17.5l37 17z" />
    <glyph glyph-name="ldot" unicode="&#x140;" horiz-adv-x="250" 
d="M32 740q3 14 12.5 25.5t23.5 17.5l37 17l-170 -800h-60zM138 530q-3 -14 -12.5 -25.5t-23.5 -17.5l-37 -17l15 70q3 14 12.5 25.5t23.5 17.5l37 17z" />
    <glyph glyph-name="Lslash" unicode="&#x141;" horiz-adv-x="580" 
d="M-5 0l85 400l-133 -60l7 30q2 14 12 25.5t23 17.5l104 47l59 280q3 14 13 25.5t23 17.5l37 17l-66 -310l244 110l-7 -30q-3 -14 -12.5 -25.5t-23.5 -17.5l-214 -97l-78 -370h300l-24 -33q-8 -12 -21.5 -19.5t-27.5 -7.5h-300z" />
    <glyph glyph-name="lslash" unicode="&#x142;" horiz-adv-x="500" 
d="M225 800l-66 -310l244 110l-7 -30q-3 -14 -12.5 -25.5t-23.5 -17.5l-214 -97l-91 -430h-60l85 400l-133 -60l7 30q2 14 12 25.5t23 17.5l104 47l59 280q3 14 13 25.5t23 17.5z" />
    <glyph glyph-name="Nacute" unicode="&#x143;" 
d="M405 800l-170 -800h-30q-14 0 -23 7.5t-11 20.5l-100 612l-136 -640h-60l170 800h30q14 0 23.5 -7.5t11.5 -20.5l99 -612l123 580q3 14 12.5 25.5t23.5 17.5zM316 975q10 11 24 18t28 7h30l-110 -125q-10 -11 -24 -18t-28 -7h-30z" />
    <glyph glyph-name="nacute" unicode="&#x144;" 
d="M235 0h-60l100 470q6 29 -10 49.5t-45 20.5h-170l-115 -540h-60l128 600h230q27 0 48 -10t35 -28t19.5 -41.5t-0.5 -50.5zM273 775q11 11 24.5 18t27.5 7h30l-110 -125q-10 -11 -23.5 -18t-27.5 -7h-30z" />
    <glyph glyph-name="uni0145" unicode="&#x145;" 
d="M405 800l-170 -800h-30q-14 0 -23 7.5t-11 20.5l-100 612l-136 -640h-60l170 800h30q14 0 23.5 -7.5t11.5 -20.5l99 -612l123 580q3 14 12.5 25.5t23.5 17.5zM-7 -75q10 11 24 18t28 7h30l-110 -125q-10 -11 -24 -18t-28 -7h-30z" />
    <glyph glyph-name="uni0146" unicode="&#x146;" 
d="M235 0h-60l100 470q6 29 -10 49.5t-45 20.5h-170l-115 -540h-60l128 600h230q27 0 48 -10t35 -28t19.5 -41.5t-0.5 -50.5zM-7 -75q10 11 24 18t28 7h30l-110 -125q-10 -11 -24 -18t-28 -7h-30z" />
    <glyph glyph-name="Ncaron" unicode="&#x147;" 
d="M405 800l-170 -800h-30q-14 0 -23 7.5t-11 20.5l-100 612l-136 -640h-60l170 800h30q14 0 23.5 -7.5t11.5 -20.5l99 -612l123 580q3 14 12.5 25.5t23.5 17.5zM398 1000l-110 -125q-11 -11 -24.5 -18t-27.5 -7h-30l-68 150h30q14 0 25 -7t16 -18l36 -80l71 80q10 11 24 18
t28 7h30z" />
    <glyph glyph-name="ncaron" unicode="&#x148;" 
d="M235 0h-60l100 470q6 29 -10 49.5t-45 20.5h-170l-115 -540h-60l128 600h230q27 0 48 -10t35 -28t19.5 -41.5t-0.5 -50.5zM355 800l-110 -125q-10 -11 -24 -18t-28 -7h-30l-68 150h30q14 0 25 -7t16 -18l37 -80l70 80q10 11 24 18t28 7h30z" />
    <glyph glyph-name="napostrophe" unicode="&#x149;" horiz-adv-x="590" 
d="M365 0h-60l100 470q6 29 -10.5 49.5t-45.5 20.5h-170l-114 -540h-60l127 600h230q27 0 48.5 -10t35.5 -28t19.5 -41.5t-0.5 -50.5zM123 775q10 11 24 18t28 7h30l-110 -125q-10 -11 -24 -18t-28 -7h-30z" />
    <glyph glyph-name="Omacron" unicode="&#x14c;" 
d="M105 0h-100q-27 0 -48.5 10t-35.5 28t-19 41.5t1 50.5l114 540q6 27 21.5 50.5t36.5 41.5t47 28t53 10h100q27 0 48.5 -10t35.5 -28t19 -41.5t-1 -50.5l-114 -540q-6 -27 -21.5 -50.5t-36.5 -41.5t-47 -28t-53 -10zM162 740q-29 0 -53.5 -20.5t-31.5 -49.5l-114 -540
q-7 -29 9.5 -49.5t45.5 -20.5h100q29 0 53.5 20.5t31.5 49.5l114 540q7 29 -9.5 49.5t-45.5 20.5h-100zM394 966q-9 -12 -22 -19t-27 -7h-240l24 33q8 12 21 19.5t27 7.5h241z" />
    <glyph glyph-name="omacron" unicode="&#x14d;" 
d="M105 0h-100q-27 0 -48.5 10t-35.5 28t-19 41.5t1 50.5l72 340q6 27 21 50.5t36.5 41.5t47.5 28t53 10h100q27 0 48 -10t35 -28t19.5 -41.5t-0.5 -50.5l-72 -340q-6 -27 -21.5 -50.5t-36.5 -41.5t-47 -28t-53 -10zM120 540q-29 0 -54 -20.5t-31 -49.5l-72 -340
q-7 -29 9.5 -49.5t45.5 -20.5h100q29 0 53.5 20.5t31.5 49.5l72 340q6 29 -10 49.5t-45 20.5h-100zM351 766q-8 -12 -21.5 -19t-26.5 -7h-241l24 33q8 12 21.5 19.5t27.5 7.5h240z" />
    <glyph glyph-name="Obreve" unicode="&#x14e;" 
d="M105 0h-100q-27 0 -48.5 10t-35.5 28t-19 41.5t1 50.5l114 540q6 27 21.5 50.5t36.5 41.5t47 28t53 10h100q27 0 48.5 -10t35.5 -28t19 -41.5t-1 -50.5l-114 -540q-6 -27 -21.5 -50.5t-36.5 -41.5t-47 -28t-53 -10zM162 740q-29 0 -53.5 -20.5t-31.5 -49.5l-114 -540
q-7 -29 9.5 -49.5t45.5 -20.5h100q29 0 53.5 20.5t31.5 49.5l114 540q7 29 -9.5 49.5t-45.5 20.5h-100zM149 960q2 11 10.5 21t20.5 15l30 14l-11 -50q-5 -25 8.5 -42.5t38.5 -17.5t46.5 17.5t26.5 42.5q2 11 11 21t20 15l30 14l-11 -50q-5 -23 -18 -43t-31 -35t-39.5 -23.5
t-44.5 -8.5t-41 8.5t-30 23.5t-16.5 35t0.5 43z" />
    <glyph glyph-name="obreve" unicode="&#x14f;" 
d="M105 0h-100q-27 0 -48.5 10t-35.5 28t-19 41.5t1 50.5l72 340q6 27 21 50.5t36.5 41.5t47.5 28t53 10h100q27 0 48 -10t35 -28t19.5 -41.5t-0.5 -50.5l-72 -340q-6 -27 -21.5 -50.5t-36.5 -41.5t-47 -28t-53 -10zM120 540q-29 0 -54 -20.5t-31 -49.5l-72 -340
q-7 -29 9.5 -49.5t45.5 -20.5h100q29 0 53.5 20.5t31.5 49.5l72 340q6 29 -10 49.5t-45 20.5h-100zM107 760q2 11 10.5 21t19.5 15l30 14l-10 -50q-5 -25 8.5 -42.5t38.5 -17.5t46 17.5t27 42.5q2 11 10.5 21t19.5 15l30 14l-10 -50q-5 -23 -18 -43t-31 -35t-40 -23.5
t-45 -8.5q-22 0 -40.5 8.5t-30 23.5t-16 35t0.5 43z" />
    <glyph glyph-name="Ohungarumlaut" unicode="&#x150;" 
d="M105 0h-100q-27 0 -48.5 10t-35.5 28t-19 41.5t1 50.5l114 540q6 27 21.5 50.5t36.5 41.5t47 28t53 10h100q27 0 48.5 -10t35.5 -28t19 -41.5t-1 -50.5l-114 -540q-6 -27 -21.5 -50.5t-36.5 -41.5t-47 -28t-53 -10zM162 740q-29 0 -53.5 -20.5t-31.5 -49.5l-114 -540
q-7 -29 9.5 -49.5t45.5 -20.5h100q29 0 53.5 20.5t31.5 49.5l114 540q7 29 -9.5 49.5t-45.5 20.5h-100zM345 974q11 12 25 19t28 7h30l-110 -125q-10 -11 -24.5 -18t-28.5 -7h-29zM235 974q11 12 25 19t28 7h30l-110 -125q-10 -11 -24.5 -18t-28.5 -7h-29z" />
    <glyph glyph-name="ohungarumlaut" unicode="&#x151;" 
d="M105 0h-100q-27 0 -48.5 10t-35.5 28t-19 41.5t1 50.5l72 340q6 27 21 50.5t36.5 41.5t47.5 28t53 10h100q27 0 48 -10t35 -28t19.5 -41.5t-0.5 -50.5l-72 -340q-6 -27 -21.5 -50.5t-36.5 -41.5t-47 -28t-53 -10zM120 540q-29 0 -54 -20.5t-31 -49.5l-72 -340
q-7 -29 9.5 -49.5t45.5 -20.5h100q29 0 53.5 20.5t31.5 49.5l72 340q6 29 -10 49.5t-45 20.5h-100zM303 774q10 12 24 19t28 7h30l-110 -125q-10 -11 -24 -18t-28 -7h-30zM193 774q10 12 24 19t28 7h30l-110 -125q-10 -11 -24 -18t-28 -7h-30z" />
    <glyph glyph-name="OE" unicode="&#x152;" horiz-adv-x="760" 
d="M188 60l144 680h-170q-29 0 -53.5 -20.5t-31.5 -49.5l-114 -540q-7 -29 9.5 -49.5t45.5 -20.5h170zM314 370l-66 -310h300l-24 -33q-8 -12 -21.5 -19.5t-27.5 -7.5h-470q-27 0 -48.5 10t-35.5 28t-19 41.5t1 50.5l114 540q6 27 21.5 50.5t36.5 41.5t47 28t53 10h530
l-24 -33q-8 -12 -21.5 -19.5t-26.5 -7.5h-241l-66 -310h210l-23 -33q-9 -12 -22 -19.5t-27 -7.5h-150z" />
    <glyph glyph-name="oe" unicode="&#x153;" horiz-adv-x="760" 
d="M118 60q29 0 53.5 20.5t31.5 49.5l72 340q6 29 -10 49.5t-45 20.5h-100q-29 0 -54 -20.5t-31 -49.5l-72 -340q-7 -29 9.5 -49.5t45.5 -20.5h100zM560 400l15 70q6 29 -10 49.5t-45 20.5h-100q-29 0 -54 -20.5t-31 -49.5l-72 -340q-7 -29 9.5 -49.5t45.5 -20.5h100
q29 0 53.5 20.5t31.5 49.5l8 40q3 14 12.5 25.5t23.5 17.5l37 17l-21 -100q-6 -27 -21.5 -50.5t-36.5 -41.5t-47 -28t-53 -10h-100q-30 0 -53 12.5t-37 34.5q-23 -22 -51.5 -34.5t-58.5 -12.5h-100q-27 0 -48.5 10t-35.5 28t-19 41.5t1 50.5l72 340q6 27 21 50.5t36.5 41.5
t47.5 28t53 10h100q30 0 53 -12.5t37 -34.5q23 22 51 34.5t59 12.5h100q27 0 48 -10t35 -28t19.5 -41.5t-0.5 -50.5l-28 -130h-210l24 33q8 12 21.5 19.5t27.5 7.5h90z" />
    <glyph glyph-name="Racute" unicode="&#x154;" 
d="M26 430h170q29 0 54 20.5t31 49.5l36 170q7 29 -9.5 49.5t-45.5 20.5h-170zM341 500q-6 -30 -24 -56t-44 -44q18 -18 25 -44t1 -56l-64 -300h-60l64 300q6 29 -10 49.5t-45 20.5h-170l-79 -370h-60l170 800h230q27 0 48.5 -10t35.5 -28t19 -41.5t-1 -50.5zM206 850
l110 125q10 11 24 18t28 7h30l-110 -125q-10 -11 -24 -18t-28 -7h-30z" />
    <glyph glyph-name="racute" unicode="&#x155;" horiz-adv-x="370" 
d="M249 567q-9 -12 -22 -19.5t-27 -7.5h-80q-29 0 -54 -20.5t-31 -49.5l-100 -470h-60l100 470q6 27 21 50.5t36.5 41.5t47.5 28t53 10h140zM233 775q11 11 24.5 18t27.5 7h30l-110 -125q-10 -11 -23.5 -18t-27.5 -7h-30z" />
    <glyph glyph-name="uni0156" unicode="&#x156;" 
d="M26 430h170q29 0 54 20.5t31 49.5l36 170q7 29 -9.5 49.5t-45.5 20.5h-170zM341 500q-6 -30 -24 -56t-44 -44q18 -18 25 -44t1 -56l-64 -300h-60l64 300q6 29 -10 49.5t-45 20.5h-170l-79 -370h-60l170 800h230q27 0 48.5 -10t35.5 -28t19 -41.5t-1 -50.5zM-117 -200
l110 125q10 11 24 18t28 7h30l-110 -125q-10 -11 -24 -18t-28 -7h-30z" />
    <glyph glyph-name="uni0157" unicode="&#x157;" horiz-adv-x="370" 
d="M249 567q-9 -12 -22 -19.5t-27 -7.5h-80q-29 0 -54 -20.5t-31 -49.5l-100 -470h-60l100 470q6 27 21 50.5t36.5 41.5t47.5 28t53 10h140zM-47 -75q10 11 24 18t28 7h30l-110 -125q-10 -11 -24 -18t-28 -7h-30z" />
    <glyph glyph-name="Rcaron" unicode="&#x158;" 
d="M26 430h170q29 0 54 20.5t31 49.5l36 170q7 29 -9.5 49.5t-45.5 20.5h-170zM341 500q-6 -30 -24 -56t-44 -44q18 -18 25 -44t1 -56l-64 -300h-60l64 300q6 29 -10 49.5t-45 20.5h-170l-79 -370h-60l170 800h230q27 0 48.5 -10t35.5 -28t19 -41.5t-1 -50.5zM398 1000
l-110 -125q-11 -11 -24.5 -18t-27.5 -7h-30l-68 150h30q14 0 25 -7t16 -18l36 -80l71 80q10 11 24 18t28 7h30z" />
    <glyph glyph-name="rcaron" unicode="&#x159;" horiz-adv-x="370" 
d="M249 567q-9 -12 -22 -19.5t-27 -7.5h-80q-29 0 -54 -20.5t-31 -49.5l-100 -470h-60l100 470q6 27 21 50.5t36.5 41.5t47.5 28t53 10h140zM315 800l-110 -125q-10 -11 -24 -18t-28 -7h-30l-68 150h30q14 0 25 -7t16 -18l37 -80l70 80q10 11 24 18t28 7h30z" />
    <glyph glyph-name="Sacute" unicode="&#x15a;" 
d="M-101 34q8 11 21.5 18.5t26.5 7.5h171q29 0 53.5 20.5t31.5 49.5l36 170q6 29 -10 49.5t-45 20.5h-100q-27 0 -48.5 10t-35.5 28t-19.5 41.5t0.5 50.5l36 170q6 27 21.5 50.5t36.5 41.5t47 28t53 10h230l-24 -33q-8 -12 -21 -19.5t-27 -7.5h-171q-29 0 -53.5 -20.5
t-31.5 -49.5l-36 -170q-6 -29 10 -49.5t45 -20.5h100q27 0 48.5 -10t35.5 -28t19.5 -41.5t-0.5 -50.5l-36 -170q-6 -27 -21.5 -50.5t-36.5 -41.5t-47 -28t-53 -10h-230zM316 975q10 11 24 18t28 7h30l-110 -125q-10 -11 -24 -18t-28 -7h-30z" />
    <glyph glyph-name="sacute" unicode="&#x15b;" 
d="M-101 34q8 11 21.5 18.5t26.5 7.5h171q29 0 53.5 20.5t31.5 49.5l29 140q7 29 -9.5 49.5t-45.5 20.5h-100q-27 0 -48 10t-35 28t-19.5 41.5t0.5 50.5t21 50.5t36.5 41.5t47.5 28t53 10h230l-24 -33q-9 -12 -22 -19.5t-27 -7.5h-170q-29 0 -54 -20.5t-31 -49.5t10 -49.5
t45 -20.5h100q27 0 48.5 -10t35.5 -28t19 -41.5t-1 -50.5l-29 -140q-6 -27 -21.5 -50.5t-36.5 -41.5t-47 -28t-53 -10h-230zM273 775q11 11 24.5 18t27.5 7h30l-110 -125q-10 -11 -23.5 -18t-27.5 -7h-30z" />
    <glyph glyph-name="Scircumflex" unicode="&#x15c;" 
d="M-101 34q8 11 21.5 18.5t26.5 7.5h171q29 0 53.5 20.5t31.5 49.5l36 170q6 29 -10 49.5t-45 20.5h-100q-27 0 -48.5 10t-35.5 28t-19.5 41.5t0.5 50.5l36 170q6 27 21.5 50.5t36.5 41.5t47 28t53 10h230l-24 -33q-8 -12 -21 -19.5t-27 -7.5h-171q-29 0 -53.5 -20.5
t-31.5 -49.5l-36 -170q-6 -29 10 -49.5t45 -20.5h100q27 0 48.5 -10t35.5 -28t19.5 -41.5t-0.5 -50.5l-36 -170q-6 -27 -21.5 -50.5t-36.5 -41.5t-47 -28t-53 -10h-230zM335 850q-13 0 -24 7t-16 18l-37 80l-71 -80q-10 -11 -23.5 -18t-27.5 -7h-30l110 126q10 11 24 17.5
t27 6.5h31l68 -150h-31z" />
    <glyph glyph-name="scircumflex" unicode="&#x15d;" 
d="M-101 34q8 11 21.5 18.5t26.5 7.5h171q29 0 53.5 20.5t31.5 49.5l29 140q7 29 -9.5 49.5t-45.5 20.5h-100q-27 0 -48 10t-35 28t-19.5 41.5t0.5 50.5t21 50.5t36.5 41.5t47.5 28t53 10h230l-24 -33q-9 -12 -22 -19.5t-27 -7.5h-170q-29 0 -54 -20.5t-31 -49.5t10 -49.5
t45 -20.5h100q27 0 48.5 -10t35.5 -28t19 -41.5t-1 -50.5l-29 -140q-6 -27 -21.5 -50.5t-36.5 -41.5t-47 -28t-53 -10h-230zM293 650q-14 0 -25 7t-16 18l-36 80l-71 -80q-10 -11 -24 -18t-27 -7h-31l110 126q10 11 24 17.5t28 6.5h30l68 -150h-30z" />
    <glyph glyph-name="Scedilla" unicode="&#x15e;" 
d="M-55 -140h60q21 0 38.5 14.5t22.5 35.5l-21 90h-170l24 34q8 11 21.5 18.5t26.5 7.5h171q29 0 53.5 20.5t31.5 49.5l36 170q6 29 -10 49.5t-45 20.5h-100q-27 0 -48.5 10t-35.5 28t-19.5 41.5t0.5 50.5l36 170q6 27 21.5 50.5t36.5 41.5t47 28t53 10h230l-24 -33
q-8 -12 -21 -19.5t-27 -7.5h-171q-29 0 -53.5 -20.5t-31.5 -49.5l-36 -170q-6 -29 10 -49.5t45 -20.5h100q27 0 48.5 -10t35.5 -28t19.5 -41.5t-0.5 -50.5l-36 -170q-6 -27 -21.5 -50.5t-36.5 -41.5t-47 -28t-53 -10l21 -90q-5 -23 -18 -43t-31 -35t-40 -23.5t-45 -8.5
q-14 0 -24 7.5t-13 19.5z" />
    <glyph glyph-name="scedilla" unicode="&#x15f;" 
d="M-55 -140h60q21 0 38.5 14.5t22.5 35.5l-21 90h-170l24 34q8 11 21.5 18.5t26.5 7.5h171q29 0 53.5 20.5t31.5 49.5l29 140q7 29 -9.5 49.5t-45.5 20.5h-100q-27 0 -48 10t-35 28t-19.5 41.5t0.5 50.5t21 50.5t36.5 41.5t47.5 28t53 10h230l-24 -33q-9 -12 -22 -19.5
t-27 -7.5h-170q-29 0 -54 -20.5t-31 -49.5t10 -49.5t45 -20.5h100q27 0 48.5 -10t35.5 -28t19 -41.5t-1 -50.5l-29 -140q-6 -27 -21.5 -50.5t-36.5 -41.5t-47 -28t-53 -10l21 -90q-5 -23 -18 -43t-31 -35t-40 -23.5t-45 -8.5q-14 0 -24 7.5t-13 19.5z" />
    <glyph glyph-name="Scaron" unicode="&#x160;" 
d="M-101 34q8 11 21.5 18.5t26.5 7.5h171q29 0 53.5 20.5t31.5 49.5l36 170q6 29 -10 49.5t-45 20.5h-100q-27 0 -48.5 10t-35.5 28t-19.5 41.5t0.5 50.5l36 170q6 27 21.5 50.5t36.5 41.5t47 28t53 10h230l-24 -33q-8 -12 -21 -19.5t-27 -7.5h-171q-29 0 -53.5 -20.5
t-31.5 -49.5l-36 -170q-6 -29 10 -49.5t45 -20.5h100q27 0 48.5 -10t35.5 -28t19.5 -41.5t-0.5 -50.5l-36 -170q-6 -27 -21.5 -50.5t-36.5 -41.5t-47 -28t-53 -10h-230zM398 1000l-110 -125q-11 -11 -24.5 -18t-27.5 -7h-30l-68 150h30q14 0 25 -7t16 -18l36 -80l71 80
q10 11 24 18t28 7h30z" />
    <glyph glyph-name="scaron" unicode="&#x161;" 
d="M-101 34q8 11 21.5 18.5t26.5 7.5h171q29 0 53.5 20.5t31.5 49.5l29 140q7 29 -9.5 49.5t-45.5 20.5h-100q-27 0 -48 10t-35 28t-19.5 41.5t0.5 50.5t21 50.5t36.5 41.5t47.5 28t53 10h230l-24 -33q-9 -12 -22 -19.5t-27 -7.5h-170q-29 0 -54 -20.5t-31 -49.5t10 -49.5
t45 -20.5h100q27 0 48.5 -10t35.5 -28t19 -41.5t-1 -50.5l-29 -140q-6 -27 -21.5 -50.5t-36.5 -41.5t-47 -28t-53 -10h-230zM355 800l-110 -125q-10 -11 -24 -18t-28 -7h-30l-68 150h30q14 0 25 -7t16 -18l37 -80l70 80q10 11 24 18t28 7h30z" />
    <glyph glyph-name="uni0162" unicode="&#x162;" 
d="M-75 -140h60q21 0 38.5 14.5t22.5 35.5l-21 90l157 740h-150l24 34q9 11 22 18.5t27 7.5h300l-24 -33q-8 -12 -21.5 -19.5t-26.5 -7.5h-91l-157 -740l21 -90q-5 -23 -18 -43t-31 -35t-40 -23.5t-45 -8.5q-14 0 -24 7.5t-13 19.5z" />
    <glyph glyph-name="uni0163" unicode="&#x163;" horiz-adv-x="370" 
d="M-75 -140h60q21 0 38.5 14.5t22.5 35.5l-21 90h-20q-27 0 -48.5 10t-35.5 28t-19 41.5t1 50.5l129 610q3 14 12.5 25.5t23.5 17.5l37 17l-42 -200h150l-24 -33q-9 -12 -22 -19.5t-27 -7.5h-90l-87 -410q-7 -29 9.5 -49.5t45.5 -20.5h140l-24 -33q-8 -12 -21.5 -19.5
t-27.5 -7.5l21 -90q-5 -23 -18 -43t-31 -35t-40 -23.5t-45 -8.5q-14 0 -24 7.5t-13 19.5z" />
    <glyph glyph-name="Tcaron" unicode="&#x164;" 
d="M405 800l-24 -33q-8 -12 -21.5 -19.5t-26.5 -7.5h-91l-157 -740h-60l157 740h-150l24 34q9 11 22 18.5t27 7.5h300zM398 1000l-110 -125q-11 -11 -24.5 -18t-27.5 -7h-30l-68 150h30q14 0 25 -7t16 -18l36 -80l71 80q10 11 24 18t28 7h30z" />
    <glyph glyph-name="tcaron" unicode="&#x165;" horiz-adv-x="370" 
d="M50 540l-87 -410q-7 -29 9.5 -49.5t45.5 -20.5h140l-24 -33q-8 -12 -21.5 -19.5t-27.5 -7.5h-80q-27 0 -48.5 10t-35.5 28t-19 41.5t1 50.5l129 610q3 14 12.5 25.5t23.5 17.5l37 17l-42 -200h150l-24 -33q-9 -12 -22 -19.5t-27 -7.5h-90zM213 775q11 11 24.5 18t27.5 7
h30l-110 -125q-10 -11 -23.5 -18t-27.5 -7h-30z" />
    <glyph glyph-name="Utilde" unicode="&#x168;" 
d="M32 740q3 14 12.5 25.5t23.5 17.5l37 17l-142 -670q-7 -29 9.5 -49.5t45.5 -20.5h100q29 0 53.5 20.5t31.5 49.5l129 610q3 14 12.5 25.5t23.5 17.5l37 17l-142 -670q-6 -27 -21.5 -50.5t-36.5 -41.5t-47 -28t-53 -10h-100q-27 0 -48.5 10t-35.5 28t-19 41.5t1 50.5z
M136 900q-15 -25 -35 -25h-25q5 21 15.5 40t25.5 33.5t34.5 23t41.5 8.5q35 0 51.5 -16t27.5 -33q11 -15 19 -23t25 -8t28.5 8.5t19.5 21.5q14 25 34 25h25q-4 -21 -15 -40t-26 -33.5t-34.5 -23t-41.5 -8.5q-35 0 -51.5 16t-27.5 32q-10 16 -18.5 24t-25.5 8t-28.5 -8.5
t-18.5 -21.5z" />
    <glyph glyph-name="utilde" unicode="&#x169;" 
d="M-10 540q3 14 12.5 25.5t23.5 17.5l37 17l-100 -470q-7 -29 9.5 -49.5t45.5 -20.5h100q29 0 53.5 20.5t31.5 49.5l87 410q3 14 12.5 25.5t23.5 17.5l37 17l-100 -470q-6 -27 -21.5 -50.5t-36.5 -41.5t-47 -28t-53 -10h-100q-27 0 -48.5 10t-35.5 28t-19 41.5t1 50.5z
M93 700q-13 -25 -35 -25h-24q4 21 14.5 40t26 33.5t35 23t41.5 8.5q17 0 29.5 -4.5t21.5 -11.5t15.5 -16t11.5 -17q11 -15 19.5 -23t25.5 -8t28 8.5t19 21.5q14 25 35 25h25q-4 -21 -15 -40t-26 -33.5t-34.5 -23t-42.5 -8.5q-17 0 -29.5 4.5t-21.5 11.5t-15.5 15.5
t-11.5 16.5q-11 16 -19.5 24t-25.5 8q-16 0 -27.5 -8.5t-19.5 -21.5z" />
    <glyph glyph-name="Umacron" unicode="&#x16a;" 
d="M32 740q3 14 12.5 25.5t23.5 17.5l37 17l-142 -670q-7 -29 9.5 -49.5t45.5 -20.5h100q29 0 53.5 20.5t31.5 49.5l129 610q3 14 12.5 25.5t23.5 17.5l37 17l-142 -670q-6 -27 -21.5 -50.5t-36.5 -41.5t-47 -28t-53 -10h-100q-27 0 -48.5 10t-35.5 28t-19 41.5t1 50.5z
M394 966q-9 -12 -22 -19t-27 -7h-240l24 33q8 12 21 19.5t27 7.5h241z" />
    <glyph glyph-name="umacron" unicode="&#x16b;" 
d="M-10 540q3 14 12.5 25.5t23.5 17.5l37 17l-100 -470q-7 -29 9.5 -49.5t45.5 -20.5h100q29 0 53.5 20.5t31.5 49.5l87 410q3 14 12.5 25.5t23.5 17.5l37 17l-100 -470q-6 -27 -21.5 -50.5t-36.5 -41.5t-47 -28t-53 -10h-100q-27 0 -48.5 10t-35.5 28t-19 41.5t1 50.5z
M351 766q-8 -12 -21.5 -19t-26.5 -7h-241l24 33q8 12 21.5 19.5t27.5 7.5h240z" />
    <glyph glyph-name="Ubreve" unicode="&#x16c;" 
d="M32 740q3 14 12.5 25.5t23.5 17.5l37 17l-142 -670q-7 -29 9.5 -49.5t45.5 -20.5h100q29 0 53.5 20.5t31.5 49.5l129 610q3 14 12.5 25.5t23.5 17.5l37 17l-142 -670q-6 -27 -21.5 -50.5t-36.5 -41.5t-47 -28t-53 -10h-100q-27 0 -48.5 10t-35.5 28t-19 41.5t1 50.5z
M149 960q2 11 10.5 21t20.5 15l30 14l-11 -50q-5 -25 8.5 -42.5t38.5 -17.5t46.5 17.5t26.5 42.5q2 11 11 21t20 15l30 14l-11 -50q-5 -23 -18 -43t-31 -35t-39.5 -23.5t-44.5 -8.5t-41 8.5t-30 23.5t-16.5 35t0.5 43z" />
    <glyph glyph-name="ubreve" unicode="&#x16d;" 
d="M-10 540q3 14 12.5 25.5t23.5 17.5l37 17l-100 -470q-7 -29 9.5 -49.5t45.5 -20.5h100q29 0 53.5 20.5t31.5 49.5l87 410q3 14 12.5 25.5t23.5 17.5l37 17l-100 -470q-6 -27 -21.5 -50.5t-36.5 -41.5t-47 -28t-53 -10h-100q-27 0 -48.5 10t-35.5 28t-19 41.5t1 50.5z
M107 760q2 11 10.5 21t19.5 15l30 14l-10 -50q-5 -25 8.5 -42.5t38.5 -17.5t46 17.5t27 42.5q2 11 10.5 21t19.5 15l30 14l-10 -50q-5 -23 -18 -43t-31 -35t-40 -23.5t-45 -8.5q-22 0 -40.5 8.5t-30 23.5t-16 35t0.5 43z" />
    <glyph glyph-name="Uring" unicode="&#x16e;" 
d="M32 740q3 14 12.5 25.5t23.5 17.5l37 17l-142 -670q-7 -29 9.5 -49.5t45.5 -20.5h100q29 0 53.5 20.5t31.5 49.5l129 610q3 14 12.5 25.5t23.5 17.5l37 17l-142 -670q-6 -27 -21.5 -50.5t-36.5 -41.5t-47 -28t-53 -10h-100q-27 0 -48.5 10t-35.5 28t-19 41.5t1 50.5z
M236 850q-23 0 -41 8.5t-30 23.5t-16.5 35t0.5 43t18 43t31 35t40 23.5t44 8.5q23 0 41 -8.5t30 -23.5t16.5 -35t-0.5 -43t-18 -43t-31 -35t-39.5 -23.5t-44.5 -8.5zM272 1020q-25 0 -46.5 -17.5t-26.5 -42.5t8.5 -42.5t38.5 -17.5t46.5 17.5t26.5 42.5t-8.5 42.5
t-38.5 17.5z" />
    <glyph glyph-name="uring" unicode="&#x16f;" 
d="M-10 540q3 14 12.5 25.5t23.5 17.5l37 17l-100 -470q-7 -29 9.5 -49.5t45.5 -20.5h100q29 0 53.5 20.5t31.5 49.5l87 410q3 14 12.5 25.5t23.5 17.5l37 17l-100 -470q-6 -27 -21.5 -50.5t-36.5 -41.5t-47 -28t-53 -10h-100q-27 0 -48.5 10t-35.5 28t-19 41.5t1 50.5z
M193 650q-22 0 -40.5 8.5t-30 23.5t-16 35t0.5 43t17.5 43t30.5 35t40 23.5t45 8.5t41 -8.5t30 -23.5t16.5 -35t-0.5 -43t-18 -43t-31 -35t-40 -23.5t-45 -8.5zM229 820q-25 0 -46 -17.5t-26 -42.5t8.5 -42.5t38.5 -17.5t46.5 17.5t26.5 42.5t-9 42.5t-39 17.5z" />
    <glyph glyph-name="Uhungarumlaut" unicode="&#x170;" 
d="M32 740q3 14 12.5 25.5t23.5 17.5l37 17l-142 -670q-7 -29 9.5 -49.5t45.5 -20.5h100q29 0 53.5 20.5t31.5 49.5l129 610q3 14 12.5 25.5t23.5 17.5l37 17l-142 -670q-6 -27 -21.5 -50.5t-36.5 -41.5t-47 -28t-53 -10h-100q-27 0 -48.5 10t-35.5 28t-19 41.5t1 50.5z
M345 974q11 12 25 19t28 7h30l-110 -125q-10 -11 -24.5 -18t-28.5 -7h-29zM235 974q11 12 25 19t28 7h30l-110 -125q-10 -11 -24.5 -18t-28.5 -7h-29z" />
    <glyph glyph-name="uhungarumlaut" unicode="&#x171;" 
d="M-10 540q3 14 12.5 25.5t23.5 17.5l37 17l-100 -470q-7 -29 9.5 -49.5t45.5 -20.5h100q29 0 53.5 20.5t31.5 49.5l87 410q3 14 12.5 25.5t23.5 17.5l37 17l-100 -470q-6 -27 -21.5 -50.5t-36.5 -41.5t-47 -28t-53 -10h-100q-27 0 -48.5 10t-35.5 28t-19 41.5t1 50.5z
M303 774q10 12 24 19t28 7h30l-110 -125q-10 -11 -24 -18t-28 -7h-30zM193 774q10 12 24 19t28 7h30l-110 -125q-10 -11 -24 -18t-28 -7h-30z" />
    <glyph glyph-name="Uogonek" unicode="&#x172;" 
d="M73 -200q-23 0 -41 8.5t-30 23.5t-16.5 35t0.5 43l59 90h-40q-27 0 -48.5 10t-35.5 28t-19 41.5t1 50.5l129 610q3 14 12.5 25.5t23.5 17.5l37 17l-142 -670q-7 -29 9.5 -49.5t45.5 -20.5h100q29 0 53.5 20.5t31.5 49.5l129 610q3 14 12.5 25.5t23.5 17.5l37 17
l-142 -670q-6 -27 -21.5 -50.5t-36.5 -41.5t-47 -28t-53 -10l-59 -90q-5 -21 7 -35.5t32 -14.5h60l-23 -33q-9 -12 -22 -19.5t-27 -7.5z" />
    <glyph glyph-name="uogonek" unicode="&#x173;" 
d="M73 -200q-23 0 -41 8.5t-30 23.5t-16.5 35t0.5 43l59 90h-40q-27 0 -48.5 10t-35.5 28t-19 41.5t1 50.5l87 410q3 14 12.5 25.5t23.5 17.5l37 17l-100 -470q-7 -29 9.5 -49.5t45.5 -20.5h100q29 0 53.5 20.5t31.5 49.5l87 410q3 14 12.5 25.5t23.5 17.5l37 17l-100 -470
q-6 -27 -21.5 -50.5t-36.5 -41.5t-47 -28t-53 -10l-59 -90q-5 -21 7 -35.5t32 -14.5h60l-23 -33q-9 -12 -22 -19.5t-27 -7.5z" />
    <glyph glyph-name="Wcircumflex" unicode="&#x174;" horiz-adv-x="580" 
d="M525 800l-279 -771q-5 -13 -16 -21t-25 -8h-30l25 400l-134 -371q-5 -13 -16 -21t-25 -8h-30l50 800h30q14 0 21.5 -8t6.5 -21l-35 -571l134 371q5 13 15.5 21t24.5 8h31l-25 -400l206 571q5 13 16 21t25 8h30zM395 850q-13 0 -24 7t-16 18l-37 80l-71 -80
q-10 -11 -23.5 -18t-27.5 -7h-30l110 126q10 11 24 17.5t27 6.5h31l68 -150h-31z" />
    <glyph glyph-name="wcircumflex" unicode="&#x175;" horiz-adv-x="580" 
d="M483 600l-236 -571q-5 -13 -16.5 -21t-25.5 -8h-30l11 333l-120 -304q-5 -13 -16 -21t-25 -8h-30l8 600h30q14 0 21.5 -8t7.5 -21l-5 -413l123 313q5 13 16 21t25 8h30l-11 -342l171 413q5 13 16 21t25 8h31zM353 650q-14 0 -25 7t-16 18l-36 80l-71 -80q-10 -11 -24 -18
t-27 -7h-31l110 126q10 11 24 17.5t28 6.5h30l68 -150h-30z" />
    <glyph glyph-name="Ycircumflex" unicode="&#x176;" 
d="M405 800l-246 -450l-74 -350h-60l74 350l-54 450h30q14 0 22.5 -7.5t10.5 -20.5l41 -332l181 332q7 13 19 20.5t26 7.5h30zM335 850q-13 0 -24 7t-16 18l-37 80l-71 -80q-10 -11 -23.5 -18t-27.5 -7h-30l110 126q10 11 24 17.5t27 6.5h31l68 -150h-31z" />
    <glyph glyph-name="ycircumflex" unicode="&#x177;" 
d="M-95 -138q28 7 53 26.5t37 45.5l30 66l-22 600h30q29 0 31 -29l17 -451l208 451q6 14 17.5 21.5t25.5 7.5h31l-315 -680q-11 -24 -30.5 -46t-43.5 -38.5t-50.5 -26t-51.5 -9.5h-40l24 33q15 21 49 29zM293 650q-14 0 -25 7t-16 18l-36 80l-71 -80q-10 -11 -24 -18t-27 -7
h-31l110 126q11 11 24.5 17.5t27.5 6.5h30l68 -150h-30z" />
    <glyph glyph-name="Ydieresis" unicode="&#x178;" 
d="M405 800l-246 -450l-74 -350h-60l74 350l-54 450h30q14 0 22.5 -7.5t10.5 -20.5l41 -332l181 332q7 13 19 20.5t26 7.5h30zM223 930q-3 -14 -12.5 -25.5t-23.5 -17.5l-37 -17l15 70q3 14 12.5 25.5t23.5 17.5l37 17zM343 930q-3 -14 -12.5 -25.5t-23.5 -17.5l-37 -17
l15 70q3 14 12.5 25.5t23.5 17.5l37 17z" />
    <glyph glyph-name="Zacute" unicode="&#x179;" 
d="M322 740h-290l24 34q9 11 22 18.5t27 7.5h300l-6 -30q-3 -14 -9.5 -29.5t-14.5 -27.5l-417 -653h290l-24 -33q-8 -12 -21.5 -19.5t-27.5 -7.5h-300l6 30q3 14 9.5 29.5t14.5 27.5zM316 975q10 11 24 18t28 7h30l-110 -125q-10 -11 -24 -18t-28 -7h-30z" />
    <glyph glyph-name="zacute" unicode="&#x17a;" 
d="M280 540h-290l24 34q8 11 21 18.5t27 7.5h301l-7 -30q-3 -14 -10 -29t-17 -26l-371 -455h290l-24 -33q-8 -12 -21.5 -19.5t-27.5 -7.5h-300l6 30q3 14 10.5 29t16.5 26zM273 775q11 11 24.5 18t27.5 7h30l-110 -125q-10 -11 -23.5 -18t-27.5 -7h-30z" />
    <glyph glyph-name="Zdotaccent" unicode="&#x17b;" 
d="M322 740h-290l24 34q9 11 22 18.5t27 7.5h300l-6 -30q-3 -14 -9.5 -29.5t-14.5 -27.5l-417 -653h290l-24 -33q-8 -12 -21.5 -19.5t-27.5 -7.5h-300l6 30q3 14 9.5 29.5t14.5 27.5zM283 930q-3 -14 -12.5 -25.5t-23.5 -17.5l-37 -17l15 70q3 14 12.5 25.5t23.5 17.5l37 17
z" />
    <glyph glyph-name="zdotaccent" unicode="&#x17c;" 
d="M280 540h-290l24 34q8 11 21 18.5t27 7.5h301l-7 -30q-3 -14 -10 -29t-17 -26l-371 -455h290l-24 -33q-8 -12 -21.5 -19.5t-27.5 -7.5h-300l6 30q3 14 10.5 29t16.5 26zM240 730q-3 -14 -12.5 -25.5t-22.5 -17.5l-37 -17l14 70q3 14 12.5 25.5t23.5 17.5l37 17z" />
    <glyph glyph-name="Zcaron" unicode="&#x17d;" 
d="M322 740h-290l24 34q9 11 22 18.5t27 7.5h300l-6 -30q-3 -14 -9.5 -29.5t-14.5 -27.5l-417 -653h290l-24 -33q-8 -12 -21.5 -19.5t-27.5 -7.5h-300l6 30q3 14 9.5 29.5t14.5 27.5zM398 1000l-110 -125q-11 -11 -24.5 -18t-27.5 -7h-30l-68 150h30q14 0 25 -7t16 -18
l36 -80l71 80q10 11 24 18t28 7h30z" />
    <glyph glyph-name="zcaron" unicode="&#x17e;" 
d="M280 540h-290l24 34q8 11 21 18.5t27 7.5h301l-7 -30q-3 -14 -10 -29t-17 -26l-371 -455h290l-24 -33q-8 -12 -21.5 -19.5t-27.5 -7.5h-300l6 30q3 14 10.5 29t16.5 26zM355 800l-110 -125q-10 -11 -24 -18t-28 -7h-30l-68 150h30q14 0 25 -7t16 -18l37 -80l70 80
q10 11 24 18t28 7h30z" />
    <glyph glyph-name="uni0218" unicode="&#x218;" 
d="M-101 34q8 11 21.5 18.5t26.5 7.5h171q29 0 53.5 20.5t31.5 49.5l36 170q6 29 -10 49.5t-45 20.5h-100q-27 0 -48.5 10t-35.5 28t-19.5 41.5t0.5 50.5l36 170q6 27 21.5 50.5t36.5 41.5t47 28t53 10h230l-24 -33q-8 -12 -21 -19.5t-27 -7.5h-171q-29 0 -53.5 -20.5
t-31.5 -49.5l-36 -170q-6 -29 10 -49.5t45 -20.5h100q27 0 48.5 -10t35.5 -28t19.5 -41.5t-0.5 -50.5l-36 -170q-6 -27 -21.5 -50.5t-36.5 -41.5t-47 -28t-53 -10h-230zM-7 -75q10 11 24 18t28 7h30l-110 -125q-10 -11 -24 -18t-28 -7h-30z" />
    <glyph glyph-name="uni0219" unicode="&#x219;" 
d="M-101 34q8 11 21.5 18.5t26.5 7.5h171q29 0 53.5 20.5t31.5 49.5l29 140q7 29 -9.5 49.5t-45.5 20.5h-100q-27 0 -48 10t-35 28t-19.5 41.5t0.5 50.5t21 50.5t36.5 41.5t47.5 28t53 10h230l-24 -33q-9 -12 -22 -19.5t-27 -7.5h-170q-29 0 -54 -20.5t-31 -49.5t10 -49.5
t45 -20.5h100q27 0 48.5 -10t35.5 -28t19 -41.5t-1 -50.5l-29 -140q-6 -27 -21.5 -50.5t-36.5 -41.5t-47 -28t-53 -10h-230zM-7 -75q10 11 24 18t28 7h30l-110 -125q-10 -11 -24 -18t-28 -7h-30z" />
    <glyph glyph-name="uni021A" unicode="&#x21a;" 
d="M405 800l-24 -33q-8 -12 -21.5 -19.5t-26.5 -7.5h-91l-157 -740h-60l157 740h-150l24 34q9 11 22 18.5t27 7.5h300zM-7 -75q10 11 24 18t28 7h30l-110 -125q-11 -11 -24.5 -18t-27.5 -7h-30z" />
    <glyph glyph-name="uni021B" unicode="&#x21b;" horiz-adv-x="370" 
d="M50 540l-87 -410q-7 -29 9.5 -49.5t45.5 -20.5h140l-24 -33q-8 -12 -21.5 -19.5t-27.5 -7.5h-80q-27 0 -48.5 10t-35.5 28t-19 41.5t1 50.5l129 610q3 14 12.5 25.5t23.5 17.5l37 17l-42 -200h150l-24 -33q-9 -12 -22 -19.5t-27 -7.5h-90zM-47 -75q10 11 24 18t28 7h30
l-110 -125q-10 -11 -24 -18t-28 -7h-30z" />
    <glyph glyph-name="Wgrave" unicode="&#x1e80;" horiz-adv-x="580" 
d="M525 800l-279 -771q-5 -13 -16 -21t-25 -8h-30l25 400l-134 -371q-5 -13 -16 -21t-25 -8h-30l50 800h30q14 0 21.5 -8t6.5 -21l-35 -571l134 371q5 13 15.5 21t24.5 8h31l-25 -400l206 571q5 13 16 21t25 8h30zM198 1000h30q14 0 25 -7t16 -18l57 -125h-30q-14 0 -25 7
t-16 18z" />
    <glyph glyph-name="wgrave" unicode="&#x1e81;" horiz-adv-x="580" 
d="M483 600l-236 -571q-5 -13 -16.5 -21t-25.5 -8h-30l11 333l-120 -304q-5 -13 -16 -21t-25 -8h-30l8 600h30q14 0 21.5 -8t7.5 -21l-5 -413l123 313q5 13 16 21t25 8h30l-11 -342l171 413q5 13 16 21t25 8h31zM156 800h30q14 0 25 -7t16 -18l57 -125h-30q-14 0 -25.5 7
t-16.5 18z" />
    <glyph glyph-name="Wacute" unicode="&#x1e82;" horiz-adv-x="580" 
d="M525 800l-279 -771q-5 -13 -16 -21t-25 -8h-30l25 400l-134 -371q-5 -13 -16 -21t-25 -8h-30l50 800h30q14 0 21.5 -8t6.5 -21l-35 -571l134 371q5 13 15.5 21t24.5 8h31l-25 -400l206 571q5 13 16 21t25 8h30zM376 975q10 11 24 18t28 7h30l-110 -125q-10 -11 -24 -18
t-28 -7h-30z" />
    <glyph glyph-name="wacute" unicode="&#x1e83;" horiz-adv-x="580" 
d="M483 600l-236 -571q-5 -13 -16.5 -21t-25.5 -8h-30l11 333l-120 -304q-5 -13 -16 -21t-25 -8h-30l8 600h30q14 0 21.5 -8t7.5 -21l-5 -413l123 313q5 13 16 21t25 8h30l-11 -342l171 413q5 13 16 21t25 8h31zM333 775q11 11 24.5 18t27.5 7h30l-110 -125
q-10 -11 -23.5 -18t-27.5 -7h-30z" />
    <glyph glyph-name="Wdieresis" unicode="&#x1e84;" horiz-adv-x="580" 
d="M525 800l-279 -771q-5 -13 -16 -21t-25 -8h-30l25 400l-134 -371q-5 -13 -16 -21t-25 -8h-30l50 800h30q14 0 21.5 -8t6.5 -21l-35 -571l134 371q5 13 15.5 21t24.5 8h31l-25 -400l206 571q5 13 16 21t25 8h30zM283 930q-3 -14 -12.5 -25.5t-23.5 -17.5l-37 -17l15 70
q3 14 12.5 25.5t23.5 17.5l37 17zM403 930q-3 -14 -12.5 -25.5t-23.5 -17.5l-37 -17l15 70q3 14 12.5 25.5t23.5 17.5l37 17z" />
    <glyph glyph-name="wdieresis" unicode="&#x1e85;" horiz-adv-x="580" 
d="M483 600l-236 -571q-5 -13 -16.5 -21t-25.5 -8h-30l11 333l-120 -304q-5 -13 -16 -21t-25 -8h-30l8 600h30q14 0 21.5 -8t7.5 -21l-5 -413l123 313q5 13 16 21t25 8h30l-11 -342l171 413q5 13 16 21t25 8h31zM240 730q-3 -14 -12.5 -25.5t-22.5 -17.5l-37 -17l14 70
q3 14 13 25.5t23 17.5l37 17zM360 730q-3 -14 -12.5 -25.5t-22.5 -17.5l-37 -17l14 70q3 14 13 25.5t23 17.5l37 17z" />
    <glyph glyph-name="quoteleft" unicode="&#x2018;" horiz-adv-x="260" 
d="M45 800h30q14 0 25 -7t16 -18l57 -125h-30q-14 0 -25 7t-16 18z" />
    <glyph glyph-name="quoteright" unicode="&#x2019;" horiz-adv-x="260" 
d="M123 775q10 11 24 18t28 7h30l-110 -125q-10 -11 -24 -18t-28 -7h-30z" />
    <glyph glyph-name="quotesinglbase" unicode="&#x201a;" horiz-adv-x="260" 
d="M-37 25q11 11 25 18t28 7h30l-110 -125q-10 -11 -24.5 -18t-28.5 -7h-29z" />
    <glyph glyph-name="quotedblleft" unicode="&#x201c;" horiz-adv-x="370" 
d="M173 650h-29q-14 0 -25.5 7t-16.5 18l-57 125h30q14 0 25.5 -7t16.5 -18zM283 650h-29q-14 0 -25.5 7t-16.5 18l-57 125h30q14 0 25.5 -7t16.5 -18z" />
    <glyph glyph-name="quotedblright" unicode="&#x201d;" horiz-adv-x="370" 
d="M233 775q10 11 24 18t28 7h30l-110 -125q-10 -11 -24 -18t-28 -7h-30zM123 775q10 11 24 18t28 7h30l-110 -125q-10 -11 -24 -18t-28 -7h-30z" />
    <glyph glyph-name="quotedblbase" unicode="&#x201e;" horiz-adv-x="370" 
d="M73 25q11 11 25 18t28 7h30l-110 -125q-10 -11 -24.5 -18t-28.5 -7h-29zM-37 25q11 11 25 18t28 7h30l-110 -125q-10 -11 -24.5 -18t-28.5 -7h-29z" />
    <glyph glyph-name="bullet" unicode="&#x2022;" horiz-adv-x="280" 
d="M140 400q-4 -18 -14.5 -34.5t-25 -29t-32.5 -19.5t-37 -7q-38 0 -58.5 26.5t-12.5 63.5q4 19 14.5 35.5t25.5 28.5t33 19t36 7q38 0 58.5 -26t12.5 -64z" />
  </font>
</defs>
</svg>
